<?xml version="1.0" encoding="UTF-8"?>
<svg id="_レイヤー_1" data-name="レイヤー_1" xmlns="http://www.w3.org/2000/svg" version="1.1" viewBox="0 0 307.7 366.41">
  <!-- Generator: Adobe Illustrator 30.3.0, SVG Export Plug-In . SVG Version: 2.1.3 Build 182)  -->
  <defs>
    <style>
      .st0 {
        fill: #231815;
        fill-rule: evenodd;
      }
    </style>
  </defs>
  <path class="st0" d="M17.07,265.95c.02-.08-.18-.15-.84-.12.57-.02.8.04.84.12ZM3.52,265.83c.29-.03.42.08.45.22.08-.12.03-.27-.45-.22ZM142.09,215.82s0,0,0,0c-.04-.01-.06-.09-.05-.25-.1.1-.11.19.04.25ZM142.41,215.32s0,0,0,0c0,.14-.09.33-.18.43.09-.1.19-.29.19-.43ZM34.18,266.26c.21-.15.19-.42-.7-.43.72,0,.81.25.7.43ZM138.9,222.58c-.03-.05-.04-.11-.01-.19-.03.04-.03.12.01.19ZM17.07,265.95c-.03.14-.8.29-.84-.12.05.55.93.3.84.12ZM138.89,222.39s.08-.01.11,0c-.04-.04-.09-.03-.11,0ZM157.86,65.16s0,0,0,0c0-.12-.08-1.09-.21-1.11,0,0,0,0,0,0,.09.02.22.97.21,1.1ZM137.13,213.12s-.15-.04-.18-.33c.01.09.03.26.04.47.04.04.09.08.16.09.01-.08,0-.16-.02-.24ZM159.58,26.12c0-.96-.14,0,0,0h0ZM163.46,22.48c.07-.08.33-.46.22-.46-.29.47-.29.53-.22.46ZM157.65,64.06s0,0,0,0c.06.38.14.74.21,1.11,0,.01,0,.02.01,0,0-.07-.18-.96-.21-1.1ZM125.31,302.04c.11-.01.23-.02.34-.03-.08,0-.19,0-.34.03ZM173.4,17.72c.13-.04.18-.1-.23,0,.11-.03.18-.02.23,0ZM117.83,307.29s-.07.04-.07.14c0-.08.03-.12.07-.14ZM193.21,16.42c.07,0,.11.02.13.05.05-.02.05-.06-.13-.05ZM149.25,24.98c.01-.07,0-.13-.07-.15-.01,0-.03.01-.04.02.06.02.1.07.11.13ZM238.69,157.18c.14,0,0-.22,0,0h0ZM34.18,266.26c-.22.16-.71.18-.7-.43-.02.78.54.67.7.43ZM121.02,294.02s-.05.03-.02-.17c-.05.28,0,.25.02.17ZM193.34,16.47s-.13.02-.13-.05c0,.43.22.16.13.05ZM117.83,307.29c.1-.01.22.18-.07.14.41.06.19-.18.07-.14ZM159.49,11.74s0,0,0,0c.12-.06.09-.04,0,0ZM121.02,294.02s.06-.17-.02-.17c.06,0,.04.1.02.17ZM139.11,222.71c0-.09-.02-.19-.05-.29-.02-.02-.03-.03-.05-.04.04.04.08.14.1.32ZM138.88,222.39s0,0,0,0c0,0,0,0,0,0,0,0,0,0,0,0ZM152.45,206.81c-.02.12-.16.16-.2-.26.01.15.02.3.03.44.03.08.07.17.15.23.08-.09.07-.26.02-.41ZM152.45,206.81c0-.05,0-.12-.06-.17-.01,0-.03,0-.04,0,.04.05.07.11.1.17ZM50.82,296.62s0-.03-.01-.05c0,.02,0,.04.01.05,0,0,0,0,0,0ZM152.36,206.63s-.07-.07-.11-.09c-.01.05.03.07.11.09ZM173.4,17.72c-.1.03-.23.06-.23,0,0,.79.52.13.23,0ZM139.63,156.92s-.02-.11-.06-.09c0,0,0,0,0,.01.03-.02.07.03.06.08ZM138.97,117.36c0-.05,0-.12,0-.17,0,0,0,0-.01,0,.02.03.02.09.02.17ZM139.54,156.97s.02-.08.03-.12c-.02.01-.03.05-.03.12ZM151.39,149.02s-.06-.01-.09-.02c0,0,0,0,0,0-.04,0-.05,0-.07-.01,0,.03.01.05.02.07.07.18.15.09.15-.05ZM151.37,148.93c-.03-.07-.09-.14-.19-.15,0,.08.04.14.05.22.02,0,.05,0,.07.01.04-.03.06-.06.07-.08ZM182.92,66.27c-.04.08-.11.14-.22.14.01,0,.09-.07.19-.16,0,0-.01-.02-.03-.03-.07,0-.14,0-.22,0-.2.77.36.26.27.06ZM61.67,177.11c.03.2.36-.42.05-.31.08,0,0,.21-.05.31ZM138.94,116.29c-.03.08-.05.14-.06.21.02,0,.12-.21.06-.21ZM182.92,66.27s.03-.03.03-.05c-.01,0-.02,0-.03,0-.01.01-.02.02-.03.03.01,0,.02.02.03.03ZM212.49,52.11s0,0-.01,0c-.12,0-.3-.02-.3-.11,0,.7.72.37.31.12ZM138.94,115.15c-.03.08-.05.14-.06.21.02,0,.12-.21.06-.21ZM148.05,197.11c.06-.01.11-.03.11-.05-.13,0-.13.03-.11.05ZM138.95,117.19s0-.04-.02-.04c0,.03,0,.04,0,.06,0-.01,0-.02.02-.03ZM212.48,52.1s0,0,0,0c-.03-.02-.09-.04-.13-.05.04.02.08.03.13.05ZM138.97,117.36c-.01.09-.04.11-.03-.15,0,0,0,0,0,0,0,.07,0,.16-.01.26,0,.06,0,.12.02.19,0,0,.02-.17.03-.31ZM211.97,50.69c0,.14.14,0,0,0h0ZM105.94,99.67s0-.04-.03-.04c-.01.05-.02.09-.03.12.01-.03.04-.06.06-.08ZM105.91,99.81s-.05.04-.03-.06c-.03.06-.04.12-.03.18,0,0,.03-.05.06-.12ZM176,148.75c-.11.06-.06.07.18.02-.11.03-.16,0-.18-.02ZM163.53,158.37s.03.04.02.06c0-.02,0-.04-.02-.06ZM163.55,158.43s0,0,0,.01c0,0,0,0,0-.01ZM105.95,99.68s0-.01,0-.02c0,0,0,0,0,0,0,0,0,0,0,.01ZM163.53,158.37s-.1-.04-.06.11c-.03-.14.02-.14.06-.11ZM176.08,148.71s-.06.03-.09.04c0,0,0,0,0,0,.02-.01.05-.02.08-.04ZM190.76,61s-.05-.03-.35.04c.29-.07.36-.07.35-.04ZM58.18,171.81c-.01.11,0,.25.09.25,0-.09-.04-.17-.09-.25ZM61.64,177.17s.01-.02.03-.06c0-.02,0-.06,0-.1-.01.05-.02.11-.03.16ZM190.76,61s-.35.13-.35.04c0,.1.33,0,.35-.04ZM85.16,152.74s.08.05.05.13c.03-.17,0-.21-.05-.13ZM85.16,152.74s0,0,0,0c-.01.02-.03.04-.04.07.02-.03.03-.05.05-.07ZM127.25,184.13c0,.14.22,0,0,0h0ZM150.67,55.93c-.87,0-.1.29,0,0h0ZM233.31,74.41c-.13-.07-.24-.11-.34-.1.15.06.27.1.34.1ZM260.03,363.29c.01-.07.05-.11.1-.12-.04-.03-.09,0-.1.12ZM260.29,363.2c-.06-.03-.11-.03-.15-.03.09.06.16.3-.1.3.29.01.38-.08.25-.28ZM217.66,129.23c.05,0,.1-.04.13-.09-.11-.03-.2-.09-.23-.2-.02.03-.04.07-.07.11.02.07.07.13.16.18ZM236.32,334.37s-.09.02-.14.02c0,.02.03.02.14-.02ZM238.69,72.04c.14,0,0-.14,0,0h0ZM3.26,249.44c-.08-.03-.16-.14-.18-.43.03.44.12.5.18.43ZM238.04,329.25c-.02.05-.03.03,0-.26-.05.44-.03.39,0,.26ZM222.03,328.44c.08,0,.11,0,.12,0,0-.02-.07-.05-.27-.09,0,.05.08.08.15.1ZM238.04,329.25c.02-.07.05-.26,0-.26.03,0,.01.16,0,.26ZM273.42,361.62c-.02-.07-.03-.14-.03-.14,0,.16,0,.32.01.48-.01-.16,0-.27.02-.35ZM218.43,124.87c.07-.02.14-.05.14-.05-.04,0-.08,0-.13.02.03,0,.02.02,0,.03ZM2.22,301.82s.02-.26.04-.65c-.19.03-.21.25-.04.65ZM207.01,288.24c0,.14.25.25,0,0h0ZM125.79,302s-.1,0-.14.01c.04,0,.06,0,.09,0,.03,0,.06-.02.06-.02ZM222.03,328.44s0,0,0,0c0,0,0,0,0,0,0,0,.01,0,.01,0ZM232.07,329.49s.01.05.02.07c-.01-.03-.02-.04-.03-.06-.04.02-.06.06-.05.14.83.28.25-.22.06-.15ZM292.72,225.7s0,0,0,0c-.01.03-.02.04,0,0ZM217.79,129.14c.69.19,2.49-.8-.22-.41-.02.08-.02.15,0,.21.34-.51.39-.02.23.2ZM3.26,249.44c.22.08.5-.55-.18-.43.3-.05.27.33.18.43ZM218.33,124.89s0,0-.01,0c.04,0,.09-.01.12-.03-.04.01-.07.02-.1.02ZM149.67,51.77c-.04.08-.05.15-.07.21.03-.04.11-.21.07-.21ZM239.34,71.6c-.04.12-.06.22-.07.32.04.04.22-.27.07-.32ZM149.21,25.07c-.05-.04-.14-.06-.18-.09.03.2.12.18.18.09ZM139.83,305.14s0,0,0,0c0,0,0,0,0,0,0,0,0,0,0,0ZM129,269.03c.13-.02.6.19-.03.03.84.22.18-.07.03-.03ZM292.73,225.69s0,.01,0,.02c.29-.7.08-.19,0-.02ZM149.14,24.84s-.07-.03-.12-.02c0,.04,0,.06,0,.1.02-.02.05-.05.11-.08ZM125.74,302.02c-.12.04-.43.12-.43.02,0,.24.71.01.43-.02ZM149.24,25.11s.01-.09,0-.13c0,.03-.02.07-.04.09.01,0,.02.02.03.03ZM149.24,25.11c-.01.08-.04.15-.07.19.08-.09.1-.15.07-.19ZM273.42,361.62c.03.14.06.35-.02.35.1,0,.21-.05.31-.13.13-.22-.2-.59-.29-.22ZM271.91,265.32s.01.01.02.02c0-.02.01-.03.02-.05,0-.02-.01,0-.04.03ZM271.89,265.36s.01-.03.02-.04c-.02-.03-.02-.08-.02-.14,0,.09,0,.14,0,.18ZM222.34,339.37s0,0,0,0c.07-.02.18.04.2.1.05.02.07.04.07.05.04-.04-.18-.19-.27-.15ZM307.46,293.53c.29-.47.37-2.51-.03-3.03-.78-1.01-.18-4.1-.18-5.56,0-1.49,0-2.98-.12-4.46-.11-1.47-.28-2.66-.22-4.19.02-.5.36-3.43.02-3.6-.19-.09-.28-.36-.34-.55-.49-1.56-.2-14.3-.64-14.3.21-1.44-.26-1.79-.3-2.97-.04-1.45.13-2.97.15-4.43.03-1.63.54-4.74-.11-6.08-.28-.58-.27-1.95-.23-2.69.05-.95-.07-1.74-.18-2.67-.1-.85.28-1.19.15-2-.15-.93-.34-1.86-.38-2.8-.08-1.74.22-3.99.42-5.83.19-1.7-.22-3.64-.35-5.42-.06-.93-.62-8.44-.47-8.44.52-1.55-.22-3.45-.07-5.03.08-.84-.27-1.78-.36-2.73.29,0,.38-1.79.37-2-.04-.87.17-1.15.97-1.73.91-.66.62-1.22.4-2.17-.19-.86-.23-2.09-.75-2.83-.27-.38.06-.93-.17-1.38-.68-1.35-.21-3.42-.35-4.89-.13-1.3-.29-2.35-.57-3.71-.4-1.98-.51-3.89-.67-5.9-.11-1.4.32-3.51-1.02-4.39-.89-.59-3.21.11-4.49,0-1.57-.14-2.9-.78-4.73-.52,0-1.02-6.87-.1-7.62-.52-.97-.54-3.63-.48-4.67-.13,0-.37-3.13-.3-3.4-.31-3.36-.06-6.13-.35-9.32-.12,0,.09-6.77-.23-7.69-.28-1.94-.1-3.89.11-5.83.13-1.25,0-2.27-.59-3.58-.42-.76.09-1.72.5-2.47-.03-.61-.44-2.04-1.9-2.39-2.58-.35-.66-1.79-3.72-2.6-3.72,0-1.36-1.89-1.79-1.91-3.14,0-.74-.04-1.4.57-1.68.35-.16.5-.56.58-.91.35-1.55.63-2.3.11-3.87-.55-1.71-1.53-3.07-2.21-4.64-.52-1.19,2.42-1.47,2.42-2.58,1.01,0,3.08-7.7,2.48-8.36-.89-.98.37-5.64,1.64-6.31.79-.41,1.69.1,2.56.22,0-.42,1.28-.59,1.56-.74,1.46-.83,4.38-2.55,4.98-4.42.5-1.54.72-2.77.99-4.41.29-1.76.47-2.98.22-4.9-.18-1.37-.65-2.62-.93-3.87-.9-4.08-3-7.72-3.95-11.73-.08-.34-.21-1.18-.72-1.18-.07-.79-.14-1.58-.21-2.37-.45-1.34-.42-1.3.15-2.41.81-1.56,1.12-3.03,2.26-4.38.82-.96.29-4.81-1.12-5.28-1.52-.5-2.05-3.87-2.54-5.16-1.15-3.01-4.02-4.99-5.5-7.8-1.54-2.91-1-5.83-1.15-8.97-.34-7.1-8.94-8.76-12.25-13.92-1.35-2.1-2.74-3.81-5.19-4.61-2.95-.97-6.19-.85-9.07-2.09-3.2-1.38-5.79-3.82-8.97-5.24-1.54-.69-4.48-.56-5.56-2.01.92-.39,2.68-1.14,3.22-1.72.63-.67.84-.35.94-1.37.05-.51.05-1.17.3-1.65.86-1.6-.43-3.06-.86-4.73-.38-1.5-.9-2.69-1.33-4.17-.41-1.44-1.48-2.45-2.05-3.81-.6-1.43-1.39-3.47-2.36-4.67-.5-.62-.66-1.51-1.14-2.37-.43-.76-.34-1.83-.97-2.48-.36-.37-.83-.36-1.25-.98-.36-.52-.89-.99-1.15-1.57-.2-.45-.37-.85-.86-1.05-.32-.13-.65-.23-.96-.38-.2-.09-.44-.22-.66-.24-.22-.02-.36.09-.58.14-.02,0-.11-.52-.12-.56-.15-1.1-.08-2.23-.29-3.32-.09-.46-.21-.97-.52-1.34-.35-.42-.92-.63-1.42-.78-.65-.19-1.39-.36-2.06-.23-.55.11-1.03.01-1.58-.11-1.5-.33-3.28.36-4.59-.57-.44-.32-1.73-1.19-2.28-1.41-.74-.28-1.72-.32-2.34-.87-.9-.78-2.31-1.27-3.44-1.51-1.76-.38-3.6-.16-5.36-.55-.77-.17-3.43-.42-3.92,0-1.17,1.01-3,.27-4.09,1.7-.98,1.28-1.56,3.05-1.64,4.55-.13,2.51-3.59,3.38-5.04,5.06-.77.89-1.93,1.54-2.54,2.54-.37.62-.34.92-.87,1.44-.4.39-.81.96-.81,1.54-.46.86-.59,1.88-.95,2.78-.44,1.11-1.05.96-1.91,1.63-1.05.82-1.96,2.75-1.23,4.06.56,1,.99,3.4,1.09,4.56.06.64-.19,1.27-.28,1.91-.27,1.77-.5,3.58-.6,5.37-.02.39-.53,1.12-.64,1.62-.21,1.01-.34,2.05-.42,3.08-.07.92-.57,1.9-.28,2.81.18.57,2.04,2.06,1.54,2.56,0,1.02-6.69,1.7-7.59,2.23-.95.55-1.65,1.08-2.25,1.95-.74,1.06-1.97,1.67-2.56,2.77-.47.89-2.89,1.72-3.83,2.15-2.29,1.04-4.3,2.03-6.29,3.63-.8.64-1.32,1.67-2.32,2.05-.89.33-1.81,1.05-2.55,1.76-1.27,1.23-2.85,1.76-3.67,3.63-.61,1.4-1.63,2.6-2.37,4.03-1.44,2.78-3.11,5.75-3.89,8.8-.92,3.61-5.2,4.54-7.53,6.95-.85.88-1.61,1.84-2.31,2.82-.56.77-.73,1.85-1.34,2.55-1.39,1.57-2.43,3.41-1.45,5.43,1.09,2.21.41,7.41,3.38,7.91-.63,2.86-1.35,4.93-1.56,7.8-.19,2.62-1.14,6.18-.38,8.75.68,2.28,1.52,5.52,3.5,7.49,1.23,1.22,2.02,2.87,3.26,4.13,1.05,1.07,2.1,3.08,2.74,4.39,1.47,3.01,3.4,5.69,5.06,8.45,1.52,2.52,3.38,5.39,3.31,8.47-.06,2.64-1.27,4.86-1.48,7.41-.12,1.42-.13,2.86-.2,4.28-.04.85-.39,2.27-.12,3.01.3.82,1.01,3.64.09,3.95-1.57-.24-3.76.1-5.13-.18-.41-.08-1.87-.24-2.69,0-1.48.43-3.41.17-4.94.18-3.43.02-6.89.16-10.3-.21v.22c-.73.1-1.49-.43-2.22-.49-.89-.07-1.78.09-2.68.04-1.12-.06-1.99-.21-3.09.01.36-1.07,1.36-1.71,1.73-2.8.23-.7.53-1.4.85-2.06.5-1.02,1.16-2.02,1.77-3.02.78-1.28,1.24-2.41,1.75-3.88.47-1.37,1.24-2.46,1.7-3.77.39-1.1,1.87-1.96,2.01-3.11.13-1.04-1.39-3.21-2.48-3.57,0-1.26-2.77-2.14-3.72-2.19-1.09-.05-2.29.57-3.32.87-2.56.74-3.27,4.64-4.59,6.74-1.56,2.48-2.77,5.36-3.99,8.16-.52,1.2-1.11,2.27-1.51,3.62-.33,1.12-1.5,2.46-1.55,3.52-.14,2.9-4.83-.76-4.83,2.13-.4,0-.55-.21-.43-.65-.86.43-2.64.22-3.66.22.48-1.32.96-2.66,1.56-3.93.28-.58.45-1.07.7-1.68.32-.79.89-1.03,1.29-1.81,1.24-2.42,2.6-4.72,3.43-7.52.18-.59.38-2.43.76-2.85.45-.49,1.23-1.49,1.31-2.26.6-.07,1.06-.4,1.09-1.04.15-2.91-2.35-5.29-4.94-5.82-2.21-.45-5.22-.38-6.25,1.96-1.21,2.73-2.72,5.25-4.08,7.93-1.46,2.87-2.59,5.57-4.49,8.09-1.01,1.35-1.91,3.37-2.53,4.89-.32.8-.86,1.5-1.11,2.32-.16.51-.14.4-.58.62-.28.14-.56.38-.76.63-.3.37-.33,1.19-.83,1.41-.39.17-.96-.02-.96-.52-1.26.18-2-.13-3.28-.08-1.52.06-4.95-1.44-4.48,1.37-1.6-.4-2.26,2.58-2.7,3.83-.85,2.4-2.39,4.11-3.44,6.35-.29.61-.47,2.01-.92,2.39-.61.53-.91,1.62-1.18,2.35-.47,1.28-1.1,2.28-1.64,3.6-.93,2.31-2.27,4.54-3.4,6.85-.71,1.45-2.46,3.31-2.46,5.01-.72,0-2.09,4.19-2.64,4.74-.57.57-1.45,1.74-1.45,2.59-.73.37-1.15,1.63-1.39,2.35-.48,1.47-2,2.94-2.43,4.55-.53,1.98-2.15,3.8-2.95,5.59-1.32,2.97-2.69,5.78-4.19,8.61-1.18,2.23-2.29,4.41-3.71,6.51-.66.97-.99,1.98-1.56,2.94-.43.71-.09.8-.92.96-.45.08-.79.33-.99.74-1.29,2.73.32,6.29-.62,9.13h.43c-.28,1.68-.29,3.36-.55,4.87-.09.49.07,1.6-.09,1.6,0,.93-.19,2.09.07,2.99.1.35.94,3.27,1.01,3.27.18.75-.65,2.3-.65,3.45.22-.17.21-.26.43-.43.2.4-.89,1.72-.22,1.72-.04-.21-.02-.41.06-.59.56.12-.01,5.75,0,6.39.03,1.05.55,1.7.48,2.92-.02.29-.26,1.63.31,1.63.09.51-.52,1.06-.27,1.58.3.62.37,2.21.31,3.21-.05.77.18,3.11.05,3.32-.1.16.57,2.5.58,3.01.04,1.11-.02,2.22-.02,3.33-.14-.07-.29-.14-.43-.22v.86c.28-.18.32-.43.65-.43.01.51-.11,2.76-.17,3.88.05,0,.1-.01.17,0-.1.26.18,2.15.16,2.8-.01.54-.05,1.13.07,1.66.12.48-.16.81-.02,1.36h.21c-.27,1.91.25,2.98.37,4.83.14,2.2-.22,4.42-.02,6.62.02.22.03.63.21.8.21.18-.31.81-.18,1.17.24.68-.32,2.43.15,3.02,1.02,1.27-.44,4.06.3,5.57.52,1.07-.03,3.31.02,4.55.06,1.24.21,2.47.26,3.7.04.87-.27,1.3-.34,2.04-.17,1.89.29,3.89.27,5.81-.02,1.31-.04,2.62.04,3.93.04.62-.12,1.64,0,2.16h.22c-.59,1.78-.32,5.05.36,6.74.29.72.85,1.8,1.15,2.1.54.54,2.2.01,3.02.22v-.22c.48.07,1.73.53,1.73-.22-.24-.09-.86-.02-.86-.43.43,0,1.94-.06,1.94.65.39,0,1.17-.35,1.51-.22v.22c.4-.02,1.29-.1,1.29-.65-.63-.41-2.08.22-2.8.22,0-.7,3.03-.82,3.8-.91.61-.07.86-.69,1.3-.11.26.34.53-.1,1.04.53.31.32.64.63.98.92.92-.11,1.05-.66.98-1.47-.07-.91.39-1.43.7-2.22.61-1.52,1.89-2.82,2.83-4.08,1.93-2.58,2.49-6.05,4.84-8.55.94-1,.05-2.51-.25-3.83-.24-1.06.12-2.14-.04-3.19-.24-1.52-.13-3.14-.07-4.67.04-.92-.31-1-.52-1.87-.63-2.65-.44-5.46-.82-8.15-.21-1.47-.24-2.69-.16-4.27.06-1.13-.42-2.35-.49-3.56-.14-2.39-.13-4.96-.31-7.06-.08-.89,0-10.89-.23-10.89.15-1.36.08-3.06-.01-4.29-.11-1.5-.23-2.99-.38-4.49-.13-1.25-.55-2.54-.25-3.72-.23,0-.48-3.11-.43-3.45h.22c-.23-2.02.32-4.32.2-6.27-.19-2.87-.13-5.52-.41-8.39,1.07,0,2.47-.27,3.45.22v-.22c.87.06,2.66.78,3.45.22,1.18,3.12-.21,6.38.48,9.63.6,2.83.36,6.13.39,9.07.03,2.6.64,4.94.76,7.51.03.71-.07,2,.41,2.6.06.07-.39,1.35-.39,1.64,0,.45.07,1.42.21,1.97.1.41-.05,1.68.23,2.15.5.84.17,2.59.29,3.69.1.91.27,1.86.19,2.78-.07.91-1.33,1.31-1.33,2.3,2.05-.27.88-.04,2.02,1.16.35.37,1.86,1.98,1.86.56.4.48,1.4.07,1.78-.22.58-.44,1.28.12,1.97-.05.76-.2,1.89.09,2.62.32.84.26,2.26-.21,3,.37.52.41.83-.11,1.3.38.25.26,1.72-.15,2.05-.15-.15-.59-.55-.85-1.08-1.08.07-.43.14-.86.21-1.29.36,0,.62-1.19.68-1.43.35-1.29.91-2.87,1.68-3.87,1.05-1.36,1.57-3.67,2.16-5.27,1.5-.4,1.16-2.57.95-3.68-.38-1.96-.79-3.58-.85-5.61-.08-2.61-.07-5.23-.04-7.84.05-4.93.12-9.85-.21-14.77,2.49,0,5.03.42,7.52.21,1.53-.13,3.19-.47,4.72-.26,1.26.18,2.42.32,3.74.28.88-.03,1.75-.22,2.63-.22.61,0,1.29.35,1.87.22,0-1,7.56.12,8.41,0v-.22c1.84.46,3.24.04,4.93.15,1.67.12,3.58.53,5.19.51.55,0,5.4-.44,5.4.2,1.04-.35,3.93-.52,4.96,0v-.22c1.94.28,3.89.49,5.84.74.13.02,1.92.18,1.92.33.6.15.6-.19,1.07.03.29.13.65.15.96.16,3.91.2,7.45-.47,10.89.02.13-.31,2.24-.2,2.52.04,1.17,1,.98,1.71,1.43,3.02.59,1.71.51,3.24.72,5,.2,1.7.94,3.47.94,5.17,0,1.56.4,2.4.01,3.88-.31,1.17-.85,2.43-1.95,3.16,0,1.48-2.89,2-3.23,3.02-.14-.07-.29-.14-.43-.22,0,1.79-3.03,2.46-4.23,2.72-1.63.35-3.77,1.52-4.86,2.79-.49.58-.99,1.29-1.43,1.91-.42.59-1.14.65-1.43,1.4-.3.75-.88,2.64-.34,3.04.21-.44.91-2.59,1.08-2.59,0,1.14-.43,2.33-.43,3.23-.39.2-.67-.15-.86-.22,0,2.6-1.91,5.66-.12,8.04,1.8,2.4,6,3.6,8.74,4.51,3.05,1.01,6.36,1.53,9.41.25.62-.26,4.62-2.65,5.26-2.44.33.11,1.13-.49,1.61-.54,1.24-.14.95-.34,1.85-.98.6-.42,1.48-.74,2.17-1.04.65-.28,1.99-.63,2.34-1.33,1.07,0,2.4-.55,3.24-1.2.46-.35.71-.82,1.27-1.05.61-.25,1.12-.06,1.57-.65.65-.88,1.87-.78,2.73-1.53,1.6-1.4,3.81-2.7,4.53-4.73.69-1.94,2.18-3.6.88-5.73-.48-.79-1.14-1.46-1.68-2.26-.59-.89-1.58-.73-2.49-1.32-1.09-.7-1.62-.93-2.18-2.09-.36-.74-1.08-2.08-.45-2.87.75-.95,1.24-2.08,1.12-3.37-.07-.75-.78-1.51-.99-2.32-.18-.67-1.35-3.09-2.12-3.12.19,0,.45-4.3.39-4.64-.25-1.48-.42-2.83-.42-4.34s1.55-.92,2.5-.76c1.62.27,3.24-.51,4.61-.06v-.22c2.66.24,4.89.41,7.58.49,1.88.06,3.78.4,5.64.43.29,0,1.44-.87,1.44-.06.47.07,1.07-.07,1.51-.22v.22c1.49-.2,3.13.11,4.74.22v-.22c.36.07.72.14,1.08.22v-.22c2.14-.25,4.16.31,6.06.62,2.27.37,4.47.53,6.72.59,4.09.11,8.66.98,12.96,1.16.13,0,.75,4.08,1.22,4.64.25.3.59,1.77.6,2.1.08,2.41.53,4.85.89,7.23.18,1.19.35,2.4.64,3.57.4,1.63,1.74,2.88,1.78,4.66.04,1.57-1,3.07-1.05,4.73-.02.77-.17,2.33.25,3.23-.07-.11-.16-.19-.33-.19.07.35.04.86.39,1.09.76.49.34,1.04.19,1.93-.15.91-.7,1.38-.95,2.29-.38,1.39-.91,2.81-1.13,4.39.97,0-.43,3.32-.61,3.72-.78,1.72-2.92,2.29-4.24,3.48-4.21,3.82,1.41,9.24,4.3,11.85,1.32,1.19,2.06,2.31,3.82,2.9,1.37.46,2.91,2.84,4.27,2.84.43.64,1.53,1.72,2.37,1.72.63.93,1.15.98,1.96,1.39,1.78.9,3.63,2.4,5.32,3.59.76.53,1.66,1.17,2.5,1.56,1.02.47,1.62.2,2.41.13.64-.05,2.47-.16,3.22-.82.73-.63,2.41-1.3,3.41-1.59,1.48-.44,2.67-1.39,4.11-1.92,1.16-.43,1.87-1.35,2.88-2.02.73-.48,1.08-.23,1.22-1.13.05-.4.17-.78.36-1.13.78-.39.6-1.73.9-2.29.36-.67.34-1.02.18-1.81.34,0,.29-2.12.22-2.59-.38,0-.51-.85-.56-1.07-.13-.59-.37-.47-.79-.87-.38-.37-.9-.37-1.03-.96-.07-.31,0-.84-.27-1.08-.39-.33-1.21-.84-1.55-1.34-.25-.38-.37-1-.56-1.42-.22-.47-.71-.69-.83-1.14-.31-1.18-2.22-.3-2.34-1.91-.06-.83.21-1.06-.6-1.46-.51-.25-1.07-.56-1.34-1.09-.31-.6-1.01-1.48-1.45-1.92-.8-.8-1.05-1.87-1.56-2.84-.28-.52-.65-1.85-1.02-2.2-.46-.45-1.81-1.58-1.84-2.24-.05-.93-.12-1.86-.11-2.79,0-.97.51-1.71.18-2.61-.18-.5.41-1.41.42-2.04.02-2.23-.13-4.82-.13-7.25,0-2.06.35-3.66,1.09-5.65.61-1.65,2.23-3.82,2.23-5.53.06,0,1.21-3.47,1.08-3.88.23,0,1.09-3.66,1.21-4.15.39-1.59,1.54-.29,2.52-.79,1.13-.57,1.55.26,2.6.23,1.39-.04,2.61.2,4.07-.11.84-.18,1.88.14,2.42-.2.08-.05,1.89.01,1.79-.07.68.59,3.18-.03,4.24-.04,2.41-.02,2.32,1.67,2.4,3.76.05,1.41.05,4.02.65,5.15.64,1.2.22,3.41.18,4.7-.04,1.59-.22,3.26-.02,4.85.69,5.51.85,11.56,1.39,17.38.18,1.89-.36,4.82.34,6.26.41.85.04,3.03-.06,4.2-.25,2.96,1.06,5.63,1.04,8.56-.01,1.57-.04,3.14-.05,4.71-.02,2.86.16,5.71.14,8.5-.01,2.04.11,4.09.35,6.12.07.56.1,1.2.32,1.73.25.6-.16,1.32-.08,1.99.39,3.37.61,6.78.82,10.16.08,1.35-.56,4.68,1.02,5.56,1.19.66,1.12-.31,2.24-.23.26.02,1.87-.31,1.84-.12,0-.05,2.47-.82,2.47-.19.81.04,1.54-.24,2.37-.22v.22c.26-.05,1.08.04,1.08-.43.6-.18.94.27,1.51.22v-.22c.24-.03.85,0,.97-.01.6-.05-.05-.3,1-.2.76.08,1,.56,1.47,1.29,1.01-.17,1.43-.31,2.06-1.23.52-.76.54-2.11,1.04-2.72,2.46-3.01,2.72-7.24,4.33-10.62.37-.77,1.54-4.62,2.27-4.62.2-.72-.43-1.85-.62-2.53-.25-.9.45-1.94.09-2.77-.09-.2-.48-2.04-.11-2.04-.09-1.99-.17-3.98-.2-5.98-.03-1.67-.71-3.81-.45-5.45h.22c.05-2.07-1.12-4.45-.65-6.47h.22c-.36-2.52-.36-5.12-.67-7.66-.15-1.2-.61-2.31-.64-3.44-.04-1.53-.15-3.06-.19-4.59-.02-.84-.39-2.02-.23-2.84h.22c.14-.6-.24-1.79-.22-1.94h.22c-.24-2.6-.4-4.69-.38-7.42,0-2.05-1.02-4.42-.7-6.59h.22c-.07-.65-.14-1.29-.22-1.94h.22c-.56-3.33.1-6.76-.43-9.92h.21c-.29-2.32-.41-5.04-.09-7.5.18-1.39-.27-3.16-.37-4.56-.08-1.02-.03-2.17-.27-3.16-.13-.54-.47-1.24-.35-1.81.85,0,2.69-5.4,2.87-6.02.19-.67.19-2.82,1.23-2.82.38-1.15.39-2.76,1.29-3.67.48,1.29.37,2.98.48,4.33.08,1.01-.12,3.17.54,4.03.1.13-.06,2.67-.06,2.98.02,1.66,0,3.31,0,4.96-.01,1.85-.06,15.38.83,15.38.15.54-.43,1.88-.14,2.19.24.26.22.85.24,1.17.14,1.77.08,3.57.03,5.35-.03.85-.03,6.6.52,6.6-.36,1.09-1.47,1.87-1.02,3.45.02,0,.34,2.96.36,3.14.49,3.86,1.15,7.61,1.15,11.52.71,2.13,1.47,2.43,3.66,2.35,2.06-.08,3.22-.94,5.12-.62v-.22c.21.07,1.51.15,1.51-.43.66.22,1.34.4,2.02.5,1.03.15,2.65-.15,2.92-1.37.2-.89-.5-1.76-.22-2.58.19-.56.47-1.31.75-1.82.73-1.33,1.93-2.43,2.43-3.87.4-1.13,1.51-2.29,1.98-3.57.37-1,1.22-2.03.75-3.22-.55-1.38-.82-1.22.09-2.71ZM239.34,71.6c.71,0,.88.46.65,1.08-.58,0-.79-.31-.72-.76-.02-.02-.01-.1.07-.32ZM238.69,71.98v-.38c.21,0,.43.22.43.43h-.43v-.05ZM231.95,72.36c.96,0,2.91.38,3.87,1.33.64.63,2.1,3.21,2.92,3.35,1.03.17,1.12.28,2.13.71.66.28,1.14,2.13,1.48,2.91-.92-.55-4.01-3.99-4.7-3.5-.04.03-2.34-1.77-2.86-1.91-.8-.21-1.64.42-1.5-.85-.3-.03-.48-.02-.58.02.11.04.48.12.56.04-.13.55-.9.11-.56-.04-.01,0-.03,0-.03-.01.08-.08.16-.11.26-.12-1.16-.44-4.4-2.18-4.4-2.7,1.11.18,2.5.75,3.39.75ZM218.32,124.9s-.02,0-.04,0c.01,0,.03,0,.05,0,.04-.02.07-.04.11-.05-.03,0-.09,0-.22.01,1.91-.27,3.41-1.95,5.32-2.3,1.19-.22,1.94-.65,3.07-.64.79,0,1.89.23,2.61.13v-.22c.12.03,1.81.22,2.06.04.71-.5,1.63,0,2.52-.2,2.31-.52,3.38,2,5.27,3.01,1.17.63,2.01,1.76,2.82,2.78.36.45.91,1.08.91,1.7.56.15.97.65,1.32,1.07.68.81,3.42,2.4,3.42,3.45-.56.42-1.34-.14-1.6-.64-.33-.63-.74-.67-1.26-1.23-.9-.97-1.73-2.38-2.87-3.09-1.32-.82-2.26-2.17-3.65-2.83-1.6-.76-2.51-.94-4.27-1.01-3.2-.12-6.09-.76-9.31-.56-.5.03-1.33.04-1.7.46-.39.44-.94.17-1.59.28-1.2.2-2.37.25-3.47.64,0-.24.27-.64.53-.81ZM217.5,129.05c-.02-.09,0-.19.07-.32,3.68-.53,7.35-1.5,11.1-1.18,1.61.14,4.53-.31,5.98.44,3.19,1.66,5.71,4.34,8.33,6.99,1.13,1.14-.45,3.65-1.11,4.73-.84,1.39-.34,3.78-.53,5.34-.11.88-.38,1.85-.7,2.7-.5,1.32-.8,1.92-1.58,2.99-.45.62-.88.74-1.39,1.34-.71.82-.65.24-1.43.78-.53.37-2.5,1.61-2.5.23-.42-.42-4.12,2.25-4.63,2.66-1.07.88-1.57,2.25-2.59,3.18-1.21,1.11-2.35,2.3-3.77,3.15-.94.56-1.78,1.66-2.81,2-.44,0-2.26,1.17-2.69,1.56-.74.68-2.03.66-2.7,1.67-.94.24-2.14,1.07-2.89,1.61-1.86,1.35-4.26,3.35-6.46,3.9-2.16.54-4.12,2.25-6.39,2.25-.61,1.22-3.94,1.58-5.22,1.9-.87.22-2.38.28-2.67,1.33-.33,1.21,1.29,2.08,2.26,2.19-.02.69-.65,1.15-.9,1.74-.31.72-.38,1.52-.67,2.25-.57,1.42-1.49,2.67-2.75,3.56-2.14,1.5-5.19.89-6.07,3.91-.96,3.28-1.41,6.46-3.36,9.4-.75,1.13-1.79,1.99-2.19,3.32-.18.59-.38,1.73-1.09,1.93-.89.26-1.02-1.52-2.41-.66-.98.6-1.87,1.48-2.79,2.17-1.15.87-6.25,1.76-5.89,3.59.35,1.82,2.91,1.47,3.64.86,1.28-1.09,3.25-.98,4.7-1.71,0,1.02-3.55,1.93-4.1,3.02-.43.18-.48-.26-.86-.21,0,.49-.77.66-1.11.7-1.17.14-2.33-.67-3.38-1.08-1.12-.44-2.43-.03-3.62-.34-.93-.24-1.29-.77-.33-1.32.49-.28.99-.37,1.21-.93.29-.74.81-.09,1.03-.84.19-.67.4-1.14.77-1.77.12-.2,1.83-.28,2.18-.37,2.29-.59,3.93-.65,5.61-2.5.85-.93,3.16-4.06.87-4.85-1.68-.58-2.9,1.38-3.76,2.44-.67.81-1.48,1.67-2.55,1.9-.5.11-1.94.65-2.35.29-.65-.57-.79-3.17-2.12-3.17,1.05-1.26,2.65-1.91,4.05-2.69,1.04-.58,2.78-1.2,3.54-2.08,1.62-1.89-1.72-2.93-2.28-2.14-.66.95-3.44,2.21-4.56,2.59-.89.3-1.61,1.3-2.7,1.3-1.01.47-1.52,1.34-2.45,1.88-.74.43-1.02,1.06-1.7,1.54-.73.51-1.45,1.07-2.08,1.69-.65.63-1.65-.24-2.56.39-.11.08-2.14-.84-2.36-.98-.22-.14-.71-.1-.98-.14-.47-.06-.94-.13-1.41-.21-.96-.15-1.92-.29-2.87.02-.87.29-1.7.7-2.56.99-.92.31-1.01,1.51-2.16,1.08-.46-2.39-.97-3.92,1.08-5.39,0-.91,3.23-1.16,3.73-1.07,1.2.23,2.39.72,3.59.85,0,.52.84.21.94.33.22.25,3.17,2.62,3.19,2.6-.61.63-.24.67-.24,1.17,2.07-.69.89-4.57,2.89-5.49,1.71-.79,3.19-1.93,4.65-3.13,1.15-.95,3.2-1.75,3.97-3.04.76-1.27,4.13-6.15.28-5.42-1.34.25-2.45,3.3-3.6,4.15-.93-1.92,1.39-3.99,2.56-5.14.9-.89.65-1.55,2.08-1.78,1.54-.25,3.1-.34,4.66-.36,1.23-.02,3.55.56,4.61-.27.34-.26.84-1.48,1.1-1.89.55-.86.39-1.81,1.14-2.4.82-.65,1.24-1.22,1.86-2.05.29-.38.66-.76,1.18-.76.37-.56.85-1.04,1.33-1.5.82-.79,1.73-1.53,2.38-2.47,1.08-1.57,2.72-2.63,3.78-4.24.43-.66,1.07-1.32,1.8-1.79.77-.5,1.46-1.63,2.15-2.4.67-.74,1.53-.91,2.16-1.82.48-.69.87-1.48,1.48-2.08.51-.5,1.37-1.08,2.01-1.4.79-.39.96-1.17,1.58-1.63.96-.7,1.17-2,2.09-2.7.76-.57,1.1-1.65,1.22-2.55.17-1.31,1.89-2.62,2.15-4,.11-.59.78-1.77,1.33-2.05.26-1.16.81-2.2,1.21-3.31.32-.88.73.16.73-1.22.65-.78,1.52-1.45,2.05-2.31.23-.37.63-.3.94-.67.27-.33.52-.81.89-.97.28-.12,1.51-.64,1.51-1.01,1.03-.7,1.95-1.63,3.02-2.59.64-.96,1.67-.78,2.25-1.59.58-.81,1.4-1.43,1.84-2.34.05-.11.1-.2.15-.27ZM239.13,157.18h-.43v-.65c.35-.07.49.15.43.65ZM159.22,208.16c-.48.74-.88,1.53-1.67,2.06-.59.39-1.26.57-1.88.89-.43.22-.74.59-1.24.65-.78.1-1.8-.72-1.89-1.52-.11-1.07-.18-2.16-.26-3.24-.05-.13-.07-.27-.03-.44.07.02.11.05.14.09.48.06,2.1-.34,2.32-.48.64-.39,1.19-.93,1.82-1.36.69-.47,1.49-.71,2.03-1.38.48,1.6,1.7,3.13.66,4.73ZM138.97,209.1c.27-1.24,1.12-1.66,1.67-2.67.17-.32.83-.51,1.15-.65.01,0,.02,0,.03-.01,1-.44,1.97-.78,3.03-.42,1.12.38,2.28.54,3.36,1.05.69.32,1.31,1.34,1.25,2.14-.09,1.22-.31,2.3-.59,3.47-.58-.11-1.43-.71-2.01-.28,0-.21-1.65.15-1.77.19-.8.22-1.13.34-2,.48-.81.14-1.47.83-2.24.9-.92.09-1.33-1.18-1.63-1.81-.47-1.01-.53-1.14-.27-2.38ZM139.11,222.71c-.87-.22-1.08-1.17-1.08-1.94.42.26.88.99,1.03,1.65.05.05.07.14.05.29ZM140.27,218.18c.3-1.21,1.54-1.81,1.85-3.01-.04.17-.07.3-.08.4.07-.07.2-.15.35-.24,0-.05-.01-.1-.04-.13.03.03.05.07.05.12.77-.42,2.29-.92,2.4-1.02,1.03-.92,3.8-.66,4.57.48.23.35.36.65.43,1.05.05.29-.14.6.29.64-.15.86.02,2.18-1.04,2.49-1.02.3-2.53-.09-3.6-.09-.58,0-1.22-.04-1.77.1-.77.19-1.73,1.83-2.39,1.65-.74-.2-1.19-1.81-1.03-2.44ZM141.97,223.5s.01-.02.02-.03c.4-.81.78-1.56,1.61-2.01.76-.4,1.68-.5,2.53-.58.49-.05.99-.09,1.48-.08.53.02,1.06.29,1.55.31.44.01.45-.22.91.08.26.17.6.52.74.8.4.82.26,1.73.14,2.6-.19,1.38-.42,2.82-1.73,3.5-.78.41-5.58,2.22-5.58.22,0,.23-1.05-.74-1.09-.79-.46-.59-.85-1.31-1.04-2.03-.24-.9.1-1.25.47-1.99ZM137.08,212.94c.93.94.52,2.11.52,3.31-.37,0-.52-1.99-.6-2.98-.08-.09-.1-.25-.04-.47.1.1.15.21.18.33.02-.02.02-.09-.05-.19ZM157.65,64.06c2.6,0,2.5,4.42,2.96,6.04.4,1.4.94,2.77,1.4,4.15.89,2.64,1.87,5.19,3.15,7.62.86,1.64,1.77,3.24,2.5,4.85.41.91,1.84,2.16,1.84,3.2.6,0,.88,2.63,1.01,3.05.13.42.36,1.26.93,1.26.18.96.08,2.07-.65,2.8-.75-2.26-3.02-3.63-3.02-6.04-1.58-.79-2.05-3.59-2.69-4.98-.48-1.06-.99-2.48-.98-3.64-.82.01-.84-.78-1.1-1.37-.4-.9-.83-1.81-1.09-2.76-.11-.42.15-.73-.05-1.12,0,0-.14.36-.35.29.06-.38.43-1.73-.22-1.73.04.2-.03.35-.22.43,0-1.25-.65-2.22-.65-3.45-.39.33-.27.65-.86.65-.12-.43.03-.65.43-.65-.14-.65-.29-1.29-.43-1.94-.22.17-.21.26-.43.43-.39-2.01-.91-3.93-1.3-6.01-.02-.05-.08-.35-.21-1.11,0,0,0,0,0,0,0,0,0,0,0,0ZM184.7,158.9c-2.28.04-4.38.13-6.61.61-1.05.23-4.19,1.08-4.87-.28-.62-1.24,1.78-2.22,2.56-2.42,1.99-.5,4.05-.5,6.05-.89,1.69-.33,3.33-.9,5.04-1.16,1.02-.16,4.85-.86,5.47.26-1.76.56-3.09,3.04-4.52,4.1.23-.17-2.97-.23-3.12-.23ZM146.87,192.05c1.3-2.22,3.7-2.55,5.9-1.48,2.58,1.25,1.79,2.91-.16,4.35-1.31.97-2.65,1.68-2.95,3.44-.34,0-1.59-1.05-1.51-1.29,0,.08-.08.07-.11.05-.35.06-1.37-.05.11-.05-2.98,0-2.26-3.35-1.29-5.01ZM153.66,187.1c-2.81-.91-5.92.54-8.2,2.04-1.41-1.83-.08-8.96-2.47-9.75.07.21,0,.29-.22.21,0-.95-1.55-3.45.43-3.45-.22,0,0-.04,0,0,0-.75,26.57.07,29.17-.08-.66,1.22-1.22,2.51-2.13,3.58-.99,1.16-1.71,1.04-3.15,1.06-3.2.06-5.82-1.14-8.39,1.22-1.09,1-2.07,2.17-2.8,3.46-.65,1.15-.7,2.2-2.24,1.7ZM163.46,158.48c-.04-.18-.48-1.09.15-1.09.32,0,2,1.19,2,1.74-.49-.16-1.29-.12-1.29-.86-.25.09-.52.15-.78.2,0,0,0-.01,0-.02,0,.02-.03.04-.08.04ZM171.61,155.3c-.35.48-.89.87-1.47,1.02-.63.63-1.22-.73-1.51-1.08,0-1.6,2.92-2.43,3.75-3.47.62-.78,2.71-2.72,3.61-3.02-.1-.14.41-.63.19.03.28-.84,1.17-1.11,1.94-1.29.04,0,.21.97.22,1.09-.06-.05-.14-.13-.2-.17-.12,1.63.13,2.03-1.4,3.07-1.24.84-2.19,2.04-3.5,2.8-.74.43-1.14.36-1.63,1.04ZM190.6,65.89c-.61,1.58-2.13,3.31-2.13,5.07-.14-.07-.29-.14-.43-.21-.25,1.75-1.51,2.81-1.83,4.42-.17.86-.73,3.77-1.83,3.77.23,1.73-1.17,3.66-1.92,5.18-.44.9-3.73,7.28-4.07,8.16-.23.6-4.04,9.28-4.29,9.82-.92,1.98-3.48,9.22-4.15,11.57-.6,2.1-2,6.7-3.9,19.11.09-.63.07-10.32.75-10.66,0-.43-.22-2.96.95-6.65.28-.87,2.45-9.19,2.8-10.1.6-1.57,2.12-6.09,2.8-7.8.16-.4,1.22-3.8,1.8-3.8.03-.44,2.45-5.5,2.79-5.82.58-.55.71-1.34,1.15-2.13.35-.64-.03-.65.58-1.14.47-.38.82-.9,1.09-1.44.5-.98.76-1.89,1.3-2.72.46-.7.41-2.31.98-2.71.54-.39.64-1.51.76-2.09.52-2.43,1.48-4.56,2.59-6.82.78-1.59,1.66-2.96,2.05-4.66.25-1.08,1.95-2.11,1.95-3.17.63-.15,1.06-.57,1.73-.65-.08,1.79-.9,3.83-1.54,5.49ZM181.14,72.9c-.77,0-.63,1.78-.78,2.26-.39,1.25-1.38,2.55-1.8,3.9-.21.67-.11,1.12-.53,1.6-.34.4-.57.91-.8,1.38-.46.95-.89,1.95-1.18,2.96-.21.71-.9,2.11-1.36,2.77-.38.53-.92,2.81-1.74,2.81-.12-.99-.2-1.51-.68-2.37-.56-1.01-1.47-1.82-1.84-2.9-.41-1.19-1.23-1.98-1.67-3.17-.33-.86-1.38-1.53-1.47-2.35-.19-1.93-2-3.92-2.48-5.9-.42-1.76-1.13-2.86-1.35-4.87.46.15,1.05.17,1.4.2.39.03,1.67-.23,2.3,0,1.87.69,3.78-.15,5.58.45.47-1.41,3.58-.6,4.77-.97.73-.22,2.39-.42,2.77-1.19.87,0,2.12-.32,2.37-1.29.11-.02.17-.02.22,0,.02,0,.04,0,.05,0,.37-.35,1.1-1.08,1.45-1.08-.94,2.81-2.64,4.78-3.23,7.76ZM162.17,156.1c-2.21-.07-4.12-1.39-5.88-2.28-2.2-1.1-4.6-2.09-5.05-4.75,0-.02-.02-.04-.02-.07,0,0,0,0,0,0,0,0,0,0,0,0,0,0,0,0,0,0-.01-.06-.03-.13-.04-.22.16.04.22.09.19.15.01.03.02.06.02.1.3.05.85.15,1.01.24.65.33,1,.12,1.66.25,1.05.2,1.85,1.22,2.65,1.83,1.57,1.19,4.93,2.54,5.46,4.76ZM155.05,157.28c.97.26,1.85.29,2.5,1.03.51.58,1.55.55,2.24,1.24-.59.18-1.08-.25-1.61-.11-.11.19-.25.31-.44.37-.5.06-1.05-.06-1.54-.12-1.77-.24-3.37-.35-5.17-.31-2.68.06-5.51-.27-8.16-.67-.77-.12-1.88-.14-2.6-.49-.33-.16-.51-.95-.75-1.03.22.07.43.14.65.22.14-.48-.06-.62-.58-.45,0,0,.01-.01.02-.02-.01.02-.03.04-.09.04,0-.09.02-.12.04-.13.18-.58.05-.87-.42-.82.52-2.14,4.07-.45,5.29-.29,1.93.25,3.3.52,5.07.61,1.99.1,3.61.44,5.54.95ZM138.92,117.48c0-.14,0-.22.01-.26,0-.02,0-.05,0-.07.01,0,.02.02.03.04.12.02.44.94.46,1.17.08.74.08,1.48.08,2.22-.73,0-.63-2.15-.59-3.11ZM138.88,116.5s0-.04.06-.21c.13,0,.54-.06.29.57-.32.08-.42-.05-.35-.37ZM138.88,115.36s0-.04.06-.21c.13,0,.54-.06.29.57-.32.08-.42-.05-.35-.36ZM215.63,51.56c-.11.43.03.65.43.65-.63.62-3.02.37-3.02-.86,0,.55-.15,0,0,0h-.43c.97-1.53,1.85.71,3.02.21ZM211.97,50.69c1.01,0,0,1.02,0,0h0ZM209.81,55.22c.14.07.29.14.43.22,0-1.44,1.94-2.15,1.94-3.45.14.04.28.08.42.12,0,0-.06,0-.12,0,0,0,0,0,0,0,.84.38,2.75,1.52,1.6,1.66-.5.06-1.92,1.36-2.35,1.77-.74.71-1.48,1.67-1.71,2.69-.6-.25-.23-1.08-.21-1.51h-.43c.14-.5.29-1.01.43-1.51ZM198.98,92.97c.17-1.09.51-1.92.66-3.05.09-.71,0-3.06.91-3.22,0-2.42.36-4.56.7-6.99.19-1.35.92-2.54,1.15-3.88.15-.86.1-1.35.43-2.24.28-.75.13-1.55.5-2.36.31-.68.33-1.72.81-2.12.7-.6.28-1.78.74-2.37.72-.91.55-1.8.41-2.88l2.37-4.53c.53-.18,1.33-1.38,1.24-1.71.02.07-.28.41-.16-.02.24-.07.41-.22.65-.22-.19.58-.15,1.32-.22,1.51-.14-.07-.29-.14-.43-.22.07.22.14.43.21.65-.93,0-.44,1.85-.64,2.49-.42,1.32-.82,2.64-1.3,3.95-.97,2.65-1.57,5.53-2.12,8.29-.64,3.22-.96,6.49-1.7,9.7-.7,3.02-1.54,6.01-2.05,9.07-.46,2.77-1.87,5.43-2.02,8.23-.17,3.07.74,6.04,1.21,9.03.23,1.43.2,2.97.85,4.3.45.94,1.25,1.64,1.67,2.6.27.61.45,1.28.66,1.91.22.67.96.97,1.12,1.86-.77-.22-.89-1.21-1.47-1.39-.21-.07-.86-.81-.95-1.06-.16-.42-1.04-1.64-1.67-1.64,0-.47-.29-.64-.43-1.08.27-.23.41-.51.43-.86-.55-.14-.76.15-.65.86-.74-.19-1.07-1.72-1.73-1.72.24-.71.46-1.53-.02-2.11-.18-.22-.53-3.61-.41-4.14.54,0,.31-4.88.39-5.7.06-.63-.15-1.14.04-1.62.28-.68.18-1.58.19-2.3.02-1.78.35-3.3.62-5.01ZM197.09,35.82c.2.92,1.25,2.61,0,3.23,0,1.33-1.12,1.81-.67,3.3.53,1.74,1.99,2.88,2.04,4.82.05,1.62-.56,3.33-1.39,4.71-.97,1.6-2.14,2.48-3.8,3.25-1.52.7-1.32,1.74-2.31,2.81-.92.99-2.21,1.4-3.53,1.4-.15,0-2.05.07-1.99.19-.08-.3-.26-.45-.53-.45-.35.29-.72.52-1.31.89-.79.49-.63,1.15-1.1,2-.82,1.49-2.3,2.49-3.78,3.22-4.05,1.99-7.77,1.46-12.11,1.1-1.25-.1-2.24.06-3.11-1-.39-.47-1.03-1.34-1.21-1.89-.42-1.26-2.36-2.35-3.54-2.68-2.38-.67-4.25-4.36-5.11-6.48-.31-.76-.25-3.09-.74-3.34-.24-.59.38-1.11.09-1.61-.25-.42-.23-1.07-.29-1.54-.19-1.35-.69-1.72.05-3.1.44-.82-.38-2.31-.48-3.25-.2-1.99-.78-4.19-1.29-6.22-.13-.5-.51-1.58-.34-2.04.25-.71,1.02-.56,1.46-1.05,1.13-1.23,2.69-2.23,4.33-2.94-.84.36,1.25-.54,0,0,1.13-.49,2.44-.98,3.7-.82.92.12,1.38.8,2.43.82,1.14.03,1.25-.95,2.11-1.19.15-.04,1.48-.85,1.04-.89,1.32.13,2.78-.2,4.11-.29,2.03-.14,3.89.71,5.94.43,0-.43,3.17-.61,3.59-.79.61-.26.98.06,1.58-.07,0-.5,1.11-.47,1.4-.49.47-.03,1.41.04,1.76-.38.15-.18.64,0,1.06-.09,1.4-.35,2.81-.73,4.19-1.19.07,1.33.82,2.46,1.29,3.67.17,1.02.5,2,.77,3,.36,1.33,0,2.13-.31,3.48-.31,1.39-3.99,4.87-1.11,5.59,1.29,2.58,5.89-4.1,7.11-4.1ZM156.13,21.16c0,.96,2.64.78,3.23.86.26.77.95.63.8,1.39-.18.89-.58,1.78-.58,2.71-.6,0-1.98,0-2.79.36-.97.44-.94-.31-1.01-1.22-.07-.94-.23-1.09.03-2.01.27-.96-1.16-1.27.32-2.08ZM164.54,22.24c-.26.77-1.26,4.05-2.34,3.95-2.03-.19,1.24-3.78,1.48-4.16.12,0-.12.36-.22.46,0,0-.02.02-.02.03.64-.57.53-.27,1.1-.27ZM166.91,23.75c0-2.25,1.5-2.37,2.78-3.64.28-.28,3.47-1.57,3.47-2.39.61-.14,1.11-.52,1.72-.65-.16,1.26-.02,2.71-.64,3.86-.28.52-1.25,2.23-1.87,2.1-.91-.19-1.53.26-2.44.53-.89.26-2.03.09-3.02.19ZM193.21,16.42c1.58-.08,3.81.29,1.54,2.06-1.36,1.06-3.35,1.86-4.98,2.38-4.51,1.46-8.74,2.73-13.37,3.75.01-1.13.62-2.83,1.81-2.51.99.26.9-.19,1.74-.28,1.5-.16,2.83-.39,4.29-.98.57-.23,1.14-.39,1.76-.39,1.48,0,.19-.21,1.17-.62.71-.3,1.56-.57,2.15-1.06.55-.46,3.9-1.71,3.9-2.36ZM159.49,11.74c-1.33.64-.29.14,0,0,1.92-.92,3.57-2.04,5.42-3.06,1.82-.99,4.21-1.09,6.23-1.32,5.46-.62,10.33.88,15.5,2.46.84.25,4.88,2.19,3.6,3.57-.35.38-.88.56-1.26.92-.24.22-.41.49-.51.81-.34-.02-.64.08-.9.28-2.39,2.07-6.44,3.85-9.67,3.81.31-1.74,1.06-3.02-.15-4.58-1.01-1.31-1.34-.79-2.63-.62-1.13.15-2.05,1.04-3.13,1.51-1.16.51-1.84,1.31-2.8,2.08-1.2.95-2.77,2.13-4.28,2.47-1.43.33-2.68-.9-4.11-.71-.74.1-4.47-.12-4.47-.59-1.59-.03-2.18,1.64-3.09,1.62-.81-.02-.33,1.4-1.44,1.4.82-4.7,3.38-8.02,7.66-10.06ZM149.18,24.83c.1-.05.24-.12.46-.21.32-.16.65-.28,1-.34.65-.09,1.08.34,1.62.34,0-1.2,1.09.73,1.13,1.12.16,1.5-.46,1.02-1.36,1.79-2.16,1.84-2.96-.79-3-2.55,0,0,0,0,.01,0,0-.02,0-.04,0-.06,0,0,0,0,0,0,0-.03,0-.07,0-.1.07-.02.12-.02.16,0ZM149.67,51.77c.14,0,.48.04.21.65-.3.06-.39-.09-.29-.43-.02.02-.01-.01.07-.21ZM149.67,50.05c.23.7.24.63-.22,1.08-.14-.29-.29-.58-.43-.86.22-.07.43-.14.65-.22ZM138.99,107.95c.1-1.61.36-3.21.52-4.82-.57,0-.02-4.41.1-5.28.14-1.07.26-2.19.57-3.23.24-.79-.22-1.58.1-2.28.78-1.69.66-4.25.66-6.08.52,0,.82-4.58.87-5.16.3-4.12,2.05-8.06,2.68-11.98.28-1.77.7-3.51.99-5.29.12-.78.15-1.81.62-2.34.31-.34.57-.93.57-1.4,0-1.03.65-2.39,1.15-3.26.52-.9.45-2.17,1.42-2.89.33.61.5,2,1.43,2-.53,1.57-1.46,2.96-2.08,4.5-.46,1.15-.4,2.34-.79,3.5-.26.77-1.1,1.65-1.16,2.36-.03.44-.15,2.23-.84,2.23.51,1.54.06,3.95-.37,5.46-.33,1.17-.46,1.85-.49,3.22-.09,3.84-1.09,7.28-1.44,11.07-.39,4.17-1.71,8.39-1.71,12.57-.19-.1-.38-.19-.57-.29.35,1.72-.32,2.39,0,4-.73,0-.98,3.22-.86,3.72h.29c-.06.54-.81.81-.57,1.43.64-.13.42.54.29.86-.27-.28-.16-.15-.29-.57-1.03,1.06-.87,3.22-.86,4.58-.92,0-.37-3.08-.17-3.63.4-1.08-.14-1.78-.06-3ZM137.56,178.76c-.58.51-1.46-.07-1.97-.43-.43-.31-1.5-1.02-1.64-1.56-.07-.24-.02-.66,0-.91.04-.53.09-1.13.2-1.65.04-.2.28-.84.5-1,.04-.03.09-.05.13-.03-.02.02-.06.05-.09.05,1.19,0,3.47,1.84,3.68,3.54.09.69-.28,1.53-.8,1.99ZM102.94,216.56c-.95-1.01-2.96.33-3.72.33.16-2.09.42-4.13,2.8-4.13,1.47,0,1.51-1.21,1.51-2.76.41-1.24,1.14-2.38,2.26-3.07.49-.31.84-.99,1.3-1.05.28-.04,1.4-.18,1.4-.62.52-.12,2.18.99,2.37.86.28-.83,1.42-.7,2.37-.86,0,.42-1.19.97-1.51,1.08,0,.51-.42,1.07-.86,1.29-1.14,1.76.65,1.48.65,2.59.3-.15.38-.42.7-.43,1.1-.02.54-.38,1.03-1.08.38,0,1.42-1.46,1.86-.79.74,1.13,1.8-.15,1.8-1.15-.16,0-.79-.98-1.04-1.2-.6-.55-1.7-.32-2.41-.31,1.35-2.86,3.52-1.97,5.71-3.32.43-.27,1.58.38,2.12.48.18.03,1.59-.05,1.6-.07,1.47-2,2.37-3.3,5-3.54.85-.08,3.46.23,3.46-.66h.43c-.18,1.28.17,2.89.53,4.11.5,1.74.7,3.7,1.05,5.57.47,2.5.5,5.06,1.01,7.56.42,2.08.76,4,.84,6.13.03.83.47,1.09.38,1.99-.04.47-.27,1.11-.15,1.57.24,0,.44,1.87.46,2.03.37,2.35.86,4.86.83,7.24-1.55-.52-3.09-.14-4.3.95-1.56,1.41-3.66-.7-5.18-.95,0,.83-4.22.99-4.51.86-1.4-.67-3.25-.14-4.55-1.14-.25-.19-.43-.46-.43-.79-.81.13-1.62.23-2.44.27-1.61.08-3.29.02-4.75-.73-1.44-.73-2.73-1.68-4.24-2.28-1.53-.62-2.92-.63-4.49-.91-1.85-.33-1.49-2.32-2.73-3.26-1.35-1.02-2.15-1.55-3.06-3.08-.48-.8-.64-4.02.81-4.02,0-1,1.21.15,1.46.39.58.56.95-.17,1.78.04v-.43c.61-.09,1.41-.54,1.98-.08.79.65,1.69.7,2.77.29.4-1.19-1.17-2.16-1.89-2.92ZM105.91,99.63s.03.01.04.03c.56-.73,3.61-.77,4.11-.93,1.49-.48,3.99-1.22,5.55-.83,0,.3,3.66.31,3.66,1.94.85-1.37,6.25,6.18,6.25,7.33-1.35-.67-1.77-2.22-2.9-3.09-.56-.44-1.55-.86-2.21-1.11-1.38-.52-3.4-2.11-4.81-1.4,0-.49-2.66-.13-3.02-.22,0-.98-7.66,2.15-8.84,2.15,0-1.8,1.76-2.38,2.16-3.88ZM114.13,142.75c-.52-.39-1.69-1.85-1.32-2.59-.46-.15-.71-.3-.78-.78-.12-.78-.52-.46-.83-1.1-.55-1.14-1.05-1.9-1.78-2.93-1.15-1.61-1.58-3.31-3.09-4.81-.62-.61-.99-.69-1.35-1.59-.3-.74-.71-1.88-1.44-2.37,0-.67-.58-1.42-.7-2.09-.23-1.3-.62-2.39-.52-3.74.14-1.88.16-3.76.4-5.63.06-.49.08-1.5.5-1.86.18-.15.15-2.42.22-2.8.2-1.1.68-4.14,1.26-4.21,1.91-.24,5.37-2.21,7.09-1.83.6.13,2.28-.08,3.23.03.89.11,2.46.24,3.17.72,1.07.72,2.71,1.45,3.36,2.63.84,1.52,2.35,1.79,3.33,3.12.95,1.29,2.11,2.74,2.93,4.08.86,1.4.23,2.53.53,4.04h-.22c.19,1.02.43,1.83.09,2.6-.16.36.43,1.02.34,1.63-.1.72-.12,1.38-.26,2.08-.53,2.67-1.43,5.33-1.83,8-.14.94-.72,1.72-.9,2.8-.14.85-.15,1.96-.6,2.73-.45.77-1.7,4.48-1.36,5.17-.77,0,1.15,7.48,1.26,8.51.14,1.41,1.8.68,2.13-.38.27-.87.04-1.88-.15-2.74,1.59.2,4.45,2.24,5.09,3.88.46,1.19,1.61,1.89,1.91,3.13.24.99.84,2,1.11,3.06.24.94.64,1.89.96,2.88.35,1.1-.06,1.87-.21,3-.13.93.34,1.74.55,2.61.3,1.23.39,0,.92.82.52.81,1.1,2.73,1.1,3.67-.54,0-.66-.94-1.45-1.01-.58-.05-1.23-.14-1.81,0-1.08.28-2.12.6-2.12,2.08-.53-.54-.3-1.88-.31-2.55-.02-.94-.36-1.81-.54-2.76-.46-2.33-.85-4.32-2.81-5.9,0,.93-1-.14-1.19-.49-.29-.82-1.62-1.17-1.62-2.09-.55,0-.89-.87-1.71-1-.56-.09-1.73.14-1.73-.73-2.4,0,1.58,5.03,1.91,5.63,2.16,2.53,3.38,4.68,3.48,8.18.08,2.63.43,6.28,3.01,7.75-2.56,3.84-4.79-2.68-5.64-4.45-.68-1.41-1.94-2.59-2.44-3.95-.47-1.28-2.57-1.08-3.56-1.08v1.72c-.14-.07-.29-.14-.43-.22,0,.9.97,1.24,1.33,1.93.31.6.76,1.12,1.05,1.74-.49-.29-1.29-.58-1.29-1.29-.64,0-1.11-.31-1.52-.77-.79-.9-.72-1.38-.4-2.41.5-1.64-.13-3.63.52-5.23.75-1.85.61-4.16.84-6.16.19-1.68.55-2.96.34-4.62.36,0-.15-5.22-.4-5.98-.33-1,.03-1.69-.58-2.6-.77-1.15-1.06-.45-2.26-1.12-.22.41-.51.77-.86,1.08,0-.56-1.57-3.18-1.91-3.44ZM127.25,184.13c1.53,0,0,1.01,0,0h0ZM77.24,166.24c.48-.8.68-.06,1.06-1.09.17-.44.37-.86.6-1.27.64-1.15,1.25-1.48,1.58-2.77.17-.64.87-1.46,1.2-1.91,1.27-1.72,1.31-5.78,3.53-6.33-.83.21-.26-.18-.06-.13.65-1.5,6.64-.93,4.3,2.91-1.11,1.83-1.7,4.17-2.84,5.98-1.45,2.3-2.12,5.08-3.64,7.34-.33.48-1.63,3.19-2.46,2.48-1.23-1.06-2.95-1.76-4.57-1.76.69-1.04,1.29-2.17,1.29-3.45ZM57.53,164.57c.66-1.61,1.92-3.49,2.14-5.24.19-1.5,1.71-3.93,2.47-5.04.5-.74.78-3.15,1.95-3.15-1.24,0,0-.22,0,0,0-.89,1.38-.94,2.06-1.55.47-.42,1.26.54,1.82.69,0,.91.44.22.86.22-.28-.24-.5-.53-.65-.86,2.27.76.13,4.43-.25,5.8-.44,1.57-1.02,3.91-1.95,5.24-.89,1.26-1.67,2.83-2.21,4.28-.65,1.75-3.34,3.6-3.34,5.59-.54-.14-1.08-.44-1.08-1.08-.3-.02-.59-.06-.88-.14-.86-.4-1.71-.72-2.79-.72-.29-.97,1.49-3.15,1.85-4.03ZM58.18,171.81c.02-.16.09-.25.09.25-.29,0-1.51-.03-2.13-.1-1.06-.12-1.32.19-1.32-.98.71,0,2.9.18,3.36.83ZM5.67,245.13c.14.07.29.14.43.22.4-.88.35-2.36,1.21-2.8.29-.15.79-1.37.95-1.66.75-1.29,1.46-2.62,2.2-3.95,1.41-2.53,3.13-5.36,4.18-8.01,1.13-2.84,2.84-5.48,4.22-8.07.78-1.47,1.61-3.12,2.24-4.58.87-2.05,2.82-3.78,3.86-5.75.28-.53,1.18-3.34,1.62-3.34,0-1.97,1.99-3.27,2.37-5.17.57,0,2.44-4.05,2.57-4.58.08-.36.1-.77.43-1.02.73-.55.68-1.24.88-2.16.32,0,.68-1.15.77-1.35,1.51-3.64,2.7-7.08,4.74-10.41.83-1.35,1.12-4.33,2.76-4.99.49-.2,1.49.25,2.03.32.69.09.4-.35.92-.38,0,.66,1.61.26,1.94.22-.41,2.5-2.05,4.68-2.85,6.98-.58,1.69-1.8,2.91-2.6,4.55-.92,1.89-1.86,3.62-2.91,5.43-1.07,1.83-2.25,3.96-2.77,5.98-.26,1-1.25,2.96-1.89,3.89-.78,1.13-1.25,2.76-1.93,4.01-1.92,3.54-7.73,9.56-.82,10.33,2.14.24,10.81,1.47,10.81-1.72,0-.76.79-2.71,1.26-3.27.74-.89.96-2.19,1.75-2.99.88-.88,1.63-2.87,1.94-4.1.82-.55,1.43-2.02,1.67-2.94.2-.75.67-1.46.87-2.26.13-.49.78-.85.99-1.44.18-.5.3-1.05.61-1.49,2.54-3.61,4.11-7.77,6.43-11.64,1-1.66,1.88-3.62,2.43-5.52.49-1.68,2.29-3.05,2.72-4.68.77-.26.29.57.89.37.76-.25.33-.46,1.27-.15,0-.52,1.83-.4,2.16-.43-.76,2.29-2.44,4.04-3.41,6.17-.78,1.71-1.68,3.28-2.46,5.06-1.5,3.41-3.38,6.5-4.93,9.83-.88,1.89-1.55,4.06-2.8,5.61-.75.92-1.12,2.44-1.71,3.5-.55.98-1.13,2.09-1.52,3.14-.58,1.56-1.42,2.94-2.13,4.36-.55,1.09-1.98,3.38-1.84,4.45.22,1.83,2.68,2.51,4.33,1.56.55-.32,3.75-.14,4.44.16.38.16,1.42.15,2,.32.68.19,1.72.61,2.22.01.22-.27,1.7-2.35,1.79-2.35,0-1.02.99-2.12,1.59-2.85,1.27-1.57,2.48-3.77,3.22-5.65.67-1.71,2.08-3.27,2.75-4.96.4-1.03,1.11-1.59,1.64-2.53.62-1.09.99-2.31,1.42-3.48.57-1.59,1.94-2.78,2.11-4.66,1.04.21,1.6-.12,2.7-.26.77-.1.51-.36,1.29-.22.68.12,1.38.06,2.06.05.94-.02,1.72-.68,2.86-.7.98-.02,2.25-.06,2.51-1.24-2.01.14-3.54.47-5.35.27-1.03-.11-.15.51-1.54.16,0,.1-.65.21-.66.21-.89.2-1.87.43-2.79.43.38-1.92,1.91-3.54,2.37-5.39,1.14-.57,1.21-2.59,1.81-3.58.82-1.36,2.02-3.1,2.61-4.68.54-1.46,1.43-2.66,3.13-2.08v-.22c.43-.06,3.23.08,3.23,0,1.04.35,2.16-.4,3.32-.04,1.05.33,2.28-.12,3.38.13,1.88.42,3.68.03,5.46.2,3.71.35,7.36-.25,11.12.14,0-1.17,5.05-.24,5.82-.43v.22c.41.07.81-.35,1.29-.22,0,.47.5.29.75.22.76-.22.81.49,1.62,0,.15.76,2.06,1.68,2.81,1.94,1.48.5,2.07,1.38,2.67,2.92.3.76.92,1.03,1.3,1.75.27.51.24.95.61,1.39,1.39,1.63.82-.67,2.09-.67,0,2.07.89,4.3,1.31,6.33.42,2.04.85,4.3.85,6.39-.04,0-1.51-.99-1.51-.86-.64-.21-1.41-.15-2.07-.11-.64.03-3.97.12-3.97,1.19-.79-.39-2.24,1.04-2.98,1.52-.95.62-1.24.35-2.38.58-2.1.42-7.01,1.27-7.57,3.72-1.37-.64-4.91-.24-6.16.62-1.47,1.02-2.82,1.93-3.54,3.64-.46,1.09-.39,3.01-1.79,3.2-.73.1-1,.49-1.52,1-.43.41-2.29-.06-2.91-.12-2.73-.27-5.2-.53-7.91-.64-.24-.01-2.68-.01-2.68-.38-.96,0-1.97.34-2.92.06-.82-.24-1.74.11-2.57-.1-.95-.24-2.38-.6-3.35-.39,0,.1-4.99.35-5.39.43,0,2.39,3.25,2.13,4.96,1.94v.22c.45.07.8-.39,1.51-.22v.22c.5-.07,1.01-.14,1.51-.22,0,.21,13.57.85,15.64.94.41.02,2.96-.34,2.91.18-.05.48-.11,1.44-.21,2.06-.22,1.42-1.28.41-1.74,1.35-.69.23-1.1.95-1.36,1.58-1.44,3.5.9,6.23,2.71,8.84.67.97,1.11,2.13,1.79,3.05.9,1.24,2.4,1.88,3.83,2.28,1.23.34,3.92-.51,4.77.66.23.32,3.01,1.56,2.93,1.7,0-.02,2.83,1.1,3.14,1.14.78.11.95.38,1.73.24.65-.11,1.38-.28,2.04-.18.88.13,2.92,1.34,3.69,1.01.09-.04,2.98.76,2.98.81.7,0,1.52-.26,2.15-.53.41-.18.97-.12,1.23-.39.3-.31,3.25.87,3.87.92.73.06,1.91-.41,2.61-.54,1.56-.29,2.78-1.05,4.36-1.4-.32.07.8,2.27,1.09,2.45,1.36.87,4.11-.09,5.63-.18,2.31-.13,8.7,1.04,9.37-2.41.32-1.66-.03-3.6-.17-5.26-.19-2.18.36-4.19.26-6.32-.09-1.86-.73-3.63-.66-5.5.06-1.59.36-3.22-.22-4.76.34-.1,3.88.45,3.88-.43,1.15.58,1.13-.48,2.45-.16.69.17,1.41.28,2.06.6.79.39.95.73,1.04,1.51.16,1.35,1.9,2.02,3.07,2.22,1.34.22,2.16,2.43,2.16,3.59-.46-.28-1.08-.4-1.08-1.08-.28.1-.57.17-.86.22-1.02-.42-1.46-.64-2.51,0-.94.57-5.46,1.55-4.49,3.51.64,1.3,4.41-1.06,5.66-.58.81.31,1.25,1.15,1.91,1.66.78.62,1.51-.63,1.76.99.17,1.09-.69,2.72-1.1,3.53-.64,1.25-2.66,1.73-3.92,2.11-.51.15-1.13.29-1.62-.02-.16.3-.4.47-.73.53-.87.16-1.75-.29-2.58-.48-.77-.18-.78-1.42-1.75-.89-.6.32-1.32.88-1.84.63,0,3.08,4.58,3.15,6.62,2.75,2.26-.44,4.7-1.33,6.58-1.58.35-.05,1.48-1.22,1.76-1.59.63-.82,1.13-1.77,1.42-2.76.55-1.81-.22-2.57-.22-4.35,0-.94.33-1.84.23-2.76-.11-1.03-1.63-2.59-1.11-3.6.16-.31.78-.96,1.13-1.03.82-.17,1.54-.7,2.27-1.07.7-.36,1.65-.94,2.01-1.68,1.06,0,1.43-1.19,2.27-1.33,1.54-.26,1.8-1.01,2.1-2.42.35-1.62,1.45-2.79,1.45-4.44.16,0,.94-1.65,1.05-1.84.35-.64.87-.81,1.36-1.4.27-.33.86-1.8,1.22-1.92.71-.24.04-1.33.49-1.75,1.04-.97,1.34-2.51,1.64-3.97.25-1.25.51-2.17.28-3.34,1.78-.1,7.98-2.33,7.98-4.74,1.37-.91.53-3.17,1.94-3.88.37-1.49,2.16-2.52,2.16-4.1.14.07.29.14.43.21v-.21c1.23-.43,2.16.71,3.34.54,1.52-.22,2.93-.02,4.42.32v-.22c1.17.29,2.78-.18,3.92-.06,1.33.14,2.73-.31,3.84.06v-.21c.65-.11,1.48.18,2.16.21v-.21c1.67-.05,2.9.77,4.67.28,1.47-.41,3.02.17,4.6-.07,0,.14,3.47-.2,4.4-.22,2.59-.05,5.2-.33,7.79-.33,6.71,0,12.47-.13,19.28.56v-.21c.75-.13,1.34.17,2.01-.02.48-.13,1.02-.1,1.5-.08,1.69.06,3.37.28,5.05.41,1.24.1,2.32-.08,3.5.12,0-.51,2.07-.22,2.33-.19.71.08,1.02-.12,1.46-.12,2.95.03,5.49.55,8.28.48,1.35-.03,2.57.44,3.7.32.26-.03,1.47-.39,1.47.16.63-.16,1.81-.19,2.37,0v-.21c3.27.25,5.56.35,8.84.65-.23,1.16-1.05,3.53-1.67,4.42-.27.39-.9,1.79-.93,2.14-.04.38-.28,2.71-.84,2.71-.27,1.08-1.15,1.74-1.37,2.81-.24,1.15-1.09,2.64-1.51,3.83-.2.58-.62,1.48-1.21,1.77-.14.63-.21,1.31-.49,1.89-.34.7-.75.79-.97,1.58-.14.49-.33.94-.61,1.36-1.37,2.11-1.93,4.98-3.75,6.8-1.31,1.31-1.74,3.75-2.63,5.38-.84,1.55-1.33,3.79-2.47,5.05-1.12,1.24-1.7,3.95-2.19,5.5-.34,1.08-.98,1.95-1.42,2.96-.29.66-.94,2.62-1.4,2.97-.75.57-1.15,1.91-1.41,2.77-.21.68-.63.95-.87,1.68-.42,1.31-1.35,4.04-2.28,4.84-.76.65-.73,1.96-1.31,2.74-.49.67-1.13,2.33-1.39,3.21-.46,1.55-1.08,3.62-2.86,3.61-.45,0-.77-.65-1.05-.52-.23.11-.66.38-.93.34,0-.47-1.89-.4-2.17-.41-.7-.02-1.2.29-1.94.25-.64-.03-1.44-.31-1.88-.3-.84.02-8.24-.42-8.24-.62-.72.02-7.76-.07-7.76.21-1.27.19-2.8-.14-4.06-.28-.49-.06-1.07-.23-1.57-.14-.93.17-.71-.15-1.18-.12-2.21.11-5.11-.49-7.41-.2-1.43.18-2.88-.16-4.32-.27-1.19-.09-2.15.32-3.36.2-2.51-.25-4.41-.6-7.28-.54-1.1.02-1.89-.3-2.86-.19-1.54.18-3.13.2-4.68.14-2.39-.09-4.32-.37-6.64-.26-1.03.05-2.47-.99-3.51-.44-.61.33-2.86.1-3.56-.05v.21c-1.63-.16-2.71-.39-4.41-.31-1.82.09-3.71.25-5.52.01-2.41-.31-5.15-.52-7.63-.49-4.42.06-8.91-.25-13.27-.98-1.63-.27-10.96-1.45-11.27-.44-2.69-.46-5.33-.06-8.03-.12-2.09-.05-4.16-.04-6.25-.24-1.09-.1-2.1.22-3.39.02-.84-.13-1.89.21-2.87.15-1.52-.09-14.1.38-14.1.23-1.06.23-1.5-.27-2.59,0,0-.42-.97.21-1.2.04-.36-.26-2.5-.14-3.24-.16-1.67-.05-3.35-.11-5.01-.03-1.13.05-1.82.44-2.83-.07-.1-.29-9.15.81-9.96.92-1.25.17-11.38-.26-11.38.16-1.21.25-9.27-.49-9.27,0-1.15-.14-2.3-.29-3.45-.43,0,.43-4.37.23-5.08.51-.32.16-.49.07-.52-.3-.38-.02-.74.05-1.08.22,0-.6-.84-.17-1.12-.13-.16.02-1.22-.81-1.04.13-.65.14-1.26-.11-1.91-.11-2.3,0-4.95-.06-7.54.05-.35.01-2.62-.4-2.62.06-.84,0-1.89-.1-2.69-.36-.61-.2-5.07.23-5.07-.5-.51-.1-1.7.38-1.99.11-.23-.21-.76-.17-1.05-.17-1.07,0-2.14.12-3.21.18-1.42.08-2.55.04-3.67-.33,0,.31-4.49.1-4.96,0v.22c-1.04-.12-4.32-.56-5.6-.22v.22c-3.16-.28-6.49.22-9.92.22.21-.25.35-.54.43-.86ZM10.18,356.89c-1.16-.07-2.32-.1-3.43-.1,0-1.89-.1-3.78,0-5.82-.27,0-.55-35.37-.56-38.62,0-.66.28-2.64-.25-3.17-.42-.42-.41-3.64-.39-4.31.01-.41.61-1.22.47-1.52-.39-.11-.49-.35-.27-.74.39-.62-.4-3.2-.46-4.03-.09-1.31.4-2.8.17-3.88-.31-1.49-.23-2.7-.53-4.2-.31-1.56-.72-4.04-.16-5.39.29-.7-.4-1.52-.28-2.24.15-.88-.35-.7-.29-1.35.19-1.93-.25-3.68-.04-5.55h-.22c-.12-.48.19-.77.06-1.26-.11-.44-.19-.88-.25-1.33-.08-.61.18-1.05.18-1.69,0-1.83-.38-3.64-.41-5.46.03.1.09.2.17.28.15.05.32-.23.27-.45-.11.15-.46.25-.45-.22,2.52-.22,4.7.28,7.11-.16.57-.1,1.17.19,1.79.23,1.71.1,1.44,1.12,1.44,2.73.21,0,.76,7.26.78,8.06.03,1.39.37,2.75.27,4.09-.09,1.06-.89,4.16-.08,5.03.37.4.15,2.99-.1,3.72.79,0,.31,4.12.28,4.59-.2,3.05.53,5.82.22,8.92-.25,2.52.4,5.12.49,7.77.05,1.52.25,17.74.3,17.74-.07.43-.14.86-.21,1.29h.21c-.52,3.12.43,6.92.6,10.14.28,5.29.48,10.65.48,15.95-2.58,0-4.54,1.11-6.92.96ZM25.2,332.58c.16,1.48.61,3.74.13,5.19-.74,2.22.8,4.58-.67,6.88-.64,1.01-1.79,2.29-1.96,3.51-.88,0-.43,1.51-1.08,1.51,0,.92-1.51,4.1-2.59,4.1.06-.42-.27-2.16.22-2.16-.21-.62-.14-6.04-.22-6.04-.33-1.81.17-3.73-.05-5.58-.25-2.05-.43-4.15-.58-6.21-.14-2.03.15-4.23.07-6.31-.08-2.04-.5-4.46-.09-6.48.19,0-.21-9.93-.27-11.17-.1-2.08-.04-3.79-.22-5.74-.25-2.66-.05-5.36-.11-8.03,0-.17.04-2.01-.26-2.01-.14-.64.53-.9.43-1.51-.58,0-.24-.76-.16-1.05.14-.53-.32-1.87-.27-2.71.08-1.48.23-2.98.14-4.47-.13-2.09-.35-3.71-.21-6,.03-.53-.39-1.25-.27-1.58.21-.6.05-.8-.06-1.29-.26-1.06.07-2.2-.1-3.28-.11-.66-.47-.75-.38-1.56.06-.53.36-1.27.25-1.8-.65,0-.61-2.58-.65-3.02,1.87-.07,3.74-.14,5.6-.22,0,1.21.3,2.62.22,3.52-.16,1.83.03,3.41-.18,5.25-.13,1.19.38,2.11.21,3.23-.16,1.07-.16,2.3-.26,3.52.36,0,.3,3.29.31,3.56.04,2.48.09,5.01.33,7.32.35,3.38.13,6.87.13,10.27,0,2.53-.67,6.49.38,8.88.93,2.11.13,5.37.41,7.72.2,1.66.32,3.27.45,4.93.24,3.08,1.04,5.95,1.34,8.77ZM41.73,308.24c-.17-.12-1.61-.31-2.05-.34-1.66-.1-3.44.33-3.84-1.87-.31-1.73-.07-3.52-.48-5.24-.41-1.74-.57-3.52-.7-5.3-.23-3.26-.73-6.56-.73-9.83,0-1.82.26-3.65.13-5.48-.05-.72-.34-1.15-.25-1.93.1-.87.43-1.82.15-2.65-.97-2.82-.53-6.82-.47-9.78,2.15.02,4.32.64,6.47.21,0,.73,2.2.28,2.59.22.02.55-.1,5.17.43,5.17-.16.94-.64.93-.49,1.83.13.74.14,1.49.16,2.24.11,3.18.44,5.97.1,9.06-.46,4.11-.18,8.03.26,12.11.21,1.95.5,3.89.74,5.83.24,1.92.23,4.11.88,6-.56.43-2.37.1-2.9-.27ZM50.45,288.89c-.46,2.28.56,4.94.44,7.41,0,.06,0,.15-.01.35.01-.12,0-.23.01-.35-.02-.16-.1.12-.08.27,0-.11.07-.28.08-.26.02.04-.01.15-.06.31,0,0,0,0,0,0,0,0,0,0,0,0-.31.91-1.65,3.47-1.87,3.92-.37.78-.36,1.23-.88,1.84-.23.3-.39.63-.48,1-.22.74-.35,1.61-1.02,2.1-.71-1.91-.31-3.92-.7-5.87-.49-2.45-.84-5-1.03-7.49-.22,0-.23-6.84-.22-7.43.09-4.07.21-8.14.4-12.21.06-1.33.13-2.49-.11-3.81-.06-.32-.53-2.15.1-2.23,1.68-.2,3.37,0,5.05.03-.03.5-.27,4.1.43,4.1.1.37-.54,2.59-.29,2.59-.36,2.9.52,5.68.83,8.58.08.75-.75,7.16-.6,7.16ZM121,293.85c.96,0,.45,1.29-.22,1.29.07-.43.14-.86.22-1.29ZM117.76,307.43c-.05-.44-.12-.86-.22-1.29,1.35.15,1.92,1.11,3.04,1.5,1.02.35,1.02,1.3,2.07,1.74.99.41,1.9-.13,2.71.43.75.52,1.9-.4,2.31.86-1,0-2,.12-3,.02-.3-.03-.77-.05-1.01-.28-.31-.29-.46.11-.94-.09-.52-.22-1.71-.73-2.59-.73-.28-.37-.75-1.08-1.29-1.08-.18-.52.43-.42.43-.86-.61,0-.98-.14-1.51-.22ZM117.98,298.59c-2.59,0,0-.14,0,0,0-.61,1.9-1.86,2.59-2.37,1.41,3.96-4.56,4.83-3.88,8.62-1.24.21-1.52-1.08-2.59-1.08.78-1.83,1.28-5.17,3.88-5.17ZM127.9,311.96c-.63.17-1.16.55-1.72.86-.29-.17-.57-.17-.86,0-.38.5-1.11,1.19-1.79,1.12-.9-.1-1.53-.84-2.38-1.09-.62-.18-.55.62-1.12.22-.89-.64-1.27-.29-2.33-.4-.25-.1-.5-.22-.74-.35-.07.12-.15.21-.27.28,0-.6-1.64-.56-1.83-.54-1.29.14-.95-.69-2.05-.54.44-.06.16-.26.03-.2.03.05.05.1.06.13-.04-.07-.07-.1-.09-.1,0-.01.01-.02.03-.03-.19-.36-.73-1.13-.72-1.49.03-.89.39-1.74.47-2.62-.6.1-.33-.6-.22-.86.46.35.85,1.08,1.51,1.08-.16.26-.23.55-.22.86.8-.11,1.38-.02,1.99-.03.25,0,.54.33,1.04.1.79-.36.85.36,1.71.36-.79,1.76,5.8,2.66,6.81,2.94,1.87.52,2.06-.76,3.58-1.2.94-.28,2.49.01,2.98-.23-.4.6-3.88,1.43-3.88,1.72ZM132.31,305.13c-.86.47-1.03.99-2,1.33-.73.26-1.43.48-2.25.51-2.02.09-5.05-.54-6.85-2.34,1-.33,1.86-.49,2.37-1.51.4,0,1.72-.59,1.72-1.08,1.43-.18,5.99-.94,6.93.52.28.43,4.71,1.06,4.71,1.85-2.08,0-2.8-.29-4.64.71ZM150.53,297.73c.17,0,0-2.82,0-3.02-.8-.03-.25-.61,0-.86.35,1.16.9,1.78,1.08,3.02-.3,0-.76,1.88-.82,2.15-.35,1.43-2.76,2.84-3.87,3.84-.7.63-1.74.57-2.54,1.1-.81.53-1.73.81-2.52,1.37-1.87,1.32-4.15,2.44-6.42,3.2,0-.53,1.79-1.8,2.16-2.13,1.13-.98,0-.63,0-1.75.65.36,1.29.72,1.94,1.08.07-.22.14-.43.22-.64.14-.02.18,0,.19,0-.02-.01-.08-.02-.19,0-.02.07.02.09.08.08.03-.01.05-.02.07-.03-.01,0,0,.01-.02.02.41-.09,1.3-.72,1.76-1.12.79-.68,1.67-.78,2.43-1.36.96-.73,2.17-1.76,3.01-1.9.63-1.27,3.05-1.63,3.45-3.02ZM146.99,296.1c-.42,1.05-2.25,2.27-3.36,2.27-.74,1.11-2.16,1.57-3.26,2.18-.46.25-.7.72-1.16.47-.19-.1-1.4-.68-1.4-.92-.35-.08-.86.6-1.19.33-.41-.33-.13-.22-.74-.49-1.12-.49-2.18-1.19-3.39-1.44-1.01-.21-2.26-.01-3.21-.47-.56-.27-1.71.05-2.25-.09-.54-.14-1.57.28-2.37.43.1-1.33.19-2.83.87-4.01.56-.97,2.05-1.25,2.85-2.16.51-.57,1.13-1.02,1.56-1.59.47-.63.47-1.49.94-2.11.91-1.19.19-3.19.42-4.71.45-2.98-1.25-5.27-1.25-8.27-.71,0-.61-3.01-.62-3.46-.03-.89,1.29-2.55-.45-3.01v-.43c.42-.14,1.57.21,2.26.28.16.02.98.07.98-.28.79.07,1.58.14,2.37.22v-.22c1.39.23,2.8.06,4.26.05,1.35-.02,3.07.2,4.36-.26.74,2.08-.38,4.8,0,6.9.15.87-.5,1.72-.22,2.59.41,0,.88,1.02,1.04,1.29.69,1.12,1.43,1.76,1.47,3.15.04,1.64-1.22,2.88-1.13,4.42.05.82.71,2.03.92,2.93.48,2.01,2.62,4.1,1.71,6.41ZM205.28,283.5c.37.24.29.13.43.65-.28-.12-.42-.33-.43-.65ZM222.31,339.55c.21.02.25-.02.23-.07-.05-.02-.11-.06-.2-.1-.02,0-.03.02-.04.05,0-.02.02-.04.04-.05-.64-.32-2.19-1.05-2.19-1.34,1.13.14,1.85.48,3.02,1.08.54,1.08,2.57.95,3.45.86,0,1.78-4.07-.41-4.31-.43ZM225.55,336.31c-.75-.12-1.69-.53-2.05-1.02-.43-.58-1.44-.28-1.78-1.02-.38-.82-1.09-1-1.66-1.5-.39-.34-2.3-3.39-2.43-3.31,1.34-.87,2.64-1.02,4.25-.7v-.43c.21.05.29.08.27.09,0,0,0,.01-.03.01.36.04,1.66.24,1.92.75,1.01,0,1.31.84,2.12,1.2,1.33.58-.39,1.44.47,1.97.41.25.35,1.21.65,1.14-.15,1.17-1.17,1.84-1.73,2.8ZM238.05,328.98c.47,0,.45,1.94-.21,1.94.07-.65.14-1.29.21-1.94ZM236.32,334.37c.11-.34.83-3.23,1.51-3.23-.44,1.11-.56,2.33-1.01,3.44-.51,1.27-1.22,1.18-2.09,1.86-.75.58-1.85.57-2.62,1.14-.63.46-1.74,1.33-2.69,1.33.17-.62.64-.98,1.07-1.4.45-.45.4-.96.74-1.45.62-.9.94-.95,1.74-1.01,0,0,.63-.71.81-.35.12.25-.12.33.38.33.41-1.22,1.46-.58,2.01-.63,0-.04.19-.17.14-.02ZM232.8,325.92c.37-.88,2.17-3.09,3.04-1.22.52,1.12-.76,2.57-1.11,3.67-.26.8-.93,3.2-2.06,3.2,0-.98.38-1.6-.65-1.94-.02-.21,0-.25.05-.14,0,0,0,0,.01,0-.11-.48-.55-1.47-.27-2.22.56,0,.83-.95,1-1.34ZM227.91,273.12c-.08.21-.22-.25-.42-.18.07.45.06,3.23-.65,3.23-.17,1.04-.59,2.02-.79,3.06-.14.73-.41.46-.5.99-.32,1.91-.95,4.64-2.24,6.39-.17.23-.38,1.68-.41,2.24-.06,1.18-.02,2.37.03,3.55.13,3.44.04,6.72-.4,10.07h.22c.28,1.39-.43,2.52.17,3.94.46,1.09.88,2.82,1.99,3.25,1.3.5.77,2.57,1.94,3.16.29,1.15.97,2.41,1.73,3.3.69.82,2.8,1.68,2.8,2.95.71.86,2.01,1.1.45,2.05-1.58.97-3.9,3.33-3.9,5.5-.31.15-1.5-1.2-1.86-1.32-.13-.04-.8.41-.99.42-.53.02-.4-.7-1.03-.61-.18.35-1.08.63-1.08,0-.42-.12-.51.27-.86.21,0-.67-1.97-.38-2.15-.43,0-.18-4.09,1.08-4.67,1.33-1.3.57-1.86,1.67-1.99,3.1-.08.82,1.29,2.34,1.85,3.18.45.68,1.19,1.1,1.65,1.8.51.77.19,1.28,1.21.93.07.29.14.57.22.86.14-.07.29-.14.43-.21.21,1.07,1.29,1.16,1.29,2.15-.44,0-1.13-.82-1.59-1.03-.53-.24-1.05-.6-1.5-.97-.6-.51-1.35-.55-1.79-1.18-.39-.57-1.22-.79-1.79-1.12-.82-.49-2-1.26-2.57-2.03-.56-.76-1.03-.49-1.87-.96-.77-.43-.91-.4-1.22-1.2-.03-.09-.44-1.21-.7-.99-.14.27-.19.56-.15.87-.17-.1-1.51-1.2-1.44-1.32-.33.57-.43-.13-.66-.46-.62-.91-2.21-1.8-2.51-2.67-.42-1.23-2.16-2.1-1.45-3.38.45-.81,1.17-.88,1.73-1.48.33-.35.24-1.03.87-1.03.28,1.26.4,2.24.65,3.45,1.08-.18,1.51.19,1.92,1.01.33.65,1.35,1.48,1.94,1.35.48-.1.53.63.96.76,1.3.41,1.69,2.39,3.25,2.39,1.78,0,1.63-2.15.93-3.21-.65-.99-2.71-2.06-3.74-2.55-.57-.27-1.6-1.21-1.6-1.9-.42,0-.7-.28-.83-.65-.38-1.14.57-1.78.59-2.68.02-.74.4-.88.42-1.61.02-.67.17-1.33.14-2-.05-.89-.74-.47-.53-1.46.56,0,.63-.8.74-1.18.24-.79.65-.48.68-1.25.02-.38.35-.66.49-1,.17-.41-.28-1.65.46-1.54,0-.5.11-1.11.31-1.57.29-.68.09-1.92-.21-2.62-.28-.66.4-1.33.11-2.07-.45,0-.61-.99-.72-1.28-.32-.84-.25-1.24-.07-2.28.44-2.49,2.19-5.13,2.08-7.65.74.22.86-2.81,1.05-3.52.37-1.34.57-2.36.85-3.56.62-2.62-.66-6.61-3.63-7.15-.18,1.37.91,2.87.41,4.04-.31.74-.48,1.85-1.06,2.43-.17-.79-.52-1.56-1.08-2.16-.38-.07-.62-.28-.71-.64-.05-.3.57-1.43-.15-1.3.19.51.08.72-.28.67.16-.02-.03-.25-.11-.2,0,.02.01.05.02.07,0-.03-.02-.04-.02-.06-.02.02-.04.07-.03.17-.02-.21-.01-.26.03-.17,0,0,0,0,0,0-.28-1.82-2.19-4.05-2.19-6.29,2.15,0,4.4.41,6.47,0v.22c.76.19,1.72-.19,2.16-.22v.22c1.36-.27,3.08.09,4.31-.22,0,.34,2.76.61,3.31.56,1.24-.12,2.87-.08,4.14.24.46.11.89-.34,1.29-.16.28.12,1.04,1.09,1.18,1.09,0-.61-.02-1.08.65-1.08.02.21.02.41-.01.61ZM207.01,288.24c.25.25.09,0,.22.43-.32.03-.39-.11-.22-.43ZM253.27,268.49c-.47.29-1.07-.37-1.62-.15-.51.21-1.73.07-2.36.04-2.26-.11-4.48.66-6.78.8-3.66.21-7.36.44-11.03.26-6.63-.31-13.4-1.37-20.09-1.45-2.41-.03-4.85-.17-7.23-.17-1.15,0-2.77.08-3.97-.34-1.56-.55-3.46-.42-5.09-.56-1.51-.13-2.49-.55-3.99-.26-.88.17-2.47-.38-3.47-.41-1.88-.07-3.77-.05-5.65-.2-1.83-.14-4.58-1.17-5.91-.67-.7.27-2.04-.3-2.89-.19-1.25.15-2.61-.43-3.75-.16-1.54.36-4.09.05-5.7-.09-2.41-.21-4.7-.36-7.1-.23-1.17.06-2.76-.58-3.51-.38-.69.18-.06-.54-1.06-.2-.34.2-.7.34-1.09.41-.42-.15-.85-.22-1.29-.22,0,.4-.21.55-.65.43,0-.3-2.59-.44-2.59,0-1.46-.07-3.12,0-4.36-.03-.95-.02-2.32.39-3.57.26-2.04-.22-3.94-.22-5.79.18-.76.16-6.54-.44-6.54.02-1.28-.64-3.82,0-5.56-.2-2.44-.29-5.65,0-8.33.03-1.1.01-1.93-.29-2.89-.22-.5.03-3.27.23-3.27-.47-2.37.47-4.72-.53-7.08-.55-2.19-.02-4.42.36-6.59-.11-1.05-.23-2.69.29-3.46-.25-.58-.41-2.04.14-2.71.04v-.22c-2,.4-4.36-.21-6.47,0v-.22c-1.04.11-2.38.39-3.23.22,0-.75-7.8-.04-8.65.01-2.17.12-4.39-.19-6.38-.25-2.93-.09-5.87.39-8.8.29-.81-.03-10.01-.55-10.01-.48-1.53.19-2.6-.17-4.16-.25-2.03-.11-4.06-.11-6.08-.12-1.43-.01-3.01.12-4.42-.17-.59-.12-1.14,0-1.77.05-.32.02-.86.09-1.14-.14-.42-.36-.52.13-1.18,0v-.22c-.51-.08-1.16.39-1.94.22v-.22c-1.37.14-2.73.29-4.1.43v-.21c-1.49-.32-4.35-.2-5.76.38-.66.27-.97-.5-1.57-.38-.14.27-.67.36-.92.41-.98.21-2.18.38-3.18.23,0-.95-1.72.52-1.72-.43-1.37.27-1.89-.64-2.01-1.86-.24-2.37.62-4,.29-6.33h.21c-.07-.65-.14-1.29-.21-1.94h.21c-.07-1.08-.14-2.16-.21-3.23,1.97-.35,4.08-.16,6.11-.05,1.74.09,4.08-.08,5.88.27.34.07,2.45.16,2.45-.43.26.09,1.61.24,2.04.15,1.31-.27,3.24,0,4.71,0,8.93-.05,16.98.69,25.8.93v-.21c.76-.14,7.33.81,7.33.21.52-.09,4.96.15,4.96.22,2.86-.44,5.37-.21,8.26-.11,2.36.08,4.16.25,5.97-.11v.22c1.03.24,2.21-.14,3.3.02.92.13,1.98.3,2.91.13.83-.15,6.73.16,6.73-.36.34.11,1.34.23,1.62.16.31-.02.56-.15.75-.38.27.14.55.21.86.21v-.21c.85-.23,1.74.1,2.58.21.31.05.45-.09.44-.42h1.72c.68,0,4.53-.27,4.53-.43,1.64.05,3.28.1,4.93.15.92.03,1.91.49,2.83.28v-.22c.58.07,1.15.14,1.73.22v-.22c1.25-.25,2.61.24,3.84.4.62.08,1.31-.2,1.96-.25.83-.06,2.22-.15,2.6-.08,1.07.21,3.16.04,4.61.11.83.04,1.69.11,2.52,0,.5-.07.99.15,1.5.03v-.22c1.18.24,3.23.29,4.1,0v.22c1.01-.07,2.01-.14,3.02-.22,0,0,2.94.17,3.45,0v.22c.9.2,1.88-.17,2.76-.07.94.1,1.9.02,2.84,0,1.54-.03,3.22.2,4.42.3,2.75.23,6,.41,8.94.63v-.22c1.46.49,4.45.45,6.04.22v.43c.8-.14,1.59-.3,2.4-.33.7-.02,1.1.36,1.6.4.43.04,1.92.13,2.11.06.78-.31,1.7.15,2.57.17,1.12.02,2.23-.04,3.35-.07,3.52-.11,7.19.65,10.79.53,3.08-.1,6.81-.41,9.87.19,1.25.24,2.57.47,4.13.3,1.31-.14,2.96.54,4.56.27,0,.35,5.43-.27,6.26-.22,3.16.2,6.1,1,9.26.65,0,.53,4.42-.11,5.17,0v.22c.79-.07,1.58-.15,2.37-.22,0,.47,3.99.09,4.53.22v.22c.14-.07.29-.15.43-.22,0,.4,12.64.89,14.12.89,1.22,0,14.34.41,14.34.19.8.27,3.29-1.24,4.1-.39.61.64,1.07.75,1.11,1.81.06,1.32.12,2.64.17,3.97,0,.78-.23,1.59-.02,2.36.14.51.43.38.52.95.24,1.42-.08,2.5.14,3.8h-.22c-.09.38.22,2.89.3,2.89-2.54,0-5.17-.93-7.63-.52,0-.51-2.8.21-3.12-.04,0-.06.01-.11.03-.16.03.07-3.96-.24-4.11-.15ZM271.24,361.75c.17.68.34.62,0,1.08-.43.04-.86.04-1.29,0,0,.27-.13.39-.39.36-1.1-.09-1.55-.05-2.67.18-.61.13-.8-.44-1.24-.24-.07.03-.86.21-1,.18.02.05.05.09.07.14.05-.17-4.12.01-4.69.03-.27-2.71-.46-4.88-.62-7.76-.05-.84-.53-1.48-.48-2.62.06-1.48.18-2.96.13-4.44-.02-.5,0-1.17-.28-1.61-.35-.55-.02-1.44,0-2.23,0-.97-.27-1.79-.33-2.77-.13-2.48-.48-5.27-.14-7.67-.59,0,.24-5.47.24-5.93,0-1.49-.14-3.78-.27-5.52-.1-1.3-1.36-2.51-.99-3.86h.22c-.07-1.44-.14-2.87-.22-4.31h.22c-.07-.43-.14-.86-.22-1.29.34,0-.56-9.59-.64-10.79-.09-1.52-.6-12.49-1.3-12.49-.12-.37.97-.91,1.02-1.29,0,0-.07-.88-.08-.91-.13-1.36-.27-2.72-.45-4.07-.5-3.77-1.41-7.56-1.41-11.4,2.76.92,5.59-.14,8.33.37.54.1,1.07.25,1.79.19.86-.07,1.16.37,1.89.38,2.01.04,1.63,2.2,1.36,3.79h.22c-.28,1.68.05,3.2.06,5.11.01,1.41.57,2.22.7,3.73.44,5.22.76,10.34.74,15.63,0,1.02-.2,10.87.43,10.87-.29,1.72.12,3.77.22,5.61-.05,0-.82,8.19,0,8.19-.48,1.45.02,3.49.08,5.03.08,2.29.15,4.59.17,6.89.03,3.53.07,7.06.47,10.58.08.69.16,1.13.04,1.85-.24,1.38.07,2.1.19,3.38.19,1.94-.03,3.87.25,5.85.05.32.07.78.25,1.07.36.57-.27.35-.36.7ZM278.42,310.16c.18,2.45.69,5.01.82,7.38.16,2.88.04,6.39.97,9.15.05.14.08.15.11.12.06-.33.06-.07,0,0-.03.16-.07.46-.13.99-.16,1.48.27.64.18,1.31-.07.5.15,1.01.05,1.27-.39.99.32,2.9.36,4.03.05,1.51-.13,2.96.15,4.45.43,2.33.57,4.36-.2,6.54-1.04,2.92-2.5,5.74-3.49,8.66-.53,1.55-1.22,2.72-1.9,4.16-.25.54-.9,3.02-1.63,3.62-.04.07-.13.13-.31.13-.19-3.07-.67-5.06-.43-7.98h-.21c.13-2.33-.03-4.2-.22-6.47.26,0,.25-3.25.22-4.1-.08-2.53-.51-5.16-.3-7.63.24-2.89-.05-5.95-.31-8.84-.09-.98.08-1.91.32-2.86-.03.14-.28-1.43-.35-1.57.55,0,.4-1.62.43-1.94h-.21c.48-1.92-.21-4.86-.2-6.97,0-2.09-.18-4-.34-5.99-.03-.34-.26-3.21.32-3.21.23-1.48,0-3.01.08-4.5.06-1.05-.24-1.56-.45-2.48-.11-.5.43-.69.16-1.26-.29-.6,0-1.83-.08-2.68-.43-4.79-1.1-9.47-1.45-14.27-.09-1.18-.19-2.34-.33-3.51-.14-1.19.9-1.45,1.37-2.39.19-.39.29-.81.28-1.25.39-.3.72-.65,1.01-1.04.55-.77.66-1.63,1.11-2.38.37-.6.62-1.28.87-1.93.45-1.19,1.54-2.06,1.54-3.48.66,0,.6,15.3.81,15.98.39,1.24.42,3.24.02,4.47-.3.92.17,1.83.28,2.79.29,2.66.56,6.1.19,8.66h.22c.3,1.16-.22,1.8-.06,2.96.24,1.66.28,3.36.33,5.03.07,2.42.26,4.61.44,7.04ZM284.18,236.94c-1.11.56-1.6,3.37-1.96,4.46-.92,2.73-2.03,5.49-3.34,8.09-.39.78-2.18,7.29-3.1,7.29,0,.9-1.29,4.53-2.16,4.96,0,.68-.87,3.45-1.73,3.45.58,0,.16.33.03.16-.02.06-.03.06-.04.02-.13.23-.43.92-.43,1.12-.14-.07-.29-.14-.43-.22-.39.65.05,1.42-.65,1.94-.28-1.55.08-3.49-.39-4.66-.28-.69-.04-1.76-.51-2.35-.58-.73-.18-2.41-.17-3.35.02-1.2.04-2.61-.19-4.11-.25-1.65-.03-1.61.61-2.97.42-.89.79-1.81,1.1-2.74.47-1.4,1.92-3.06,1.92-4.61,1.37-.68,1.71-3.26,2.38-4.48.79-1.42,2.36-4.03,2.36-5.65.35,0,1.33-2.1,1.53-2.43.43-.7.51-2.41,1.01-2.82,1.14-.93,1.42-3.16,2.15-4.31,1.01-1.59.99-3.72,2.05-5.19.81-1.13,1.49-2.71,1.97-4.06.31-.89,1.08-1.71,1.26-2.53.2-.92.77-2.36,1.67-2.81.56-1.98,1.73-4.15,2.83-5.79.52-.78.58-1.68,1.09-2.48.4-.64,1.04-1.89,1.04-2.72,1.15-.77,2.02-3.42,2.49-4.75.3-.84,2.86-11.21,3.98-11.21,0,1.26.59,2.97.22,4.1.74,0,.02,1.51.65,1.51-.19.96.02.84.19,1.57.29,1.31-.32,2.74.04,4.02.46,1.64.67,3.81.85,5.62h-.22c-.07.38.41.8.48,1.16.13.66-.25.57-.51,1.03-.42.73-.96,1.47-1.24,2.24-.36.98-1.15,1.67-1.39,2.57-.26.96-1.01,1.7-1.52,2.53-.56.91-.74,1.7-1.34,2.59-.37.56-.6,1.19-.96,1.76-.68,1.09-1.18,2.2-1.7,3.37-1.17,2.67-2.72,4.93-3.56,7.64-.4,1.29-1.07,2.12-1.49,3.28-.52,1.42-1.19,2.81-1.85,4.15-.9,1.81-3.03,3.44-3.03,5.61ZM297.17,309.58s-2.32-.23-2.04-.45c-.46.37-.33.56-1.19.23v.43c-.74-.04-4.45.32-4.52-.08-.18-1.04-.35-2.09-.53-3.13-.53-3.14-.51-6.32-.85-9.48-.47-4.43.04-8.82-.31-13.26-.33-4.22-.53-8.44-.68-12.67-.16-4.49-.85-8.98-.9-13.47-.05-3.78.26-7.6.16-11.35-.05-1.86-.36-3.67-.49-5.52-.13-1.81,1.32-4.07,2.04-5.68,1.44-3.23,3.49-6.2,4.86-9.45,0,0,0-.01.01-.02.38-.92.74-1.88,1.16-2.76.77.47-.04,2.3-.03,3.05.02,1.4.13,2.82.24,4.22.21,2.79.51,5.57.89,8.34.4,2.93.62,5.8.62,8.76,0,2.19.6,4.98.22,7.11h-.22c-.71,3.1.34,7.08.52,10.12.14,2.28.08,4.56.13,6.84.02.96.02,1.95.18,2.9.09.57-.09,1.21.04,1.7h.21c.24.86-.28,2.37-.21,2.8.37,0,.72,14.55.89,16.03.09.79-.69,8.11-.18,8.11.08.71.02,1.28.13,2.05.13.84.18,1.69.23,2.54.02.4.04.81.06,1.21.02.44-.42.39-.42.87ZM304.49,294.34c-.64.41-.3.96-.2,1.78.24,1.94-.1,3.45-1.24,5.03-.73,1.02-1.15,2.29-2.09,3.21-.31.31-.97,2-1.43,2-.13-1.45-.09-2.93-.38-4.37-.18-.9-.16-1.51-.05-2.53-.15,0-.45-.47-.45-.6-.03-2.29.79-4.62.55-6.65-.18-1.55.09-3.02-.04-4.58-.21-2.51-.8-4.83-.72-7.39.09-2.78.16-5.56.26-8.35.11-2.89-.28-5.76-.19-8.65.17-5.4-.78-10.75-.81-16.16-.02-2.41-.95-4.54-1.18-6.9-.28-2.74-.04-5.5-.04-8.25,0-2.91.08-5.83-.28-8.72-.33-2.69-.82-4.47.37-7.07.89-1.95,2.52-3.51,3.31-5.45.26-.64,1.08-3.46,2.14-3.13-.12-.04-.89-.28,0,0,0,0,0,0,0,0,0,0,0,0,0,0,1.63.51.56,4.94.49,6.08-.19,2.83.47,5.67.52,8.51.12,6.09-.08,12.21.02,18.32.12,6.91-.12,13.53.52,20.19h-.22c.49,2.93.02,6.3.36,9.3.46,4.01.38,8.07.8,12.08.27,2.6.22,5.38.42,8.07.08,1.13.7,3.5-.45,4.24ZM131.34,198.14c0,.14.14,0,0,0h0ZM205.28,283.5c.33.22.12.39,0,0,.13.43.37.24,0,0ZM170.79,36.04c.38,3.1,6.05-.95,7.28-1.29,1.61-.45,3.06-.57,4.71-.38.92.11,1.55-.02,2.25-.63.62-.54,1.5-1.48,1.4-2.38-.08-.73-1.16-.9-1.54-1.51-.01-.02.15.23,0,0-.01-.02-.02-.04-.04-.06.06.09.07.28.07.37-1.05-.06-1.92-.68-3-.65-.95.03-1.84.37-2.7.74-1.4.61-2.79,1.25-4.2,1.86-1.04.45-3.22.54-3.61,1.31-.7,1.4-.85,1.25-.4,2.6h-.21ZM159.01,37.97c.73.18,1.59.75,2.31.77,1.1.02,2.12-1.11,3.22-.77.83-1.84-.77-3.21-2.49-4.1-2.68-1.38-5.43-2.07-8.33-1.15-2.32.74-1.12,2.58.31,3.83.85.74.76.7,1.96.85,1.02.13,2.03.32,3.02.57ZM162.05,33.88c1.72.89-.84-.44,0,0h0ZM182.78,38.41c-.75-.16-1.65.06-2.38.2-2.21.4-4.87.97-6.66,2.41-.57.46-1.02,1.14-.54,1.83.95,1.4,2.98,1.14,4.4.9,1.47-.24,2.98-.31,4.2-1.22l1.58-1.33s.08,0,.12,0c-.37-.18.56-1.45.21,0,.36-1.49,1.01-2.39-.94-2.8ZM164.42,43.91c1.08-.67.29-2.15-.58-2.58-.95-.46-1.89.73-3,.48-1.57-.36-3.31-1.02-4.94-.78-2.24.32-.59,2.87.69,3.38,2.3.91,5.74.8,7.84-.5ZM156.58,44.41c-.74-.29,1.45.57,0,0h0ZM165.66,47.68c.55.81,1.4.87,2.14.53.54-.25.92-2.26,1.05-2.26-.22-1.68-1.29-2.28-2.69-2.36.26.03-.1.11-.26.06.12.02.33-.04.13-.07.04,0,.09,0,.13,0-.07,0-.16-.02-.33-.02.1.84-.67.72-.24,1.87.25.67-.28,1.73.06,2.23ZM178.74,49.17l-.03.26c-.06-.2-.08-.37-.09-.49.05.08.08.16.12.23l.02-.2c-.37-1.74-4.2-.24-4.97.43-.98.85-.37,2.85.62,3.43,1.06.62,1.77-.67,2.78-.21-.79-1.23,2.34-1.74,1.55-3.45ZM183.32,48.01s0,0,0,0c-4.47-.12.7,8.22,4.09,5.96,2.11-1.41-2.49-5.91-4.09-5.96ZM183.32,48.01s0,0,0,0c.36.01,2.43.07,0,0ZM183.32,48.01s0,0,0,0c-.08,0-.06,0,0,0ZM170.01,50.95c.07,0,.14,0,.14-.04-.31-.04-.24.02-.14.04ZM164.29,54.38c1.21.8,2.11-.35,3.34-.23.85.08,1.69.26,2.55.21,1.01-.05,1.78-.55,1.68-1.65-.09-1.04-1.71-.85-1.71-1.8,0,.06-.08.06-.14.04-.14-.02-.28-.1.14-.04-1.78-.26-3.45-.67-5.29-.71-2.6-.07-2.42,2.96-.56,4.18ZM160.98,52.08c.78.95-.01-.02,0,0h0ZM160.98,52.08c-.89-1.09-4.41.16-4.41,1.63-1.04.7-.7,1.89-.39,2.87.28.88.97.7,1.76,1.12.62.33,2.74-1.03,3.03-1.67.45-1,.79-3.01.01-3.95ZM181.26,54.81c-.94.1-1.66.77-2.6.9-1.29.18-2.47.2-3.75.52-1.37.34-2.96-.13-4.39.03-1.17.13-2.35.18-3.53.23,1.42-.05-.53.02,0,0-2.19.08-3.99-.73-5.53,1.19-.83,1.04,1.12,2.68,2.23,3.02,2.19.67,4.49-.08,6.74.62.95.3,2.07.65,3.03.19.41-.21.74-.51.99-.9.47.16.96.2,1.45.11,1.19-.19,2.18-.95,3.28-1.4,1.06-.43,1.24-.88,2.07-1.5.7-.52,1.96-3.23,0-3.01ZM205.93,67.94c-.13-.43.03-.19-.21-.43.24.25,0,.14,0,0-.17.32-.1.46.21.43ZM145.37,73.29s-.02-.07-.14-.19c0,.09.11.18.14.19ZM145.52,73.67c-.17-.57.04-.25-.29-.57.15.15.17.2.14.19-.01.03-.14-.07-.14-.19-.23.42-.13.61.29.57ZM204.21,70.53c.09,0,.15.03.18.06.03-.03,0-.06-.18-.06ZM204.39,70.59s-.23.07-.18-.06c-.19.57.81-2.44-.22.65.23,0,.58-.43.4-.59ZM108.3,108.48s-.03.03-.03.05c.06.05.15.09.19.09,0,0-.06-.06-.16-.14ZM108.5,108.47c-.14-.04-.22-.05-.26-.04.02.02.05.04.07.06.03-.03.09-.04.2-.01ZM109.58,123.26c.44.32.51,2.45,1.28,2.45.35,1.42,1.64,2.48,2.17,3.78.38.91,1.2,2.9,2.35,2.9-.16-1.1-.13-2.1-.23-3.21-.06-.64-.14-1.28-.18-1.92-.03-.47-.45-.56-.6-1.05-.43-1.45-.98-2.66-1.45-4.12-.22-.68-.55-2.65-1.08-3.16-.58-.55-.28-1.14-1.03-1.52-.38-.19-.38-.55-.3-.85.23-.83-.43-2.16-.63-2.96-.4-1.65-.8-3.33-1.4-5.14.33,1-.28.32-.23.07-.07-.05-.1-.1-.03-.11-.32-.27-.89-.74-1.03-.82-2.3,4.28-.91,8.46.91,12.46.41.91.62,2.58,1.48,3.2ZM117.15,139.74c-.33-1.15-.83-2.04-1.76-2.82-.26-1.3-1.07-1.35-1.58-2.45-.24-.52-1.1-1.46-1.66-1.65,0-.95-1.36-2.48-1.99-3.09-.54-.52-.57-1.64-1.11-2.3-1.14-1.38-2.38-3.71-2.94-5.39.14.42-.27.2-.23.07-.47-.1-1.73-.6-2.31-.41-.7.24-.73,1.71-.37,2.16.46.59,1.05,1.53,1.14,2.28.13,1.08,1.27,1.96,1.94,2.73,1.56,1.78,2.73,3.73,4.24,5.58,1.46,1.78,2.98,3.37,4.38,5.29.63.86,2.7,1.6,2.23-.01ZM105.91,122.11s.08-.06.21-.06c-.23,0-.3.03-.21.06ZM105.91,122.11s-.01,0-.01.01c.05.01.1.02.12.02-.05-.01-.09-.02-.11-.03ZM236.38,137.83c.12.52.27.91-.05-.66,0,0,0,0,0,0,.04.23.06.45.05.66ZM236.32,137.14s0,.02,0,.03c.06.02-.01-.03,0-.03ZM221.05,152.99c.71-.71,1.58-1.06,2.55-1.28.67-.15,3.45-1.4,3.45-2.29.18.11.32.25.43.43.92-.77,1.15-1.75,2.37-2.16-.07.22,0,.29.22.22,0-1.35,1.74-2.1,2.46-3.02.3-.38,1.08-1.93,1.64-1.93,0-2,2.14-3.15,2.21-5.13-.06-.28-.12-.6-.08-.67-.07-.03-.19-.1-.44-.25-.81-.48-1.2-.76-2.13-.38-1.16.47-2.05,1.69-2.56,2.79-.96,2.05-1.96,3.68-3.6,5.45-1.49,1.62-3.28,2.97-5.33,4.27-1.32.84-5.5,2.28-4.66,4.48,1.39,0,2.4.56,3.48-.52ZM236.32,137.14s-.02,0-.03.02c.01,0,.02.01.03.01,0-.01,0-.02,0-.03ZM232.63,146.21c.13.02.09.06,0,.07-.06.03-.2.03-.2-.09,0,1.33-2.97,3.75-4.13,4.1-1.28.39-4.1,4.39-5.14,3.87-.5,1.02-1.44,1.73-1.92,2.76-.26.56-.33,1.16-.23,1.76.16,0,.89-.02.87.11-.12.53,1.41-.38,1.5-.44.74-.44,1.48-.94,1.65-1.66.21-.87,2.68-1.85,3.34-2.49.78-.76,1.7-.93,2.52-1.71,1.06-1,3.71-3.9,3.71-5.44-.24-.45-1.37-.76-1.97-.84ZM232.64,146.27c.05-.03.05-.07-.2-.09,0,.08.12.1.2.09ZM221.02,158.69s0,0,0,0c-.04,0-.05,0,0,0ZM234.38,152.44c.05.05.1.07.13.08-.02-.03-.07-.08-.13-.08ZM234.38,152.44c.28-.11.27.1.13.08.03.04,0,.06-.13-.08.21.21.11.12.43.21.03-.32-.11-.39-.43-.21ZM207.65,159.34s-.01-.02-.02-.03c0,0,0,0,0,0,0,.01.03,0,.03.03ZM207.44,158.69c-.09-.53.43-.43,0-.86-.27-.27-1.1.22-1.6.54-1.17.74-2.25,1.84-3.51,2.41-.87.39-1.36,1.14-2.06,1.7-.32.22-.66.25-1.02.1.02.47-.18.78-.6.94-1.26.59-2.02,2.17-3.28,2.93-.63.38-.91,1.05-1.55,1.43-.54.32-1.08.45-1.61.84-1.15.86-2.28,1.61-3.32,2.55-1,.91-2.11,1.75-2.92,2.9-.82,1.15-2.04,2.62-2.04,3.92.22-.09,3.02.33,3.02-.86.61.56,1.15-.03,1.48-.54.26-.41,1.07-.94,1.15-1.33.15-.78,2.27-1.72,3.18-2.4.77-.58,1.55-1,2.36-1.45,2.7-1.46,4.27-3.26,6.42-5.26,1.21-1.12,2.28-2.39,3.4-3.43,1-.94,1.21-3.05,2.7-3.48-.06.02-.09.02-.13.03.04-.02.08-.04.11-.06,0,0-.01-.02-.02-.02.01,0,.02.01.03.02.25-.22.23-.7-.19-.61ZM207.28,159.41h0s0,0,0,0h0c-.09-.01.13-.12.27-.13-.12.02-.29.13-.27.13ZM243.01,166.45c-.17.32-.1.46.22.43-.13-.43.03-.19-.22-.43.25.25,0,.14,0,0ZM107.92,184.2c.63-.81-2.16-.65-2.63-.68-2.02-.13-4.03-.24-6.05-.3-.74-.02-8.32-.44-8.14.94.3,2.33,16.32,3.06,16.83.04ZM122.72,184.13s-.03-.05-.05-.06c0,.01.01.02.02.04,0,.01.03,0,.03.03ZM113.51,184.84c2.94.42,5.91-.3,8.91-.67-.05,0-.08,0-.14-.02,0,0,.12-.06.24-.09-.09.03-.1.1.18.07,0,0,0-.02,0-.03-.02-.02-.03-.04-.06-.05.01,0,.03,0,.04.01-.12-.16-.59-.43-.73-.47-.49-.14-1.02-.17-1.53-.19-1.13-.04-2.26.04-3.39.12-.56.04-4.61,1.16-3.51,1.32ZM122.69,184.13c-.09.01-.19.02-.28.04.19.03.27.01.28-.04ZM122.69,184.13s.02,0,.03,0c-.01,0-.02,0-.03,0,0,0,0,0,0,0ZM285.04,188.66s0,0,0,0c0,0,0,0,0,0,0,0,0,0,0,0ZM285,188.88c.02-.07.04-.14.04-.22,0,0,0,0,0,0,0,.07-.09.09-.17.09-.06.06-.1.14-.13.23,0,0,0,.01,0,.02.06.06.18-.01.26-.11ZM285.04,188.66c0,.06,0,.11,0,.16.04-.07.05-.13,0-.16ZM284.69,189.31c-.02.68.33,1.37.35-.49-.01.02-.02.04-.04.06-.05.16-.16.31-.31.43ZM238.93,187.91c2.54.1,5.05.34,7.58.46,4.15.21,8.38.08,12.52.52,2.76.29,5.43.85,8.23.56,2.2-.23,15.14,1.72,17.43-.14,0-.12.02-.23.05-.34-.05-.11-.04-.19.01-.24-.06,0-.1-.02-.1-.02.06-.03.1-.04.15-.05-5.95.48-11.82-1.11-17.77-.92-5.51.17-10.87-.21-16.34-.93-3.31-.44-6.7-.46-10.04-.55-2.36-.07-5.73-.61-7.99.24,1.05,1.57,4.67,1.35,6.27,1.41ZM284.8,188.67c.07,0,.15,0,.22-.01-.04-.02-.1-.02-.22.01ZM285.04,188.65s-.01,0-.02,0c0,0,0,0,0,0,0,0,0,0,.02,0ZM285.04,188.66s0,0,0,0c0,0,0,0,0,0,0,0,0,0,0,0ZM285.03,188.66s0,0,0,0c-.13,0-.22.03-.27.08.04,0,.07.01.11.01.05-.05.1-.08.17-.09ZM90.6,195.12c5.5-.29,11.01-.53,16.55-.71,1.46-.05,14.92.12,14.92-2.09,0,.34-.81.2,0,0-2.29.57-4.93.03-7.24-.14-2.8-.2-5.56.07-8.35.26-6.32.41-12.79,1.18-19.12,1.18,0,1.87,3.23.76,3.23,1.51ZM199.13,193.27s.03,0,.05.01c.09,0,.17-.03.16-.03-.1-.02-.21-.04-.31-.06.13.01.13.06.09.08ZM214.95,194.84c.95,0,1.57.43,2.59.38,1.17-.05,2.52-.03,3.61-.13,3.1-.28,6.3.08,9.41.07,4.7-.02,9.55,0,14.36.25,3.58.19,7.16.36,10.74.29,1.37-.03,4.91.29,5.88-1.02-1.22-.44-3.17-.47-4.58-.61-1.92-.2-3.85-.23-5.77-.27-5.25-.11-10.51-.09-15.77-.09-4.64,0-8.67-.08-13.2-.15-4.83-.08-9.58-.3-14.41-.11-3.04.12-5.87.05-8.78-.28.66.07.36.13.15.09-.02,0-.04,0-.06,0-.04.03-.13.03-.09-.09-.97,2.92,14.19,1.64,15.92,1.65ZM199.12,193.27s0,0,0,0c-.06-.02-.11-.04-.09-.08-.02.06.03.08.09.09ZM87.43,203.01c2.08-.32,4.13-.53,6.2-.96.79-.16,3.87.37,3.87-1.11-.66.29-1.94,0-2.59-.22.33.1.13.21,0,.2.01,0,.02.01.04.01.12-.02.2-.05.2-.07,0,.04-.1.07-.2.07-1.1.21-6.85.37-7.46.37-3.47.03-7.02,1.34-10.48.92.82,3.01,8.41,1.08,10.4.78ZM223.07,201.96c-.1.03-.19.13.11.06,0-.05-.05-.06-.11-.06ZM222.85,202.07c-.21.01.05-.11.22-.11.05-.01.11,0,.11.06,0-1.79-4.68-.99-5.6-.65.66.94,3.98.88,5.28.7ZM223.17,202.02c-.08.02-.2.04-.33.05.06,0,.16-.02.33-.05ZM215.36,201.94s-.05-.06-.08-.08c0,.01,0,.02,0,.03.03.01.05.03.07.04ZM204.85,202.02c3.64.56,7.03.5,10.56,0-1.18.17-.61-.18-.23-.15.03-.03.07-.03.1,0-.02-.07-.1-.16-.31-.25-.42-.19-.9-.26-1.35-.32-1.4-.17-2.84-.14-4.25-.1-2.23.06-4.46.28-6.69.21-1.49-.05-11.89-.93-12.06,1.06,1.62,0,14.23,0,14.23-.43ZM215.11,201.96c.03.08.18.04.18-.07-.03-.01-.07-.02-.11-.02-.02.02-.05.05-.07.09ZM125.97,201.7c.07.02.13.03.16.04,0,0,0,0,0,0-.06-.03-.13-.04-.2-.05.01,0,.03.01.04.02ZM125.74,201.59s.06.06.13.08c.02,0,.03,0,.05.01-.09-.03-.18-.07-.18-.1ZM124.08,204.54c.65.09,1.33-.13,1.95-.31,1.31-.37,3.24.83,3-1.41-.14-1.28-2.11-.82-3.29-1.23.26.09.36.13.38.15,0,0,.02,0,.03,0,0,0-.02,0-.03,0,.03.02-.06,0-.16-.04-.03,0-.06-.02-.09-.03-.91-.14-2.02.87-2.74,1.31-.71.43.41,1.49.94,1.56ZM247.1,203.53c0,.13.49.08,0,0h0ZM274.5,203.49c-.69-.23-1.77.16-2.63.15-1.64-.02-3.27-.24-4.9-.44-4.15-.49-8.6-1.23-12.76-.54,0-.45-10.46-.55-11.28-.52-.99.04-3.99-.08-4.46,1.14-.3.77,3.77.43,4.46.45,1.16.04,3.05-.16,4.18.22v-.43c.4.07,4.1.31,4.1,0,2.44-.6,4.96.25,7.4.39,4.01.23,8,.55,12.01.66,2.55.07,4.95.42,7.46.56,1.95.11,7.98,1.1,9.12-1.18-3.94-1.25-8.71.84-12.7-.47ZM120.32,210.86c.84-.91,1.55-.79,2.3-1.42.18-.15,2.91.92,3.21,1.14.56.4,1.38.21,2,.12.21-.03.32-.06.39-.1-.14-.06-.17-.26-.12-.42-.02-.25-.01-.54.02-.78-.81-2.21-3.98-2.63-6.15-2.2-.79.16-6.57,2.03-5.27,3.81.81,1.1,2.88.63,3.61-.16ZM128.22,210.61s.06.04.1.04c-.04,0-.07-.01-.1-.04,0,0,0,0,0,0ZM128.12,210.16s-.01.02-.02.03c.02.19.06.34.13.41.06-.03.09-.06.09-.09,0,.04,0,.08,0,.13.04-1.98-.13-1.8-.2-1.23.12.32.19.68.19,1.09-.02-.1-.21-.21-.2-.34ZM183.9,209.71c2.17-.18,4.34-.34,6.51-.49,2.06-.14,4.14-.33,6.21-.33,1.45,0,3.15.62,4.57.24,0-.29,10.67-.04,13.24-1.17-.3.02-.61-.1-.64-.23-.12-.06-.13-.15.12-.21-.08,0-.14-.01-.16-.01.13-.05.26-.06.39-.08-6.03.12-12.07-.11-18.1.16-2.8.12-5.56.52-8.35.72-1.35.1-2.79-.16-4.12.05-1.01.16-2.03.66-3.07.36-.55,1.64,2.35,1.09,3.41,1.01ZM214.13,207.42c.28,0,.57,0,.85,0-.29-.06-.57-.04-.85,0ZM214.03,207.52c.19-.06.48-.1.95-.11-.55.01-.89.06-1.08.11.04,0,.08,0,.13,0ZM214.03,207.52c-.19.06-.26.13-.24.21.22.11.82.16,1.07-.06-.09.1-.24.2-.44.29.29-.02.56-.17.56-.55,0,.13-.58.13-.95.11ZM105.86,218.41c1.61.42,1.22-1.28,2.31-2.01.88-.59,1.82-1.21,2.82-.46,1.27.94,2.81.31,1.99-1.44-1.31-2.81-7.63-1.1-8.33,1.5-.24.89.25,2.17,1.21,2.42ZM112.98,214.5c.21.45-1.39-2.99,0,0h0ZM160.48,219.63c3.18,0-.31-3.73-1.66-4.05,0,0,0,0,0,0-1.15-.27-.85,2.21-.73,2.81.2.95,1.58,1.24,2.39,1.24ZM158.81,215.57s0,0,0,0c.06.01.42.1,0,0ZM252.06,219.05c-.17-.01-.29,0-.38.03.18.02.38.02.38-.03ZM203.66,216.59c3.23.08,6.4.42,9.63.54,3.93.15,7.57.75,11.48,1.1,2.02.18,23.13,1.59,26.75,1.03,0-.05.01-.09.06-.13,0-.01.01-.02.02-.03-.06-.02-.12-.03-.19-.05.02,0,.12.02.22.03.02-.02.04-.04.06-.05-18.51-1.12-36.75-4.07-55.25-4.07,0,1.91,6.09,1.6,7.22,1.63ZM252.03,219.27s-.01.04-.02.06c.04-.01.05-.03.02-.06ZM251.69,219.02c.12,0,.24.02.37.02-.16-.05-.28-.06-.37-.02ZM251.53,219.27s0,0,0-.01c0,0,0,0-.01,0,.02.18.36.35.49.07-.12.03-.44,0-.48-.07ZM251.86,219.18c-.06-.02-.14-.05-.24-.08-.02,0-.03.02-.04.03-.02.03-.03.08-.04.12.13-.02.24-.04.32-.07ZM251.68,219.08s-.03,0-.05,0c0,0-.02.01-.03.02,0,0,.01,0,.02,0,.02,0,.04-.02.06-.02ZM251.86,219.18c.09.03.15.06.17.09.02-.06.03-.13.03-.22,0,.05-.08.1-.2.14ZM127.38,216.11s.03-.06.08-.08c-.06-.01-.08.03-.08.08ZM117.33,221.42c.7-.35,1.05.26,1.57-.75.37-.73.56-1.02.97-1.62.45-.66,2.33-1.84,3.15-1.41.46.24,2.93.04,2.93.76,1.49.35,1.69-.92,1.55-2.05.02.3-.09.08-.13-.12-.74-.22-1.75-1.06-2.87-1.04-1.31.02-2.68.33-3.85.34-1.78.01-2.94,1.32-3.76,2.73-.33.56-.82,1.08-.53,1.75.19.45.97.89.97,1.4ZM127.51,216.36c0-.07-.02-.18-.05-.33.02.11.03.22.05.33ZM127.37,216.15s0,.06.01.09c.02,0,.04.02.06.02-.05-.04-.07-.07-.07-.11ZM133.49,221.93s-.08-.06-.18-.15c.05.09.15.17.18.15ZM133.31,221.79s0,0,0,0c0,0,0,0,0,0,0,0,0,0,0,0ZM133.5,221.63c-.26-.07-.26.04-.2.15,0-.11.04-.19.2-.15ZM126.32,219.86c-1.39.12-2.6,1.53-3.62,2.36-.84.68-1.9,2.22-1.41,3.15.68,1.31,1.67.35,2.43-.31,1.49-1.29,4.88-4.42,6-1.67.13.31,2.27,1.13,2.91.93,1.51-.47,1.12-1.45.86-2.68.2.98-.19.45-.2.15-.5-.39-1.97-1.46-2.29-1.66-.85-.51-1.77-.42-2.69-.87,0,.62-1.64.56-2.01.6ZM114.43,222.95h0s0,0,0,0h0ZM112.38,222.28c-.85.42-1.23-.86-2.16-.65,0,.46-1.88.69-2.18.78-1,.29-1.64.89-2.21,1.77-.62.96-.28,2.23.96,1.74.93-.37,1.51-1.18,2.48-1.58.51-.21,1.7-.41,2.13.04.34.35.46.22.97.47.36.18.85-.1,1.08.01,0,.71.93-.4,1.11-.52.65-.47.15-.67-.03-1.42.01.05.01.07.02.11.04.05.05.11,0,.17,0,0,0,0,0,0-.03.04-.11-.05-.13-.14.04.08.11.17.13.14.01-.02.01-.08,0-.17-.03-.03-.07-.06-.12-.09-.01.01-.02.02-.02.04,0-.02,0-.03.02-.04-.5-.26-2.05-.37-2.05-.67ZM262.45,225.25c-4.07-.31-8.13-.75-12.21-1-3.38-.21-6.19-.37-9.58-.65-3.06-.24-7.1-.96-10.19-.32.09,0-.15.11-.29.13.21.24,1.01.7,1.21.75,1.21.31,2.47.46,3.71.59,3.25.36,6.52.54,9.79.73,2.82.16,5.55-.08,8.37.03,6.32.26,12.51,1.93,18.85,1.93-1.51-2.52-6.99-2-9.66-2.2ZM230.47,223.29s-.05,0-.08,0c0,0,.01,0,.02,0,.02,0,.04,0,.06-.01ZM230.07,223.36s.04,0,.06-.01c0,0,0,0,0,0-.02,0-.03,0-.06.01ZM230.41,223.3c-.09.02-.19.03-.28.05,0,.02.02.04.03.06.11-.02.28-.1.26-.1,0,0,0,0-.02,0ZM230.13,223.35c.12-.03.2-.04.26-.05-.21-.04-.28-.01-.26.05ZM230.12,223.41s.03,0,.05,0c0,0,0,0-.01-.01-.01,0-.03,0-.04,0ZM23.63,224.7s0,.05-.02.09c-.05.03-.09.04-.13.04,1.11,1.91,8.71,1.56,8.71,1.34,1.22.07,2.44.14,3.66.21,0-1.16,15.17-.29,16.87-.37.99-.05,9-.19,9-.27,2.66.44,5.32-.65,7.98-.65,0-.89-16.46-.49-17.89-.49-1.13,0-7.97-.49-7.97-.16-6.79-.85-13.66,0-20.48,0,5.76,0,1.46.71.28.26ZM23.48,224.83c-.05-.09-.08-.19-.1-.3.04.07.13.13.25.17.03-.16-.06-.25-.28-.26-.03.27.01.4.13.39ZM70.99,224.87c-.83,0-.73-.62-1.08.43.35-1.05.29,0,0,0,.16,0,1.32-.06,1.08-.43ZM114.19,227.57c1.63,1.41,2.84-1.04,4.48,0,.46.29,2.01.2,2.24-.44.32-.88-.35-1.29-.35-2.05,0,.88-.29-.07,0,0-.74-.19-2.57-.07-3.56.01-.83.07-4.42,1.09-2.81,2.47ZM88.23,225.51c-1.83.27-7.68-.42-7.76-.22.33,1.09,7.72,1.56,7.76.22ZM200.36,226.9c.66.15,1.32.26,1.99.36,1.66.24,3.34.38,5.01.48,3.19.19,6.28.71,9.47.55,3.28-.16,6.98.35,10.22.89v-.22c1.16-.24,3.26.17,4.49.25,1.67.11,3.33.3,5,.4v-.22c.29.07.57.14.86.22,0,.22,6.05.56,6.9.57,2.44,0,4.89-.14,7.33-.14,0-1.6-22.41-2.27-24.73-2.43-2.36-.16-4.21-.83-6.76-.82-3.21.01-6.25-.09-9.42-.49-1.27-.16-10.15-1.64-11.33-.09.16.54.03.47.98.69ZM199.38,226.21s-.03-.08-.04-.12c0,.06,0,.13,0,.19.01-.02.03-.04.04-.06ZM199.34,226.3s0-.02,0-.03c0,0,0,0,0,0,0,0,0,.02,0,.03ZM199.34,226.3c0,.17-.04.31-.09.29.08.02.09-.13.09-.29ZM199.31,225.99s.02.07.03.1c0-.46-.1-.89-.1.5,0-.12.03-.22.09-.32,0-.13-.02-.27-.03-.29ZM162.11,228.74s0-.02,0-.04c-.03,0-.06,0-.09-.02.05.02.08.04.09.06ZM158.29,229.18c0-.91,1.53-.65,2.07-.63.75.04,1.2-.98,1.59.19-.11-.32.12-.15.15-.05,3.49.97,1.09-4.28-.9-2.52-.17.15-2.59.66-2.65.63-.69-.27-1.45.47-2.2.86.04,1.21,1.16,1.25,1.94,1.51ZM162.11,228.74s-.02.02-.04.03c.05,0,.07,0,.04-.03ZM128.84,227.99c-.89.11-.63-.22-1.59.15-.4.15-2.26.56-2.26.55-.47.52-1.08.91-1.62,1.35,0,3.01,3.92.49,5.17.43-.14,0-.92.05,0,0-.05,0-.07.04-.1.08,1.58-.38,2.13.42,3.55.79,1.02.26,1.86-.54,2.18-1.41.65-1.74-2.71-1.62-3.62-1.83-.56-.13-1.01-.2-1.71-.11ZM128.44,230.55c-.08.02-.15.03-.23.05.15.12.18.03.23-.05ZM173.5,232.3s-.07-.04-.1-.07c-.06-.01-.13-.02-.24-.03,0,.03.13.06.34.1,0,0,0,0,0,0ZM173.5,232.3c-.09.02-.34,0-.34-.1,0,.13.19.15.39.14-.02-.01-.04-.02-.05-.03,0,0,0,0,0,0ZM244.08,238.02c.77,0,.22-.54,0,0h0ZM173.5,232.3s0,0,0,0c.05,0,.1.02.16.03.12,0,.23-.02.28-.01-.04-.01-.1-.03-.17-.05-.12-.01-.26-.03-.39-.05,0,0,0,0,.01,0,.15.03.15.05.1.07ZM173.31,232.17s.05.03.07.05c.12.01.24.03.36.04-.22-.06-.49-.13-.44-.09ZM173.39,232.22s0,0,0,0c-.07,0-.15-.02-.22-.02.08,0,.15.02.22.03ZM173.66,232.33s-.07,0-.11,0c1.29.85,3.35,1.11,4.74,1.38,1.64.33,3.32.52,4.99.5,1.36-.01,1.74.25,3.09.46,3.13.48,6.33.14,9.48.19,2.93.05,5.7.95,8.61,1.02,2.88.07,5.79-.25,8.66.15,3.37.48,6.64.97,10.06,1.05,6.9.17,13.83-.38,20.69.7-1.57,1.39-9.25-1.49-9.49,1.29,5.82.53,11.28.16,17.15.84,1.48.17,13.5,2.48,14.11.66-.36,0-3.23-1.03-3.23-1.29-1.91.19-3.4-.09-5.09-.12-1.64-.03-3.36-.25-4.92-.77-.45-.15-1.15-.37-1.37-.84-.2-.42-2.31-.38-2.88-.46-3.26-.46-6.26-.13-9.5-.22-3.17-.1-6.35-.34-9.51-.58-2.74-.21-5.49-.43-8.22-.73-.97-.11-1.65-.02-2.67.09-2.92.29-5.87.15-8.78-.13-6-.57-11.94-1.33-17.96-1.71-5.93-.38-11.86-.88-17.77-1.55.01,0,.02,0,.03,0,5.78.68,1.45.32-.11.06ZM246.67,238.02c-.43-.13-.19.03-.43-.22.43.13.18-.03.43.22ZM245.81,237.8v.43c-.56-.11-.95-.22-1.72-.22.22-.54.65-.25,1.72-.22ZM173.95,232.32s0,0,0,0c.09.03.12.04,0,0ZM23.77,235.74c.02-.06.02-.08,0-.08,0,.03,0,.05,0,.08,0,0,0,0,0,0ZM23.68,235.84s0,.05.03.07c0,0,0,0,0,0,.01-.03.02-.05.02-.08-.02.01-.04.02-.06,0ZM23.74,235.84s.02-.02.03-.03c0-.02,0-.05,0-.07,0,.02-.02.06-.03.1ZM23.77,235.81s.02-.05,0-.07c0,0,0,0,0,0,0,.02,0,.05,0,.07ZM23.75,235.68s-.01.02-.02.02c.02.01.03.02.04.04,0-.03,0-.05,0-.08,0,0-.01,0-.02.01.01,0,0-.02.02-.02-.04,0-.07.02-.09.04.01,0,.03,0,.04.01,0,0,.01-.01.02-.02ZM18.45,237.54c1.21-.08,4.44-1.49,5.12-.6.14-.37.2-.74.21-1.13,0,0,0,0,0,0-.01.07-.03.1-.05.1,0,0,0,0,0,0,0,0,0,0,0,0-.03,0-.06-.07-.06-.14,0,.01.01.03.02.04,0,0,0,0,0-.01.03-.05.05-.07.07-.1,0,0,0,0,0,0-.03.02-.07.04-.07.07,0-.03.01-.06.03-.08-.06-.02-.14-.04-.27-.04-.34,0-.68,0-1.02.02-.6.03-.94.14-1.51.1-1.35-.09-3.12,1.12-4.38.48-1.36-.69-3.3.09-4.72.24-.98.1-.65.69.07.9,2.05.59,4.49.31,6.59.17ZM23.77,235.74s0,0,0,0c0,0,0,0,0,0,0,0,0,0,0,0,0,0,0,0,0,0ZM23.78,235.66s0,0,0,0c0,0,0,0,0,0h0ZM65.17,236.73s-25.43-.61-28.02-.43c.32,1.28,2.55,1.04,3.45.86,0-.21,14.25,1.36,15.86,1.15,3.14-.41,6.29.56,9.42.11,2.28-.33,4.9.9,7.06-.18v.22c1.15-.15,2.3-.29,3.45-.43v.43s.05-.07.1-.08c0,0,0,0,0,0,7.39-1.39,16.32-.97,24.12.07,4.08.54,8.32,1.06,12.3,2.1.58.15,6.17,2.27,6.17.71.85.43.62-.77.28-1.11-.6-.61-2.21-.63-3.01-.77-2.57-.45-4.99-1.37-7.53-1.93-4.98-1.1-10.14-1.33-15.22-1.21-5.06.11-10.11.57-15.18.29-4.33-.24-8.97-.86-13.23.21ZM76.57,238.38s-.02.02-.06.04c.05-.02.07-.03.06-.04ZM76.48,238.37c.06,0,.08,0,.09.02,0-.02-.04-.02-.09-.02ZM169.4,239.65c0,.09.04.19.08.25,0,0,.01,0,.02,0-.04-.06-.09-.17-.1-.25ZM169.57,239.77c-.02-.08-.05-.15-.07-.25.01.05.01.08.02.12.03.04.04.08.05.13ZM169.42,239.56s0,.01,0,.02c0,0,.01,0,.02-.01,0,0,0,0,0,0ZM169.5,239.91s.02.02.03.02c.02,0,.03-.09,0-.28,0,0,0,0,0,0,.03.19.02.26-.02.26ZM169.52,239.65s0-.07-.02-.12c-.04,0-.05.03-.07.04.03.02.06.05.09.08ZM169.5,239.53s-.06.01-.08.03c0,0,0,0,0,0,.02-.02.04-.04.08-.04ZM161.89,241.51c.45-.03,2.87-.44,2.87-.04,1.75-.58,3.6.68,5.39,0-.07-.94-.38-1.06-.58-1.69,0,.05,0,.11-.02.17,0,0-.02-.01-.02-.02-.01,0-.03,0-.04-.03-.06-.04-.13-.2-.09-.3,0,.01,0,.04,0,.05,0-.03,0-.05.02-.07,0,0-.02,0-.02.02,0-.02.01-.03.02-.04-.57-.32-2.5.25-2.5-.25-1.54.31-3.46.28-4.96-.22,0,.27-5.12.38-5.82.65-.64,2.56,4.57,1.85,5.76,1.77ZM133.07,241.68v.22c.29-.07.57-.14.86-.22,0,.43,6.75,0,7.55,0-.97,0-.45-.56-.15-.38,0,0,0,0,0,0,.01-.04.03-.07.04-.08-.17-.87-.24-1.64-1.2-1.59-.59.03-1.18,0-1.76-.04-1.72-.1-3.44-.25-5.16-.17-1.16.06-2.98.15-3.67,1.29-1.36,2.26,2.6.84,3.48.99ZM141.48,241.68c0-.4-.06-.5-.1-.47,0,.02,0,.04.01.06.05.02.09.12.09.41ZM141.33,241.3s0,0,0,0c-.07.1-.1.38.15.38-.18,0-.19-.24-.15-.38ZM141.41,241.39s-.02-.08-.03-.12c-.02,0-.04,0-.06.02,0,0,0,0,0,0,.03.02.06.05.08.09ZM141.48,241.68c0-.13-.03-.22-.07-.29.02.1.04.19.07.29ZM147.73,241.68c-.06-.19-.12-.25-.18-.18.09.01.16.06.18.18ZM147.55,241.5s-.03,0-.05,0c0,.04-.01.08,0,.11.02-.05.04-.08.06-.1ZM145.73,241.45c.59.47,1.3.33,2,.23-.85.12-.51-.19-.23-.19.06-.34.36-1.21-.63-1.54,0-.38-.97-.37-1.18-.32-1.21.3-.72,1.21.04,1.81ZM198.56,240.96s.02.09,0,.14c0,0,0,0-.01-.03-.02.13-.05.25-.08.36,0,.87.11,1.79.13-.82,0,.17-.02.26-.03.3,0,.02,0,.04,0,.06ZM198.55,241.07s0-.07.01-.11c0-.02-.03-.05-.05-.07.01.07.03.14.04.18ZM198.5,240.84s0,.02,0,.03c.02.06.04.08.06.03,0-.1.03-.19.03-.3-.05-.01-.08.09-.1.23ZM198.54,240.62c-.05.04-.05.15-.04.23,0,0,0,0,0,0-.01-.1,0-.19.04-.22ZM198.51,240.87s0-.02,0-.03c0,.01,0,.02,0,.03,0,0,0,.01.01.02,0,0,0-.02,0-.03ZM183.2,241.29c.61,1.61,7.21.76,7.21,1.26,2-.49,7.2,1.58,8.06-1.11,0-.2.01-.4.03-.55-1.15-1.18-15.73-.71-15.3.41ZM.5,268.63c.24.24,0,.14,0,0-.17.32-.1.46.22.43-.13-.43.03-.19-.22-.43Z"/>
</svg>