<?xml version="1.0" encoding="UTF-8"?>
<svg id="_レイヤー_1" data-name="レイヤー_1" xmlns="http://www.w3.org/2000/svg" version="1.1" viewBox="0 0 153.85 207.95">
  <!-- Generator: Adobe Illustrator 30.3.0, SVG Export Plug-In . SVG Version: 2.1.3 Build 182)  -->
  <defs>
    <style>
      .st0 {
        fill: #231815;
        fill-rule: evenodd;
      }
    </style>
  </defs>
  <path class="st0" d="M153.85,132.67c-.43,0-1.08-2.46-1.9-1.94-1.05.67-3.79,2.62-4.13,3.83-1.33.37-2.15,1.86-3.15,2.37-.6.31-1.21,1.59-2.02,1.59.26-.92.65-3.27,1.9-3.27.31-.94,1.58-1.42,2.17-1.92.89-.75,2.67-2.33,2.16-3.12-.57-.88-5.07,4.01-6.05,4.52-.31-.8-.53-4.13-1.38-4.13,0-1.63-1.49-2.67-1.03-5,.53.09,3.27.47,3.27,1.03.69,0,2.8.96,3.1,1.55,1.37,0,4.28,2.1,5.51.86,0-1.1-1.97-1.72-2.93-1.72,0-.99-3.96-1-3.96-1.9-.52,0-1.81-.51-2.07-1.03-.73,0-2.15-.09-2.41-.86-.09,0-1.9-3.41-1.9-3.79-.31,0-3.45-3.4-3.45-3.44.79-.26,2.93-.6,2.93-1.72.82-.49,2.07-1.6,2.07-2.41.21,0,.86-2.46.86-2.93.27,0,0-.58,0-1.03.63,0,1.14-1.79,1.03-2.41.24-1.12.12-1.89.52-3.27.69-.34.05-1.5.93-1.55.24-.01,1.4-.12,1.4-.13.37.54,1.96-1.02,2.26-1.6,1.01-2,.42-4.41.76-6.54.99-.25,1.55-.81,1.64-1.94.04-.43.4-3.23.09-3.23-.04-.74-.39-5,.17-5,0-.69.07-2.98-.86-3.44-.14-1.14-.61-1.42-.86-2.41-.45-.15-1.19-.49-1.38-.86-1.8,0-1.86-2.25-2.21-3.66-.19-.75-.4-1.18-1.07-1.68-.18-1.07-.46-1.85-.69-2.76-.2,0-3.27-5.19-3.27-5.69-1.51-.75-1.07-4.06-2.93-3.79-1.57-.47-2.31-.83-3.79-1.21,0-.61-2.18-.52-2.59-.52-.12-.62-.29-1.09-.86-1.38-.24-.72-2.41-2.61-2.41-2.76-2,0-3.11.17-5.34.17-1.98,0-3.39-1.72-5.17-1.72,0,.14-1.99-1.03-2.24-1.03-.44-.66-1.06-1.73-1.72-2.07-.4-1.58-2.06-2.1-2.99-3.47-.41-.6.4-2.39.92-2.39.45-1.8,1.91-2.89,1.83-5.06-.06-1.59-.8-3.04.07-4.24.4-.55.96-.72,1.55-1.03.17-.34.81-.34,1.21-.34.55-.29.5-.65.43-1.21-.14-1.12.43-.44.43-1.21,0-2.91-2.03-6.05-4.22-7.92-.64-.55-2.15-2-2.15-2.76-1.81-.4-3.1-1.31-1.11-2.32,1.07-.54,1.54-.67,3-.78,0-.42.35.08.35-.34.35-.08,2.93.27,2.93.34.67.19,2.05.19,2.58-.34.6,0,.22-2.24.69-2.24.2-1.3,1.3-3.19.86-4.13-.56-.08-2.76-.21-2.76.34-2.65.2-3.86,1.01-6.55,1.55.15-2.2,2.12-3.78,2.76-5.69,1.07-.54,2.13-2.68,1.89-3.96-1.97-.59-5.58-1.18-6.37,1.21-.37,0-1.38,3.73-1.38,4.13-.17,0-1.03,3.26-1.03,3.62-.35,0-.69,2.47-.69,2.93-.48,0-1.23.92-1.9,1.03,0-1.76-3-2.01-2.78-2.77.23-.79.77-1.88,1.57-1.88,0-.59,2.1-.03,2.14-1.29.03-1.02.74-1.54.07-2.43-.48-.63-1.06-1.63-1.86-1.63-.24-.48-1.03-.3-1.03-.69-1.13-.28-2.45-.99-3.63-.98-1.45,0-2.69.93-4.13.98.11,1.42,1.24,1.62.46,3.32-.46,1-.14,2.43-1.51,2.43-3.68,0-7.73-.72-11.35.11-2.09,0-3.73-.17-5.69-.34,0-.42-1.55-.95-2.07-.52-2.04.6-.81,3.91-.46,5.16.11.4-2.53,4.49-2.99,4.49,0,1.47-2.78,3.33-2.19,4.88.16.43-1.24,3.56-1.08,3.56,0,.61-.59,2.1-1.21,2.41,0,.99-3.61,2.91.17,3.62,0,1.25-1.77,1.7-1.02,3.66.22.56,1.85,2.55,2.05,2.55,0,2.06-.54,3.85-.34,6.37-1.34-.08-2.58.17-3.62.17,0,.38-1.06.69-1.38.69,0,.29-3.1,2.17-3.79,2.24.07-1.78.41-3.79.17-5.34.36,0-.52-4.53-.52-5.17-.07,0-1.76-1.81-1.89-2.07-.6,0-.78-.52-1.38-.52,0-1.38-12.39-4.18-13.09-2.07.5.17,4.48.45,4.48,1.03,1.3,0,2.52.52,3.62.52,0,.11,1.69.69,1.89.69.12.23,2.28,1.03,2.58,1.03,0,.24,1.62.96,1.9,1.03,0,.43,1.21.9.22,1.48-.51.3-1.12.41-1.67.59-1.46.47-2.61.71-4.17.7-.62,0-4.89.04-4.89.34-1.15,0-2.38.47-3.27.17,0,.02-3.57.77-1.11,1.64.26.09,1.8-.03,1.8-.09.33,0,6.89-.59,6.89-.52,1.7-.12,2.92-.52,4.39-.52.64,0,1.75,0,2.33-.34.42,1.39,0,2.77,0,4.13v5c.5,0-.19,9.7-.22,10.9-.02,1.06-.39,10.98-.98,10.98,0,.63-1.33,6.03-1.55,6.03,0,2.44-1.78,4.58-2.24,6.89-.05,0-2.41,4.81-2.41,5.34-.56.38-1.04,2.07-1.38,2.07,0,1.41-1.59,2.29-1.49,3.79.13,1.95-.81,4.2-2.13,5.51-.32-1.11-.67-1.69-1.61-2.35-.29-.2-1.83-1.55-1.83-1.44-.78-.25-1.62.02-2.41-.01-.99-.05-.51-.5-1.38-.5-.26-.51-1.98-1.55-2.58-2.07,0-.71-2.04-.8-1.44.48.31.67,1.27.53,1.27,1.24.42.14,5.86,3.46,5.86,2.07.97,0,4.5,3.79,1.9,3.79-.56.12-1.49-.12-2.33.17-.9.3-1.95-1.35-2.92-1.46-.61-.07-2.84-1.28-2.84-1.64-2.13-1.42-2.02-3.46-1.9-6.03,2.66.8-.76-3.62-.34-3.62,0-.59-1.26-2.68-1.9-3.1-.17-.68-1.02-2.02-1.34-3.3-.14-.57-.85-3.02-1.11-3.02-.14-.55-1.27-4.77-1.11-4.77-.79-2.7-1.27-5.73-1.75-11.3-.66-7.69.02-16.51-.02-24.3,2.18.31,3.96,1.29,6.2,1.44,1.68.11,6.66.79,7.58-.92-2.65-1.01-6.23-.86-9.13-.86,0-.38-3.65-1.38-3.96-1.38-2.9-1.67,1.38-1.63,1.38-2.41.5-.17,3.44-.93,3.44-1.03,1.33,0,2.54-.69,3.79-.69,0-.44,6.02-1.36,6.55-2.07-.95-.33-7.24-.11-7.24.34-1.51,0-2.68.86-4.31.86,0,.33-3.27.67-3.27,1.38-.89,0-1.58.56-2.24,1.38-.86,0-.02,1.89-.69,1.89,0,4.32-.04,8.27-.23,12.67-.26,6.02.18,11.86.55,17.67.27,4.23.95,5.89,1.65,8.42.42,1.6.74,2.56.9,3.67.32,1.28.79,2.07,1.11,3.02.48,1.11,1.59,2.7,2.23,4.3.95,1.75,2.36,2.89,2.35,4.75,0,1.11-.58,2.35-.71,3.62-.09.86.42,1.33.42,2,1.27,0,1.21,3.5,1.21,4.31,0,1.23.72,1.76.86,2.93-1.68-.28-3.84-.82-5.34-.52-2.26-.47-2.86-.25-4.65.34-1.05,1.23-2.41,2.47-2.41,3.96-.33,0-1.41,2.18-1.55,2.76-1.17.78-2.08,2.66-2.41,4.13-.54.27-1.72,2.42-1.72,2.93-1.89,1.57-4.13,4.39-4.13,6.55-.5,0,.29,1.85.39,2.16.3.9-.56.22-.56.94-.44.14-2.24,1.16-2.24,1.38-.8.27-1.76,2.07-2.58,2.07-1.08,1.22-2.4,2.19-2.76,3.62C.53,136.28,0,139.77,0,141.37c0,.56.07,4.22.52,4.22,0,.23-.54,3.1-.34,3.1.09.93,7.68,26.93,8.61,27.39,0,.52.95,1.41,1.38,1.72,0,.69,1.22,3.64,1.89,4.09,0,.77,1.77,2.58,2.58,2.58.28.56.44.23.86.86,1.62.27.54.36,1.55.86,0,1.66,5.69,1.46,5.69,2.24,1.59.4,2.48,1.06,4.31,1.21,0,.39,1.94.59,2.49.7,1.01.2,5.78.45,5.78,1.2,1.79,0,4.34.27,6.44-.43,1.38-.46,4.15.69,5.22.02.29-.18,3.16.51,3.16-.06,1.91,0,3.78-.05,5.69-.17,0-.42,6.55-.17,6.55-.86,1.28,0,2.72-1.37,4.14-1.72,0-.06,3.56-1.21,4.13-1.21-.3-.54.24-2.21-1.21-1.38,0,.23-1.81.63-2.24.69,0,.24-2.92,1.22-3.5,1.44-1.47.54-2.51.78-3.85.86-6.16.36-13.06.63-19.41.63-2.22,0-3.91.47-5.63.47,0-1.07-5.34-.74-5.34-1.21-2.15,0-3.84-.76-6.03-1.03,0-.6-2.27-.85-2.87-.92-1.52-.19-.91-1.19-2.81-.8.33-1.08-.69-.97-.69-1.55-.98-.23-2.13-2.07-2.76-2.07-.18-.72-2.48-5.64-3.27-5.64-.38-1.53-1.7-2.31-2.07-3.79-.83-.41-1.36-3.44-1.89-3.44,0-.33-.89-4.07-1.23-4.3,0-.52-3.59-13.36-3.59-16.03,1.18.39,2.31,2.37,3.23,3.08.93.71,1.95,2.09,2.98,2.09.48.97,5,1.38,5,2.24,1.31,0,2.58,1.21,4.13,1.21,0,.33,2.8,1.03,3.27,1.03,0,.31,7.93,1.22,7.93.69.3,0,6.2,1.64,6.2,1.38,1.37,0,2.91.87,4.25.71,1.57-.19,2.95-.02,4.53-.02,2.4,0,5.89-.56,8.7-.78.97-.07,4.09-.39,4.51-1.58.33-.91-5.12.22-5.81.46-1.62,0-3.61.52-5.17.52-3.08,0-6.13-.17-8.96-.17,0-1.02-10.34-.38-10.34-1.38-1.93,0-3.76-1.03-5.86-1.03,0-.56-6.2-1.56-6.2-2.07-1.43,0-2.47-1.38-3.96-1.38,0,.19-3.96-2.59-4.31-2.59,0-1.01-1.21-.57-1.21-1.55-.91-.79-1.33-1.07-1.72-2.24-.68-.45-.25-.73-.86-1.03,0-.54-2.21-5.69-.86-5.69,0-1.78.47-4.45,2.07-5.51,0-1.62,2.94-2.68,3.27-3.96,1.21-.24,1.67-1.72,3.1-1.72.45-.74,1.89-2.07,2.76-2.07.49-.98,4.31-1.38,4.31-1.9.22,0,2.58-.9,2.58-.86,1.02,0,1.72-.38,2.93-.52,0,.31,6.42-.87,7.06-.86-.2.93-.66,1.9-1.2,2.68-.6.87-.68.33-1.73.44-1.02.11-4.27.6-4.82,1.7-1.45,0-2.58,1.58-3.98,1.93-.99.24-.76,1.63.33,1.36,1.17-.28,1.67-.86,2.96-1.05,0-.43,1.68-.86,2.07-.86.53-1.04,1.42-.6,2.07-.52.32-.64,1.24-.67,1.89-.86-.06.17,0,.23.17.17-.16.3-.91,2.58-1.03,2.58,0,1.78-.89,3.87-.86,5.86-1.03-.26-.57-.57-1.72-.34-.74.15-.84.52-1.38.52-.82.42-.87.66-1.9.86-.67,1.01-4.48,1.91-4.48.34-.8,0-4.13-.45-4.13.34-.77,0-.86.34-1.55.34,0,.03-1.6,1.03-1.89,1.03.26-1.25,1.72-2.53,1.72-3.44.24-.33,2.08-1.89,2.24-1.89,0-.39,1.67-1.38,2.07-1.38,0-.35.92-.42.69-1.72-3.3.36-5.07,3.73-7.24,5.34,0,.25-1.61,3.62-1.38,3.62.13,1.58.69,2.43.69,3.62.37,0,1.34,2.16,1.89,2.59,0,.62,2.76,1.38,3.1,2.07.87,0,1.61.96,2.41.69.65.97,1.36.54,2.24.69,1.36.14,12.75,2.17,12.75,2.93,2.55,0,5.3.61,8.38.8,1.29.08,8.67,1.28,8.67-.8-.91-.33-9.3-.23-9.3-.86-.63-.11-1.45,0-2.07,0-1.24,0-2.25-.52-3.62-.52-1.28,0-5.45-.2-5.26-1.72.05-.44-.24-3.96-.43-3.96,0-.86.24-9.3.86-9.3,0-.75.77-6.2,1.38-6.2,0-.9,1.17-4.29,2.24-4.83,0-1.89,2.07-3.17,2.07-4.82.29,0,1.4-2.65,1.46-3.19.14-1.28.67-2.65.95-4.05,1.87.26,9.37,4.39,10.02-.17.1-.71-.49-1.05-.71-1.72.08-.07.69-1.51.69-.86.96,0,2.79,6.6,2.93,7.58.65,0,.97,3.62,1.72,3.62.34,1.55,1.72,3.11,1.72,4.31,1.17,2.12,2.87,5.23,3.19,7.75.23,1.88,1.04,3.66,1.53,5.72.85,3.57.78,6.93,1.06,10.56.12,1.6-.38,1.08-1.64,1.47-.97.1-1.93.21-2.89.31-1.5.16-2.45-.15-1.76,1.41,1.18.12,2.08-.17,2.93-.17,0,.63,1.48-.17,1.9-.17.94,0,9.3-.64,9.3-1.72,2.15,0,3.34-1.55,5.34-1.55,0,.04,2.77-1.38,3.1-1.38,0-.6,3.23-1.81,3.67-2.6.8-1.44,2.71-2.73,2.71-4.46.17,0,.88-2.93.52-2.93,0-1-.42-.79-.69-1.72,1.02-.82,1.17-2.79,1.45-4.16.44-1.18.68,0,.77.4.24,1.11-.18,3.49.6,3.49.39.58,2.71-.72,2.76-.12.08.85,1.22,1.85,1.23,3.11.03,3.34-1.94,4.88-2.85,7.63-.42,0-1.68,1.22-2.12,1.63-.69.64-1.96,1.71-2.36,2.51-.83,0-4.43,3.06-3.07,3.19,1.29.13,3.66-1.44,4.45-2.5,1.82,0,3.38-4.48,5-4.48-.48,1.21-1.11,8.79-2.07,8.79,0,2.7-1.7,5.08-2.24,7.75-1.1,0-1.66,6.37-2.93,6.37,0,.64-2.52,6.2-3.1,6.2,0,.77-1,1.46-1.29,2.33-.22.66-.91,1.88-1.46,2.15-.27.8-.85,1.51-1.39,2.38-.81,1.29.63,2.98,1.01,1.77.37-1.15,2.11-2.6,2.11-3.81,1.11,0,1.92-4.82,2.93-4.82,0-1.12,1.38-1.93,1.38-3.27.44-.22,1.55-2.57,1.55-3.1.65,0,1.02-3.62,1.72-3.62,0-.54,1.22-3.79,1.55-3.79,0-.77,2.25-9.13,2.58-9.13,0-.63.71-6.03,1.21-6.03.27-.84.63-1.82-.34-2.24.27-1.35.89-2.35.86-3.96,1.04.12,7.41,1.93,7.41,2.24,3.62.73,6.61,2.16,10.68,2.41.5,1,.93.25.73,1.72-.06.46.18.64.31,1.38.13,0,.35,3.2.35,3.62.34,0,1.05,5,1.12,5.69.06.58.11,10.79.43,10.79,0,.36,0,2.58.17,2.58.12.58.69,2.18.69,2.58,1.56-.52,1.75.93,3.45,1.03,0,.87-.17,2.17-.17,2.76.13,0-.09,4.86.4,5.67.64,1.06,1.2.05.86,1.73-.23.59-.3,1.19-.22,1.82,0,.51.29,1.68.17,2.15-.52,0-1.67,3.91.86,3.27-.44-1.32,0-.03,0-.69.32,0,3.79.83,3.79,1.03.46,0,.9.17,1.55.17-.05.28.12.39.52.34-.09.41-.2.81-.34,1.2-1.82-.61-4.22-1.48-6.55-1.03-.83-2.48-2.35.86-.86.86,0,.2-1.11,1.55-1.21,1.55,0,.58-.54,1.62-.69,2.41-.28,0,.15,1.26.17,1.38,1.48.74-1.35,3.18.35,4.31,0,.61,1.83,2.07,2.41,2.07.82,1.64,4.4,1.21,5.86,1.21,0,.03,5.65-.7,6.55-.78.47-.04,3.62-.58,3.62-.77.49,0,1.24-.37,1.9-.52.18-.37,1.55-1.38,1.9-1.38.77-.89,3.88-3.36,1.92-4.7-.14-.09.15-2.28.15-2.54-.87,0-.5-3.23-.57-3.56-.32-1.36-2.7-.13-2.7-.92-1.57-.53-3.3,1.03-4.48,1.03,0-.21-3.24,1.03-3.62,1.03,0-1.08,4.13-1.41,4.13-2.07.71-.29,4.48-.4,4.48-.52,2.26.11,1.64-2.07,1.03-2.07,0-1.42-.68-2.37-1.03-3.79-.45,0-2.34-3.1-2.2-3.94.22-1.39,1.17-2.08,1.17-3.64-.49,0-.54-1.72-1.03-1.72,0-1.32.52-2.91.52-4.65.7.24.93-.31,1.21.52.57,0,.44-.69,1.61-.75.31-.02,2.18.09,2.18-.29.37,0,1.66.09,2.05-.32.88-.94,1.05-3.29,1.05-4.5.04,0,2.78-13.37,1.38-13.37,0-2.12-.57-3.76-.34-6.2,0-2.11,1.03-3.66,1.03-5.51-.17,0,1.21-2.24,1.21-2.24.64-.18,1.71-1.6,2.11-1.61,1.15-.01,1.97-2.36,3.23-2.36,0,2.36-.09,19.3-1.03,19.3,0,.56-.37,5.51-.69,5.51-.02.81-.06,2.82,1.07,2.09.79-.51.65-4.52.65-5.54.55,0,.99-13.95,1.03-13.95,0-1.04.06-6.72.17-6.72-.21-2.26.37-1.79,1.46-3.1.41-.5.78-1.21,1.47-1.21-.49,2.94-.23,5.6-.84,8.82-.49,2.58-.71,4.45-.71,7.03-.49,0-.09,7.96-.34,8.96-.06,0-.24,2.64-.26,3.02-.1,2.17-.47,1.5-1.9,2.69-1.05.87-3.7.14-3.7-1.4,0-1.27.16-2.08.06-3.5-.03-.38.42-4.94.29-4.94-.09-.48.27-4.22.45-4.39.05-.05-.02-2.99-.22-3.28-.64-.93,1.07-4.12-.76-4.57-.19,2.42-.23,4.16-.17,6.46.08,2.79-.35,5.75-.35,8.27,0,2.02-.88,4.87-.25,6.88.47,1.5,1.76.99,2.49,1.3.51,1.02,1.98.69,2.93.69,0-.19,1.38-1.74,1.38-.86,1.03-.02,1.21-.15,1.14-1.2-.08-1.25.32-10.86.41-10.86,0-6.18,1.68-12.45,1.72-18.61ZM112.16,31.71c-.15,0-.27-.05-.35-.17.33,0,.35-.44.35.17ZM24.98,150.24c-.92-.18-9.65-1.6-9.65-2.07-2.17-.73-6.04-2.59-6.55-5.17,2.17-.73,4.13-3.52,7.06-2.41-.52.79-.9.55-.69,1.72,4.43.99,6.3-3.58,10.34-4.48-.18,1.79-.69,3.77-.69,5.34-.27,0,.13,6.28.17,7.06ZM30.32,122.16c-.23-1.01-1.78-2.73-2.59-3.27-.41-1.23-1.21-1.73-1.21-3.1,2.32,1.37,2.59,4.27,5.17,4.14-.08.65-.66,2.24-1.38,2.24ZM42.9,102.52c.4-.11.52.06.34.52-.4.11-.52-.06-.34-.52ZM43.24,114.24c-2.1,0-7.92.06-7.92-3.44.31.17,4.31,2.03,4.31,1.03,1.67,0,4.09-.43,3.62,2.41ZM40.14,110.96c-1.31-.08-2.34-.24-3.44-.52-.18-.35-.74-.74-1.21-.86-.09-.32-2.11-3.39-1.04-3.27.48.95,4.23,1.71,5.34,1.89,0,.15,3.69-.71,3.74,1.25.07,2.4-3.4.57-3.4,1.51ZM42.73,107.17c-1.39-.15-2.38,0-3.45,0-.42-.83-2.77-1.04-3.79-1.38,0-.41-1.55-.44-1.55-1.03-.77-.61-.86-.85-1.21-1.89-.56,0,0-1.7,0-2.24,1.41.39,1.65,1.03,3.44,1.21.81,1.21,1.83,1.37,3.27,1.21.76-1.53,6.42,3.09,3.27,4.13ZM44.97,108.2c-.91-.3-.34-.42-.34-.86.4-.06.51.23.34.86ZM118.53,53.25c0,.39-.52.59-.52,0h.52ZM110.08,62.75c.71-2.09,1.43-4.19,2.53-6.12.59-1.03,1.08-1.56,1.28-2.76.1-.58.17-1.44.64-1.86.6-.54,1.45-.08,2.16-.26-.37,1.25-.25,2.19-.99,3.41-.69,1.14-1.5,2.17-1.7,3.53-.1.66-.28,4.37-1.32,4.37,0,.72-2.27,8.61-2.41,8.61,0,.98-.67,1.76-.86,2.87-.29,1.67-.86,2.91-.98,4.67-.15,2.31-.23,5.43-.23,7.27-.01,0,1.03,5.17,1.03,5.6,0,.95.49,1.74,1.38,2.33.46.31.37,1.04.6,1.48.21.4.6.8.95,1.09.98.84,2.25,1.17,3.44,1.57-.17,1.17.02,1.48-1.15,1.15-.5-.14-2.12-.5-2.12-.98-1.15-.25-3.27-1.11-3.27-2.41-1.82-1.36-2.94-4.1-2.41-6.2-.16-1.11-.05-1.74-.17-2.93-.28,0-.77-.99-.86-1.38-1.72-.86-.01-3.61-.15-4.94-.23-2.29-.15-4.06.66-6.29.26-.73.68-1.31,1.01-2,.4-.86.53-1.82.9-2.69.46-1.1.32-2.1.6-3.26.33-1.34,1.01-2.56,1.45-3.86ZM72.89,88.72c3.78-1.97,4.82-5.29,7.27-8.53,1.41-1.85,2.27-4.06,3.71-5.83,1.07-1.33,1.58-3.3,2.73-4.48.48-.49,3.23-2.24,3.34-2.69.2-.8,1.9-2.73,2.83-3.36.55-.38,1.47-1.98,2-1.98.86-1.15,1.79-1.6,2.76-2.76,1.46-1.1,2.24-2.73,3.62-3.88.74-.62,1.42-2.84,2.59-2.84.55-1.67,2.48-3.01,2.93-4.82.6,0,.55-2.35.17-2.76-.32-.35.38-.77.75-.5.9.69-.33,3.03-.59,3.72-.45,1.22-.59,2.73-1.22,3.94-.75,1.46-2.13,2.11-3.35,3.12-1.61,1.33-2.76,3.15-4.16,4.78-.75.87-1.43,1.91-2.19,2.73-.86.93-1.97,1.81-2.97,2.59-1.27.99-1.8,2.35-2.86,3.54-1.74,1.98-3.23,4.07-4.64,6.29-.28.44-1.68,3.72-2.04,3.72-.31.92-1.38,1.64-1.38,2.41-.73.49-3.79,4.13-3.79,4.82-1.36.68-2.97,2.22-4.05,3.44-.67.77-2.5,1.56-2.5,2.59-.72.36-.68,1.25-1.38,1.72,0,1.13-2.16,2.76-2.91,3.64-.62.73-2.63,4.8-3.47,4.8.42-4.09,2.09-5.77,5.17-8.44,0-1.42,2.33-4.34,3.63-5.01ZM72.19,52.21c.23-.06.29.06.17.34-.23.06-.29-.06-.17-.34ZM75.29,53.42c.47.13.39.04.52.52-.47-.13-.39-.04-.52-.52ZM84.76,64.79c0,.4,3.96,3.62,1.89,3.62-.42-1.6-2.42-2.09-3.1-3.45-.43,0-2.27-3.13-2.59-3.96.99,0,2.76,3.27,3.79,3.79ZM82.01,58.93c0-.52.02-.98.04-1.36-.02.34.82.21.82.5.76,0,3.38-.05,3.93.3.35.22,3.46-.78,3.65-1.17.44.29,1.87-.38,2.49-.64,1.2-.5,2.04-1.54,3.36-1.78.19-.64,2.61-.52,3.27-.52,0,.35-1.72,2.04-2.07,2.35-.94.86-1.6,1.56-2.37,2.51-1.28,1.58-2.88,3.12-4.41,4.68-.56.57-1.84,2.69-2.52,2.69-.31-.63-1.35-1.62-1.9-1.89,0-.73-2.08-2.76-2.76-2.76-.31-.61-1-2.65-1.55-2.93ZM80.63,60.31c-.14-.94-.86-1.39-.86-2.33v-1.46c1.03.39.7.93.95,2.02.11.49.7,1.77-.09,1.77ZM110.61,11.04c1.21,0,1.62-.52,2.41-.52,0-.74,3.66-.9,4.31-1.21.36.48-.16,1.42-.36,1.95-.49,1.31-.51,2.53-2.02,2.53-2.11,0-4.16.33-6.24.34-.23-1.15.52-1.25.52-2.24-.02,0,1.38-1.12,1.38-.86ZM108.54,4.83c.27,0,.59-2.36,1.03-2.59,0-1.31,2.29-1.05,3.27-1.03-.46,1.98-1.99,2.86-2.58,4.65-1.36.68-2.27,4.57-2.76,6.03-1.6,0,.79-6.09,1.03-7.06ZM107.27,14.17c.4,2.07-1.83.6-1.83-.55,1.2-.33,1.47-1.31,1.83.55ZM98.89,9.14c-.26,0-.86-.57-.86-.86-1,0-1.71-1.13-3.1-.86,0-1.55,3.83.48,3.96,1.72ZM66.27,35.49c-.86-1.07.19-2.45,1.09-1.54,0,1.21,2.1-.58,1.68-1.24-.53-.83.39-1.97.39-2.72.39-1.17.47-2.47.51-3.7.04-1.44.46-.96,1.73-.96,0-.08,4.25.69,4.82.69,0,.28,11.37,1.35,11.37-1.72-2.13.02-4.53,1.33-6.55,1.03-.86-.13-2.77-.37-4.05-.43-.63-.03-3.88-.34-3.88-.78-1.81-.12-4.35.31-4.31-2.07.56.03,2.58.59,2.58.86,1.59,0,3.11.15,4.91.09,2.01-.07,4.4.09,6.12.09,0-.17,2.36-.91,2.76-1.03-.3-.91-9.3-.4-9.3-.69-1.72.57-3.58-.05-5.34-.34.16-.73,2.15-4.14,2.41-4.14,0-.31.82-1.72,1.03-1.72.56-.89.79-.52,1.75-.24.54.15,2.07-1.03,2.38-1.65,2.14,0,3.62-2.07,5.51-2.07,0-.79,6.55-.53,6.55-1.55.75.11,2.72.11,2.93.52,1.23,0,2.05.69,2.93.69,0,.11,1.57,1.03,1.9,1.03.29.43.59.62,1.03.86-.36.48-1.33,1.55-1.9,1.55-.44.88-3.42,2.58-4.31,2.58-.38.77-1.12.68-1.72,1.21-1.84,0-.55,1.81-.34,2.58-1.44.25-3.22.28-4.53.96-1,.52-.47.33-.47.93.58,0,2.07-.03,2.07,0,.56,0,6.2-.54,6.2-1.21,1.12-.38,1.61-1.03,2.58-1.03.68-1.35,3.32-1.81,3.96-3.1.94-.24,3.42-2.76,3.96-2.35.41.31,1.16,2.01.18,2.12-1.42.16-2.16,2.03-3.45,2.47-.24.49-2.01,1.21-2.58,1.21,0,1.09-5.86,1.5-5.86,2.24-1,0-3.89.76-2.58,2.07,1.4-.14,2.85-1.35,4.17-1.18.93.12,1.58,1.83,2.03,2.56.45.23.86,1.45.86,1.9.92.46,1.37,6.03,1.21,6.03,0,1.17.86,2.44.86,3.45-1.27,0,.86,2.85.86,2.24,2.34.78,1.97-4.3,2.59-5.51.58-.39.76-.83,1.03-1.38.83-.61,1.77-.77,2.56-.94,2.42-.53,4.33.4,4.33,2.84.84,0-1.03,4.01-1.03,4.31-.22,0-1.35,2.91-2.55,3.38-.74.29-2.27-.23-2.27.76.11.24.39,1.03.17,1.03,0,.81.25,1.31.14,2.05-.06.44-.98,1.9-1.35,2.08,0,1.12-2.26,3.29-3.27,3.96,0,.17-3.04.55-3.45.17-1.09,0-1.38-.23-2.07.69-.61,0-.43.52-1.03.52-.95.72-2.36,1.72-3.62,1.72,0,.5-4.24,1.09-5.05,1.15-1.84.13-3.28-1.32-4.77-1.32,0-.46-3.18-2.29-3.79-3.1-.64,0-1.75-1.22-2.53-1.5-1.15-.41.29,1.9.29,2.19-.34-.11-1.72-.14-1.72-.69,2.02,0-.25-.98-.52-1.38-.51-.4-1.55-.85-1.55-1.55-.79-.21-1.55-1.34-1.55-1.89-.98,0-1.68-5.51-1.38-6.55.37,0,.63-2.57.58-3.09-.15-1.51-1.48-1.34-2.37-2.43ZM103.54,30.51c-.2.38-1.72,1.92-1.72.86.89-.1.9-.86,1.72-.86ZM100.44,27.92c.06-.17,0-.23-.17-.17,0-.52,1.43-.84,1.9-.86-.21.78-1.19.99-1.72,1.03ZM59.61,73.4c.33,0,1.14-3.62,1.72-3.62.11-.45.85-2.41,1.21-2.41,0-.63.39-1.76.86-2.24.88-.88,2.55-5.86,3.27-5.86,0-1.08,2.34-4.32,3.62-4.65.12-.46,1.65-1.9,1.89-1.9-1.76,5.29-4.75,9.26-7.41,15.33-1.42.71-1.26,3.73-3.1,4.65-.19.86-2.01,5.68-2.93,5.68.05-1.87.56-3.47.86-5ZM50.48,87.36c.41,0,0,.52-.17.52.06-.17.11-.34.17-.52ZM50.31,99.25c-.23.06-.29-.06-.17-.35.23-.06.29.06.17.35ZM50.14,88.05c.41,0,0,.52-.17.52.06-.17.11-.34.17-.52ZM48.76,90.46c.46-.11.57.11.34.69-.46.11-.57-.12-.34-.69ZM48.41,99.25c-.38,0-.69,1.46-.69,1.72-.31,0-.4,1.13-.65,1.53-.49.8-.66,1.18-1.76,1.4-.21-1.67-.2-1.43.17-2.93.42,0,.49-1.72,1.03-1.72,0-1.2.69-2.29.69-3.96-.57,0,.49-1.82.52-2.24,2.06,0,.69,5.49.69,6.2ZM49.45,103.9c-.14-.65-.35-1.22-.34-1.9.06,0,1.02,1.9.34,1.9ZM49.45,101.49c.07-.34.28-.79.52-1.03.18.81,2.16,2.96,2.58,3.1.33.67,2.41-.53,2.41.34,1.79,0,3.79,2.58,5.51,2.58,0,.22,4.86,2.24,5.34,2.24,0,.6,4.82.32,4.82,1.38,2.04,0,3.9.4,6.38.69,0-.94,4.38-1.38,5.34-1.38,0,.78,11.21.17,12.41.17,0,.19-3.97,2.26-4.48,2.93-1.06.8-2.22,1.31-2.93,1.55,0,.81-1.99-.4-2.15.04l-3.05,1.06c-.35.08-.57.28-.66.62-.69.06-1.38.11-2.07.17,0,.49-3.41.72-4.05.77-1.17.11-1.08-.35-1.64-1.29-.39-.13-.69.07-.69-.17-3.36,0-5.93-1.04-9.3-1.38,0-1.02-4.74-1.74-5.34-2.93-1.42-.35-2.22-1.11-3.27-1.98-.66-.55-1.72-1.26-1.72-2.15-1.17,0-2.06-5.15-3.96-5.34ZM78.39,117.85c0,.71-3.9,1.73-4.65,2.58-.81-.06-2.93-.75-2.93-1.55,2.34-.59,4.63-.53,7.58-1.03ZM75.29,145.42c0,.17-.6.52-.86.52,0,.21-1.02.63-1.38.86-.32,0-6.03,2.54-6.03,2.58-2.8.7-4.49,2.07-7.75,2.07.42-1.21-.34-2.8-.34-4.05,0-1.08-.22-1.89-.29-3.07-.12-1.99-.4-3.11-.4-4.94.66.01,3.27.55,3.27,1.21.52,0,1.16.17,1.89.17.25-.75.58-.6,1.33-.68,1.83-.19,3.41.5,4.87.5,0,.46,1.38.53,1.38,1.03-1.76,0-2.62,1.8-.27,1.96,1.14.08,2.59-.24,3.55-.24,0,1.38,3.56.05,1.03,2.07ZM78.56,140.94c-.98,0,.12,1.98-1.92,1.51-.18-.04-1.53-.49-1.53-.65-.46,0-3.15-1.66-3.45-2.24-.75,0-4.08-2.17-4.75-1.49-.28.29-3.24.2-3.75.22-.45.02-2.53-.19-2.53-.63-.73,0-1.43-.35-2.07-.35,0-.41-.63.1-.92-.03-.79-.36-2.18-5.73-2.18-6.51-.4,0-.93-1.58-.69-1.9,1.44.11,2.87.23,4.31.34,0,.64,2.24.3,2.24.69,1.72,0,3,1.36,4.48.86,0-.91-1.03-1.05-1.03-1.9-.29.07-1.72.29-1.72-.17-1.55,0-2.7-.64-4.31-.75-.85-.06-1.57-.29-2.24-.29,0-.36-2.03.17-2.41.17-.26-1.17-1.12-2.01-1.55-3.1.17.06.23,0,.17-.17.58.29,2.21,0,2.93,0,0-.25,1.41,0,1.72,0,0,.73,7.75-.12,7.75,3.1,1.04.73,3.05.52,4.31.52-.14,1.2-1.1,2.16-1.9,2.76,0,.65-.69.56-.69.86-.87.58-1.03,1.43-1.03,2.41.26.13,2.07,1.4,2.07,1.38.47-.16,3.1-.78,3.1-.17.57,0,1.63.76,2.73.64,1.03-.11,1.8-1.33,2.44-1.33,0,.4.18,1.89.52,1.89.09.32,1.55,1.78,1.55.86,1.62.16.35,2.56.35,3.45ZM106.13,145.08c0-.14-9.83-2.5-10.85-2.76,0-.08-4.04-1.45-4.65-1.55,0-.88-2.93-.09-2.93-2.24.44.15.83.29,1.03.69,1.8,0,.29-.25,1.89-.09,1.24.12,1.79,1.12,2.93,1.12,0,.45,4.82,1.46,4.82,1.72,1.15,0,1.96.86,3.19.86.5,0,2.27.24,2.5.69.99,0,1.65.69,2.58.69,0,.64,1.31,1.23-.52.86ZM98.72,140.59c.44-.34.8.1,1.21-.52.57.24,2.58,1.03,2.58,1.72-1.53-.06-2.56-1.21-3.79-1.21ZM113.54,132.71c-.66.99-.74,2.13-1.52,3-.71.78-1.28,1.67-2.07,2.27-.79.6-1.43,1.32-1.74,2.2-.05-.67.05-1.43.61-1.78l.38-.31c-.26-.44,1.19-2.39,1.48-2.88.8-1.38,1.64-2.86,3.06-3.68.41-.24.87-.24,1.33-.32.1-.1.19-.19.27-.3-.02.07-.06.2-.1.27-.06.01-.12.02-.18.03-.49.5-1.13.92-1.52,1.49ZM125.42,196.18c.4,0,1.88-.65,2.07-1.04,1.2.3,1.65-.24,2.68-.61,2.02-.73,1.65,1.47,3.18,1.47.69.83,1.12,1.28.69,2.41-.58-.08-1.1.05-1.38-.51-1.03,0-1.13.26-1.54-.64-.25-.54-.78-1.12-1.39-1.26,0,1.09,1.05,2.87-.34,3.62.71,1.21,2.58,1.25,2.58-.34,1.78.47,2.07.4,2.07,2.24-.73.36-1.47,1.45-2.24,2.07,0,1.35-4.31,1.24-4.31,1.9-3.09,0-7.4,2.15-11,1.2-.79-.21-2.96-1.05-2.96-1.72-1.6-.53-1.03-2.01-1.03-3.1.67,0,1.48,1.55,2.58,1.55,0,.07,1.98.17,2.33.17,1.28,0,2.88-1.57,3.19-2.76.48,0,1.05,1.15,1.48,1.57.78.77.98.2,1.96.32.74.37,3.42-.48,4.48-.69.64-1.49,1.02-4.41-1.38-4.82.19,2.06.69,2.27-.17,3.79-.03,0-2.93-2.83-2.93-2.93-.2.21-.57,1.38,0,1.38.13.65.18,1.23-.26,1.85-.15.21-.95.95-.95.21-.7-.23-2.43-5-3.48-1.97-.49,1.43-1.87,2.7-3.24,2.6-.66-.04-2.92-.31-2.88-1.43,0,0-.8-1.1-.74-1.1-.11-.39.16-1,.28-1.34.41-1.19,1.61-2.14,1.61-3.14,1.36.26,2.74.52,4.13.52,0,1.18,3.79,3.5,3.79,1.72.61,0,3.1-.63,3.1-1.2ZM122.15,194.97c.89,0,1.02.53.34,1.03-.45-.67-.59-.31-.34-1.03ZM129.96,172.35c-.12.82.12,1.48-.73,1.66-.74.16-.21,1.39-.13,1.96.19,1.5,1.15,1.99,1.15,3.68-.54.43-2.2,3.79-.52,3.79.37.59.65,1.44,1.21,1.72,0,.32,1.01,2.07,1.03,2.07,0,1.1.52,2.07.52,3.45-.97-.33-9.73,2.72-9.66,2.84-.41-.68-3.43-1.01-3.43-1.46-1.45,0-2.68-.69-3.96-.69.02-.31.08-1.38.52-1.38.03-.53-.63-3.62.17-3.62,0-1.49.93-2.53,1.24-3.79.19-.78,1.76-2.07.14-2.07,0-1.03-2.94,2.85-2.76,2.76-.36-1.08,0-2.65,0-4.14,0-.31-.2-2.41.17-2.41.11-.57-.44-.64-.34-1.21.15,0,.15-2.13.07-2.47-.06-.25-.35-1.15.11-1.15.32-1.89.44-.27.86-1.55,2.59-.87,4.8-2.46,7.5-3.36,1.86-.62,2.49-1.64,4.74-1.64.31.63,1.39.86,2.07.86.16.33,1.22.93,1.72,1.03-.59,2.18-1.4,3.22-1.67,5.11ZM132.48,114.89c-.15.07-4.61-.86-2.4.9-1.61,1.34-3.68,3.96-5.68,3.96,0,.87-4.14,1.19-4.14,1.72-.75,0-5.17.74-5.17,1.38-3.84.2-7.04.69-10.8.69-1.49,0-8.54-1.92-9.02-1.38,0,.52-.43.86-1.03.86-.09.74-.34.84-.85,1.28-.73.62-.8.69-1.55,1.35-.42.62-3.45,1.14-4.98,1.66-.9.31-1.35,8.83-3.04,8.83-.31-.08-.87-.09-1.02-.59-.38-1.24-.03-3.61-.14-3.61,0-.91.47-2.28.19-3.3-.07-.28-.22-.65-.48-.46-2.03,3.19-2.89,6.08-3.98,7.94-.73.55-1.35-.27-1.35-.82,0-1.89,1.36-5,1.57-5.62.49-1.63-.24-.44-.57-.28-.2.79-2.03,3-2.76,3.96-1,1.04-1.89,1.79-2.58,1.21.12-2.27,3.5-7.44,3.62-7.94-.52-.43-1.8,1.44-3.21,3.16-1.52,1.85-3.15,3.58-3.34,3.58,0,.66-4.04,1.22-1.72-.52,0-.58,2.24-1.84,2.24-2.76.45-.23,1.2-1.52,1.38-2.07.41,0,1.06-1.22,1.44-1.5.51-.39,1.32-1.33,1.65-2.18.16-.43-6.51,2.54-7.22,2.76-1.51.48-2.62-.21-2.07-.97.63-.15,3.62-1.67,3.62-2.07.31,0,2.58-1.36,2.58-1.38,1.46,0,4.03-3.04,5.35-3.04,0-.13,9.7-4.34,9.7-4.34l3.56-.71c1.46-.84,2.49-2.15,4.31-2.76.6-1.21,4.65-1.96,4.65-2.41,1.29-.14,2.56-1.29,3.96-1.72,1.64-.47,4.03-1.07,4.03-1.27.94,0,2.68-1.33,3.72-1.33.3-.61,1.8-.8,2.39-.8,0-.54,4.33-.36,4.33-.91.39-.09,3.07-1.07,1.21-1.55-.32-1.05-1.08-.34-1.55-.34-.18-.88.05-1.26.17-2.24,4.35.67,7.4,2.06,11.03,3.27,0,.49,5.86,1.02,5.86,1.21.53,0,2.24.23,2.24-.34.65,0,1.09-.17,1.55-.17.77-1.29,2.04-1.22,3.45-1.55-.18.64-1.96,7.06-1.9,7.06,0,.93-.68,3.04-1.55,3.62,0,.9-2.24,1.5-2.24,2.07-.68,0-2.93.26-3.46.48ZM73.2,31.68c1.26-.15,2.16,1.01,3.62,1.03,3.38.06.59-2.79-.92-3.09-1.86-.38-3.73-1.57-5.72-1.38-.09,1.41.22,1.47.66,2.52.46.05,2.33.61,2.37.92ZM87.36,32.54c1.08.18,2.89-.67,4.16-.88.69-.73,2.18-.29,2.8-1.4.6-1.07-1.99-1.27-2.52-1.35.33-1.99-3.53,1.11-4.22,1.22-.37.51-3.03,1.31-2.4,2.14.62.82,1.34.54,2.17.27ZM103.72,36.19c.43,1.29.82.11,1.38-.17,0-1.41,2.26-.86,3.1-.86-.3.9-.33,2.35-1.21,2.93,0,1.99-2.4.15-2.2,2.01.24,2.14,1.6,1.27,2.72,1.27.89-1.34,1.55-1.52,1.55-2.93.73.36.34-.72.34-1.21h-.52c.34-1.02-.42-2.11.86-2.41,0-1.46-3.45-1.96-3.45-1.38-.99,0-1.98,1.38-2.41,1.38-.15.27-.57,1.38-.17,1.38ZM73.43,35.43c-.5-.35-1.6-.26-2.15.04-.3.17-.92.74-.82,1.16.24.95,2.73.27,3.41.34.8.09,2.45.94,1.95-.69-.34-1.11-1.48-1.21-2.39-.85ZM78.39,39.29c2.17-.58,1.88-4.49-.35-5-.54,1.53.35,3.59.35,5ZM87.32,35.36c.31.02-1.29.72-1.2.64-.3.26-.74.42-.45,1.02.55,1.11,2.71-.12,3.61,0,.82.12,3.43.99,2.46-1-.8-1.63-3.14-.58-4.43-.67ZM106.13,36.02c0-.15-.05-.27-.17-.34.06.17,0,.23-.17.17-.06.23.06.29.34.17ZM77.87,41.01c-1.24,3.74,4.65,2.47,4.65,2.93.54-.13,2.58-.44,2.58-.86.6-.11,3.14-.35,2.24-1.72-.05-.53-.15-.74-.69-.86-.41.81-4.87,3-5.51,1.72-1.12-.22-.68-.13-1.72-.26-.83-.1-.95-.95-1.55-.95ZM87.54,47.02c0-.25-1.32-.43-1.56-.43,0-.67-4.83-.54-5.69-.57,0,.25-2.48.57-2.7.57,0-.67-.85-.24-.85.43-.02,0,.67.69.83.96,1.52-.1,2.03-.96,3.44-.96,0,.15,3.4.33,3.98.28,0,.04,2.46.51,4.12,1.01,1.02.1,1.79.35.72-1.44-.83,0-1.64.14-2.28.14ZM83.39,52.04c-.36.72-2.09-.04-2.76-.17-1.12,2.95,4.68,1.72,6.03,1.55,1.31-1.72-2.7-1.42-3.27-1.38ZM89.24,60.48c0,.23,4.7-1.71,1.21-2.41-.39.47-1.72.7-1.72,1.03-.89.07-2.34.57-3.09.35-.69-.2-.52-.45-1.22-.18.62,2.81,3.29,1.21,4.82,1.21ZM63.06,66.51v.69c.41,0,.41-.69,0-.69ZM63.06,67.89c.01-.15-.05-.27-.17-.34-.11.29-.06.4.17.34ZM62.71,68.06v.52c.36,0,.36-.52,0-.52ZM106.99,77.19c-.16.52-.17.22-.17,1.03.5,0,.73-1.03.17-1.03ZM105.61,81.85c-.16.52-.17.22-.17,1.03.37,0,.64-1.03.17-1.03ZM59.44,131.98c-.46.9.17.47.17,1.21,1-.27.66-1.21-.17-1.21ZM4.48,138.87c.03-.98,2.48-4.82,3.27-4.82,0-2.4-.17-.44-.17-1.21-1.68.44-3.04,2.47-4.14,3.92-.58.76-1.44,2.51-1.08,3.52.34.96,1.43.43,1.43-.38.68,0-.52,3.34.57,3.67,1.47.44,1.1-.66.89-1.73-.5-2.55,1.69-2.88,1.81-5.04-1.21.06-1.86,2.07-2.58,2.07ZM4.31,139.39c-.23.06-.29-.06-.17-.34.23-.06.29.06.17.34ZM22.74,134.74c-.51-1.02-.52-.69-1.21-.69,0,1.46.82.69,1.21.69ZM16.88,136.63c.03-.53-.03-1.04-.17-1.55-.89.12-1.07,1.03-1.72,1.03,0,.79,1.29.63,1.9.52ZM63.4,135.26c-.3,0-.59-.06-.86-.17,0,.7.86,1.75.86.17ZM69.26,135.6c0,.23-.72.34-.86.34.49,1.95,2.29.27.86-.34ZM81.32,140.25c-.41,0-.71,3.1-1.38,3.1,0,1.75-2.57,2.99-3.45,4.31-.35,0-2.3,1.5-2.41,1.72-.39,0-.73.25-.86.69,1.7-.05,2.34-1.55,3.79-1.55.31-.62,1.21-.52,1.21-1.21.99-.33,1.14-1.52,1.9-1.89,0-1.35,1.89-2.39,1.89-3.79.77,0,.95-3.4.86-4.14-1.48,0-1.55,1.46-1.55,2.76ZM73.74,138.01c-.29.4-1.78.65-.34,1.72.97,0,2-.7.34-1.72ZM79.62,147.4c-.61.77-2.93,2.27-1.23,2.84,0-.5,1.26-.48,1.4-1.1.12-.53,1.15-1.83,1.7-1.83.2-.74,1.38-2.84,1.9-3.1,0-.66.69-1.13.69-2.07-.47,0-.21-.69-.86-.69-.4,1.09-.8,2.18-1.21,3.27-.83.42-1.8,1.92-2.39,2.67ZM88.38,143.7c0-.21.11-.3.17-.52-.17-.06-.34-.11-.52-.17-.26.52-.15.55.34.69ZM49.96,153c.08.13.19.18.34.17.06-.23-.06-.29-.34-.17ZM73.57,154.55c0,.4-2.6,1.03-3.1,1.03,0,.64-2.76.29-2.76.86-2.32.36-4.05,1.21-6.2,1.21,0,.62-3.01-.23-2.3,1.3.61,1.33,7.5-1.47,8.85-1.47,0-.35,2.99-.86,3.62-.86,0-.07,5.09-2.07,1.89-2.07ZM4.65,156.79c1.42.31,1.49.55,1.89-.86-.08,0-.52-.54-.52-.69-1.9-1.33-1.74.2-1.38,1.55ZM78.04,157.82c-1.24-.41-.81,1.03,0,1.03,0-.92.53,1.62,0-1.03ZM8.44,161.61c0-2.56-2.72-.45,0,0h0ZM14.99,160.58c-1.56,3.35,3.09.8,0,0h0ZM24.81,162.82c-.39-1.15-2.67,0-.52,1.21,0,.06,1.37-.34,1.72-.34-.32-.43-.63-.76-1.21-.86ZM57.89,162.48c-1.05,2.08,3.26.54,0,0h0ZM74.43,165.4c.17-.58-.11-1.74-1.02-1.25-1.08.58.41,1.41,1.02,1.25ZM68.57,164.71c-3.58-.72,0,2.32,0,0h0ZM38.59,165.06c-.42-.24-.88-.36-1.38-.34-.57,1.52.9,1.48,1.38.34ZM19.98,166.96c-.02-.89-.11-1.21-1.03-1.21-.48.94,0,1.6,1.03,1.21ZM26.19,168.16c1.73-.21.43-1.55-.69-1.55-.49.97-.13.79.69,1.55ZM9.48,168.33c0,.56.42,1.59,1.25,1.05.37-.24.46-.63.11-1-.54-.57-.22-.43-1.35-.05ZM58.58,170.75c-.02-1.11-.24-1.19-1.38-1.38-.35,1.15.17,1.38,1.38,1.38ZM46.52,170.23c-.25,1.01-.08.38.17,1.38.64.08,2.52.21.86-1.21,0-.5-.76-.2-1.03-.17ZM17.4,170.57c-.95-.21-1.89-.64-1.89.86,1.2.4,2.16,1.03,1.89-.86ZM66.5,172.3c.64-1.02.21-1.54-1.03-1.55-.27.79.15,1.3,1.03,1.55ZM22.05,174.36c-.06-.34-.12-.69-.17-1.03-1.18.14-1.1,1.03.17,1.03ZM12.58,174.53c.06.96.86,1.29.86,2.07.93,0,.62-.55,1.55-.86-.05-1.31-1.27-1.21-2.41-1.21ZM63.57,175.57c-2.87-.33,0,2.18,0,0h0ZM31.01,177.12c1.92,0,1.1-1.36-.34-1.38-.21.69-.12.91.34,1.38ZM72.36,176.95c3.17,0-.45-2.26,0,0h0ZM39.45,176.09c-.44,1.19.46,1.21,1.38.86-.12-.99-.4-.86-1.38-.86ZM18.78,177.46c-1.47,2.8,3.46.7,0,0h0ZM63.57,178.84c-1.63,1.93,2.03.47,0,0h0ZM59.61,180.57c.95-3.13-3.22,0,0,0h0ZM48.93,180.57c.02.66.69.95.69,1.38.84,0,1.13-1.68-.69-1.38ZM64.95,180.91c-.06.23.06.29.34.17,0-.15-.05-.27-.17-.34.06.17,0,.23-.17.17ZM28.43,184.87c1.12,0,2.37-1,.69-1.38,0,.63-1.3-.22-.69,1.38ZM39.11,185.39c-1.08-1.08-1.35.16-1.21.86,1.08.33,1.74-.86,1.21-.86ZM61.85,185.56c-3.03-.91.61,3.03,0,0h0Z"/>
</svg>