<?xml version="1.0" encoding="UTF-8"?>
<svg id="_レイヤー_1" data-name="レイヤー_1" xmlns="http://www.w3.org/2000/svg" version="1.1" viewBox="0 0 156.58 253.92">
  <!-- Generator: Adobe Illustrator 30.3.0, SVG Export Plug-In . SVG Version: 2.1.3 Build 182)  -->
  <defs>
    <style>
      .st0 {
        fill: #fff;
      }

      .st0, .st1, .st2 {
        fill-rule: evenodd;
      }

      .st1 {
        fill: none;
      }

      .st2 {
        fill: #231815;
      }
    </style>
  </defs>
  <path class="st2" d="M22.52,64.99c.08-.07.17-.14.25-.21-.08,0-.23.18-.25.21ZM156.58,88.52c-.15-.05-.19-.15-.11-.28-.24-.2-.55-.75-.87-.72.08-.36-.24-.08-.44-.26-.19-.18-.25-.24-.35-.48-.13-.32-.35-.81-.65-.88-.07-.31-.48-.31-.72-.56-.24-.26-.24-.61-.63-.7-.09-.38-.61-.54-.65-.92-.14-.03-.54-.57-.61-.74-.31-.14-.37-.12-.5-.46-.2-.05-.47-.23-.4-.52-.06-.01-.66-.48-.58-.67.13-.3-.45-.49-.39-.76-.64-.15-.65-1.01-1.29-1.16-.06-.62-1.31-1.05-1.25-1.32-.39-.09-.54-.32-.69-.76-.23-.14-.45-.28-.68-.42-.11-.34-.09-.43-.42-.61-.51-.28-.53-.98-1.08-1.11-.03-.12-.4-.61-.46-.62-.02-.44-.57-.42-.67-.84-.42-.1-.38-.19-.56-.56-.26-.12-.52-.23-.78-.35.05-.23-.08-.26-.25-.4-.01-.26.12-.64-.23-.62-.08,0-.64-.48-.61-.6-.41-.09-.25-.4-.66-.5-.13-.35-.36-.31-.5-.63-.1-.22-.37-.61-.59-.82-.27-.27-.4-.32-.68-.59.03-.12-.42-.77-.56-.89-.28-.25-.35-.53-.73-.61-.05-.14-.26-.35-.25-.4-.43-.1-.09-.24-.4-.44-.59-.37-.77-.8-1.27-1.33-.33-.35-.3-.67-.77-.78.03-.15-.43-.56-.51-.63-.16-.13-.6-.54-.56-.74-.36-.08-.35-.34-.28-.67.05.04-.14-.54-.23-.48-.07-.38-.54-.66-.6-.4-.37-.09.19-.9-.38-.81-.37.06-.39.05-.3-.38-.46-.02-.5-.29-.95-.39.04-.18-.18-.56-.3-.66-.22-.19-.55-.47-.66-.77-.35-.14-.44-.14-.62-.49-.04-.24-.18-.38-.43-.4-.4-.15-.36-.48-.65-.72-.35-.29-.23-.18-.39-.59-.25-.27-.21-.31-.2-.65-.19-.04-.38-.09-.57-.13-.03,0-.17.15-.12-.03-.07.27-.81-.1-1.05-.16-.06.25-.07.08-.24.29-.18-.16-.34-.05-.58.02-.43.11-.38.28-.84.17-.12-.27-.26-.42-.36-.69-.42-.1-.08-.35-.44-.42-.27-.05-.52-.25-.85-.36-.06-.02-.51-.04-.58-.08.05-.22-.83-.28-.97-.31-.44-.1-.87-.2-1.31-.3-.03.13-.34.11-.48.09-.36-.05-.43-.03-.62-.25-.13-.14-.25.1-.43.06-.15.14-.92.25-.89.14-.47-.24-.59-.03-1.06.1-.07-.18-.18-.26-.35-.34-.07.14-.39.52-.46.5-.04.16-.11-.03-.25-.06.1-.08.18-.18.24-.29-.26-.15-.34-.87-.55-.21-.16-.15-.21-.34-.42-.44.02.36-.08.43-.3.19-.09.15-.05.22.13.2-.06.27-.23.16-.47.15.05-.21.16-.48-.05-.53-.02.09-.49.65-.38.17-.16-.05-.9-.2-.86-.37-.6-.02-.74-.43-1.25-.55-.04-.16-1.14-.68-1.17-.53-.16-.04-.56-.21-.57-.13-.4-.01-.51.14-.88.06-.27.33-.93.22-1.24.15-.22.2-.46.24-.65.2-.18-.22-.15.05-.43-.01,0,0-.65-.04-.81.16-.47-.11-1.05-.21-1.38.2-.22.27-.35.21-.66.35-.08.03-.48.27-.51.32-.28.42-.68.75-1.15.96-.07.3-.52.32-.78.53-.23.19-.33.33-.66.28-.43-.07-.76-.24-1.09.07-.18-.04-1.52.24-1.51.17-.34-.08-.35.32-.72.31-.42-.01-.52.53-.92.44-.16.24-1.55,2-1.57,1.97.1-.45-.79-.7-1.12-.77,0,.01-.85-.48-1.01-.49-.02.11-.81-.35-.95-.39-.47-.11-1.12-.14-1.41-.32-.09-.06-.39,0-.57-.05,0,.03-.44-.06-.63.11-.25-.06-1.04-.35-1.1-.08-.26.03-.52.14-.71.1-2.44.87-4.03,2.52-4.46,2.47-.18.04-.24.32-.33-.07-.56-.13-1.76-1.95-4.51-1.12-2.83.3-4.46,2.03-4.7,2.03.16-.15-.65.91-1.03.91-1.65-.59-3.31-1.18-4.96-1.77-.08.26-.42.24-.42.34-.31.23-.55.49-.84.59-.12.24-.27.13-.38.37-.18.4-.8.15-.8.72-.71,0-.93.67-1.6.67,0,.03-.56.21-.67.25,0-.37-.61.1-.67.08,0-.43-.45-.11-.62-.05-.39.15-.56.22-.81.22-.17.13-8.4,1.42-8.4,1.5-.27,0-9.02-1.45-9.02-1.72-.25-.02-1.18-.05-1.18-.25-.23,0-.47-.27-.67-.08,0-.17-.36-.14-.5-.17,0,.4-.8.09-.92-.17-.37,0-.74-.08-1.01-.08,0-.06-1.34-.24-1.34-.42-.2,0-4.57-2.48-4.57-2.35-.11,0-.15-.19-.36-.13-.26.07-.12-.16-.37-.08-.23.07-.46.14-.69.21-2.17.68.15,2.87-1.99,3.61-2.24.77-4.29,2.21-6.12,3.71,0,0,.02,0,.03,0,.16.09-1.41,2.37-1.52,2.65-.07.18.13.94-.17.94,0,.14-.28.76-.34.76,0,.34-.34.58-.34.92-.39.19-.54.91-.67,1.34-.42,0-.37,1.4-.76,1.6,0,.42-.34.49-.34.92-.45.3-.26.75-.84,1.09,0,.47-.25.68-.25,1.09-.27.13-.12.22-.42.42-.1.4-.3.39-.42.76-.15.46-.49.79-.67,1.34-.29.2-.42.45-.42.76-.37.28-.49.6-.59,1.01-.1.42-.42.86-.42,1.18-.1,0-.38.67-.42.84-.26,0-.09,1.09-.34,1.09,0,.27-.3,2.1-.42,2.1,0,.71-.1,1.43-.28,2.12-.08.3-.52,2.42-.14,2.42.08,1.22.22,2.25.44,3.5.13.74.31,1.46.37,2.22.03.36.2.64.2.97,0,.15.13.8.25.8,0,.47,0,.6-.02.99-.02.29-.04,2.04-.15,2.04,0,.48-.17.73-.17,1.29,0,.12-.05.56-.08.56,0,.15-.42.92-.59.92-.12.6-.48.8-.59,1.43-.21,0-.34.76-.34.92-.3,0-.42,1.97-.42,2.18,0,.53.24,4.96.76,4.96,0,.39.25.52.25.92.14,0,.33,1.08.36,1.26.08.45.23.54.28,1.07.02.24.15.68.36.78-.06.12.13.59.25.59,0,.42.21.5.22.91.02.49.28,2.12-.64,2.12-.02.44.33,2.39.95,1.42.55-.85.78,0,.49.57-.31.61-.67,1.16-.94,1.96-.32.21-.43.45-.5.84-.34.2-.4.18-.5.59-.19,0-.3.08-.34.25-.66,0-.76,1.18-1.43,1.18,0,.24-.72.84-1.01.99-.24.13-.32.35-.59.35,0,.41-.25.15-.25.42-.14.1-.28.25-.42.25,0,.26-.57.48-.84.5-.09.39-.39.43-.59.72-.24.37-1.01.29-1.39.29-.14,0-.66.04-.75.15-.01.02-.95-.07-1.14-.07-.53,0-.4.5-.84.5-.18.35-.59.47-.59.92-.37,0-.11,1.36-.04,1.66.18.77.52,1.13.96,1.79.32,0,.67,1.24.67,1.51.16,0,.5.82.5,1.01.17,0,.41.83.59.97.84.63-.6,1.48-1.01,1.98-.15,0-.78.52-1.01.76-.23.45-1.01.63-1.01,1.26-.11,0-.35.68-.39.84-.11.44-.16.95-.08,1.41.02.11.31.94.3.94,0,.48.19.79.28,1.34.05.29.14.63.39.76.14.41.37.18.5.59.2,0,.21.24.46.29.37.07.31.38.71.38,0,.23.25-.06.25.17.42.14.39.76.92.76.12.24.3.38.55.49.42.19.13.26.49.41.32.13.41.44.72.44,0,.17.91.08,1.09.08.04.15.01.18.13.2.15.02.17.16.37.22,0,.41.33.42.67.59.11.42.67.42.67.76.31.09.35.38.76.42.14.51.49.49.53.98.03.31-.03.76.38.74.17,0,.15.21.15.31-.01.19.33.31.45.49.04,0,.4.32.5.4.37.26.47.39.97.61.58.26.6.02.41.71-.11.38.49.34.74.34,0,.05.76.38.92.42-.04-.08,1.08,1.33.81,1.33.12.16.67.48.67.42.31-.03.09.61.4.58,0-.42.14.09.16.19.06.26.08.56.21.8.01.03.34.25.43.32.11.05.22.06.34.02.06.12.14.24.22.35.13.16.32.13.4.27-.11.06.16.58.5.4.4.7.88.7,1.39,1.16,0,0,1.53,1.55,2.03,1.49,0,.17,1.34.07,1.34-.17.37,0,.7,0,1.18.08,0,0,.49-.41.6-.39.44.08,1.23-.03,1.67-.03.54,0,1.19-.13,1.87-.02.49.07,1.13-.06,1.58-.06,0-.31.76.06.76-.25.27,0,.37-.18.67-.13.34.06.46-.22.84-.29.15-.31,1.18-.31,1.18-.84.45-.11.8-.53,1.01-.92.19.03,1.09.08,1.09.25.2,0,1.26.29,1.26.17.23,0-.27.2.34,0,0,.56,2-.04,2.27.5.25,0,.49.04.86.02.14-.15.4.04.69.05.02.12,2.07-.38,2.11-.1.16,0,.2-.2.4-.15.07.18.21.23.41.14.54-.01.08.14.67.19-.05-.15.04-.18.28-.09.17,0,.92.17.93.23.5,0,.62.15,1.14.27.33.08,1.58.16,1.62.38.63.1,1.25.2,1.88.29.83.13,1.42.52,2.16.39.07.41,1.74-.31,1.82.21.22-.04.23-.26.43.01.65-.11.1.06.51,0,.16.23.99.09,1.23.05.37-.06.71.07.9-.07.2.28,1.34-.18,1.37.03.26-.21.63-.02,1.04-.06.26-.02,2.32-.2,2.33-.16.24-.25.74.05,1.11-.02-.01-.07.63.28.72.24.29-.12.15-.14.57-.16.23-.01,1.56-.32,1.62.03.64-.11,1.19-.04,1.69-.11.07.41,1.18.02,1.44-.07.1.57,1.09-.91,1.18-1.19.14.06.7-.41.75-.59.05-.22.18-.47.11-.5.19-.43.42-.53.63-1.01.24.11.15-.68.48-.35.17.17.53,1.55.63,1.55,0,.68.26,1.29.34,2.02.27,0,.38,1.7.67,1.85,0,.71.34,1.67.34,2.35.12,0,2.56.79,2.56.92.07,0,.13.86.13,1.01.21,0,.11,1.43.31,1.43.04.26.34,1.51.5,1.51.19.78.56,1.15.69,1.89.04.25.25,1.39.37,1.39v2.13c0,.62.25,1.32.25,1.95,0,.41.25,1.01.25,1.51,0,.96.03,2.19,0,3.28-.01.64.18,1.23.18,1.84,0,.49.13,1.08.13,1.58,0,.58-.06.99-.06,1.49-.15,0-.29,1.76-.5,1.76,0,.62-.31,1.23-.31,1.89,0,.56-.35,1.05-.4,1.64-.03.32-.14.56-.28.87-.1.23-.35.3-.34.58,0,.19-.24,2.02-.39,2.59-.25,0-.8,1.39-.8,1.6-.05,0-.59,1.12-.63,1.26-.04.16-.47.92-.51.92,0,.38-.46.69-.46,1.09-.36.18-.49,1.09-.8,1.09,0,.52-.8,1.08-.8,1.68-.85.31.41,1.24-.49,1.68,0,.45-.64.74-.72,1.04-.05.18-.3.64-.54.73-.16.58-.47.79-.61,1.43-.05.2-.42,1.63-.59,1.63-.15.8-.74,1.02-.74,1.73-.17,0-.68,2.27-.68,2.52-.42,0-.19,2.19-.68,2.19,0,.28-1.36,2.1-1.56,2.1,0,.45-.47.71-.68,1.18-.18,0-.46.73-.46.92-.22,0-.91,1.33-.91,1.51-.17,0,.03,4.8.03,5.77,0,.17-.08,1.01.08,1.01,0,.37.15.19.15.5.28.15-.28,1.81.08,1.93.23.08.8.49.8.7.28.25.57.34.78.67.16,0,1.01.23,1.01.34.24,0,.37.02.96.06.2.01,1.14.21,1.14.28.64.15,1.51-.15,1.9.31.39.46.44.45,1.18.45.06.17.22.3.41.39.5.27,1.15.39,1.76.46.33.04,1.75-.01,1.04.3-.16.07-.15.19-.35.19-.17.36-.28.21-.73.32-.57.14-1.34.68-1.78.68-.24.37-.76.57-.9.92-.13.31-.58.18-.58.51-.39.25-.75.39-.91.76-.13.28-.37.72-.68.84,0,.42-.46.49-.46.92-.28,0-.27.76-.46.76-.08.83-.11,1.37-.11,2.1-.72-.34-1.63.25-2.34.25s-1.23.17-2,.17c-.38-.07-.58.02-1.06.04-.78.04-1.47-.13-2.02-.31-.62-.2-1.5-.41-2.15-.41,0-.2-1.28-.3-1.51-.25,0-.51-1.92.22-2.14.18-.3-.06-1.64-.46-1.64-.68-.48-.16-.7-.5-.17-.5,0-.17.09-.61.08-.67-.14,0-.17-.29-.17-.42-.25-.16-.25-.21-.4-.42-.2-.29-.51-.44-.84-.66-.29-.19-1.15-.43-1.37-.35-.25-.37-.47-.39-.92-.34.04-.32.37-1.68.76-1.68,0-.4.14-.73.53-.94.38-.2.38-.46.11-.83-.24-.34-.44-.23-.36-.71.07-.41.29-.77.36-1.17.08-.45.25-.21.32-.6.1-.49.1.12.15-.57.02-.3.08-1.06.39-1.06,0-.63.19-1.04.12-1.66-.06-.52-.2-.97-.2-1.5,0-.45.34-.88.34-1.33s.17-.69.17-1.22c.11,0,.21-1.26.15-1.5-.11-.46-.41-.74-.8-.98-1.57-.97-.38,1.82-.95,1.82,0,.25-.06,1.85-.25,1.85,0,.18-.02,1.18-.17,1.18,0,.55.04,1.19,0,1.85-.19,0-.6,1.38-.63,1.6-.09.75-.38,1.39-.38,2.19-.07,0-.42.78-.42.92-.46.37-.58.63-.67,1.18-.33,0-.23,1.43-.5,1.43,0,.49-.25.69-.25,1.23,0,.57.08,1.27.08,1.71,0,0,.76,2.05.76,2.19.35.23.64,1.51.84,1.51,0,.25.16.23.25.5.31,0,.19.24.43.41.37.25.52.65.99.86,0,.34.3.27.3.59,0,.19.23.44.34.65.22.4.58.48,1,.6.24.07.47.15.72.17,0,.35.17.15.17-.17.25.05,1.68-.19,1.68.17,1.13,0,1.65.17,2.72.17.75,0,1.3.17,1.95.17.47,0,.83-.04,1.57.04,1.02.11,1.59.19,2.65.15.9-.04,1.94-.06,2.99-.02,0-.2,2.24-.59,2.62-.59.83,0,1.34.19,2.2.01.45-.09.74-.18,1.22-.18.7,0,.33-.17,1.03-.17.24-.35,2.51-.42,2.51-.67.33,0,2.74.18,2.74-.25.22.02,1.25.16,1.25,0,.29,0,.32-.14.68-.17.08-.5.93-.87,1.37-1.23.32-.26.63-.51.97-.66.43-.19.47-.54.63-.88.34-.17.77-1.01,1.03-1.01.06-.25.34-.92.57-.92.11-.41.23-.49.68-.76,0-.26.23-.14.23-.34.52-.13.7-.19,1.03-.5.4,0,.67-.15.8-.42.33-.16.46-.92.8-.92,0-.2-.6-.76-.11-.76,0-.11.6-1.09.23-1.09,0-.09-.57-.05-.78-.18-.38-.23-.58-.17-.81-.49-.26-.36-1.06-.64-1.1-.96-.02-.2-.13-.27-.05-.55.31-.11.12-.34.34-.34.06-.31.55-1.06-.23-.92,0-.25.2-.59-.23-.59-.08-.17,0-.22.23-.17-.52-.33-1.01.19-1.25-.17-.24-.14-.43-.22-.68-.08-.13-.19-1.05-.85-1.36-.75-.37.12-.59-.22-1.02-.19-.62.04-.5.19-1.08.08-.28-.04-.46.05-.53.27h-.68c-.62.13-1.3-.02-1.94.08,0,.04-.75.08-.91.08,0-.19-.37.28-.77.12-.09-.04-.37.02-.37.13-.06,0-1.39,0-1.44-.07-.11-.16-.85.03-1.18-.01,0,.23-.46-.03-.46-.28,0-.39.2-.54-.4-.6-.27-.03-.97-.04-.97.04-.73.18-.46.66-1.3.64-.56-.02-1-.16-1.21-.47-.17,0-.8-.03-.8-.17-.29-.07-.64.04-.91-.08-.14-.2-.23-.36-.41-.48-.15-.11-.24-.33-.38-.4-.21-.1-.68-.3-.68-.46-.18,0-.16-.67-.39-.67.08-1.15.1-2.21-.34-3.29-.11-.26.85-2.4,1.06-2.51.2-.53.51-.89.95-1.39.51-.57.99-1.17.99-1.72.52-.19,1.09-1.77,1.37-1.77,0-.22.51-2.27.57-2.27,0-.77.46-1.32.54-2.27.07-.84.71-1.81.71-2.69.2,0,.68-1.38.68-1.68.38,0,.3-1.68.91-1.68,0-.3.32-.26.4-.59.08-.34.25-.26.4-.59.16-.34.8-.77.8-1.09.24-.24.46-.43.46-.67.31,0,.57-.93.91-1.09.13-.5.44-.84.6-1.39.1-.34.65-.74.65-1.05.15,0,.63-.92.8-.92.14-.42.46-.67.46-1.09.34,0,.61-1.86.66-2.28.02-.15.1-.74.25-.74.24-.25-.1-3.28-.02-3.57.07-.27.39-1.52.39-1.64.25,0,.17-1.77.44-1.77.03-.25.14-1.18.25-1.18.05-.48.25-.78.25-1.18.17,0,.18-1.76.31-1.76-.08-1.07-.31-2.38-.31-3.32,0-1.11.07-2.52-.07-3.75-.03-.23-.18-1.75-.24-1.75-.05-.59-.19-.94-.18-1.44.01-.45.14-3.01-.13-3.01,0-.67-.37-1.07-.37-1.77-.24-.16-.01-.35-.25-.5-.07-.37-.12-.24-.12-.5-.1,0-.19-.43-.19-.59-.15,0-.3-.65-.43-.86-.24-.42-.2-1.08-.24-1.59-.06-.75-1.91-1.44-1.91-2.17-.07,0-.42-1.8-.42-2.02-.23,0-.43-2.27-.67-2.27-.05-.71-.22-1.12-.3-1.68-.05-.34-.1-.67-.15-1.01-.07-.5-.02-.27.29-.5,0-.45,1.51-.3,1.51-.59.71,0,1.08-1.01,1.76-1.01.47,0,.71-.28.84-.67.19,0,.5-.16.5-.42.07.04.13.09.17.17.13-.27,1.26-.42,1.26-.59.26-.07.48-.11.59-.34.17-.1.62.07.71-.13.2-.42.9-.4,1.22-.87.19-.27.3-.37.48-.76.12-.18.16-.38.11-.6.16-.02.22-.1.17-.25.28,0,.1-.34.42-.34.07-.27.31-.38.46-.6.21-.29.44-.36.55-.66.37,0,.59-.22.59-.59.09,0,.58-.93.75-1.1.12-.11.21-.25.26-.41.25.03.39-.06.41-.28.09-.13.26-.15.26-.31.71,0,.5-1.01.5-1.51-.23,0,.06-.25-.17-.25-.12-.36-.24-.22-.46-.47-.28-.31-.25-.78-.46-1.13-.23-.11-.34-.57-.34-.8,0-.37-.25-.6-.25-1.05-.02,0-.21-.9-.25-1.09-.33-.17-.49-2.1-.5-2.1,0-.44-.41-.59-.65-.95-.18-.27.02-.5-.28-.65,0-.27-.27-.36-.45-.56-.22-.25-.32-.43-.64-.53-.24-.08-.5-.05-.5-.34-.55-.14-.11-.22-.59-.29-.39-.07-.14-.03-.35-.19-.29-.23-.41-.42-.91-.52,0-.3-.87-.56-1.18-.59-.1-.28-.32-.5-.67-.59-.07-.26-.65-.8-.84-.92-.11-.21-.67-.79-.87-.94-.28-.21-.56-.91-.81-.91-.06-.2-.05-.2-.25-.25-.02-.18-.05-.36-.17-.5-.34-.17-.35-.69-.59-.92-.29-.29-.29-.73-.76-1.01,0-.34-.5-.49-.5-.84-.32-.16-.46-.64-.76-.88-.25-.2-.5-.54-.5-.8-.05,0-.67-.83-.67-1.01-.29-.22-.76-.65-.76-1.01-.37-.18-.15-.62-.5-.88-.18-.13-.51-.76-.57-1.01-.08-.38-.31-.76.01-.97.12-.08.3-.18.3-.33.51,0,.24-.17.76-.17.17-.26.26-.35.58-.4.3-.04.63-.33.93-.61.17-.35.36-.17.5-.17,0-.29.53-.7.76-.97.33-.39.72-.45.84-1.05.22-.03.43-.11.65-.15.51-.08.03-.13.61-.27,0-.18.58-.17.73-.2.58-.09.18-.13.52-.25.38-.13.84-.26,1.25-.24.21,0,.46.52.67.45.53-.16,1.13.49,1.62.32.2.39,1.82.95,2.33.61.09-.06.79.15,1.03.15,0-.49,1.43-.06,1.43-.42.34,0,.61-.13,1.01,0,.24-.32.52-.42.84-.42,0-.35.95-.12,1.08-.49.11-.3.32-.13.52-.44.35,0,0-.08.34-.08.17-.26.76-.5.76-.84.39,0,.79-.26,1.01-.59.44-.28.93-.09,1.26-.59.47-.12.6-.59,1.09-.83.25,0,.34-.12.26-.35.15-.04.29-.09.43-.16.21-.11.33-.18.33-.42.46-.23.62-.76,1.18-.76.27-.13.31-.42.54-.61.27-.23.51-.67.98-.62.47.05.5-.18.92-.28.16-.32.35-.07.59-.42.38-.21.87.11,1.26-.08.33-.43.34-.25.9-.31.15-.02.53.08.53-.03.5,0,.08-.08.34-.08,0,.41,1.79.26,2.1.34,0,.3,1.68.27,1.68.17.12-.02,1.34.07,1.34-.17.41,0,1.01-.09,1.01-.76.22,0,.22-.21.48-.15.15.06.3.05.45-.01,0-.23.4-.59.59-.59,0-.1.35-.67.42-.67,0-.39.1-.52.17-.92.21,0,.25-.73.59-.84.06-.22.23-.84.42-.84,0-.17.05-.27.11-.38-.09.04-.18.06-.25.11-.14.23-.22.36-.2.29.06-.16.13-.24.2-.29.17-.28.43-.73.7-1.22,0-.04.02-.07.02-.11.05-.03.06-.07.1-.1.41-.74.82-1.49.96-1.82.02-.06.03-.12.03-.17.04-.03.02.04-.03.17-.06.25-.23.58-.31.84-.4.26-.35.69-.66.99-.04.07-.08.15-.12.22-.05.21-.23.34-.27.64-.03.22-.11.34-.18.46.07-.03.15-.07.24-.15.12-.1.66-.57.65-.57.06-.26.34-.34.4-.6.13.03.74-.8.84-1.02.52-.2.52-.94,1.02-1.06.02-.1.29-.62.39-.6.06-.27.67-1.31.98-1.24.24-.3,1.08-.25,1.5-.52.22-.13.77-.08.96-.04.01-.06.57-.07.68-.04.41.12.56.15.92.23.04-.19.74-.06.87-.02.48.18.33-.14.74-.04.18-.03.24.01.19.13.22-.02.57.13.52.38.72.04,1.32.47,2.09.65,0,.03,1.35.72,1.64.38.5.03,1.21-.25,1.6-.58.1.02.71-.06.71-.1.1.02.45.09.59.05.09-.4,1.13-.05,1.18-.25.3.07.54-.2.86-.19.25,0,.61,0,.78-.21.61.27.38-.26.98-.12.29-.52.43-.73.57-1.34.15-.21.35-.14.54-.3.23-.19.48-.03.56-.39.23-.05.37-.52.46-.5.21-.25.21-.03.48-.32.18-.2.28-.41.55-.44.1-.01.24-.25.26-.32.13.03.09-.14.3-.19.08-.36.29-.33.62-.46.3-.49.65.06,1.05-.28.24-.2.68-.19.93-.09.34.14.3-.11.66-.12.44,0,1-.76,1.08-1.08.31-.07.36-.45.65-.58.2-.09.39-.64.57-.6.07-.29.56-1.51.85-1.44.08-.18.59-.99.65-.97.43-.36.79-.24,1.34-.21.05-.23.33,0,.43.01.33.02.45.08.72-.14.16-.24.3-.22.42.05.17-.21.51.03.55-.13.27.06.46-.07.61-.03-.07.29.25-.02.3-.05.22-.12.36-.09.67-.07.05-.24.7-.17,1.07-.23.62-.11,1.62-.57,1.48-.6.1-.45.19-2.3.44-2.67.19-.29.24-.46.33-.82ZM14.21,147.97c-.09.04-.25.51-.25.59-.55-.3-.31-.73.25-.84v.25ZM61.79,90.82v.17c-.12-.04-.09,0-.17-.08.11,0,.09-.03.17-.08ZM57.93,96.01c0-.43.21-.16.21-.75.1,0,.24-.99.28-1.21.08-.46.11-1.2.47-1.56-.02-.5.21-.97.21-1.39.36.29.59,1.81.21,1.81-.04.15.3.75-.11.75,0,.43.33-.12.11.53.21-.04.25.11.11.43-.48,0-.16,2.16-.09,2.56.08.46.5,2.77.73,2.77-.24.33.21,1.27.21,1.71.12,0,.64,1.97.64,2.24.15,0,.43,1.05.43,1.28.18,0,.44,1.42.48,1.65.13.73.33,1.45.53,2.2-.02-.05-.06-.07-.14-.06-.11.25-.08.36.08.34.05-.12.07-.2.06-.26.13.5.26,1.01.37,1.56-.43-.13-.36-.39-.43-.85-.09,0-.32-.61-.32-.75.09,0-.6-1.81-.67-2.2-.14-.69-.82-1.16-.82-1.9,0-.51-.37-1.79-.96-2.08,0-.16-.55-1.07-.64-1.07-.08-.31-.23-1.02-.53-1.17,0-.45-.28-3.73-.32-3.73-.04-.15-.35-.85-.11-.85ZM51.03,139.06c-.37-.25-.12-.25-.59-.25-.05-.11-.08-.22-.08-.34-.43-.25-.58-.28-.67-.76-.09-.03-.16-.08-.25-.08,0-.16.89-.26.87.18-.01.28.5.33.72.33.13.39.59.56.59.92.18.23.5.18.5.5-.33,0-1.09-.11-1.09-.5ZM54.9,141.84c-.11.03-.14-.03-.08-.17.11-.03.14.03.08.17ZM61.79,144.7h.34c0,.2-.34.2-.34,0ZM62.21,144.78c0-.24.34-.17.34.08-.15-.04-.17-.08-.34-.08ZM66.66,146.29c-.18.18-.23-.08-.34-.17v.17c-.38-.05-.49-.28-.85-.31-.22-.02-.83.01-.83-.28.68,0-.14-.08-.17-.08,0-.18-.92-.25-1.18-.25,0-.21,2.61-.29,2.61.42.41,0,.79.09,1.2.14.4.06.34.24-.02.28.12.17.5.17.5.34-.28-.03-.92.06-.92-.25ZM70.42,123.7c-.15.37-.32.57-.55.47-.14.55-.6.65-.81.66,0,.27-1.06.83-1.21.84-.16.01-.86.15-.94.58-.12.01-.47.41-.47.43-.27.02-.45.04-.63.06,0,.11-.46.45-.55.49-.14.05-.53.18-.53.27-.33.03-.37.3-.66.33-.49.05-1.07.76-1.54.63-.16-.05-.94.25-.94.45-.09-.1-.48.02-.48.33-.21.02-.53-.08-.73.09,0,.81-2.22.38-2.22,1.27-.49.45-1.54-.97-1.8.23-.23-.09-.28.12-.41.05-.08-.32-.18-.45-.34-.16-.1.18-.57.2-.57-.17-.23.41-.69-.28-1-.02-.12-.48-.29.03-.29-.27-.27-.08-.61.07-.96.11-.46.08-3.98.58-3.98-.17-.79.21-1.34.05-2.01.39,0-.35-1.44-.53-1.74-.52-.6.02-1.2.05-1.81.07,0-.17-.32-.48-.46-.47,0-.46-.94.49-.94-.08-.6.06-.79-.25-1.45-.09-.43.11-.59-.24-1.09-.3-.44-.06-.64.11-.91-.35,0-.43-.51.23-.51-.5-.89.27-1.4-.25-2.22-.19,0-.44-.65-.44-.87-.49,0-1.1-.38.09-.55.04-.1-.34-.44-.69-.71-.45.03-.02.15.17.15.3-.36-.08-.62.05-.79-.51-.63.53-1.23-.5-1.74-.47,0-.39-1.8.34-1.8-.28-.15,0-1.73-.47-1.73-.5-.31.02-1.4.07-1.4-.74-.96.24-1.72-.34-2.78-.43-.21-.02-1.03-.62-1.03-.63-.02.18-.09.25-.21.19,0-.17-.69-.61-.91-.6-.68.02-1.35-.36-2.06-.39-.51-.02-1.14.39-1.51,0-.48-.51-.8-2.02-.89-2.99.59-.04,3.39-.49,3.39.22.34.34.58.85.85.84.25.74,1.02.54,1.53.61.21.63,1.76,1.46,1.76,1,.05,0,1.96.1,2.01.25.36,1.06,1.32,1.27,2.1,1.04,0,.03.25.13.57.25-.03,0-.06,0-.11.02.08.08.04.05.17.08.01-.04,0-.07-.02-.08.47.17,1.06.37,1.19.41.48.15.57.43.97.19.17.56.43.55.82.54,0,.31,1.05.38,1.29.57-.03-.02-.15.2-.15.32.17-.09.32-.22.45-.4.23,1.14.89,0,1.44.46.15.12.87.74.87.15.57-.1,1.13-.19,1.69-.29,0,.39.62.26.77.22.22-.06,1.76.12,1.76.15.46-.03.58.14.97-.06,0-.12.43.26.58.31.18-1.12,1.14-.23,1.27-.5.24-.49,1.54-.21,1.77-.22.24-.9,1.24.42,1.58.39,0,.61.98-.11,1.15.18.12.21,1.45-.67,1.45.11.57-.18.87-.07,1.28-.1,0,.49,1.86.01,2.08,0,0-.13.48.39.58.45.22.12.69.19.69-.39.18-.01.42-.03.72-.06,0,.37.83-.21.99-.23,0-.54,1.78.29,1.78-1.01.1.04.17.26.27.27.18-.8.72-.05.97-.07.15-.01.61-.29.63-.25.34.51.19-.48.55.03,0-.3.4-.31.54-.32.42-.03.57-.45.9-.47.44-.03.51-.58.88-.6.31-.02.32-.34.65-.31,0-.66.41,0,.41-.56.31.13.36-.15.69-.16.23-.19.56-.44.56-.95.27-.11.93-.11,1.05-.68.08-.17.49-.65.49-.66.25-.15,1.73-.61,1.73-.95,0,0,1.85.68,1.88.8.14.24.11.37.24.37.06.33.16.53.28.71.22.3.05.19.18.51.06.14.54,1.17.46,1.37ZM73.14,122.51v-.17h.5c0,.17-.36.14-.5.17ZM89.24,243.8c-.1.59-.04.65-.8.84-.24.21-.4.5-.8.5-.5.25-1.29.81-1.45,1.14-.19.39-.6.53-.6.88-.31,0-.34.63-.68.76-.1.21-.6.72-.91.84,0,.18-.35.81-.62.82-.6.02-.92.46-1.55.61-.2.29-1.37.34-1.37.34-.63,0-1.01.31-1.6.17,0,.31-1.24.04-1.48.08,0,.06-2.03.5-2.28.5,0,.13-2.34.39-2.56.3-.03-.01-2.23.35-2.23.29-.3,0-1.48.13-1.48.42-.66-.07-1.05.11-1.54.04-.52-.08-3.4-.1-3.4-.13-.57-.06-.92-.17-1.46-.22-.37-.03-.48-.11-.9-.03,0-.33-.76.08-.92-.25-.35,0,0-.08-.34-.08,0-.17-.18.04-.34,0,0-.17-.73.08-.88.08-.55,0-.23.03-.55-.23-.2-.16-.48-.03-.73-.03-.47,0-1.04.19-1.16-.38-.08-.41-.69-.52-.97-.84-.37-.43-1.34-.78-1.34-1.43,0-.14-.3-.88-.34-.88-.12-.25-.23-.47-.25-.76-.35-.12-.31-.26-.42-.59.63.01.76.37.8.92.03.42.21.64.21.92.22,0,.34.67.67.67.19.37.67-.06.97.34.27.36.92.41,1.13.84.5,0,.25.17.7.17h.73c0,.13.08.13.08,0h.92c0-.33,1.04-.16,1.2-.14.57.06.93.31,1.44.31.18,0,1.14,0,1.26.14.13.15.62-.09.8.28.51,0,.47.17,1.07.17,0,.13,2.18,0,2.51,0,0,.14,1.82.14,1.82,0,.72,0,.92-.3,1.71-.08,0-.2,1.02-.44,1.28-.45.64-.05,1.28-.09,1.91-.13.22-.24,1.09-.55,1.6-.59,0-.46,1.26-.59,1.71-.59,0-.11.66-.25.8-.25,0,.05.78-.47.91-.59.28,0,1.82-.47,1.82-.67.37-.05,1.71-.24,1.71-.42.42,0,1.08-.19,1.37-.46.22-.2.72-.46,1.03-.46,0-.14.72-.86.91-.92,0-.49.41-.21.23-.76.27-.05.38-.19.34-.42.21-.2.73-.22,1.03-.34,0-.24.99-.25,1.25-.25ZM82.62,239.01c-.23-.05-.1.01-.23-.08.23.05.1-.01.23.08ZM82.97,241.03c.58-.14.93-.5,1.48-.5,0-.06.84-.29,1.01-.2.02,0,.92-.18.92-.22.42,0,.18-.17.68-.17.74,0,.03-.02.57-.08-.13.44-.27,1.81.8,1.51.12.23.26.58-.11.67-.58,0-.68.17-1.25.17,0,.19-1.15.11-1.37.42-.32,0-.74.31-.91.5-.47,0-.82.65-1.16.92-.35.28-.76.54-.89.93-.33,0-.34.12-.52.32-.19.21-.09.18-.51.18.07.18-.04.27-.34.25,0,.15-.59.23-.84.27-.24.03-1.44.36-1.44.49-.81,0-1.24.33-1.94.5-.17.26-.43.21-.8.25-.15.14-.3.28-.46.42-.44,0-.95.25-1.48.34.04-.38-.14-1.36.53-1.48.43-.08.61-.46.61-.7.14,0,.91-.49,1.14-.59,0-.26-.11-.38.23-.5,0-.37.91-.58.91-.76.1.04.17.1.23.17.51-.34.39-.92,1.37-.92.34-.51.71-.23,1.14-.63.13-.12.46-.22.46-.29.45,0,.79-.23.91-.5.32,0,.03-.29.23-.42.38,0,.41-.24.8-.34ZM80.34,238.92c.47,0,2.8-.13,1.2.4-.43.14-.47.4-.97.27,0,.08-.68.06-.68,0-.57,0-1.72.07-1.94-.42.37,0,2.39-.21,2.39-.25ZM80.53,139.23c.04-.16.14-.31.25-.42.08.43.11,1.43-.42,1.43-.03-.35-.23-1.01.17-1.01ZM78.18,144.7h.34c0,.16-.2.22-.34.25v-.25ZM77.25,145.87c.25-.11.36-.08.34.08-.14.04-.25.14-.41.08-.06-.02.07-.11.07-.16ZM76.25,146.55h.42c0,.11-.35.17-.42.17v-.17ZM126.11,57.46c.64.15.06-.07.59.05-.06.24,0,.37.17.38.16.42.23.19.37.65-.01.29.12.43.41.41.28.08.54.18.81.26-.01.12,0,.23.06.33.09.17.29.44.45.48-.08.37.15.46.36.69.07.08.21.6.21.57.03,0,.21.61.2.65.41.09.62.21,1.06.24-.02.07.44.37.52.55.12.27.29.28.56.39.05.16.1.31.15.47.41.09.58.23.77.61.22.43.63.52.67,1.02.47.24.58.54.95.95.24.27.25.62.57.69-.02.07.5.46.58.65.11.24.51.46.7.51-.04.19.63.82.69,1.11.45.1.45.88.9.98-.07.3.49.82.7,1.07.43.51,1.01,1.91,1.76,2.09.02.66,1.47,1.09,1.34,1.69.35.19.57.73.93.82.15.33.13.36.48.54.12.32.26.52.54.72.37.26.54.71.92,1.05.2.18.18.49.47.54.37.06.34.07.44.48.57.35.81.7,1.2,1.07.28.26.15.35.52.48.24.09.21.28.5.43.14.37.32.2.4.52.12.03.48.71.61.74.12.31.3.4.56.56-.06.24.08.3.23.49.05.55.44.29.81.62.59.51.72,1.21,1.26,1.67-.05.21.27.47.46.62.41.1.14.38.5.46.07.29.28.32.33.64.04.29.27.36-.27.23-.13-.03-.39,0-.43-.04-.15-.17-.22-.12-.35.04-.34-.08.43-.03-.4-.15-.15-.02-1.03-.05-.98.05-.04-.08-.17-.3-.22-.1-.53-.12.05.1-.59-.05-.04.18-.25-.11-.41-.09-.06.25-.58-.09-.63.11-.29-.04-1.49-.26-1.55-.01-.13-.03-.88-.21-.97-.09-.04.05-.33.22-.43.23-.14.02-.79.15-.82-.03-.04-.24-.55-.04-.74-.02.05-.6.06-.59-.36-.69-.05.19-.09.38-.13.57.18-.02.22.05.13.2-.18,0-1.08.2-1-.14-.19-.04.07-.83.29-.88,0-.03.39-.22.5-.32.21.05,1.23.28,1.28.04.28-.07.14-.28.34-.35.24.15.42.11.55-.13.16.04.33.08.49.11.11-.31.3-.38.57-.21,0,.04.63-.39.7-.38.47.05.71-.16.93-.63.07-.14.29-.27.13-.31,0-.17-.07-.47-.03-.61-.11.06-.24.09-.37.09-.05-.34.34-2.53-.5-1.58-.38-.23-.36-.43-.71-.73-.2-.17-.55-.18-.47-.5-.33.03-.85-.44-1.02-.8-.08-.16-.3-.5-.47-.55.11.03-.33-.42-.27-.36-.13-.12-.26-.23-.4-.34-.29-.2-.34-.45-.67-.7-.33-.24-.05-.23-.37-.49-.18-.14-.28-.29-.33-.51-.18-.04-.59-.41-.54-.64-.19-.04-.5-.48-.54-.64-.42-.21-.49-.67-.88-.85-.3-.13-.35-.39-.49-.67-.24-.26-.36-.11-.4-.52-.26-.06-.42-.37-.54-.64-.62-.14-.77-1.12-1.39-1.44-.05-.19-.5-.72-.69-.76-.08-.08-.36-.68-.38-.6-.36-.08-.52-.63-.81-.92-.32-.33-.4-.5-.8-.74-.01-.21-.21-.48-.4-.52-.21-.44-.46-.5-.65-.92-.38-.09-.38-.38-.52-.72-.3.05-.39-.03-.29-.24-.33-.2-.34-.4-.73-.6-.18-.38-.6-.91-.98-1-.07-.18-.34-.38-.33-.42-.05-.07-.09-.13-.13-.2-.3-.07-.28-.41-.58-.48-.08-.32-.31-.25-.47-.58-.26-.54-.84-.91-1.23-1.39-.43-.52-.69-.94-1.14-1.44-.22-.05-.15-.13-.35-.34-.08-.32-.36-.26-.51-.56-.21-.4-.02-.51-.51-.63.02-.08,0-.15-.03-.21-.16-.05-.16-.11-.2-.27-.14-.03-.27-.06-.41-.09-.36-.29.12-.52.17-.74ZM136.31,85.93c.17-.28.89-.12.84.11-.28-.04-.56-.07-.84-.11ZM136.42,90.7c-.23.37-.66.18-.84-.11.28.03.56.07.84.11ZM135.97,82.14s-.53-.02-.69.01c-.1-.32-.29-.21-.06-.58.1-.13.19-.27.28-.4.17-.29.09-.77.19-1.1.1-.33.34-1.45.72-1.36.11-.46,1.97-.97,2.09-.47.55.02.74.34,1.19.45-.04.17,1.13.35,1.05.67.37.17.93.55,1.08.94.26.37.58.73.74,1.15.11.3.24.63.54.78-.18.32-.63.2-.89.14,0,.03-.84.07-.96.04-.05.21-2.66-.43-2.71-.19-.08-.02-.29-.07-.45-.1-.08-.02-.94.17-.94.13-.35-.08-.85-.02-1.18-.1ZM140.08,86.02c.4.09.8.09,1.2.16.22.04.84.4.34.28-.15.67-.61.35-.97.24-.43-.13.03-.37-.53-.5.04-.18-.08,0-.05-.18ZM141.51,87.3c.59.48.36-.81.39-.95.28.07.52-.23.56.19.03.23.05.51-.03.73-.18.5-.65.44-1.08.33.11-.48.1-.06.16-.31ZM138.64,86.29c-.08-.01-.16-.03-.23-.06-.05-.03.09-.09.11-.14.13.04.17.1.13.2ZM138.75,90.66c.24-.1.45-.2.61-.4.32.07.34-.18.76-.13.44.05.4.03.7-.23.46-.04.43-.15.94.04.04-.16.31-.07.45-.07.21-.26.83.13.93-.3.09.08.71.23.92.13.67.15.57,1.27-.01,1.55-.03.12-1.4-.02-1.61.23-.15-.03-.69.02-.73.18-.24-.11-.83-.15-.88.06-.29-.07-.52.05-.86-.05-.56-.18-1.12-.35-1.68-.53.21-.25.1-.34.45-.48ZM145.07,83.63c.34-.28.51.11.87-.23.43-.14.6.4.87-.06.11.06.09.02.14.12-.38.14-.8.59-1.09.28-.1-.11-.79.39-.78.33-.3-.07-.56.08-.94,0-1.78-.39.77-.31.91-.43ZM116.74,55.48c.33.15.32.24.61-.03.59.08,1-.03,1.45.07,0-.03.68.18.88-.06.34.12.57.13.82.19.05-.2.1,0,.16.04.4.09.38.26.76.35.39.09.56.02.71.42.34.08.42.72.68.68.23-.03.17-.13.29.15.11.26,1.12.56,1.06.85.22-.07.72.08.88.29.31.18.1.71.26.75-.08.36.33.62.53,1.01.11.23.23.47.42.66.09.09.23.4.33.43.42.14.42.46.71.85-.11.48.66.52.61.74.28.36.29.7.75.86-.07.28.34.51.56.56.1.28.71.65.69.76.16.11.51.46.58.48.02.38.31.17.4.52.16.22.34.33.6.4.04.36.18.36.48.54.02.42.52.59.68.98.11.27.66.88.94.95.08.33.26.15.4.52.23.05.21.22.43.39.34.26.41.42.57.66.19.28.49.57.79.92.12.37.09.43.46.62-.04.16.21.08.27.32.13.03.77.77.77.78.29.34.54.59.53,1.07.33.12,1.32,1.03,1.23,1.4.4.17.52.4.86.37,0,.02.38.44.31.59.23-.02.32.08.26.32-.23.03-.32-.07-.27-.29-.05.04-.15.04-.35-.03-.18-.06-.82-.52-.94-.03-.19.03-.2-.09-.29-.21-.04-.05-.31.04-.41.05-.37.02-.33.17-.68.15-.35-.02-.36.2-.69.19-.39-.01-.56.43-.9.35-.01.06-.69.62-.74.61-.23.38-.47.54-.55.91-.33-.07-.44,1.34-.87,1.53.06-.27-.03-.35-.29-.24-.02-.3.03-.53-.17-.77-.14-.08-.17-.19-.1-.32-.21-.27-.77-.76-.7-1.11-.24-.09-.91-.9-.9-.98-.15-.21-.61-.74-.57-.91-.22-.18-.32-.82-.63-.89-.12-.03-.37-.4-.43-.55-.13-.33-.01-.34-.26-.61-.1-.12-.19-.25-.28-.39,0-.03-.43-.53-.4-.52-.13-.34-.47-.34-.58-.7-.11-.35.01-.47-.38-.56-.21-.05-.48-.35-.42-.61-.35-.19-.37-.86-.81-.96-.02-.18-.38-.69-.61-.74-.09-.37-.23-.57-.61-.74-.16-.3-.24-.63-.56-.77-.17,0-.23-.06-.18-.17-.26-.22-.19-.47-.62-.66.03-.14-.86-1.4-1.16-1.55-.16-.08-.47-.7-.43-.89-.14-.07-.57-.51-.56-.56-.44-.55-.72-1.26-1.18-1.76-.24-.27-.6-.62-.55-.87-.23-.11-.59-.57-.64-.58-.07-.27-.43-.37-.36-.69-.11-.09-.86-.75-.87-.72-.47-.5-.48-1.1-1.23-1.4.09-.41-.75-.64-.76-1.21-.09,0-.18.02-.26.03.07-.33-.36-.27-.38-.6.27-.24.65-.38.82-.59ZM133.15,83.91c-.12.01-.19-.03-.23-.14.21-.04.29,0,.23.14ZM126.99,84.82c-.56-.13-1.34-.21-1.77.2-.29-.03-1.45-.06-1.51.17-.45-.1-1.05-.03-1.03-.76.36.01.61.18.81-.16.13.08.23.05.28-.11.22.03.45.06.67.1.43.06.44-.25.83-.15.14.04.66.01.7-.13.24.05.38.12.62.03.49-.18,1.12.07,1.54.29-.04.16.61,0,.54.3-.47-.11-1.36-.1-1.69.22ZM127.45,86.92c.17.13.26.12.26-.03.24.06-.36.43-.26.03ZM126.26,87.25c.2-.35.37,0,.6-.38.31.26.53-.24.48.54-.21-.05-.73-.14-1.08-.16ZM126.72,87.87c-.09.38-.66.24-.59-.05.23.05.47.02.59.05ZM125.62,88.13c-.09.2-.24.22-.45.07.04-.05.08-.1.12-.15.17.1.2.2.33.08ZM127.9,82.71c-.04.16-.89-.05-1.08.18-.61-.14-1.21-.19-1.9-.35-.07.31-.84.24-.87-.15-.02-.39-.54-.49-.53-.51-.36-.29.33-1.06.4-1.37.1-.43.52-.76.61-1.15.1.02.51-.33.54-.48.62-.03.66-.48,1.33-.2.13.05,1-.16,1.01-.21.75.23,1.5.46,2.26.69-.03.11.69.78.81.9.16.17.29.39.44.42,0,.47.27.44.51.82.17.28.88,1.13.16,1.09-.37-.02-2.09.16-2.15.42-.48-.11-.91.05-1.53-.09ZM129.58,84.04c.2.12.36.07.47-.15.19.22.33.23.43.01.53.12,1.4.11,2.06.04-.17.72-1.52-.14-1.66.48-.65-.04-1.1.12-1.75.12,0-.13-.03-.25-.09-.36.13-.01.54-.08.55-.13ZM114.34,53.89c.11,0,.13.06.04.18-.12,0-.13-.06-.04-.18ZM109.76,53.18c.06,0,.12.03.18.05,0,.08-.05.09-.11.05.05.15.07.14.21.22-.07.31-.37.09-.61.03.14-.09.25-.21.34-.35ZM105.58,54.12c.33-.26.67-.19,1.08-.18-.2.34-.71.24-.94.73-.06-.01-.11-.03-.16-.04.05-.22.32-.21.03-.51ZM103.97,55.14c.11-.34.36-.3.66-.29.21-.45.44-.49.82-.59-.05.08-.02.11.06.1-.18.21-.4.25,0,.35-.05.23-.26.02-.39.46-.07.23-.15.46-.22.7-.26-.06-.07.33-.4.25.04-.18-.01-.31-.17-.38.05-.24-.53-.11-.37-.59ZM75.24,59.29c.14,0,.19.06.17.17-.08,0-.16,0-.24,0-.09-.03.07-.13.07-.16ZM75.66,147.13c-.16.18-.45.25-.67.25,0,.24.2.34-.25.34,0,.27-.53.04-.59-.17.22.06.28-.06.17-.34.65-.13.89-.23,1.34-.08ZM75.91,121.33v-.17c.09,0,.5-.19.5.08-.17.03-.34.06-.5.08ZM102.86,108.28c-.27,1.09-.64,2.39-.64,3.22-.88.18-1.99.13-2.41.97-.61.38-1.03.09-1.47.69-.54.74-1.59.93-2.07,1.73-.53,0-.27.48-.64.48,0-.49-.19-.9.08-1.63.17-.47.66-.3,1.04-.3.11-.27.21-.54.32-.81.65,0,1.81-.36,1.93-1.13,1.05-.4,1.61-.73,1.61-1.77,0-.3.18-1.93.32-1.93,0-.44.32-.68.32-1.13.44,0,1.01-.55,1.13-.97.66,0,.75-.16,1.45-.16-.39.5-.43,2.74-.97,2.74ZM95.59,79.6c.06.01.11.02.16.04-.01.06-.02.11-.04.16-.1-.02-.08-.1-.13-.2ZM101.2,84.42c.15.09.07,0,.15.12-.15-.09-.07,0-.15-.12ZM102.43,94.11c.23.05.44-.02.37.26-.13-.06-.41-.09-.37-.26ZM102.95,94.83c.26-.03.33.08.19.3-.22-.04-.28-.14-.19-.3ZM106.45,82.61c-.26-.09-1.11-.46-1.36-.13-.54.68.54.63.88.71-.08.28-.08.34-.21.55-.18-.04-.36.05-.4.25-.22-.13-.56-.11-.82-.19-.08.2-.2.2-.35,0-.1.18-.2.36-.29.54-.29-.24-.32-.21-.72-.25-.05-.21-.35-.4-.58-.48.06-.15.09-.27.11-.43.07-.47-.18-.02-.07-.51-.39-.09-.28.11-.36.43-.25.08-.45.33-.56.56-.21-.2-.3-.33-.6-.4.06-.13.25-.92.44-.97.17-.04.28-.34.47,0,.22.39.39-.11.71-.04-.03-.32.16-.4.19-.82-.51-.05-.8.12-.99.55-.31-.19-.55.13-.52.4-.02,0-.65.34-.71.44-.29-.18-.49.15-.54-.3-.16,0-.29.07-.45.07.02-.77.01-1.05.3-1.78.05-.14.15-.62.32-.58.06-.27.19-.1.26-.37.15.03.29-.45.44-.42.27-.2.79-.44.84-.67.17.01.66.13.67.07.21.05.48-.02.78,0,.02-.07,1.18.27,1.45.29.52.02.22.73.9.64.46-.06.88.76,1.35.96-.02.24-.08,1.36.03,1.39,0,.13-.18.39-.21.55-.13-.03-.44.05-.41-.09ZM106.54,84.1c.02-.11.05-.22.07-.33.24-.03.33.08.27.32-.48-.11-.1.06-.35,0ZM107.09,107.96c-.11-.29-.36-.58-.11-.85.31-.34.69-.11.79.27-.33.09-.4.42-.67.59ZM108.1,82.56c-.15-.06-.78-.25-.8-.27-.04-.27-.09-.49.09-.76.29.07.51.18.32.5.11.15.44.33.4.52ZM108.19,110.91c-.25,0-.5.03-.5-.25.17,0,.42-.48.42-.59h.25c-.06.28-.11.56-.17.84ZM110.43,80.06c-.47.78-.75-.46-.97-.81-.15-.24-.4-.26-.48-.65-.06-.31-.08-.59-.32-.74-.1.44-.36-.15-.45-.28.06-.27-.42-.05-.34-.42-.19-.04-1.12-1.12-1.05-1.45-.32-.07-.5-.87-.88-1.06-.06-.24-.36-.51-.5-.81-.45-.1-.74-.75-1.16-.96-.04-.37-.88-.64-1.11-.34-.09.11-.44.59-.17.65,0,.32.23.87.45,1.05.01.15.28.58.38.6.11.3.44.34.36.69.17.04.22.34.42.44.01.64.89.99.76,1.56-.46-.13-2.02-.75-2.33-.36-.15-.16-.31-.12-.54-.14-.62-.06-.02,0-.39.23-.27.17-.41-.24-.66.06-.38.04-.42.23-.83.24-.63.5-1.56.77-1.72,1.5-.49.12-.18.56-.79.42,0-.18-.09-.37-.16-.53-.15-.32-.72-.89-.65-1.21-.48-.26-.69-.91-1.04-1.17-.18-.13-.5-.39-.44-.63-.14.01-.89-.28-.83-.53-.13-.07-.58-.1-.61.03-.04,0-.32-.1-.31-.16-.6-.31-.48.41-.44.42-.04.17-.11.25.02.55.12.27.43.51.39.66.37.18.95,1.21,1.01,1.53.11.5.48.68.42,1.22-.99-.27-1.02-1.44-1.87-1.64-.06-.25-.46-.26-.42-.44-.21-.1-.75-.48-.73-.6-.51-.26-.09-.18-.51-.43-.12-.08-.23-.16-.33-.27-.21-.2-.51-.3-.56-.57-.07-.47-.86-.38-.97-.83-.38-.09-.31-.58-.73-.47-.1.03-.32-.17-.49-.24.03-.13-1.01-1-1.29-1.13-.34-.16-.39-.61-.49-1-.04-.17-.05-.35-.03-.53-.24.03-.31-.04-.21-.22-.39-.05-.41.14-.69-.16-.2-.22-.39-.44-.49-.71-.49-.11,0-.44-.44-.7-.28-.17-.27-.44-.34-.77-.24-.06.12-1.04.18-1.22.07-.24.15-.48.24-.72.09-.24-.02-.3-.01-.56-.45.04-.4.61-.49,1.01-.08.36-.28.6-.39.95-.09-.02-.19-.41-.28-.52-.2-.25-.32-.21-.25-.55-.12-.1-.4-.55-.44-.71-.29-.18-.34-.41-.26-.75-.05-.15-.75.51-.84.4-.16-.28-1.65-.96-1.86-1.24-.05-.06-3.8-2.43-5.42-4.34-.84-.99,1.81-2.09,1.88-2.32.15-.48,1.51-.43,2.77-.16,1.43.31,2.77.89,2.75.99-.11.48,1.25,2.48,1.41,2.6.05.12.31.59.38.6.15.28.35.35.28.67.22.21.74.53.67.84.67.71,1.1,1.75,1.74,2.55-.1.45.67.73.78,1.07.08.24.65.89.83.94.05.2.18.3.35.34.03.26.41.48.38.6.2.09.26.22.17.39.14.06.27.13.39.23.19.16.06.32.21.52.16.04.54.36.58.55.07.41.2.35.48.64.44.45.67.95,1.14,1.3.17-.23.62-1.06.26-1.15.08-.35-.16-.82-.08-1.14-.36-.43-.29-.83-.64-1.24-.33-.38-.58-.69-.77-1.12-.14-.33-.72-.4-.61-.86-.1-.02-.45-.29-.42-.44-.29-.07-.41-.47-.67-.66-.28-.2-.1-.55-.49-.64.08-.33-.32-.52-.32-.85-.37-.14-.28-.33-.46-.62-.11-.17-.63-.65-.57-.91-.32-.07-.19-.47-.56-.56.07-.28-.52-.86-.63-1.23-.11-.37-.7-.87-.62-1.21-.17-.18-.69-1.14-.5-1.32.32-.28.23-.5.76-.6-.12.5,1.16-.6,1.38-.55.42.1-.04.16.33.25-.02-.18.06-.23.23-.15.27,0,.39-.28.28.18.33-.05.47-.3.76-.29.18.01.82.18.85.05-.18.02-.22-.05-.13-.2.28.02.37.13.27.32.11.08.44-.41.73-.1.23.24.05.38.37.18.38-.21,1.61.2,1.74.49.12.27.54.47.83.53.56.13.27.04.42.4.14.31.45.31.58.6.12.29.24.55.54.74-.05.2.41.87.49.89.17.29.33.43.48.77.1.23.3.2.36.46.37.22.05.19.33.42.07.16.12.46.23.48.12.28.29.53.52.72-.07.32.11.08.15.31.03.18.6.9.78.94-.07.32.51.82.59,1.17.33.08.54.68.74.92.23.28.49.68.84.82.08-.19.27-.43.3-.54-.1-.02-.08-.42-.05-.53-.23-.19-.26-.83-.25-1.18-.42-.35-.53-.9-.54-1.42-.24-.13-.66-.87-.61-1.09-.15-.03-.58-.63-.68-.8-.07-.13-.41-.65-.53-.68-.04-.41-.58-.46-.49-.89-.24-.29-.37-.65-.3-.93-.2-.05-.28-.47-.46-.62-.08,0-.01.14-.1.06.03-.13-.07-.2-.17-.27-.19-.02-.27-.14-.24-.35-.14-.35-.32-.32-.39-.69-.03-.14-.08-.27-.15-.39-.08-.17-.28-.59-.05-.63.23-.05.13-.54.36-.49.06-.26.25-.54.55-.52.31.02.43-.18.8-.12.18-.31.87-.23,1.16-.16.22-.26,1.13-.02,1.18-.25.94.22,1.78.44,2.58.77-.05.2.37.49.57.61.33.18.7.32,1.01.01.55.3.66,1.37,1.07,1.71-.13.57,1.19,1.19,1.07,1.71.58.48.65,1.55,1.28,1.93.35.22.42.6.85.8.02.45.44.46.59.82.68.16.12-1.21.09-1.53-.06-.63-.83-1.25-.71-1.8-.18-.04-.38-1.24-.56-1.48-.25-.34-.37-.54-.75-.71-.16-.16-.15-.54-.34-.77.02-.22-.06-.7.07-.67.03-.14.06-.27.09-.41-.2-.13-.29-.1-.28.11-.31-.07.07-.5-.38-.6.08-.37.13-.15.2-.47.24.06.22-.25.49-.38.19-.09.35-.15.45-.35.44.01.68-.11,1.02.06.19-.23.34-.09.61-.03.05-.15.15-.19.28-.11.03-.11.72-.14.92-.06.42.18.82.28,1.27.39.31.07.69.11.82.45.43.21.76.63,1.21.65.65.03.9.42,1.28.81.16.16.78.81.76.92.52.12.5.81,1,.92.26.51.55.79.82,1.31.22.05.57.52.52.72.31.17.46.19.57.51.04.1.11.18.2.25.15.14.22.5.4.54-.08.34.48.75.61,1.09.16.04.56.85.69,1.11.19.04.43.37.38.6.22.19.43.39.64.58-.12.17-.09.29.09.37,0,0,.27.33.32.5.16.06.31.13.47.19.17.39.37.73.66,1.06.3.34.22.58.64.79.08.16.16.32.23.49.34.21.43.23.59.61,0,.25.1.37.3.37-.04.19.71,1.03.8,1.05.03.33.44.95.69,1.11.34.21.28.63.64.79.33.15.23.38.45.66.27.34,0,.33.35.61.12.1.22.22.31.36.14.2.3.29.25.54.16.07.28.18.38.32.12.19.28.56.25.69-.32-.18-.42.08-.77,0-.03.13-.61.09-.79.08-.07.28-1.21,0-1.28.31-.22-.31-2.54.54-2.65,1.03-.44.16-.76.69-.86,1.1-.21-.05-.37.72-.72.87-.13-.42-.1-.6-.5-.81-.07-.3-.22-.1-.33-.32-.12-.25-.22-.55-.44-.8-.25-.06-.85-.82-.88-1.06-.03,0-.55-.61-.56-.56-.28-.17-.64-.87-.68-1.19-.28-.17-.43-.7-.69-.76-.27-.41-.45-.86-.77-1.1-.15-.11-.41-.52-.39-.64-.24-.35-.42-.31-.42-.79-.17-.22-.28-.5-.56-.56-.19-.37-.22-.55-.6-.74-.06-.61-.7-1.17-1.21-1.49-.09-.37-.33-.25-.44-.7-.24-.06-.24-.2-.34-.42-.32-.07-.15-.29-.52-.38-.01-.49-.18-.28-.28-.67-.29-.07-.35-.59-.69-.76.02-.1-.58-.13-.76-.18-1.04-.24-.97,1.29-.25,1.78.3.2.06.25.32.53.18.19.33.42.47.65.14.22.15.48.41.54.08.32.26.1.34.42.14.21.28.45.46.62-.06.26.46.68.74.84.43.26.05.72.6.84.04.18.27.44.48.54-.06.26.48.54.4.87.39.32.44,1.14.92,1.25.07.72.77.99.99,1.69.53.12.15.4.4.47.22.07.65.64.06.5-.03.14-1.56-.35-1.8-.41-.17.27-.43.16-.63.11.09-.4-.75-.47-.85-.23-.14.34-.34.13-.5.09-.04.17-.23.11-.37.09-.07.14-.17.26-.29.36-.27.22-.64.36-.81.68-.56-.13-1.08,1.06-1.34,1.49ZM111.78,86.42c-.11,0-.13-.06-.04-.18.12,0,.13.06.04.18ZM114.78,83.92c-.5-.11-.35-.16-.1-.22,0-.09-.05-.13-.17-.1,0-.14.09-.15.26-.03.06-.11.02-.08.12-.14.1.22-.14.19-.11.49ZM119.31,83.32c-.02.08-.9.17-.91.22-.38-.09-.77.19-1.13.05-.35-.14-.69-.38-.6-.79-.27-.06-.36-.03-.61.03.07-.3-.12-.24-.18.04-.2-.06-.31,0-.33.18-.08.21-.24.42-.29.62-.1-.09-.17-.21-.29-.24.22-.28.08-.38.23-.64-.3-.07-1.13-.32-1.22.06-.25.1-.74.16-.69.36-.37-.09-.13-.32-.43-.15-.19.11-.21.09-.49.02-.29.47-.76.09-1.12,0-.01-.37-.18-.56-.08-.79.04-.17.27-1.06.41-1.03.06-.28.66-1.4.91-1.34.15-.64,1.29-1.16,1.85-1.08.44.06.82.36,1.26.42.46.06.46-.04.66.41.27,0,.28-.21.61,0,.28.17.3.21.66.29.72.17,1.03.58,1.43,1.1,0-.01.23.6.28.67.17.27.21-.04.25.4.26.21.21.53.28.81.08.32-.17.42-.47.35ZM120.78,85.21c-.22.26-.81.15-.74-.17.34.08.46-.02.74.17ZM121.05,87.99c-.32-.03-.65-.1-.96-.18.24-.43.78-.16,1.18-.25.03.26.21.46-.22.42ZM121.73,85.17c-.56-.14-.41-.27-.13-.55.34.15.53.29.78.35-.14.16-.27.06-.3.19-.09,0-.12-.2-.35,0ZM144.51,94.54c-.16,0-.17,0-.28.11-.2-.06-.48-.18-.42-.44-.31-.07-.16.5-.17.74-.46-.07-.6.12-1.04.02-.04.16-.21-.04-.33-.08-.21.34-.41.22-.79.21-.33,0-.65-.01-.98-.02-.27.25-.31.21-.65.2-.16.03-.78.39-.81.38-.34-.15-.56.2-.75.38-.23.22-.8.42-1.03.37-.15.19-.85.58-1.07.53-.18.3-.38.32-.71.44-.41.16-.34.36-.43.76.76-.01,1.23-.47,2.04-.37.36.05.54-.09.96-.04.36.05.73-.11,1.17-.1-.18.46-.64,1.05-1.2,1.1-.38.04-.46.3-.84.28-.28-.02-.45.28-.66.24-.09.38-.58.26-.68.71-.16.04-.3.19-.42.33-.14-.03-.44.1-.69.17-.36.09-.47-.37-.77-.59-.05.2-.89-.03-1.1-.08-.07.09-.67.36-.77.34-.06.26-.47.41-.69.36-.26.32-.76.3-.86.75-.44.17-.61.44-1.13.43-.07,0-.74-.16-.72-.25-.49-.11-1.22-.2-1.74-.31-.05-.2-1.02-.44-1.27-.46,0,0-.89-.29-.96-.31.05-.23-2.58-.13-2.82-.13.19-1.09.29-2.38.51-3.33.11-.46.23-.64.24-1.07-.4-.09.08-.5-.22-.57.09-.38-.02-1.85.45-1.97.04-.16.04-.3.01-.43.05-.36.31-.47.25-.72.18.04.66-.28.79-.42.33.08.61.05.84.11.07-.3.46.25.53-.05.45,0,.68-.53,1.05-.45.24-.29.45-.28.76-.64.15-.18.31-.36.44-.56.04-.05.7-.16.85-.22.05-.23.4-.22.45-.59.07-.49.42-.12.77-.42.26-.22,1.44-.44,1.51-.77.27.02.38.03.57-.08.29-.16.53,0,.84-.03.04-.19.51.14.71-.1.41.09.56.18.75-.26.53.27.09.02.66.15-.04.16.18.26.3.35.2.15.55.57.07.69-.06.27-.34.43-.64.54-.16.26-.16.48-.48.41-.11-.08-.2-.08-.27,0-.31.22-.58.81-.62,1.2-.03.31.19.48.22.79.32.09,1.44.5,1.36.83.36.09.73.39.94.69.27.38.84.32,1.14.39.41-.39,1.22-.2,1.77-.2-.02.08.43.36.56.39.35.08.1.23.46.24.22-.06.33.04.32.29.27.06.49.11.78.18.48.11.1-.32.69-.19.07-.29.82-.36,1.07-.39.34-.04.39-.07.54.16.22-.33.59-.57,1.05-.5.38.06.73-.08,1.02.11-.14.25-.29.51-.43.76ZM154.54,90.29c-.31.03-.27.28-.4.25-.13.59-.81.28-1.07.53-.3.07-.84-.35-.99-.08-.17.29-1.05.26-1.34.07-.11.49-1.01-.13-1.24.15-.45-.1-.75.17-1.18.07-.27-.06-.95-.08-1.2.16-.26-.02-.54-.09-.79,0-.2.08-.46.21-.39-.1-.31.08-.08.2-.43-.01-.2.34-.38.2-.72.07-.27-.04-.31-.19-.14-.44-.13-.03.05-.21.09-.41.55.13.32-.08.69-.36.08.02.21-.14.22-.21.2.16.4-.05.33.42.2.05.21-.21.28-.45-.24-.05-.52.01-.45-.28.25.17.37.14.37-.09.36.08.5.25.71-.09.09,0,.19.02.28.03.23.03,1.2-.08,1.21-.13.4,0,.54-.14.9-.05.18.04.36.08.55.13.05-.15.15-.19.28-.11.03-.15,1.5.05,1.79.07-.01.06-.03.11-.04.16.39-.16.92-.43,1.22-.24.12.07.46.07.48-.05.13.03.59.08.61-.03.37.17.38,0,.67.07-.1.32-.2.64-.31.96ZM131.52,59.82c.01-.05.02-.11.04-.16-.06-.01-.11-.03-.16-.04-.02.08.05.18.13.2ZM120.12,58.41c.39.44.77,1.08,1.13,1.38.29.24.61.73.73,1.03.34.08.48.64.75.86-.08.34.4.66.55.99.47.41.76.74,1.14,1.11.25.25.32.51.64.65.47.22.48-.7.17-.89-.16-.35-.42-.43-.51-.81-.23-.05-.84-.46-.81-.62-.25-.3-.38-.66-.65-.9-.21-.19-.11-.2-.33-.44.07-.28-.12-.19-.22-.42-.16-.36-.39-.41-.54-.79-.26-.06-.5-.22-.62-.49-.1-.23-.51-.75-.71-.85-.05-.54-.3-.76-.83-.88-.06.27-.2.42.03.61-.06.28.13.17.07.45ZM111.09,59.78c.12-.21.17-.38.23-.64-.28-.23-.33-.47-.54-.64.04-.16.02-.34-.17-.38,0-.33-.45-.67-.4-.87-1.06.51.16,2.36.88,2.53ZM53.83,61.56v.17c.14.03.28.06.42.08,0-.15-.29-.19-.42-.25ZM128.27,67.96c.09.36.73.59.63,1.01.3.24.6.72.69,1.11.33.2.62.8.78,1.18.15.36.36.46.61.69.17.45.56.96.86,1.15-.09.4.45.58.55.99.3.07.67.83.86.02.08-.35-.22-.54-.18-.73-.15-.03-.77-.96-.85-1.18-.11-.29-.67-.98-.89-1.03-.2-.25-.33-.6-.49-.89-.29-.07.17-.39-.4-.52-.1-.43-.2.03-.21-.57-.28-.06-.89-.99-.84-1.23-.17-.31-.51-.63-.79-.7-.14-.31-1.13-1.46-1.12-.57,0,.42.42,1.18.78,1.27ZM106.41,65.52c.13-.58-.22-.91-.44-1.48-.33-.2-.16-.6-.55-.77-.13-.06-.71-.84-.68-.98-.47.01-.37-.06-.5-.46-.18-.07-.37-.14-.55-.21-.33-.13-.5-.12-.74-.17-.21.95.43,1.11.8,1.91.13.28.64.84.58,1.08.29.18.34.51.71.68-.11.49.56.76.69,1.11.21.05.31.34.48.54.09-.1.19-.3.32-.27-.08-.17-.05-.31.09-.41-.22-.05.06-.5-.22-.57ZM88.84,58.3c.05-.1,0-.14-.15-.12.06.1.03.06.15.12ZM88.94,58.23c-.09.12-.07.19.04.18,0-.13.02-.09-.04-.18ZM114.77,66.67c.14.34.14.64.52.72.17.13.26.12.26-.03.28.06.22-.78.23-.98-.38-.45-.68-.85-1.12-1.12-.02-.43-.43-.54-.57-.91-.55-.1-.73.45-.41.85.38.47.56,1.19,1.09,1.46ZM119.66,68.71c.01.11.47.4.58.43.03.36.31.43.44.79.23.64.55.92.74.08-.13-.03-.31-.81-.28-1.01-.47-.11-.24-.83-.65-.92-.14-.33-.42-.63-.49-.89.04,0-.26-.56-.36-.69-.13-.54-.97-1.01-1.15-.26-.1.42.18,1.08.57,1.37.24.18.57.84.6,1.11ZM79.92,62.33c-.47-.11-.24-.83-.65-.92-.14-.33-.42-.63-.49-.89.04,0-.26-.56-.36-.69-.13-.54-.97-1.01-1.15-.26-.1.42.18,1.08.57,1.37.24.18.57.84.6,1.11.01.11.47.4.58.43.03.36.31.43.44.79.23.64.55.92.74.08-.13-.03-.31-.81-.28-1.01ZM90.2,61.77c-.27-.36-.49-.47-.78-.75-.19-.5-.61-.76-1.18-.87-.42,1,.33,1.64.76,2.54.12.25.27.43.32.64.21.13.37.43.44.71.22.26.79.49.82.01.01-.22.22-.73-.04-.79.08-.36-.07-1.12-.34-1.49ZM111.5,74.89c.29.18.25.4.41.7.14.26.28.27.55.38.11-.47.26-.56-.14-.89.08-.35-.08-.27-.11-.63.03,0-.37-.65-.34-.77-.22-.3-.45-.51-.49-.89-.27-.03-.39-.17-.34-.42-.08-.24-.26-.43-.48-.54.13-.21.07-.33-.17-.38.12-.54-.88-1.05-.76-1.56-.55-.46-.48-1.3-1.26-1.67-.02-.34-.3-.5-.64-.58-.01.06-.15.31-.24.29-.05.4-.06.61.22.91-.05.22.17.56.38.6.19.39.37.78.56,1.16.09.19.74.68.68.93.27.32.83.8.86,1.15.16.21.27.49.48.54.01.28.13.49.3.67.17.18.25.37.27.58.22.05.29.22.25.4ZM99.74,69.77c-.36-.19-.76-.76-.86-1.15-.22-.05-.95-1.11-.9-1.33-.55-.52-.86-2.01-1.65-2.19-.13.33-.36.78-.06,1.02.1.22.26.37.22.57.33.35.4.87.66,1.27.31.5.8.93,1.1,1.49.04.23.17.33.39.32-.03.13-.02.25.05.36.15.19.26.33.45.45-.03.31.18.97.35,1.11-.07.31.19.72.63.61.61-.15.38-.92.21-1.28-.05-.01-.6-1.16-.57-1.25ZM83.67,63.49c-.11.16-.32.7,0,.78.06-.24.41-.56,0-.78ZM140.18,76.59s0-.02.01-.03c0,0,0,0-.01,0,0,.01,0,.02,0,.03ZM120.31,74.84c.3-1.18-.85-1.45-.88-2.53-.18-.06-.69-.64-.83-.26-.13.35-.24.63-.06,1.02.37.79.73,1.57,1.77,1.77ZM103.03,70.18c-.24-.06-.32-.11-.37-.34-.06-.04-.56-.02-.6-.03-.19-.07-.37-.15-.55-.23-.24.48-.62,1.32.25,1.52-.07.31.58.41.84.45.1-.18.51-.57.64-.54,0-.36.18-.73-.22-.83ZM104.16,70.79c.11.05.2-.04.28-.11-.05-.01-.11-.02-.16-.04-.04.05-.08.1-.12.15ZM103.37,70.86c0-.13.02-.09-.05-.18-.09.12-.07.19.05.18ZM103.86,70.98c-.02-.08-.06-.15-.13-.2-.19.15-.15.21.13.2ZM104.15,70.87c0,.1.05.18.02.26.21.05.19-.22-.02-.26ZM149.67,84.08c-.09.12-.07.18.04.18,0-.13.02-.09-.04-.18ZM148.92,84.34c-.02.08-.04.16-.06.25.17.04.23-.21.06-.25ZM149.12,89.82c-.05.21-.62.03-.77,0-.16.26-.21.27-.51.24-.12-.01-.58-.38-.67,0-.34-.27-.77-.21-.75.26.26-.06.13-.16.37,0,.11.08.35-.14.53-.14-.01.05-.03.11-.04.16.44.03.75.27,1.06-.1.31.07.49-.38.66-.19.09.11.29.12.27-.12-.12-.03-.07-.11-.15-.12ZM149.45,89.9c-.13.58.38.09,0,0h0ZM149.78,89.97c-.35.58,0,.02-.08.33.26-.05.35-.18.63-.11.04-.18-.42-.18-.55-.21ZM104.37,80.41c.13.06.2-.01.22-.21-.05-.01-.11-.03-.16-.04-.02.08-.04.16-.06.25ZM104.05,80.68c-.05-.01-.11-.02-.16-.04.03.07.07.14.13.2.01-.05.02-.11.04-.16ZM134.22,87.87c-.02.1-.05.08-.12.14.05.01.11.03.16.04,0-.13.02-.09-.04-.18ZM103.57,81.26c0-.13.02-.09-.04-.18-.09.12-.07.19.04.18ZM133.72,88.18c.05-.1,0-.14-.15-.12.06.1.03.06.15.12ZM103.23,81.57s.01,0,.02,0c-.01-.06-.02-.1-.02,0ZM103.33,81.55s-.05.01-.08.02c.02.07.04.14.08-.02ZM103.24,81.96c0-.21,0-.33,0-.39-.24.05-.26.33,0,.39ZM103.63,82.13c.14,0,.28,0,.43.01,0-.1-.05-.18-.03-.26-.12-.03-.32.1-.4.25ZM31.7,191.35c-.08-.38-.34-.49-.34-.84-.27-.14-.06-.2-.34-.34-.14-.23-.49-.69-.52-.87-.03-.15-.24-.35-.4-.39-.06-.25-.4-1-.59-1.09,0-.5-.67-.72-.67-1.26-.26-.13-.21-.32-.25-.59-.45-.23-.17-.26-.5-.42,0-.21-.51-.68-.67-.92-.38,0-1.13-.83-1.6-1.18-.26-.26-.23-.42-.62-.61-.27-.13-.03-.18-.41-.37-.32-.16-.53-.18-.64-.53-.5,0-.58-.65-.98-.9-.51-.32-.43-.63-.83-.95-.25-.2-.23-.28-.29-.59-.25-.15-.4-.17-.46-.46-.04-.19-.43-.8-.55-.8,0-.37-.25-.61-.29-1.06-.05-.6-.22-1.3-.22-1.8-.18,0-.24-.76-.42-.76,0-.24-.08-.63-.34-.76,0-.24-.08-.46-.34-.59-.06-.36-.02-.46-.34-.67-.18-.54-.39-.84-.5-1.43-.27,0-.35-2.1-.5-2.1,0-.79-.42-1.55-.42-2.35-.33-.16-.34-1-.34-1.34-.18,0-.25-.57-.25-.76-.06,0-.47-1.62-.5-1.79-.14-.89-.38-1.66-.53-2.58-.33-.09-.26-.42-.59-.42,0-.11-.46-.17-.59-.17,0-.31-1.14-.11-1.35,0-.08,1.04.04,2.01.34,3.03.06.5.11,1.01.17,1.51.07,0,.15.15.18.25,0,0,0-.03,0-.03,0,.03.01.05.02.08,0-.01,0-.03-.01-.04.07.51,1,3.45,1.02,3.45,0,.3.28,2.1.42,2.1,0,.82.67,1.65.8,2.44.08.46.42.62.5,1.09.07.45.63.62.63,1.09.35,0,.32,1.85.67,1.85,0,.32.28,2.02.5,2.02.13.59.27,1.15.76,1.51.11.33.34.55.34.84.29.17.42.15.42.5.2.13.42.36.42.59.21.18.5.3.5.59.23,0,.57.59.76.59.16.19.23.32.47.37.24.04.37.05.37.31.31.16.02.12.42.25.37.12.17.42.5.42,0,.28.18.17.42.17,0,.2.45.47.59.59,0,.26.25.34.25.67.26,0,.28.19.43.4.13.19.39.26.58.36.07.29.41.92.63,1.05.25.15.38.53.38.8.18,0,.43.6.59.81.09.1.2.17.33.2.03.17.09.34.17.5.07.14.16.43.33.43.21.37.31.48.51.86.21.42.71.86.16,1.32-.3,0-.2.34-.5.34-.08.29-.18.27-.42.34-.23.07-.3.31-.42.5-.34.07-.39.05-.63.34-.13.15-.55.32-.55.34-.25,0-.23.16-.5.25-.12.37-.32.32-.67.42-.16.24-.67.58-.67.84-.12,0-.43.29-.67.34-.17.23-.28.59-.59.59-.04.14-.57.67-.59.67,0,.61-.96.99-1.19,1.65-.03.12-.11.16-.24.12-.06.2-.11.39-.17.59-.24.12-.2.25-.25.5-.31.1-.28.24-.34.59-.2,0-.35.84-.42,1.09-.13,0-.45.67-.5.67,0,.81-.34,1.38-.49,2.3-.14.87-.45,1.27-.56,2.03-.11.78-.39,1.32-.34,2.19.03.49.21.68.21,1.05.15,0,.01,1.37,0,1.6.55,0,.42-.14.67-.5.16,0,.25-.22.34-.34.37,0,.32.06.53-.23.2-.29.39-.27.39-.61.21,0-.04-.17.17-.17.06-.18.37-1.09.42-1.09,0-.34.15-2.52.34-2.52,0-.17.03-.92.17-.92,0-.47.25-.68.25-1.09.11,0,.6-1,.63-1.18.07-.43.31-.67.38-1.18.14,0,.17-.29.17-.42.23-.12.5-.13.5-.42.34-.17.4-.66.76-.92.34-.34,1.3-.97,1.39-1.39.09-.46.66-.47.88-.8.11,0,.59-.18.59-.25.17,0,.14-.28.17-.42.4-.2.23-.29.59-.17,0-.39.76-.55.99-.9.13-.19.07-.19.31-.24.14-.03.28-.24.29-.24.16,0,.53-.27.59-.39.27-.09.46-.11.63-.34.17-.23.3-.06.44-.24.27-.34.15-1.23.19-1.69.46-.1.74.01.78-.5.01-.13.16-.67-.03-.67-.1-.31-.17-.63-.42-.76ZM56.66,195.72c-.32-.22-.26-.42-.59-.67-.03-.14,0-.42-.17-.42-.14-.42-.33-.31-.42-.84.04,0-.5-.72-.5-.84-.26,0-.44-1.14-.5-1.4-.1-.42-.18-.96-.5-1.13,0-.3-.57-1.02-.84-1.22-.46-.34-.49-.99-.92-1.34-.34-.29-.14-.39-.5-.63-.17-.17-.33-.35-.46-.55-.24-.35-.41-1.04-.88-1.04-.11-.34-.53-.92-.92-.92,0-.28-.5-.33-.5-.5-.19-.14-.34-.17-.34-.42-.24-.05-.42.02-.42-.25-.63.1-.87-.26-1.34-.42,0-.08-.67-.62-.84-.67,0,0-.76-.42-.94-.57-.2-.18-.21-.21-.49-.29-.43-.13-.08-.17-.53-.33-.39-.14-.48-.36-.78-.57-.11-.08-.52-.55-.52-.55-.15-.44-.71-1.32-1.12-1.62,0-.11-.42-1.07-.51-1.07-.11-.49-.28-.78-.67-1.11-.36-.3-.47.13-.53-.55-.03-.38-.09-.66-.17-.98-.12,0-.23-.2-.25-.3-.45-.13-.42-.59-.86-.66-.07-.34-.48-.32-.56-.81-.12-.04-.51-.39-.51-.51-.32-.01-.85-.45-1.01.15-.05.19-.02.72.12.97.08.06.17.12.18.15-.07,0-.13-.06-.18-.15-.06-.05-.13-.09-.13-.11,0,0,.61.75.61.86.11,0,.74.71.8.77.1.1.52.28.52.5.62,0,.69,1.57.96,1.57.09.55.37.83.46,1.37.1.05.61,1,.61,1.12.19.1.5.74.62,1.01.22.55.92.46.26,1.07-.25.23-.38.63-.02.76.26.1-.1.18.35.25.4.07.23.26.65.4.58.19,1.13.34,1.45.82.42,0-.15.08.5.08.23.35.33.13.55.42.51.69,1.44.55,1.98,1.26.45.09.56.34,1.01.34.11.34.52.93.84,1.01,0,.13.81,1.08,1.01,1.18.07.34.03.39.34.59,0,.29.01.31.26.44.42.23.47.68.91.9.11.45.34.37.34.84.23,0-.06.25.17.25,0,.53.39,1.26.59,1.85.26,0,.61.65.67.92.32.24.76.82.76,1.18.2,0,.5.77.5.92.38.19.57,1.93,1.01,1.93.14.83.56,1.07.76,1.85-.41-.02-.84-.34-1.2-.21-.38.13-.31.68-.33,1.01-.01.28-.03.62.1.88.26.13.06.42.25.42,0,.12.23,1.09.34,1.09,0,.43.17.84.17,1.39,0,.63.08,1.06.08,1.72,0,.47.17,1.01.17,1.47,0,.34.25.67.25,1.05.74-.25.28-1.5,1.01-1.68,0-.23.3-.32.32-.65.01-.19-.14-1.03.1-1.03,0-.41.15-2.86-.08-2.86,0-.16-.14-.92-.25-.92,0-.38-.23-.38-.25-.67.18-.09.34-.53.42-.76.16,0,.18-.22.22-.35.14-.57-.05-.99-.05-1.44,0-.62-.17-.86-.17-1.49.14,0-.42-1.18-.42-1.26ZM56.07,200.43v-.17c.08,0,.17.08.17.17h-.17ZM35.39,195.43c-.16-.05-.21-.15-.17-.29-.12-.02-.23-.06-.34-.12-.19-.14-.29-.32-.43-.48-.18-.23-.5-.07-.5-.4-.74-.14-1.68-.31-1.68.67-.24,0,.25.75.25.84.09,0,.84.39.84.59.48,0,.49.76.92.76,0,.28.16.96.42,1.09,0,.52.5.89.5,1.43-.02,0,.55.37.66.44.1.06.43.51.43.57.41,0,.64.84,1.18.84.16.24.92.54.92.42.32-.04.58-.06.86-.24.13-.08.37-.6.15-.6,0-.72-.85-1.79-1.68-1.93,0-.14-.71-.94-.84-1.01-.12-.72-.46-1.32-.84-2.03-.21-.39-.37-.3-.67-.53ZM51.57,219.87c.22.24.47.72.47.98.33.16.42.77.42,1.09.14,0,.25.79.25.97,0,.85.67,1.52.67,2.31.17,0,.67,1.63.76,1.99.07.32.37,1.21.72.61.28-.48.82-.49.99-1,.17-.5.27-.81.19-1.33-.04-.28-.21-.58-.21-.77-.05,0-.44-.93-.46-1.05-.03-.18-.15-.71-.29-.71,0-.27-.34-.56-.34-.84-.13,0-.52-.7-.55-.88-.1-.72-.8-1.19-.8-1.89-.18,0-.17-.76-.42-.76-.09-.56-.07-1.05-.5-1.34-.31-.21-.59-.99-.59-1.26-.49-.32-.16-1.05-.14-1.56.02-.7.16-1.49-.06-2.15-.2-.61-.47-1.19-.47-1.83.02,0,.34-2.67.34-2.94.17,0,.5-1.71.5-1.93.24,0,.66-1.73.76-2.02.31-.09.28-.24.34-.59.22,0,.35-1.77.5-1.77,0-1.09.28-2.1.21-3.15-.01-.18-.07-1.05-.29-1.05-.14-.27-.34-.1-.34-.42-.43-.12-.51-.36-1.05-.37-.51-.01-.68.06-.69.58,0,.89.27,1.51-.03,2.48,0,.24-.08,1.01-.25,1.01,0,.18-.28,1.34-.42,1.34,0,.58-.67,1.22-.67,1.93-.3.15-.37.8-.42,1.18-.19,0-.34,1.66-.38,1.92-.16,1.05-.2,1.98,0,3.04.08.46.14.97.14,1.43-.07,0-.59.18-.59.25-.46,0-.88-.09-1.13.25-.21.27-.51.22-.71.5,0,.3-.55.88-.8,1.09-.26.22-.46.76-.8.76-.21.27-.76.53-.76.84-.21,0-.5.67-.84.67-.03.19-.14.24-.34.17-.14.17-.28.34-.42.5-.15.03-.76.07-.76.25-.33,0-.6.42-1.01.5-.21.32-1.51.55-1.51.67-.13,0-1.51.3-1.51.42-.43,0-.55.17-.92.17,0,.14-.24.04-.34.34-.27.09-.26.25-.5.25-.16.33-.94.7-1.26.59-.14.28-.76.2-.76.42-.11.03-.59.28-.59.08-.29,0-.17.2-.5.28-.32.08-.69.36-.85.59-.25.37-.6.51-.92.72,0-.02-.81.42-.92.42-.12.25-.23.21-.48.2-.31-.02-.23.31-.53.31-.12.36-.43.59-.76.59,0,.17-.42.25-.59.25,0,.29-.26.26-.5.34,0,.4-.85.66-1.05.92-.48.64-1.25.94-1.85,1.6-.11.12-.18.26-.21.42-.15.04-.26.11-.36.23-.14.17-.19.4-.23.61-.05.23-.08.46-.17.68,0,.36-.14.25-.25.59-.14.41-.32.31-.38.8-.06.55-.13.21-.13.55-.14,0-.42.81-.42.92-.09,0-.33,1.32-.36,1.51-.06.34.08.62.05,1.05-.04.86.06,1.65.06,2.48-.41-.14-.61-.84-1.09-.84.1-.24.05-1.18-.08-1.18v-2.77c.18,0,.33-1.09.31-1.32-.07-.73-.35-.85-.86-.77-.37.06-.15.46-.61.22-.27-.14-.32.23-.56.35-.56.28-.41,1.38-.43,1.97-.05,1.34.32,2.63.56,4.26h-1.18c-.4-.07-.92.17-.92-.29,0-.13-.31-1.05-.34-1.05,0-.38-.25-.58-.25-.92-.19-.1-.25-.26-.29-.46-.06-.31-.27-.32-.38-.63-.13,0-.42-.81-.42-.92-.15,0-.54-.75-.59-1.01-.07,0-.59-.75-.59-.92-.4.13-.24-.02-.4-.32-.13-.26-.34-.26-.4-.56-.05-.27-.16-.3-.38-.46,0-.24-.13-.38-.24-.59-.39-.76-1.02-1.44-1.18-2.27-.34-.11-.53-.39-.67-.67-.29-.15-.5.08-.67-.25-.25-.08-.22-.25-.34-.25-.08-.12-.35-.67-.55-.38.22-.34-.42-.38.29-.38.2-.25.28-.4.59-.5,0-.27.22-.24.45-.34.31-.14.24-.21.36-.52.13-.34.03-.39.36-.57.33-.18.42-.04.48-.46.07-.46.37-.27.55-.04.35,0,.72-.39.92-.67.22,0,.61-.66.86-.85.18-.14.64-.84.75-.85.48-.06,1.08-1.29,1.08-1.74.19-.1.12-.25.25-.25,0-.45.1-.34.38-.67.3-.37.38-.64.31-1.16-.07-.55-.17-.8-.52-1.21-.23-.26-.71-.59-.92-.16-.68.14-.36.61-.84.97-.22.17-.2.28-.25.55-.31.2-.31.33-.42.67-.25.17-.4.41-.52.65-.18.33-.22.07-.38.44-.07.15-.49.47-.6.54-.77.52-1.33,1.25-1.43,2.25-.06.59-.38.21-.6.66-.13,0-.5-.09-.5.08-.44.15-.77.42-1.18.42-.26.35-.56.4-.92.46-.47.08-.04.16-.59.29-.15.3-.51.23-.81.28-.2.03-2.3.69-2.3.73-.11,0-.67.32-.67.34-.5,0-.02.08-.46.08-.09,0-.35.18-.38.17,0-.24-.17-.16-.26-.02-.02.21-.14.28-.36.23-.51.12-.57.27-.86.65-.14.19-.57.74-.67.79-.18.08-.17.3-.29.3,0,.16-.52,1.26-.5,1.26,0,.33-.17.32-.17.63,0,.38-.13.76-.16,1.14-.03.31-.02,2.6.16,2.6,0,.22.39,1.26.59,1.26.11.2.14.63.34.76.29,0,.26.26.34.5.2-.01.3.07.3.24.07.47.79.7.79,1.27.47.16.42.59.76.76.18.25.3.41.42.76.09.27.15,1.09.42,1.09,0,.29.25.72.25,1.01.2,0,.67,1.62.67,1.85.25,0,.34,1.6.34,1.93.19,0,.46,1.85.5,2.19.1,0,.29.74.34.92.06,0,.42.76.42.92.24.12.52.65.59.92.25.17.5.27.63.56.18.39.45.72.8.95,0,.24.7.99.9,1.07.44.19.47.51.95.61.44.66,1.83.85,2.66.89.91.04,1.57.54,2.47.54,0,.03.79.07.92.34.25,0,.56.1.67.34.55,0,.68.14,1.13.21.5.07,1.03.13,1.64.13,0-.09,3.03.38,3.43.4.26.02,1.01-.03,1.11-.23.59,0,.84-.25,1.34-.25.42,0,.6.11.84-.25.31,0,.13-.17.5-.17,0-.18.21-.11.34-.17.08-.22.09-.44.08-.67.34.13.67.12,1.02.1.57-.03.09-.1.57-.27.21-.29.66-.76,1.01-.76.28-.57.59.16.59-.76.42-.21.16-.72.25-1.09.12,0-.12-.92-.17-.92-.15-.22-.42-.42-.42-.63,0-.13-.39-.63-.42-.63-.12-.44-.52-.22-.67-.67-.26-.07-.35-.24-.25-.5-.19-.09-.37-.19-.56-.28-.37-.18-.24-.32-.51-.57-.33-.31-.74-.2-.82-.66,0-.05-.68-.92-.71-.92,0-.34-.42-.56-.42-.92-.12,0-.24-1.01-.5-1.01-.03-.16.49-.76.5-.76,0-.53-.42-.75-.42-1.26-.2,0,.48-.67-.17-.67-.09-.23-.2-1.51-.25-1.51,0-.39-.17-.54-.17-1.01-.25,0-.39-1.85-.17-1.85,0-.23.12-1.43,0-1.43-.12-.45.17-.96.17-1.43.36-.24.33-.51.42-.92.19-.27.38-.55.57-.82.24-.35.69-.63.69-1.11.26,0,.01-.48.01-.62,0-.25.24-.34.41-.47.27-.44.62-.44.84-.9.26-.56.19-.67.82-.86.47-.14.69-.59,1.16-.59.31,0,1.18-.51,1.3-.76.36,0,.44-.42.8-.42.48,0,.69-.5,1.22-.67.45-.15.92-.58,1.18-1.01.49-.12.17-.17.63-.17s.31-.25.8-.25c.14-.28.41-.23.7-.28.4-.07.34-.31.73-.31.14-.28.44-.27.67-.55.3-.35.4-.32.84-.38,0-.18.63-.17.8-.17.08,0,.76-.14.75-.14.17-.18.35.2.55-.2.3,0,.97-.19,1.18-.5.55-.12.75-.15,1.09-.59.4-.1.31-.23.67-.29.44-.07.56-.41.99-.57.27-.1,1.03-.34,1.03-.65.19-.04.84-.42.84-.5.14-.07.59-.65.59-.84.33-.22.87-.77.98-1.05.19-.5,1.38-.94,1.38-1.55.24,0,.72,2.37.76,2.69.07,0,.42,2.62.42,2.94.14.42.4,1.3.62,1.54ZM5.05,227.49c0,.28-1.26.28-1.26,0,.43.03.83.07,1.26,0ZM2.44,227.32c.18,0,1.01.21,1.01.34-.51,0-.7.09-1.18.17.06-.17.11-.34.17-.5ZM25.06,250.78s-.62.28-.71.26c-.35-.07-1.1.34-1.23.24-.46-.05-.81-.17-1.2-.19-.45-.03-1.11-.25-1.41-.15,0-.43-1.61-.03-1.77-.34-.25-.07-.69.42-.67-.17-.23.12-.34.33-.5,0-.28.02-.18.13-.39-.05-.26-.23.44-.11.39-.12.03-.1.08-.16.08-.25.35.17.55.01.92.08-.07-.22-.21-.25.17-.25-.07.24-.19.22.17.34.15-.33.28-.52.59-.42,0-.21.62-.13.81-.11.36.04.6-.13.95-.14-.15-.19-.22-.14-.25-.42-.27.16-.15.25-.5.25,0-.25.5-.43.76-.34,0-.22.37-.49,0-.77-.22-.17-.27-.22-.64-.25-.94-.09-1.63.27-2.39.27,0,.27-1.4.09-1.49.2-.13.15-.96.14-1.2.14,0,.1-.84.23-1.01.25-.11.23-.29.19-.49.35-.32.26.05.37-.52.24-.67-.15-1.34-.29-2.02-.44-.45-.1-.48-.56-.92-.83,0-.06-.52-.65-.63-.71-.42-.25-.28-.57-.76-.8-.29-.14-.12-.16-.46-.16,0-.39,0-.26-.16-.52-.02-.04-.22-.04-.26-.07-.14-.41-.25-.2-.25-.67,0-.44-.17-.61-.25-1.09.15,0-.34-2.12-.34-2.31,0-.5-.3-.77-.21-1.32.07-.48.22-.29.63-.23,0-.13.08-.13.08,0,.2,0,1.77.22,1.77-.08.86,0,1.71-.03,2.69.12.19.03,1.01.02,1.01-.2.16-.03.31.17.5.08.24-.36.51-.33.92-.42,0-.13.09-.42-.08-.42-.1-.3-.34-.2-.34-.34-.12,0-.84-.17-.84-.25-.41-.14-.5-.08-1.09-.08,0,.02-.67-.08-.67-.08-.33,0-1.93-.04-1.93-.08-.18,0-.31.12-.5.08-.41,0-.58.08-.98.11-.56.05-.9-.05-1.5-.09-.52-.04-.32-.78-.63-.78,0-.41-.25-.46-.25-.92-.14,0-.17-.58-.17-.76-.15,0-.39-1.03-.5-1.26.14,0,.19-.06.17-.17.07-.03.33.31.53.28.43-.08.35-.05.69.02.38.08,1.05-.23,1.48-.07.31.12.92-.06,1.26-.06,0-.06.49-.37.67-.42,0-.26-.15-.52-.32-.77-.15-.21-.3.03-.35.01-.23-.47-.83-.17-1.18-.25,0-.28-.98-.1-1.17-.06-.63.13-.9-.11-1.52-.11-.12.25-.23.06-.53.31-.19.15-.37.3-.56.45-.16-.21-.85-1.18-.92-1.18-.24-.31-.78-.81-.11-.87.73-.07,1.49.14,2.13.11.03.08.09.13.17.17.41-.62,1.9-.2,2.33,0,.09.05.84-.3,1.03-.34,0-.16.08-.56.08-.84-.23-.06-.92-.57-.92-.67-.53-.09-1.05,0-1.46,0h-1.15c0,.31-.42-.22-.42.08-.14-.06-.28-.11-.42-.17-.01.16-.09.21-.21.14-.14-.16-.63.1-.63-.14-.15-.1-.23-.15-.42-.17.03-.1.08-.16.08-.25-.39.09-1.3.93-1.38.24-.03-.21-.19-1.34-.13-1.34,0,0,2.02.53,2.02.42.5-.02,1.01.14,1.51,0,.25,0,.42.08.67.08,0,.06.98.07,1.12.06.59-.06,1,.13,1.65.18.39.02.56.36.84-.06.13,0,.42.09.42-.08.35,0,.25-.47.25-.76-.08,0-.4-.51-.42-.67-.56.07-.79-.08-1.22-.08-.39,0-.7-.16-1.1-.09-.19.03-.43-.02-.7-.08-.53.11-1.19-.08-1.68-.08,0-.25.44-.08.59-.08,0-.14.29-.26.35-.22.44.34.63-.19,1.12-.25.45-.05,1.45.12,1.34-.71-.07-.59-.46-.23-.46-.76-.45.15-1.35-.64-1.6.08-.3.07-2.27.6-2.27.08.04-.18.48-.08.59-.08.07-.27.21-.33.42-.17,0-.22.11-.34.34-.34.15-.3.96-.39,1.22-.34.49.11.58.25,1.13.25.1.19.48.42.67.42.21.28,1.01.64,1.01,1.01.19,0,.76,1,.76,1.18.15.25.5.57.5.84.44.22.29.87.76,1.18,0,.32.34.44.34.76.29.4.57.66.67,1.18.23,0,.25.63.5.76,0,.65.67.99.8,1.64.14.69.63,1.16.63,2.06-.13-.03-.84-.56-.84-.25-.04,0-.59-.42-.59-.08-.38-.1-.44,0-.8,0-.15,0-.65-.03-.76.06-.1.07-.63-.19-.63.11-.34,0-.6-.03-1.01-.08,0-.01-1.34.19-1.34-.08-.37-.02-2.22.27-1.38.99.31.26.69.6,1.1.64.23.02.7.18.7.06.31,0,1.16-.04,1.26.17.28,0,.56-.12.85-.12.21,0,.49.14.49.03.37,0,.6-.08,1.04-.06.47.02.93.14,1.4.14,0-.18.53-.15.67-.17.18-.36.26-.13.34.17.11.42.31.61.38,1.01.08.51.46.9.46,1.39,0,.66.91,1.01.92,1.81-.29-.02-1.6-.18-1.6.08-.32.07-.8-.19-1.18-.08-.2,0-.44.2-.64.15-.28-.07-.43-.07-.71.02-.17,0-.06-.15-.25-.17,0,.19-1.74.34-1.98.34-.83,0-1.03.17-1.89.17,0,.18-.76.19-.76.5-.41,0-.57.63-.08.71.22.04,1.93.25,1.93.21.2,0,2.27.04,2.27-.08.2,0,1.18-.06,1.18-.17.57.08,1.12.08,1.6.08,0-.33,2.28-.08,2.69-.08.08.16.62.2.84.25.05.22.13.39.34.5,0,.5-.08.08-.08.34-.18-.09-.76-.48-.76-.25-.28,0-1.3-.14-1.47.06-.18.21-1.05-.38-1.05.11-.69,0-1.6.34-2.27.17,0-.14-.84-.07-.84.08-.38,0-.05.24-.5.08.03.17-.08.2-.34.08,0,.14-.64.25-.84.25,0,.13-.67.28-.67.59-.32,0,.51.6.61.64.31.15.47.37.82.37.19.38,1.36-.04,1.85-.08,0-.35.72,0,.84,0,0,.11.35-.25.66-.12.16.07,1.44-.09,1.44-.22h2.49c.28,0,.91-.08,1.04-.34.64-.21.52.03,1.01.38.36.26.63.69,1.01.88,0,.43.5.31.5.67.43.55,1.19.61,1.55,1.09.31.42.81.98,1.39,1.09.11.41.22.48-.34.59ZM20.26,249.52v-.17c.12.04.09,0,.17.08-.18,0,.01.08-.17.08ZM25.31,245.23c.79.05,1.43.25,1.75.86.14.26.17.39.35.57.07,0,.24.55.42.67.2.29.34.64.4.98.07.43.39.26.35.72-.06.63-.25.68-.83.87-.43.14-.34.28-.84.36,0,.05-.5.1-.5,0-.37-.12-.16-.67-.34-.67,0-.11-.04-.67-.08-.67,0,.05-.32-.33-.4-.48-.2-.37-.22-.76-.6-.95,0-.58-.73-.84-1.18-1.18,0-.32-.34-.28-.34-.42-.31-.21-.34-.32-.34-.67,0-.45-.2-.61-.59-.84-.22-.2-.17-.5-.5-.5-.16-.32-.6-.93-.92-1.01-.1-.42-.37-.6-.5-1.01-.39-.26-.34-.61-.76-.92,0-.11-.36-.76-.42-.76,0-.52-.42-.54-.42-1.05,0-.34-.28-.81.25-.63,0-.18.4-.17.59-.17,0,.22,1.51-.46,1.51.25.15-.04.17-.04.25-.17.61.48.77,1.02,1.43,1.51,0,.24.44,1.01.5,1.01,0,.26.22.54.42.67,0,.21.16.67.34.67,0,.3.17.14.17.46-.03.15,0,.29.08.42.14.33-.08.44-.08.76,0,.46.59.92.84,1.3ZM32.03,197.06c-.63.17-.69.81-.57,1.4.06.3.26.42.32.78.2.13.42.36.42.59.33.16.25.53.59.76,0,.2.19.31.34.5.45-.02.71.04,1.13-.03.38-.06.31-.78.13-1.02-.12-.17-.33-.15-.44-.36-.11-.23-.04-.44-.32-.44,0-.38-.59-.6-.59-1.09-.36-.24-.19-.52-.57-.65-.21-.07-.39-.22-.44-.44ZM17.99,213.29h-.25c-.03.2-.06.39-.08.59.32,0,.34-.38.34-.59ZM11.19,234.13v.34c.2,0,.2-.34,0-.34ZM11.94,234.39v-.25c-.16.08-.23.15-.42.17.03.1.08.16.08.25.1-.08.21-.14.34-.17ZM12.11,234.22c-.06.14-.03.2.08.17-.04-.12,0-.09-.08-.17ZM12.53,234.22c.03.1.08.16.08.25.22,0,.14-.25-.08-.25ZM21.78,248.34c-.06.19-.08.17-.08.42.23-.12.43-.34.67-.34,0-.18-.45-.08-.59-.08ZM22.14,248.82c-.22.06-.37.28-.03.28v-.17c.11,0,.1.09.25.17,0-.13.09-.09.17-.17-.33-.11-.16-.17-.39-.11ZM21.1,249.1c.08.08.04.05.17.08.03-.11-.03-.14-.17-.08ZM21.44,249.52c.22.02.31-.07.25-.25-.18.05-.25.05-.25.25ZM20.43,250.27c-.04-.12,0-.09-.08-.17-.06.14-.03.2.08.17ZM19.59,250.44c-.03.06-.06.11-.08.17.18,0-.01.08.17.08,0-.22.1-.09-.08-.25Z"/>
  <path class="st2" d="M27.53,159.49c-5.7,1.02-8.44-1.19-14.99-3.94-1.79,6.04,2.27,5.69,3.76,11.81.89,3.66-.74,4.1,1.41,7.47,3.06,4.81,1.56,4.21,4.41,7.53,1.7,1.98,2.74.88,4.58,2.73.86.87,1.54,1.49,1.12,2.64-1.27,3.56-3.4,4.73-3.95,6.38-.55,1.65-.8,1.79-1.81,3.37-1.39,2.18-2.13,3.07-1.36,4.37.77,1.31,4.65,2.82,5.6,3.5,2.87,2.05,2.94,3.35,4.16,5.48,1.64,2.87-1.41,7.98,2.4,13.9,2.76,4.3,5.05-2.36,9.29-5.21,3.99-2.68,7.61-6.02,7.7-6.79,1.76-5.37,1.59-6.41,3.04-10.89.8-2.48.22-6.14-.92-10.41-.92-3.44-1.69-7.2-3.16-10.38-1.36-2.94-3.7-7.23-5.88-11.32-3.12-5.86-.54-7.89-5.9-11.35-4.01-2.58-4.98.31-9.51,1.12Z"/>
  <polygon class="st2" points="23.95 161.86 26.17 164.2 28.23 166.79 30.59 169.12 32.86 171.54 35.05 174.02 37.38 176.38 39.62 178.84 41.8 181.31 44.29 183.39 46.78 185.5 49.26 187.63 51.85 189.74 52.89 194.11 52.59 197.23 51.91 200.26 51.35 203.21 49.92 205.93 49.67 208.97 49.7 211.74 52.91 212.69 56.04 213.8 59.1 215.25 62.44 215.72 65.79 215.24 69.12 214.95 72.49 214.73 75.5 213.16 78.69 211.94 80.07 208.91 81.35 205.85 83.18 203.09 84.52 199.4 85.95 195.68 87.29 191.96 88.27 188.8 88.43 185.52 88.44 182.21 87.77 178.96 86.79 175.45 86.03 171.87 84.98 168.37 83.56 164.99 82.59 161.57 79.17 161.24 75.7 161.11 72.21 161.24 68.75 160.9 65.63 160.03 62.34 159.95 59.21 159.07 55.87 158.24 52.47 157.77 49.15 156.82 45.71 156.54 42.38 155.66 38.94 155.27 35.56 154.38 32.68 156.38 29.65 158.06 26.94 160.26 23.95 161.86"/>
  <polyline class="st0" points="32.44 160.11 37.22 160.45 41.21 161.54 44.46 162.97 46.32 163.01 47.1 163.69 48.85 164.91 49.79 165.57 51.63 166.38 54.66 167.13 58.71 167.79 61.04 166.65 64.18 166.49 68.02 164.68 72.31 162.48 74.76 160.92 72.65 163.54 67.64 165.23 64.16 167.47 61.17 167.92 58.75 168.66 54.49 168.25 51.64 167.37 49.79 166.39 48.55 165.65 47.1 164.45 46.66 163.89 44.49 163.4 41.2 162.32 37.21 161.23 32.5 160.06"/>
  <path class="st0" d="M71.5,64.09v.17c-.11.03-.22.06-.34.08-.03.06-.06.11-.08.17-.08-.03-.17-.06-.25-.08-.05.08-.11.17-.17.25h-.42v.08h-.08c-.03.08-.06.17-.08.25-.29.05-.44.14-.5.42,1.11-.12,2.24-.41,3.36-.08h.59v-.08h.08v.08h.42v.08c.08-.03.17-.06.25-.08v.08c.17.03.34.06.5.08.06.08.11.17.17.25.2.03.39.06.59.08.06.08.11.17.17.25.11.03.22.06.34.08.03.06.06.11.08.17.11.03.22.06.34.08.03.06.06.11.08.17.11.03.22.06.34.08.03.06.06.11.08.17h.17c.06.08.11.17.17.25h.17c.03.06.06.11.08.17.1.07.36.07.42.17v.17h.76v.08h.08v-.08h.5c.06-.16.08-.33.08-.59-.17-.14-.34-.28-.5-.42v-.08h-.17c-.08-.11-.17-.22-.25-.34h-.17c-.03-.06-.06-.11-.08-.17h-.17v-.08c-.11-.03-.22-.06-.34-.08v-.08h-.25v-.08h-.25v-.08c-.08-.03-.17-.06-.25-.08v-.17c-.46-.09-.6-.36-1.09-.42-.06-.23-.02-.19-.25-.25-.19-.17-.4-.08-.67-.17v-.08h-.34c-.03-.06-.06-.11-.08-.17h-.42v-.08h-.25v-.08h-1.01c-.05-.02-.6-.18-.67-.17v.08h-.17v.08h-.5Z"/>
  <g>
    <path class="st0" d="M39.18,177.51c0,.06.19.25.25.28.03.26.24.26.27.44.23.05.2.29.43.37.01.05.06.16.12.17.03.17.05.32.06.51.01.36.08.14.26.3.2.18.28.34.32.59.04,0,.24.51.24.57.2.17.47.64.54.87,0,0,.2.25.25.3.15.12.19.23.39.32.23.1.05.11.27.19.14.05.14.07.25.16.09.09.47.33.47.32.09.03.42.33.42.37.24.1.36.29.69.25,0,.14.09.11.21.14,0,.13.07.15.16.23,0,.09.26.13.25.28.21.01.41.33.46.5.24.01.31.38.43.57.07.11.14.21.23.3.18.13.08.18.25.34.21.2.22.53.45.72.13.11.41.5.41.66.17.09.19.38.23.6.03.14.09.73.23.74,0,.06,1.53,7.39,1.51,7.39.03.28.14.23.2.45.09,0,.07.15.08.22.17.14.13.24.29.37,0,.04.26.67.19.67-.02.32.06.46.05.78-.01.23.08.46-.01.75-.02.07-.04.18-.12.18-.05.12-.14.34-.24.38,0,.15.12.16.11.36.06,0,.11.4.11.49.12,0-.02,1.28-.03,1.49-.13,0-.07.44-.08.53-.02.17-.18.21-.18.33-.38.08-.18.74-.57.85,0-.2-.11-.38-.1-.55.01-.24-.06-.53-.05-.77.02-.35-.01-.57,0-.9.01-.28-.06-.5-.05-.73-.06,0-.15-.51-.15-.58-.1,0,.01-.15-.12-.23-.06-.14-.04-.31-.03-.46.02-.17,0-.46.2-.52.19-.06.4.12.62.14-.08-.41-.3-.55-.35-.98-.23-.01-.28-.92-.47-1.03,0-.08-.13-.49-.24-.49,0-.18-.2-.5-.36-.63-.03-.14-1.45-7.43-1.59-7.44-.09-.31-.27-.7-.26-.98-.12,0,.04-.13-.08-.14.01-.24-.11-.21-.15-.45-.23-.13-.24-.36-.45-.49-.13-.08-.13-.09-.12-.24-.15-.11-.13-.14-.16-.32-.1-.05-.5-.57-.49-.64-.16-.05-.36-.37-.41-.55-.23-.01-.28-.14-.52-.2-.26-.39-.74-.34-.99-.71-.11-.16-.16-.05-.27-.23-.34-.02-.04-.05-.26-.06-.15-.26-.44-.35-.73-.46-.21-.08-.12-.18-.33-.23-.23-.05-.04-.08-.18-.14-.19-.08-.11-.28.03-.4.36-.3,0-.27-.11-.56-.05-.15-.19-.49-.29-.54,0-.06-.24-.57-.29-.6-.03-.28-.17-.44-.2-.72-.14,0-.14-.83-.46-.84,0-.11-.21-.22-.26-.27-.03-.04-.34-.42-.4-.42,0-.06-.3-.46-.29-.46,0,.02.15.12.15.14-.15,0-.17-.46-.12-.59.1-.31.36-.07.53-.05"/>
    <path class="st0" d="M49.35,199.45s.06,0,.09,0c0-.04-.04-.09-.08-.09,0,.03,0,.06,0,.09"/>
  </g>
  <path class="st0" d="M25.26,110.34v.17c-.2.3-.53-.22-.59.59-.15.18,0,.48-.08.76h-.08v.84s-.11,0-.08.17h.08v.5h-.08v1.34c.25.17.5.34.76.5v2.02c.11.1.13.15.17.34.32.08.26.25.59.34.06.23.02.19.25.25-.06-1.07-.11-2.13-.17-3.19-.13-.4-.64-1.23-.42-1.93h.08v-.25h.08v-.25h.08v-.34c.06-.03.11-.06.17-.08v-.42h.08v-.17h.08v-.42h.08c.03-.22.06-.45.08-.67h.08c.03-.08.06-.17.08-.25-.15-.08-.13-.12-.34-.17-.06.08-.11.17-.17.25,0,0-.75.08-.76.08Z"/>
  <path class="st0" d="M24.29,157.56s-.08-.08-.13-.12c.03-.03.05-.06.08-.08-.24-.21-.27-.12-.46-.19-.11-.08-.22-.16-.33-.24-.01.01-.03.03-.04.04-.07-.04-.14-.08-.21-.12-.01.01-.03.03-.04.04,0,0-.1-.24-.21-.28-.04.01-.08.03-.12.04-.04-.04-.08-.08-.13-.12-.01.01-.03.03-.04.04-.11-.05-.22-.1-.33-.16-.01.02-.03.03-.04.04-.45-.37-.9-.75-1.34-1.12-.05.03-.11.06-.16.09-.07-.09-.14-.19-.21-.28-.01.02-.03.03-.04.04-.08-.05-.17-.11-.25-.16-.04.02-.08.03-.12.04-.07-.04-.14-.08-.21-.12-.04.02-.08.03-.12.04-.07-.04-.14-.08-.21-.12-.01.01-.03.03-.04.04-.2-.05-.34-.1-.54-.27-.03.03-.05.06-.08.08-.14-.1-.28-.15-.42-.15-.04.01-.08.03-.12.04-.19-.03-.22-.12-.41,0-.03-.03-.06-.05-.08-.08-.03.03-.05.06-.08.08-.03-.03-.06-.05-.08-.08-.05.03-.11.06-.16.09-.01-.01-.03-.03-.04-.04-.03.03-.05.06-.08.08-.01-.01-.03-.03-.04-.04-.16.09-.32.17-.49.26-.03-.03-.06-.05-.08-.08-.05.03-.11.06-.16.09-.01-.01-.03-.03-.04-.04-.03.03-.05.06-.08.09-.01-.01-.03-.03-.04-.04-.03.03-.05.06-.08.08-.04-.01-.08-.03-.12-.04-.04.04-.08.08-.12.13-.01-.01-.03-.03-.04-.04-.07.04-.13.09-.2.13-.01-.01-.03-.03-.04-.04-.07.07-.13.14-.2.21,0,0-.02-.03-.12.04.01.08.01,0,0,.08.08,0,0,.01.08,0,.11,0,.34-.06.45-.13.03.03.06.05.08.08.04-.04.08-.08.12-.13.25.07.67.13.9-.02.31.23.26,0,.45.03.04.04.08.08.13.12.01-.01.03-.03.04-.04.04.04.08.08.13.12.01-.01.03-.03.04-.04.03.02.06.05.08.08.01-.02.03-.03.04-.04.04.04.08.08.13.12.01-.01.03-.03.04-.04.06.03.11.05.17.08.04-.01.08-.03.12-.04.06.05.11.11.17.16.04-.01.08-.03.12-.04.03.03.06.05.08.08.01-.01.03-.03.04-.04.07.09.14.19.21.28.01-.01.03-.03.04-.04.03.03.06.05.08.08.04-.01.08-.03.12-.04.1.07.2.13.29.2.01-.01.03-.03.04-.04.09.05.04.11.04.12.05.03.11.05.17.08.02.07-.09.15.09.24.01-.01.03-.03.04-.04.03.03.06.05.08.08.01-.01.03-.03.04-.04.03.03.06.05.08.08.01-.01.03-.03.04-.04.08.05.17.11.25.16.01-.01.03-.03.04-.04.07.12.14.24.21.36.01-.01.03-.03.04-.04.16.08.26.19.42.24.01-.01.03-.03.04-.04.03.03.06.05.08.08.07-.02.14-.03.2-.05.03.03.06.05.08.08.01-.01.03-.03.04-.04.1.07.2.13.29.2.04-.01.08-.03.12-.05.06.03.11.05.17.08.1-.02.19-.03.29-.05.1.07.2.13.29.2.07-.02.14-.03.2-.05.06.03.11.05.17.08.01-.01.03-.03.04-.04.11.05.22.1.33.16.04-.01.08-.03.12-.05.07.01.14.02.21.04.22-.11.43-.23.65-.34-.03-.03-.06-.05-.08-.08-.14.04-.18,0-.33.09Z"/>
  <g>
    <path class="st2" d="M36.59,28.81c.07-.1.1-.19.13-.27-.11.2-.18.34-.13.27ZM57.7,21.02c-.02-.12-.32,0-.41-.21-.15.02-1.2-.83-1.29-.96-.29.05-.89-.5-1.13-.61-.34-.16-.71-.03-1.13-.2-.35-.14-.72-.45-1.11-.68-.21-.12-.54-.62-.74-.51-.04-.27-.88-.54-1.24-.69-.12-.05-.53-.19-.56-.24-.2.03-.67,0-.71-.31-.08.04-.08.11-.15.12-.04-.29-1.04-.13-1.07-.48-.15.02-.26-.05-.36-.18-.35,0-.57-.05-.96.01.04-.05.08-.03.07-.1-.15.05-1.11-.18-1.11-.15-.37.06-1.41.63-1.48.05.2-.03-.02-.56.21-.6.11-.37-.29-1.26-.07-1.61-.26-.41,0-1.28.11-1.4-.2-.21.02-.63-.17-.81.04-.12.21-.98.18-1.08.15-.09.44-.95.29-1.08.4-.25-.09-1.34.25-1.57-.06-.31.1-1.28.28-1.48-.07-.15.28-.72.27-.73.22-.44-.42-.5-.64-.66-.13-.09-.94-.3-1-.23-.07-.08-.32.11-.47-.05-.11.13-1.14-.6-1.27-.44-.41-.43-1.53.4-2.02.1-.03.03-.26-.61-.23-.81-.17-.17-.11-.52-.07-.78.03-.21.01-.72-.06-.88.06-.41-.1-.5-.26-.72,0,.01,0,.03,0,.03-.04-.05-.07-.11-.1-.17.03.06.06.1.09.14-.02-.06-.08-.27-.08-.27.27-.65.05-.51-.32-.78.05-.06-.27.67-.29.66-.03.03-.3.19-.3.19-.34.22-.84.25-1.22.45-.11.06-.75.26-.75.24-.03.04-.04.07-.08.1-.03-.04-.7.15-.87.33-.16,0-.7.46-.81.37-.16.15-.36.21-.48.37-.14.19-.44.52-.59.67.08.06-.18.5-.08.58-.17.17.03.28-.07.43.09.15.05.31.12.49.02.04.06.16-.02.24.09,0,.21.09.22.17-.09.14.32.47.23.56.05.09.16.46-.01.64.22-.05-.11.72.23.67-.17.37.4.52.2.86.07.02,1.8,3.24,1.8,3.24.69.48.54,1.84,1.09,2.41-.05.19.38,1.12.59,1.19-.09.33-.65.32-.77.47.19.36-1.02.31-1.04.14-.79.12-1.99,0-2.63.36.01.15-2.22.74-2.49.81,0,.06-2.26,1.09-2.5,1.09-.06.19-.41.35-.6.4-.32.08-.34.27-.64.4.03.24-1.24.98-1.46,1.02-.04.14-.69.58-.81.59.03.18-.71.76-.9.79.03.2-.41.5-.5.68-.12.02-.12.14-.22.16-.01,0-.24.46-.27.29-.1.02-.32.28-.43.37-.32.27-.68.63-.93,1-.07.11-.15.21-.2.22-.07.22-.27.11-.35.2-1.04,1.36-2.25,2.26-2.77,3.4-.96,2.12-1.64,3.89-1.76,5.32-.04.54-.26,1.37-.73,1.39-3.24.12-4.64,2.64-4.21,4.92.11.19.36.27.45.45.2.43.12.78.17,1.16.09.73.7,1.24.99,1.87.35-.06.51,1.45.91,1.53-.17.22-.09.24-.05.61.31-.05.48,1.46.77,1.41.05.14.26,1.17.36,1.15.05.47.37.71.6,1.15.16.3.13.35.19.78-.21.03.09.41.1.45-.04,0,.15,1.04-.02,1.17.03.19-.69,2.67-.5,2.64.05.42-.29.94-.06,1.33.06.1.1.76.08.76-.04.38.17.68.15,1.06-.02.45.32.85.53,1.3.33.12.33.77.61.88.31.4.32.58.84.7.02.19.22.34.42.35.25.31.6.47.96.36,1.9-.56,3.47-.18,4.09-3.17.09-.41,1.8,2.61,1.86,2.74.58,1.12,1.03,1.92,1.29,3.12.09.41.22,4.43.82,4.34.04.32.42,1.17.62,1.25.07.2.61,1.07.72,1.05.03.26.67.83.94.78,0,0,.91.37,1.01.35.15.24,3.16,1.34,3.22,1.11-.02.07,1.76-.21,1.97-.2-.03-.17.77-.6.85-.88.57-.09.51-.83.78-1.1.03-.08.06-.48.19-.32.02.02.25-.15.25-.17.29-.04.35-.61.46-.63-.01-.06-.09-.78.07-.8-.04-.32.31-.59.19-.77.27-.04.41-.58.68-.62,0,0,.52-.45.61-.47,0,.05.8-.68.88-.7.08-.18.63-.8.77-.82.2-.36,2.18.35,2.13-.02.21-.03.91-.78,1.31-.85.07-.23.61-.59.65-.85.25-.11-.07-.25.13-.41-.05-.45-.15-2.34-.02-2.74.11-.02-.37-1.25-.18-1.39-.02-.18.27-1.16.23-1.15,0-.03.43-1.11.48-1.14-.03-.22.06-.36.23-.5.06-.27,0-.58-.06-.77,0-.03-.04.04-.07.04,0-.45.15-.57.03-.99-.13-.46-.29-.8-.45-1.15-.09-.21-.53-.87-.16-1.07-.05-.36.35-.16.4-.48.15-.15.21-.53.33-.66.41-.14.93-.53,1.22-.91.35-.47.43-1.01.33-1.56-.04-.26-.22-1.19-.49-1.24-.2-.03-.23-.74-.41-.71-.14-.24-.82-.26-.87-.61-.7.2-.07,0-.62.1.03.05,1.03,1.42.86,1.45.06.46.12.98.18,1.41-.01,0-.28.63-.49.73.02.16-.63.57-.8.59-.05.02-.86.8-.85.92-.21,0-2.01.7-2.05.32-.16.15-.69-.03-.92,0-.04-.21-1.15.22-1.36.17-.05-.39-1.65-.12-1.91-.54-.78.12-1.34-.99-1.87-1.52-.2.03-.38-.88-.39-1.1,0-.45.34-.99.29-1.35.24-.23.32-.6.56-.77.19-.12.15-.56.36-.59.09-.33.57-.92.8-1.17.26-.28.51-.68.85-.92.09-.06.86.25.84.1.12-.02.81-.31.81-.34.3-.05.34-1.35.73-1.57.14-.27.74-.48,1.01-.62.79-.17,1.83-1.06,1.88-.67.27-.04.89-.77.68-.99-.21-.22-.77-.43-1.08-.44-.04-.22-.38-.15-.48-.44-.15-.04-.54-.25-.63-.37-.21.03-.92,0-.96-.31-.2.09-.9-.14-.91-.27-.15.03-1.02-1.96-1.03-2.03-.59.33-1.22-.2-1.84-.31-.23.04-1.14-.09-1.18-.37-.23.04-.34-.52-.57-.52-.03-.2-.91-.4-1.14-.42-.08-.38-.36-.55-.4-.87-.48.07.33-1.29.32-1.45.25-.14.23-.64.5-.68,0-.4.37-.58.51-.88.19-.42.49-1.01.88-1.28.2-.43.44-1.09.72-1.14.13-.81.91-1.08,1.14-1.68.25-.64.88-1.41,1.32-1.98.17-.22.47-.94.72-.98.05-.16.48-.84.46-.96.37-.06.59-1.07.86-1.32.19-.18.84-1.03.82-1.27.18-.2.23-.5.46-.63.09-.22.31-.2.37-.38.27.06.63-.26.95-.43,0,.04,1.65.16,1.7.15.02.18.47.36.63.32.31-.06.47.2.65.17.04.27,1.8.55,2.03.52.13.16,1.11.77,1.3.63.24.29.56.29.7.64.04.11.31.22.42.21.07.23-.05.25-.02.47.06,0,.07-.03.03-.1.15.02.24,0,.31.14l.09.2c.14-.09.28.11.49.12.03.14.36.25.45.21.33-.14.77-.34,1.12-.04.29.25.85.59.89.7.32.07.22.57.65.5.14.23.68.42.71.68.19-.03,1.53.05.99-.99-.09-.18-.1-.56-.3-.7ZM35.96,40.3c.09.01.03-.01.09.03-.08-.02-.03.01-.09-.03ZM35.91,37.28c.29-.11.83-.22.94.13-.07.01-.2.19-.21.31-.38-.01-.13-.02-.4.11,0-.04-.35-.18-.36-.18.02-.3.07-.18.04-.38ZM35.93,40.07c.02.15-.1.17-.12.02.04,0,.08-.01.12-.02ZM37.88,10.08c-.05.06-.27-.32-.25-.45-.35-.61-1.53-2.68-1.77-2.98.14-.14-.81-.8-.54-1.08.01.01.04.03.05.04-.04.04-.16-.79-.31-.76-.12.02-.27-.42-.19-.5-.13-.07-.16-.47-.25-.46-.28,0,.26-.56.4-.44.33-.33.85-.08,1.2-.44.05.04.85-.14,1.04-.3,0,.02-.02.05-.05.07.23-.06.34-.09.57-.19-.2.21.37-.08.39-.07,0,0,.13.24.17.34-.05.06-.16-.02-.2-.08-.16.53.63,1.42.38,1.91.49.68.16,1.9.53,2.33-.13.3.34.88.18,1.07.09.1.36.92.29,1,.07.51.15,1.11.4,1.62-.23.28.61,1.5.34,1.81.27.45.44,1.36.39,1.75-.02.19.12.99.28,1.16-.02.24.18.38.01.46.07.21-.22.22-.02.36-.35.27-.72-1.23-.74-1.21-.23-.24-.22-.42-.37-.57.05-.35-.33-.45-.33-.75,0-.33-.78-1.42-.61-1.63-.1-.17-.7-1.06-.5-1.29-.24-.26-.23-.43-.49-.7ZM17.65,41.15c.08.07.02.17,0,0h0ZM29.53,48.98c-.25.04-.4,1.05-.6,1.16-.03-.2-.12-.05-.18-.07,0-.49.23-.86.15-1.42.21-.04.22-.46.5-.36-.02-.15.17.2.13.4.04.28-.04,0,0,.28ZM30.09,68.11c.73-.11.21.65,0,0h0ZM41.63,18.42c-.17.19-.77.92-.66,1.09-.61.09-.52,1.38-1.07,1.47.05.12-.47.92-.95,1.54,0,0,.02.02.02.05-.03,0-.04-.01-.05-.02-.27.35-.53.64-.67.69.04.05.09.06.1.12-.21.12-.65.48-.61.79-.29.17-.41.64-.7.76-.05.44-.58.71-.54,1.02-.3.14-.38.8-.61.84-.04.45-.69.78-.65,1.17-.28.22-.7.77-.81,1.2-.08.01-.68.89-.7,1.09-.29.21-.31,1.07-.65,1.13-.03.31-.42,1.28-.71,1.32-.02.19-.32.75-.45.77-.23.5-1.19,1.52-1.12,2.08-.08.05-.62,1.03-.61,1.12-.07,0-.63.93-.63.94-.27.12-.66.64-.75,1-.28.05-.35,1.16-.7,1.09.04.32-.37.61-.38.86-.01.4-.53.88-.48,1.28-.08.01-.53.8-.5,1.01-.16.17-.41.83-.61.79,0,.15-.07.04.02.18-.22.03-.12.39-.32.42-.01.17-.37.94-.38.94-.03.2-.28.74-.45.77.03.25-.19.91-.36,1.08-.02.75-1.12,5.49-1.39,6.11.09.66-.88,1.34-.64,1.87-.19.05-.57.15-.61-.14,0,0,.36-1.82.33-2.05.21-.03.56-1.87.53-2.04.13.03.2-.38.24-.57.05-.26.17-.41.18-.71.08-.01.96-4.93.94-5.06.28-.23.2-1.27.58-1.35-.01-.09.49-1.56.47-1.56-.07-.54.28-.93.49-1.38.13-.02.22-1.14.17-1.28.55-.09.04-2.27-.56-.44-.31.93-1.56,4.46-2.01,5.38-.1.02-.31,1.53-.43,1.56.06.14-.59,1.56-.54,1.56.01.11-.29,1.51-.26,1.5.06.44-.44.85-.37,1.36-.14.02-.32.74-.35.85.06.43-.2.21-.46.35-.05-.11-.06-.22-.19-.2-.13-.17-.24-.74-.14-.72-.04-.32-.93-.31-.94-.69,0-.5-.4-1.18-.55-1.64-.09-.28-.27-1.63-.65-1.71.08-.19-.2-1.32-.39-1.38-.18-.93-.33-1.58-.43-2.4.12-.02-.18-2.93-.04-2.96-.01-.73.18-1.22.08-1.97.25-.04.25-1.44.47-1.61-.07-.5.64-2.73.76-3.43.22-1.31.59-2.5,1.18-3.66,1.07-2.12,2.7-3.93,4.49-5.31.25-.19,1.37-1.2,1.33-1.54.21-.03.5-.41.85-.6.04-.41.62-.44.75-.72.29-.16,1.76-.63,1.71-1.06.28-.12,1.13-.77,1.25-.65.07.07.87-.49.87-.52.88,0,1.59-.85,2.46-.76.05.26,1.6-.39,1.83-.43-.02-.1.67-.28.8-.02.06.11.24.37.05.4.03.23-.4.46-.37.71-.32.27-1.73,1.25-1.81,1.7-.17.24-.49.87-.68.9.04.29-.51.71-.67,1.04-.11.23-.16.31-.24.56-.13.38-.26.43-.46.76-.16.12-.1.53-.35.57-.14.34-.39.63-.53.99-.29.74-.83,1.31-1.24,2.02-.16.28-.35.64-.58.9.02.17-.35.94-.51.96.05.41-.64.85-.58,1.35-.11.11-.33.59-.37.77-.03.12-.21.7-.23.72-.01.23-.36,1.36-.5,1.38.02.12-.35.72-.4.76.05.41.41.87.47,1.26-.28.05.2.73.47.07-.02-.12.18-.44.27-.51.05-.34.42-.62.38-.99.18-.02.36-.85.6-.88-.09-.2.38-1.3.62-1.4.16-.06.48-.79.46-.91.36-.06.41-.94.65-1.13-.05-.37.43-.55.37-1.08.23-.03,1.03-1.08,1-1.32.19-.03.53-.76.63-.99.09-.22.53-1.19.68-1.22.03-.13.28-.38.39-.53.08-.12.15-.29.26-.31.02-.32.33-.46.49-.73-.11-.18.8-1.19,1.05-1.33-.05-.36.5-.54.6-.87.07-.21.69-1.1.86-1.13.02-.22.34-.55.5-.68.06-.24.14-1.09.44-1.14.03-.28.61-.44.58-.7.06,0,1.25-.86,1.28-.48.13-.02.86.14.91.23.33.02.7.4,1.01.35.01.11-.06.38.17.35.04.32-.24.76-.49,1.05ZM44.01,7.95s-.19,1.07-.14,1.11c-.16.18.05.58-.09.85-.12.21-.06.7-.18.84-.24.28-.04.76-.3,1.07.3.16-.12,1.23.02,1.66-.28.34.21,1.03-.11,1.4.25.45-.79,1.37-.64.35,0-.07.01-.09,0-.11-.04.06,0-.04,0,0,.01-.02.03-.04.05-.09-.08-.12-.52-.8-.46-.86-.18-.19.09-.54-.02-.65.08-.1-.05-.43-.06-.6,0-.15-.24-.41-.23-.51.01-.1.01-.36,0-.46-.03-.28.04-.96-.2-1.22.09-.1-.31-.64-.26-.84-.3-.32-.31-.96-.47-1.13.16-.19-.09-.71.03-.85.01.04,0-.6-.04-.55-.06-.06-.15-.19-.15-.3.01-.49-.01-.68-.27-1.15.06-.11.25-.75.36-.63.19-.11.64-.13.73.07.3-.12,1.67.34,1.81.62.36-.45.78.32.92.46-.24.28-.14.58-.36.89.06.06.06.6.05.62ZM37.08,27.91s.03-.03.04-.03c0-.02-.02,0-.04.03ZM36.93,28.15s-.04.07-.06.09c-.08.11-.12.2-.16.29.07-.12.14-.26.21-.39ZM37.08,27.91s-.03.02-.04.04c-.02.05-.05.1-.07.15.05-.08.09-.15.12-.18ZM38.93,22.54s.02-.02.02-.03c-.03-.03-.05,0-.02.03ZM56.72,23.17s-.71-.58-.73-.71c-.72.02-.82.48-1.42.58-.18.17-.93,1.52-.89,1.8-.21.15-.64,1.03-.73,1.36-.15.02-.45,1.2-.38,1.41.18.53.87.28,1.26.3.22,0,.68-.3.66-.52.44-.07.96-.67,1.13-1.08.05-.13.29-.27.41-.29.02-.19.25-.51.4-.6-.05-.41.83-.38.57-1.03-.12-.3-.21-.8-.26-1.21ZM74.14,35.95c-.93-1.98-3.27-3.92-3.83-4.78-.07-.11-.16-1.4-.38-1.43-.08,0-.66-.64-.78-.79-.41-.08-.7.04-1-.16-.18-.11-.05-.83-.09-.82,0-.07.15-.43.12-.42-.1-.4-.64-1.03-.67-1.26-.32.11-.47-.09-.6-.46-.38-.08.06-.84.03-1.08.14-.11-.21-.8-.25-1.03.44-.06-1.21-1.83-1.2-1.75-.09.01-1.04-.6-1.06-.79-.1.08-.63.25-.66.06-.21-.01-.63.11-.76-.07-.19-.02-.36-.08-.51-.06,0,.07-2.5.9-2.78.92.04.23-.29.35-.35.45-.05.07-.43.08-.54.16.09.24.1.1.12.31,0,0,.67.27.9.14,0,.02,1.09.07,1.27.08,0-.03,1.74-.8,1.91-.54.11.03.77-.17.79-.03.1,0,.79.52.81.53.07.16.52,0,.71.31.03.26.08.67.11.81.18.66.03,1.11.05,1.69.01.42.03.51.18.84.32-.05.08.09.2.14.12.05.26.3.31.29.51.84,1.23.07.78,1.27-.14.38-.57.82-.84,1.16-.11.14-.15-.13-.16.09-.19.05-.13.27-.3.26-.07.22-.38.52-.61.56-.01.31-.37.31-.32.63-.23.05-.25.36-.46.48-.18.1-.62.33-.58.47-.02,0-.27.72-.05,1.18.17.36.83.46.82.52.13,0,.74-.79.77-.71.39.2.48-.62.83-.69.22-.05.65-.7.82-.69,0,.05.39-.23.39-.21-.09,0,.4-1.49.39-1.52.23-.09.41-.27.7.06.49.57.93.71,1.02,1.39.13.95.76.88,1.36,1.51,1.38,1.43,2.74,4.13,2.84,6.32.05,1.01.38,1.87-.06,3.46-.4,1.46-.48,1.61-1.01,2.68-.06.22-.32.68-.79,1.29-.29.36-.5.68-.75.98.04.05-.34.12-.34.19-.21.12-.47.72-.68.76-.09.21-.29.21-.34.38-.23.03-.51.1-.6.38-.31.05-1.37,1.31-1.51,1.62-.37.05-.6.24-1.02.19,0,.09-1.13.39-1.11.57-.37-.15-.96-.06-1.37,0,0-.03-2.03-.03-2.16.09-.03-.26-1.02-.3-1.17-.28.02.1-.72,0-.86.19-.88.03-.23,1.11-.05,1.23.23.15,1.64.06,1.77.04.04.24,1.28.07,1.47.04.02.12.93.06.93.09.35.05.64.25.95.18,0,.28.2-.17.16.42-.04.47-.11.16-.19.48-.04.16-.24.63-.44.66.02.21-.2.59-.38.62.02.18-.3.84-.52.87.04.32-.94.88-.91,1.07-.21.2-.43.46-.69.64-.22.15-.48.69-.53.34-.09.1-.11.11-.05.24-.13.02-.06,0-.14-.07-.02.29-.28.29-.3.6.42.02.84.12,1.09.01.13-.02.58-.1.56-.23.18-.03.26-.27.42-.3-.02-.22,1.23-.36,1.2-.79.48-.52.42-.67,1.08-.77-.08.17,0,1,.03,1.25-.17.03-.12.77-.27.88,0,.5-.19.95-.36,1.41-.1.26-.54.59-.47.95-.03.04-.04-.09-.09-.08,0,.1-.05.31.06.4.18.15.55-.15.63-.38.06-.17.23-.45.39-.47.01.07.51-.91.59-.98-.04-.34.36-1.04.59-1.3.06-.55.21-.92.14-1.51.15-.02.29-1.09.26-1.25-.04,0,.33-1.21.34-1.31.13-.02-.01-1.02.16-1.05-.04-.32.68-.8.93-.94,0,0,.89-1.21,1.05-1.24.3-.05,1.04-.34,1.08-.77-.07.01.17-.26.31-.24.48.05.43-.53.8-.58.16-.32.41-.91.7-1.09.18-.34.27-.33.28-.74.36-.39.37-.19.66-.6.04-.12.45-.58.54-.67-.01-.13.41-.83.42-.87.39-1.07.51-.91.58-1.38.14-.88.36-.99.62-1.83.57-1.82-.21-5.03-1.06-6.84ZM60.6,28.1c.08.72.59,1.02,1.01,1.02.12.27,1.22.65,1.22.06.27.03.81-.27.84-.9.18-.12.4-1,.42-1.01-.04-.34.02-.9-.02-1.25-.01,0-.4-.34-.42-.46-.09.02-.11.02-.21.05-.41-.01-.16.06-.38.44-.21.18-.11.72-.39.79.04.47-.89.88-1.15.76-.19-.41-.72-.75-.91-.86,0,.01,0,.01,0,.03-.25-.17-.41-.46-.7-.39-.01.44.23,1.84.69,1.72ZM60.57,26.71s.03.02.04.03c0-.04-.01-.05-.04-.03ZM16.3,49.33c.02.17.08.07,0,0h0ZM64.28,55.1s-.02.1-.02.14c.11-.02.07-.1.02-.14Z"/>
    <path class="st1" d="M34.69,26.95c0,.43.19,0,0,0"/>
    <path class="st2" d="M52.17,18.54c-.15.18.45.89.65,1.07-.1.13-.06.53-.01.72-.24.12-.16.45-.36.72.07.41-.43.57-.48.96-.71-.03-.78,2.12-1.23,2.34-.14-.33-1.18,1.6-1.13,1.57.13.26-.73.92-.54,1.34-.12.45-1.23.26-1.35,0,.19-.09-.43-1.18-.1-1.35-.05-.41-.4-.75-.3-1.13.07-.31.4-1.25.34-1.37.06-.03,1.37-1.67,1.29-1.83-.41-.17,1.16-1.15,1.04-1.41.11-.06,1.02-.95.93-1.12.38-.19.67-.48,1.07-.71"/>
    <path class="st2" d="M40.16,45.09c.17.94.47.35.64,1.9,1.23,0,.99-1,2.28-.71.6,1.17,1.48.91.78,2.61-.62-.22-1.58.08-2.28.08,0-.53-3.28-.68-2.49-2.93,0,0,.67-1.29,1.07-.95Z"/>
  </g>
</svg>