<?xml version="1.0" encoding="UTF-8"?>
<svg id="_レイヤー_1" data-name="レイヤー_1" xmlns="http://www.w3.org/2000/svg" version="1.1" viewBox="0 0 201.1 290.09">
  <!-- Generator: Adobe Illustrator 30.3.0, SVG Export Plug-In . SVG Version: 2.1.3 Build 182)  -->
  <defs>
    <style>
      .st0 {
        fill: #231815;
      }
    </style>
  </defs>
  <path class="st0" d="M159.63,57.75c.01.2.02.4.03.59.45-.03.65-.63-.03-.59ZM158.13,63.02c0-.18-.07-.31-.22-.39-.11.34-.04.47.22.39ZM157.75,63.43c0-.17-.08-.3-.22-.39-.11.34-.04.47.22.39ZM160.68,55.1c.35-.02,1.13-1.06.14-1,0-.18-.07-.31-.22-.39-.04.1-.1.17-.19.21.4.69.35.33.26,1.18ZM33.5,158.43l-.1-2.1c-.2,0-.54.03-.78.03,0,.2-.69.59-.99.59,0,1.22-2.48-.38-3.19.2-.69,0-3.18.35-3.18,1.39-.95-.19-3.12-1.11-3.58-.2-1.64,0-2.23,1.65-4.08,1.47-2.14-.21-2.55,1.41-4.08,1.92-.37.74-2.16.37-3,.82-1.03.56-1.9,2.16-2.98,2.16,0-.47-1.41-2.19-1.79-2.19-.39-1.72-1.39-2.2-1.39-3.78-.65,0-.2-2.48-.2-2.78-2.68,1.29.15,6.66,1.79,7.75.54,2.17,2.78,3.17,3.58,4.78.49.1,2.78.42,2.78,1,.74,0,.86.79,1.59.79,0,.61,3.19,1.41,3.58,2.19,1.08.67,2.78,1.43,2.78-.39-.92-.31-1.56-1-2.39-1-.5-.74-3.38-1.21-3.38-1.99-1.47,0-3.5-2.58-5.17-2.58.26-1,1.33-1.93,2.14-2.39.48-.27,3.03-.31,3.03-.4.41-.23,2.63-1.88,2.78-2.19,2,.17,4.27-.02,5.57-1.99,1.42-.02,1.52.59,2.99.76.94.11,1.79-.41,1.79-1.36.44-.69,2.66-.43,3.35.03.35.24,1.44.3,2.2.08,0-.01,0-.03,0-.04.18-.05.27-.26.31-.59ZM162.36,53.02c0-.18-.07-.31-.22-.39.08.19.02.26-.19.21-.05.27.08.33.41.18ZM156.82,64.48c-.05.2-.11.4-.16.61.35-.02.6-.63.16-.61ZM149.17,88.21c-.21.88-.06,1.27.46,1.17.21-.87.06-1.26-.46-1.17ZM129.3,77.59c.38-.63.6-.35.6-1.19-1.09.05-1.47.54-.6,1.19ZM65.14,235.94c.55.07,1.16-1.56.44-1.64-.02-5.44-7.01-2.97-7.01-.45,1.9.75,4.69,4.28,6.58,2.09ZM100.86,69.24c.07-.27-.07-.33-.4-.2-.01.18.06.31.2.4-.07-.2,0-.27.2-.2ZM53.75,234.52s-1.69,6.75,1.9,4.9c3.58-1.85,1.26-4.51-1.9-4.9ZM52.87,244.2c-.64,1.08-3.77,5.88.29,4.77,3.07-.84,3.55-4.29-.29-4.77ZM152.15,73.71c.1.14.23.2.41.18.06-.27-.08-.33-.41-.18ZM156.66,65.29c-.83.3-2.55,4.32-2.51,5.12.98-.06,2.29-4.32,2.51-5.12ZM153.78,70.83c-.06.2-.11.4-.16.61.35-.02.6-.63.16-.61ZM62.07,247.9c2.57,1.19,2.44-3.52,2.19-4.83-4.71.17-2.19,1.84-2.19,4.83ZM152.94,73.66c-.06-1.16.19-.11.14-1.01-.33.02-.98,1.05-.14,1.01ZM153.27,72.45c0-.18-.07-.3-.22-.39-.11.34-.04.46.22.39ZM63.39,224.66c0-1.57-6-2.45-7.45-2.63-2.6-.72-12.71-.88-12.71,2.68-4.61.55-7.01,7.64-7.01,12.75,0,6.64.7,9.81,5.08,15.13.73.88,5.88,4.81,5.88,4.94.82.1,6.57,2.36,6.57,2.52,3.04,1.27,14.46-.15,14.46-2.46,5.02.62,7.55-10.13,8.03-14.04.69-5.58-3.53-8.39-4.97-13.67-3.71-1.27-4.29-4.79-7.89-5.23ZM68.65,250.56c0,1.02-1.15,3.25-1,3.74.66,2.12-3.75,2.76-4.7,2.64,0-1.95,1.69-4.98-1.44-6.11-5.07-1.83-1.13,7.09-5.13,5.3-1.61,4.47-2.64-1.77-3-2.74-1.02-2.78-3.36.48-5.35-.71-2.33-1.4-2.61-3.81-2.61-5.57-3.41-.05-5.1-.14-4.38-3.95,1.9-.13,5.93-.33,7.1-1.95.79-1.08.73-3.2,1.87-3.72.65-.3-.67-2.76-1.08-3.57-2.31-.28-1.28-.04-2.63-.33-.61,1.69-1.97,5.72-3.95,5.47,0-1.88-1.61-12.11,2.63-11.59.88,2.66,2.05,3.25,4.82,3.15,0-.04,3.38-3.41,1.75-3.61,0-5.99,4.59-.28,8.32.19,0,.41,2.7.73,4.28,1.13,2.54.66,2.85,2.53,4.48,3.78,0,4.21,1.89,9.77-5.7,5.68,0,1.81-1.33,2.8,1.55,3.14,1.9.23,5.26.7,5.32,3.29.05,2.25-1.17,3.38-1.17,6.33ZM18.7,179.64c-.07-.2-.13-.4-.2-.6-.66-.2-1.27-.27-1.99,0,.21,1.7,1.2.6,2.19.6ZM86.93,191.57c3.33,1.01,0-2.96,0,0h0ZM94.89,182.42c0-1.34-.95-2.24-2.19-1.19.12,1.99,1.23,1.19,2.19,1.19ZM82.56,195.75c-1.21,2.3,3.71.62,0,0h0ZM10.29,177.97c1.16.86.77-.13,1.84-.13,0-2.3-3.97-1.47-1.84.13ZM107.42,175.26c-2.67,3.15,4.83.97,0,0h0ZM96.28,190.38c-1.3,3.38,5.44,1.09,0,0h0ZM105.63,180.83c-4.7-1.57,0,2.58,0,0h0ZM33.22,184.81c1.45-.08,1.44-1.59.2-1.59,0,.54-1.45.34-.2,1.59ZM105.67,155.04c-.16-1.26-3.75-3.2-5.41-3.25.14,1.96,2.85,2.68,4.18,3.78,0,.22,1.45,1.79.8,1.79-.46,1.41-.34,2.76-.2,4.18,2.1-.1,1.19-2.72,1.19-3.98,2.54,0-.51-2.11-.56-2.51ZM37.8,196.55c-1.88,3.55,4.14,0,0,0h0ZM27.65,174.47c-1.14,0-1.54-.4-2.59-.4,0-.1-2.2-1.39-2.39-1.39-.83,2.75,3.78,1.74,3.78,2.78.52,0,5.57,1.37,5.57,1,2.56-.86-4.37-2.25-4.37-1.99ZM13.13,183.22c-.03-1.96-2.18-1.34-1.86-.63.49,1.05,1.16.63,1.86.63ZM28.65,189.39c-1.56,3.11,4.92.68,0,0h0ZM14.32,186.6c0,3.39,5.15,0,0,0h0ZM112.2,44.17c-1.09-.24-2.39.35-2.39,1.79-1.14.91-2.45,2.13-1.19,3.38,1.74-.19,3.78-3.99,3.58-5.17ZM45.16,193.96c0,.36-1.27.68-.2,1.39.82.54.86.11,1.79,0,0-2-.09-1.39-1.59-1.39ZM108.22,28.46c0-1.78-2.7.63-2.88.5-.55-.38,1.09,2.88,1.09,2.68,1.03.34,6.37,1.85,6.37,2.39.65.08,2.39.62,2.39.4,1.79-.6-.57-2.72-1-3.58-1.94,0-3.95-2.39-5.96-2.39ZM105.83,37.41c2.41,0,5.03.6,7.36.6,0-.48-.8-.34-.8-.99-1.4-.47-2.63-1.52-4.53-1.81-1.38-.21-1.73.03-2.63.62,0,.41-.07,1.59.6,1.59ZM121.34,46.76c1.65.23,3.06-.4,4.78-.4,0-3.15-5.31-1.76-4.78.4ZM135.69,31.26c-1.18-1.78-4.68-.22-5.99-.22,0-.13-3.43.88-3.98.99-.31.63-.91.85-1.59,1-.29,1.46.08.69.4,1.99.76.15,6.17-.89,6.17-1.39.86,0,5.7-1.3,4.99-2.36ZM132.67,49.26c-1.29-1.88-3.05-3.39-4.56-3.89.34,1.67,1.99,2.53,2.58,3.93.68,1.61,3.44,2.08,1.99-.04ZM14.13,149.8c-1.3.47-2.18,1.39-3.18,1.39-.27.54-1.47,1.86-1.99,2.29-.97.81-1.19,3.42.31,2.37.61-.43,2.48-2.66,2.48-3.07.68-.04.85-.28,1.39-.6.49,1.32-.17,6.76,1.79,6.76.32-1.9,0-3.6,0-5.77-.1-1.15.2-1.99.2-2.79-.32-.14-1-.24-1-.6ZM125.92,40c.4.04,1.55-.6,2.19-.6,1.32,0,2.09.05,3.58-.2.78-2.34-3.96-1.55-5.2-1.29-.6.12-1.29.14-1.76.5.1.75,1.19,1.45,1.19,1.59ZM126.52,52.53c1.36.39,2.24,1.41,2.78-1,1.93-.23.3-2.3-1.19-1.39-1.13.69-1.1.25-2.49.1-2.21-.25-3.84-.93-6.67-1.1,0-1.55-7.76,2.28-7.76.6-2.51.13.09,2.84,1,2.39,0,.73,4.03-1.59,4.58-1.59,0-.1,3.38-.4,3.38.4.62,0,6.37,1.18,6.37,1.59ZM146.21,43.78c0-1.88-1.25-.51-1.94.38-1.81,2.36,1.28,2.15,2.73,2,.34-1.26,2.94-1.51,1.56-3.25-1.23-1.56-1.51.86-2.35.86ZM114.58,43.97c-2.82.56.44,3.56,2.39,2.58,0,.94,1.53.58,1.79-.2-.83-.67-3.93-1.47-4.18-2.39ZM32.63,146.02c-1.67-3.37-5.45-.18-7.4,1.15-1.02.7-1.38,2.7.43,2.03.37-.74,1.04-.92,1.99-1.19.18-.35,2.16-1.59,2.78-1.59,0,2.22,1.39,4.8,1.39,7.36.2-.07.4-.13.59-.2.05-1.05.7-1.9.4-2.98-.43,0-.37-2.23-.4-2.59-.42,0-1.22-1.99.2-1.99ZM115.98,54.32c-1.79-.09-.53,2.23.8,1.79,0,.3,2.69.4,2.98.4,0-.22,2.88-1.87.6-2.39-.62.62-4.37.7-4.37.2ZM115.73,38c.1.74-.36,1.84-.36,2.98.16.54,1,2.1,1.39.4,3.18-.8-1.71-8.16-1.04-3.38ZM62.86,169.09v-.6c-.25.07-.35.2-.6.2-.07.32.13.45.6.39ZM200.89,111.37c-.13-.28-.32-2.15-.18-2.15.56,0-3.35-7.25-3.4-7.59-.2-1.62,1.12-2.51,1.24-4.1.13-1.71-.64-2.86-.92-4.48-.51-2.97.15-5.85.8-8.66.62-2.68-1.65-3.31-2.71-5.53-.73-1.53-.26-2.93-.69-4.51-.51-1.84-2-3.33-2.68-5.19-.49-1.33-1.24-2.95-1.54-4.36-.16-.75.09-1.9-.18-2.6-.45-1.15-2.26-1.62-3.08-2.51,1.38-1.7-.79-4.36-2.21-5.05-2-.98-4.31-.95-5.97-2.68-.6-.63-.72-1.42-1.51-1.82-.5-.25-1.4.07-1.89-.18-.42-.22-.24-.65-.74-.86-.88-.38-1.28-.28-2.4-.46-1.53-.25-1.33-1.12-2.65-1.66-1.1-.44-3.55.36-4.73.5-1.78.22-3.55.28-5.28-.22-2.64-.75-10.96-6.39-10.99-.72.1,0-1.19,1.59-1.19,1.6-.38,0-2.58,1.91-2.58.79-1.84,0-2.36-1.91-1.99-3.78-2.3-1.54-2.3,2.01-1.41,3.55.59,1.01,2.6,2.12.81,3.01-.16.66-.66,3.02-1.09,3.02-1.06.82-1.2.93-2.29,1.92-.99.2-1.33,0-2.74.82-1.04.27-2.35.13-3.37.08.46,1.88.17,1.46-.92,2.41-.69.6-1.8,1.84-2.68,2.17-.84.31-2,.34-2.86.57-2.03.54-4.07.37-6.14.19-2.6-.23-4.37-.98-6.68-1.75-3.31-1.11-4.95-1.99-7.09-4.61-2.42-.54-5.77-5.03-6.59-7.12-.91-2.35.2-5,.33-7.52.08-1.6.35-3.54.35-4.96-.24-.71.97-6.32.97-7.3.24-.72.05-7.56,1.39-7.56,0,3.08,3.38,4.66,6.02,4.11.83-.17,2.74.09,2.74.07,1.18,0,1.51-.6,2.99-.6-.26-1.54-1.69-3.38.79-3.38-.79,1.38-1.13,4.58,1.09,4.58,1.7,0,3.85-1.39,5.27-1.39,0,.93-.4-.2-.4.99.34,0,1.79.24,1.79-.2,1.14-.23,1.13.2,1.99.2,0,.54,3.51.4,4.18.4,0-.35,9.67-1.81,10.94-1.99.3,2.74,1.67,4.34,2.09,7.26.26,1.8.63,3.87.25,5.69-.38,1.85-.03,2.59,1.84,2.37-.26,1.01-1.14,1.78.2,1.19.83,0,1.48-1.29,2.5-.6,1.01.69,2.52-.8,1.52-2.15-1.14-1.55-1.83-.37-3.02-.04.11-3.26,1.67-2.98,3.98-2.98.09.62,1.32,4.57.6,4.57,0,.94.19,2.11,1.49,1.96,1.07-.12,1.07-1.56.5-1.56-.13-1.7,2.19-.03,2.19-.8.58,0,1.04-.5,1.59-.8.55-2.2,1.05-2.99.2-5.57,0-.54-.64-3.18-1-3.18,0-2.62-2.98-5.36-3.58-8.35-1.39-.7-1.23-2.23-3.38-1.39,0,.48-1.83.69-2.19,1.39-2.05,0-4.5,1.58-6.37,1.79-1.72.32-17.5,2.15-17.5,1.79.89-.37,9.55-2.95,9.55-2.78,1.63,0,2.95-1.28,4.68-.75.99.31,2.95.12,4.08-.05.39-.77,3.38-.59,3.38-1.39,1.9-.38,3.07-.89,4.83-1.66,1.83-.81-1.36-2.85-1.74-4.01-.38-1.13-1.32-2.05-2.3-2.79-.77-.58-2.29-.84-2.57-1.68,2.15-.43,5.71-1.89,5.04-4.44-.31-1.19-2.25-2.25-2.25-3.12-.37-.1-1.2-.62-1.2-.8-1.28,0-2.49-1.62-4.26-1.05-2.07.67-1.81,5.03-3.49,5.03-3.79-2.91-10.02-3.24-11.09-3.49-1.79,0-3.49-.67-5.13-1.32-2.05-.81-4.02-1.58-5.97-.92-1.2.4-2.11,1.18-2.62,2.12-.73,1.35-.68,3.04.47,4.51-.28.55-1.85,1.22-1.92,1.5-.13.5-1.23,1.38-1.39,1.38-2.68,3.22-6.76,6.34-6.76,10.15-.44,0-1.34,4.58-2.98,4.58-.49,1.97-1.59,4.26-1.59,6.17-.53,0,.16,6.75.04,8.26-.12,1.56,1.64,3.35,1.68,5.25.02,1.24-1.38,2.72-2.1,3.53-1.13,1.27-2.44.37-3.79.76-1.55.46-3.13,2.22-4.03,3.36-.59.75-.99.83-1.64,1.43-.64.58-1.05,1.9-2.08,2.2-.01.25-.03.51-.05.75-.12.03-.34-.03-.44.04-.03,1.43-1.34,2.31-2.69,2.53-.12.02-1.71,1.15-2.16,1.32-1.23.48-2.16,1.02-3.17,1.93-2.19,2-2.84,3.59-2.91,6.41-.03,1.31-.41,2.6-1.29,3.58-.8.89-2.13,1.21-2.44,2.55-.19.82.55,1.41.52,2.32-.03.72-.54.67-.64,1.3-.22,1.35.5,2.5,1.45,3.38-1.85.77-1.89,1.9-2.46,3.62-.69,2.09-2.32,3.79-2.52,6.04-.23,2.67,5.13,9.59-1.13,9.59-.53,1.05-1.45,3.35-1.45,3.35-.22,1.15-1.24,1.57-1.74,2.65-1.36,2.9-3.72,6.65-7.24,8.1-.02-.08-2.17-.71-2.62-1-1.41-.92-3.51-1.22-5.29-.72-1.83.51-3.33-.52-5.22-.2-.14-2.4.94-4.79.4-6.72.34-.1.75-4.72.58-5.33.69-.63.4-4.66.94-4.8-.06-.22-.09-2.45-.07-2.46.11-.67-.35-1.55.34-1.74-.38-1.39-1.05-.07-1.28-.88-.28.07-2.13.53-2.22.2-.72.2-.72-.39-1.25-.17-.51.21-.3-.34-1.04.05-.73.39.13,1.14-.49,1.31.36,1.27.82,4.54-.15,5.41.29,2.63-.49,4.76-.17,7.17.16,1.24.18,3.96-.52,5.2-.39-.3-.02-9.28-.1-9.26-.65-2.35-.1-5.16-.3-8.16-.15-2.24-2.82-1.96-4.48-1.94-3.14.03.59,5.69-.68,6.05.89,3.2.1,6.31.4,9.59-.5.45.37,3.62,0,3.72.2,1.39.62,2.99-.72,3.71-.91.49-1.1.63-1.5,1.65-2.38.66-.38,4.29.1,5.55-.33.1.21.59.39,1.03.54,1.36-.89,1.63-1.37,3.01-.34.97-.3,1.94.15,3,.64,1.48-.92.57-.62,1.85.32,1.39-.69,1.97-.36,3.17-.88.25.89,1.56,1.09,1.77.48.51.27,1.39.24,2.14,0-.01,0-.03,0-.04-2.12-.46-4.25.71-6.17,1.49-2.45,1-5.03,1.67-7.48,2.71-3.02,1.28-5.17,2.28-7.52,4.55-.96.92-3.62,3.59-5.03,3.59-.21.83-1.25,1.17-.47,2.02.73.8,1.22.56,1.46-.43.87,0,1.55-1.79,2.99-1.79,0,.82-2.59,2.17-2.59,3.18-.59,0-.6,1.3-.6,1.59,1.25,0,2.35-1.36,2.59-2.39,1.16-.31,1.84-2.19,2.78-2.19.64-.95,1.55-.63,2.19-1.59,1.07,0,2.09-1.39,3.38-1.39.9-1.8,14.36-4.29,14.36-7.01-3.61.51-6.37,2.53-9.75,3.43-2.63.7-4.81,1.84-7.09,3.26-1.25.78-3.55,2.91-5.08,2.91.25-.98,2.33-2.27,3.09-3.02,1.21-1.21,2.4-1.89,3.9-2.75,1.36-.78,2.99-1.23,4.46-1.72,1.66-.54,3.05-1.19,4.56-1.86.88-.39,5.72-.57,6.02-2.24,0,.08,0,.16.02.24.27,1.36,1.41,3.02,3.08,2.55.16,2.18.06,4.68.61,6.64-.38.1-.09,4.89.1,5.55-.41.11-.02,2.14.19,3.92l.2,2.57c-.11.07-.25.12-.4.16.31,1.16-.03,2.13.32,3.37-1.18.33,1.03,1.48,1.05,1.57.77-.8.86.06,1.36.45,1.7-.55.97-1.89,1.17-3.21.7-.2.17-3.15.73-3.3-.3-1.07.47-2.45.19-3.77l.35-3.12.04-.7c.01.13,0,.25,0,.38l.66-5.89.15-.02,3.55-.38c0,1.6-.5,6.51,1.19,7.36.97-2.09.9-6.63-.2-8.55-.51-.09-4.46-.17-4.46-.56l.32-2.85c0-.51,7.89-.71,9.51-.77,0,.49,5.97.32,5.97.4,2.08,0,2.92.8,4.77.8.52,0,5.57-.79,5.57-.43,3.64,0,7.19.76,11.26.87,0,.5,8.3,1.14,9.43,1.14,0,.26,5.58,1.35,5.59,2.22,0,.28,2.94,1.01,3.3,1.01,0,.22,2.02,1.29,2.59,1.29.46.93,2.49.5,3.3,1.58,1.16.29,1.15.72,2.93,1.67.52.77,1.77,1.4,2.59,1.4,0,.24,2.83,2.16,3.38,2.78.87,0,1.39,5.78,1,6.76-.52,0-1.5,2.66-1.82,3.34-.79,1.71-.93,1.04-1.96,1.04,0-1.1-6.05-2.6-7.01-3.15-.98-.56.64-.52-1.54-.33-1.67.14-.99-.7-2.19-.7-.58-1.16-2.94-.34-4.18-.2.32,2.79,2.96.46,4.37,1.6,0,.55,1.55.99,1.94.89,1.33-.36.69-.34,1.84.3,0,.8,4.47,1.33,5.17,2.39,1.46.36,2.21,1.67,3.78,2.38-.85,1.59-2.45,2.02-3.58,3.29-1.07,1.2-2.53,1.99-3.98,2.29-.62,1.23-4.26,2.19-5.97,2.19,0-.9,2.19-.55,2.19-1.2.5-.16,2.79-1.52,2.79-1.79,1.09,0,1.71-1.79,2.59-1.79.85-1.27,2.98-1.62,2.98-3.18-.93.31-3.37,1.97-3.78,2.79-1.01,0-1.45,1.59-2.58,1.59,0,.57-3.1,1.78-3.82,2.07-.8.32-5.13,1.54-5.13,1.71-2.8,0-5.33,1.39-8.36,1.39,0,.59-7.31,1.2-8.42,1.2-7.95,0-15.04.2-23.81.2,0-1.22-8.35-.28-8.35-1.19-2.4,0-4.33-1.25-6.57-1.99,0,1.92,4.38,2.35,4.38,3.19,3.13.21,5.38.79,8.16.79,0,1.24,12.74.56,14.32.4,2.27-.23,4.27.2,6.41.2,2.95,0,3.93-.4,6.58-.4,4.7,0,7.73-1.29,12.26-1.99,0,1.6-6.56,1.35-6.56,2.19-1.44,0-1.19,1.09-.4,1.99,1.59-.2,2.65-.6,4.18-.6,0-.85,4.78-.75,4.78-1.79,2.13-.35,3.14-.99,4.97-.99,0-.98,4.98-.62,4.98-1.6.52,0,3.78-1.45,3.78-1.99,1.7,0,2.82-2.06,4.51-2.93.92-.47,2.21-1.3,2.85-2.24.14-.21,2.34-3.44,2.51-3.44-.71,3.02-1.58,6.89-2.15,9.19-.12,0-.86,4.74-1.87,7.61-.58,2.87-1.01,4.74-1.68,6.13-.62,1.77-3.77,3.86-5.37,4.18-1.27,1.92-6.28,3.18-8.15,3.18,0,1.64-13.53,2.07-13.53,2.59-.81.19-2.81.07-4,0-2.21-.11-5.16,1.11-7.34.59,0-.5-8.36.59-9.55.2,0,2.75,2.16.78,3.74,2.31.75.73,2.81,3.07.83,3.07-1.99.69-2.74-.02-4.57,0,0,.8-4.37.09-4.9-.37-.85-.73-3.05-2-3.05-3.42,1.02-.25,1.83-.2,2.78-.2.88,0,1.14-.01,2.19-.2.22,1,.89,1.95,1.54,2.71.57.66,1.43,1.54,2.04.47.5-.46-.77-1.49-1-1.79-.11,0-1.01-.94-1.31-1.23-1.21-1.11-.24,0,.12-1.35-3.04.19-5.64-.2-8.56-.2,0-.34-7.29-.62-8.18-.78-.8-.15-6.74-.72-6.74-1.21-1.43,0-2.65-.79-3.98-.79,0-.31-5.68-1.99-6.37-1.99,0-.32-5.42-2.07-6.36-2.39,0-.81-5.17-2.02-5.17-2.98-1.02,0-1.88-1.39-2.98-1.39,0-.41-.36-3.58-1-3.58-.37-3.32-1.52-5.93-2.29-9.25-.69-2.99-2.09-5.22-2.09-8.46,1.01.76,2.81,2.98,3.98,2.98.64.85,2.21,2.19,3.18,2.19.9,1.35,3.76,1.35,4.38,2.59.21.08,2.78,0,2.78.79,4.56,0,8.43,4.75,13.72,2.99-.45-1.37-4.97-1.99-6.16-2.19,0-.92-3.58-.9-3.58-1.59-2.45-.25-3.78-1.59-5.97-1.59,0-.06-4.17-1.99-4.57-2.58-1.87,0-3.19-3.18-4.97-3.18-1.56-1.74-3.98-3.57-3.98-5.57-1.05-.53-1.05-2.29-1.13-3.52-.07-1.05-.14-2.12.02-3.16.13-.87.92-1.27.61-2.12-.66-1.8-1.21.25-1.69.25,0,1.08-.81,2.7-.8,4.15.02,2.65,1.4,5.03,1.4,6.79,1.31,0,.53,5.97,1.39,5.97,0,1.14,2.52,12.53,3.18,12.53,0,.43,1.4,5.97,1.39,5.97,0,1.46,1.27,1.27.99,2.6-.18.88.53,1.89.4,2.77,0,0,.2,22.08.2,24.2,0,3.09-.58,5.42-.35,8.65.27,3.83-.25,7.67-.25,11.5-.2,5.38.33,8.03-.64,11.74.33,2.98-.5,6.92-.36,9.75,0,2.82.8,5.25.8,7.96.88.45.78,2.05,1.86,2.24.65.12,1.85,1.11,2.32,1.74,1.24.87,1.89.51,2.19,1.99.56.14,1.19.19,1.19.8.68.23,2.98.47,2.98,1,.81,0,7.16,1.64,7.16,1.79.87,0,5.17.82,5.17,1,2.05,0,4.32.55,6.73,1.02,2.95.58,7.06,1.15,9.38.57,0,.78,6.17,1.14,6.17,1.17,1.46,0,1.61.6,3.19.6.72,0,5.97-.17,5.97.2.5,0,3.98-.54,3.98-.34.4-.1,2.58-.43,2.58-.59,1.7,0,2.65-.71,4.18-.71,0-.43,7.56-.33,7.56-1.19,2.42-.6,4.06-1.48,6.56-1.79.4-.18.6.01.6-.44.75-.08,1.82.14,2.18-.6.39-.17,2.62-1.19,2.59-1.19,1.32-1.97,4.78-1.1,5.77-3.08.58-.37,1.85-.78,3.05-1.38,1.47-.34,2.13-.61,2.78-1.5.65-.89,1.5-.61,2-1.76.41-.92.88-1.27.9-2.06.37-.97.03-3.14.28-2.26-.07-.71-.91-6.64-.92-8.78.73-1.86,1.29-3.72,1.75-5.43.28-1.05,1.41-2.58,1.77-3.65.28-.83.38-1.78.39-2.72.8-.32,1.33-.82,1.6-1.9.88-.44.34-1.36,1.19-1.79.66-1.01,1.23-2.51,1.38-3.36.08-.43,1.31-6.19.74-6.19,0-.93.44-.99.84-1.74.58-1.09.89-.23,1.41-1.71.32-.9.34-1.4.34-2.32.44-.22,1.79-4.54,1.79-5.17.61-.48,1.51-1.39,1.99-1.39,0-.43.67-1.99,1.19-1.99-.2-1,.43-3.69,1.39-4.17.62-3.67,4.37-6.74,4.37-10.35.73,0,2.19-5.77,1.79-5.77.16-.81,2.93-6.96,3.38-6.96,0,3.14.99,5.26,1.14,8.8.08,1.77,1.15,3.17,2.44,4.13-.11.43.09.69.59.79,0,.72-.06,1.44-.17,2.15-.18,1.09-.42,1.91-.42,3.03.06,0,1.32,5.71,1.39,6.56,1.18,0,1.15,14.68.87,15.69-.22.75-1.29,4.92-1.21,4.94.18.08,1.54,2.74,1.54,3.09.87,0,1.24,4.37,1.79,4.37,0,1.95.54,6,2.58,7.36,0,2.76,2.98,4.46,5.37,3.98.34.91,1,6.17,1.59,6.17.27,1.64-.33,1.55-.6,3.18-1.91,0,.6,4.04.6,4.57-.18-.08-.32-.22-.4-.4-.45.51.24,2.78-.4,2.78,0,.42-.24,1.23-.4,1.79-.03,0,.28,2.89.2,3.38-1.52,0-1.42.12-2.59.99,0,.86-.78.89-.89,2.02-.1.69-.11,1.39-.02,2.08.17.95.99,1.7,1.71,2.27.33.98,2.59,1.09,2.59,1.59,2.46,0,4.64,1.79,7.36,1.79,0,.18,7.65,2.59,8.35,2.59,0,.57,4.51,1.39,5.37,1.39,0,.65,4.55-.04,4.98.8,1.16-.23,3.58.4,4.77.4,0-.54,4.36-1.49,4.97-1.59,1.59-.27,2.41-1.19,3.88-1.19,1.04,0,2-.84,3.08-1.19,1.27-.68.97-.95,1.64-1.94.46-.68,1.15-.57,1.15-1.44-1.06,0,.34-1.27.42-1.45.33-.77-.74-3.22-1.62-2.93,1.21-1.9-.52-4.17-2.49-4.17-1.22,0-1.91-.35-2.98-.5-.93-.13-1.85.3-2.88.3.46-1.57-.63-1.39-1.39-1.39.28-1.45.27-1.59-1.19-1.59,0-.54-.78-.74-1.19-.6-.4-.8-3.98-1.54-3.98-1.99-.58,0-1.3-.77-1.79-1.19-.3-.6-.56-.18-1.19-.4,0-.08-.65-.61-.87-.69-.7-.25-1.36-2.49-.72-2.49,0-1.28,1.18-7.65,1.41-9.06.94-2.85,4.54-3.42,5.59-6.02,1.2-2.96,1.08-8.91.48-12.01-.44-2.25-1.14-3.06-.71-5.16.31-1.52,1.17-3.19,1.34-4.94.42-4.31.38-8.75.38-13.1,0-1.88.19-3.97-.22-5.72-.45-1.91-1.85-3.86-1.32-5.89.36-1.39,2.2-1.38,2.2-3.2,0-.9-.2-2.05-1-2.58,0-.71-1.05-2.34-1.79-2.78,0-1.27,1.27-1.52,1.59-2.79.83,0,1.59-2.09,1.59-2.79,1.09-.82.74-1.11.59-2.39.61,0-.21-.79.4-.79,0-1.02.2-1.61.2-2.99.51-1.4.09-1.64.37-3.05.2-.98-1.27-3.92.42-3.92.23-1.18.4-1.49.4-2.58,0-.36-.43-2.19-.59-2.19-.16-1.1-1.2-2.18-1.2-2.98-.82-.41-2.18-2.25-2.18-2.99-1.26,0-.4-1.52-.4-2.39,1.07,0,1.14-4.29,1.24-5.3.16-1.7-1.83-3.1-1.83-4.64-1.03,0-1.91-4.38-3.19-4.38-.14-.31,1.77-2.7,2.19-2.98.18-1.05.17-1.44,1-1.99.12-.74.76-2.67,1.39-2.99.23-1.59.31-2.99,1.31-4.42,1-1.44,2.02-3,2.07-5.13,1.77.54,1.69-1.39,3.19-1.39,0-.04,1.44-1.6,1.68-1.86.72-.8,1.86-1.62,2.25-2.37.21-.4,2.14-2.73,2.43-2.73,0-1.09,1.47-1.53,1.95-2.44.35-.66,1.27-3.73,2.23-3.73.15-1.37,1.22-2.18.57-3.62ZM112.6,24.08c0,.27-3.47-.68-3.91-.66-1.3.05-2.82.38-2.58-1.34.18-1.31.86-2.47,1.12-3.76.85-.12,1.46-1.17,2.06-.43.63.78,1.43,1.71,2.32,2.21,0,.64,1,1.05,1.59,1.19-.13.6-.27,1.19-.4,1.79-.45,0,.61,1-.2,1ZM128.31,20.7c0,.6-1.79.27-1.79.99-.55.19-3.38,1.3-3.38,1.59-.44,0-2.58.6-2.58.99-1.21,0-2.27.42-3.58.8.08-.83.56-.91.8-1.59.7.19,5.77-2.42,5.77-3.18,1.68-.45,4.58-2.5,5.57-3.98,2.84.57,1.72,4.38-.79,4.38ZM141.84,7.97c-.87-.74-2.78-1.71-2.78-2.78.76,0,2.78,2.01,2.78,2.78ZM112.2,9.16c.63,0,3.4-1.22,3.78-1.99.47,0,1.71-.25,1.99-.8,1.15.13,1.92.57,2.19-.8,2.12-.38,3.53-1.07,5.69-.53.61.16,1.26.33,1.87.33,0-.89,4.87-.11,5.57,0,0,.12,1.85,1.19,2.19,1.19,0,.7,2.58,2.01,3.21,2.56,1,.88,3.06,2.2,3.27,3.58.21,1.43-.46,1.77-.71,3.01-.55.39-1.39.67-1.39,1.39-1.77,1.47-.6,1.56-.4,3.18-1.96.26-4.41.4-5.77.4.36-.87-.52-3.07-1.21-3.77-1.18-1.19-1.49-2.4-2.77-2.4,0-1.46-4.08,1.99-4.18,1.99-.74,1.48-4.06,1.97-4.77,3.38-1.85.46-2.48,1.87-4.31,1.66-1.88-.22-1.95-.26-2.95-1.46-.38-.46-1.1-.88-1.1-1.19-1.11-.74-2.06-2.98-3.58-2.98-1.31-.69-1.59-.5-2.78-.2-.08.27-.13.6-.4.6.86-3.25,4.31-4.45,6.57-7.16ZM9.55,190.18c1.19.26,2.37,1.59,3.18,1.59.1.73-.89,1.04.2,1.59,0,.91,1.59,1.47,1.59,2.59-3.98-.46-4.37-2.11-4.97-5.77ZM149.28,86.61c-.15-2.75,1.12-4.6,1.16-7.83,1-.06.79-5.62,1.68-5.67.14-1.66.88-2.27,1.51-3.6.75-1.6.93-3.03,1.93-4.29.4-.51.43-2.88,1.15-2.92-.05-.94,1.09-1.78,1.05-2.65.97-.05.91-4.23,1.95-4.29-.03-.43.19-1.01.74-1.04-.01-.24-.31-.31-.23-.58-.07,0,1.12-2.69,1.21-3.26.59-.21.62-.14.35-.82.2.06.27-.01.19-.21,4.17.87-.11,5.77-.76,7.91-.35,1.17-1.99,6.39-2.63,6.42-.37,1.92-1.8,3.49-1.7,5.28-.95.05-1.68,4.67-2.13,4.7.11,2.11-1.97,3.84-2.24,6.3-.27,2.44-1.35,4.32-1.22,6.85-.78.04-1.23,5.64-1.68,5.67.04.81.18,5.57.91,5.53.06,1.15,1.3,1.99,1.38,3.31-1.72.1-3.5-5.47-3.48-6.58,0-.83.16-8.18.87-8.22ZM154.57,99.67c-.51,0-.29-.51-.2-.8.4-.07.46.2.2.8ZM153.97,104.25c-.97,0-.29-2.71-.2-3.18.39,0,.2,2.71.2,3.18ZM109.81,63.47c1.17,0,2.19,7.95,2.19,9.15.61,0,1.19,7.36,1.59,7.36,0,2.22,1.16,4.57,1.6,6.76.15.76.71,2.64,1.39,2.99,0,.81,1.2,3.48.2,3.98-.13.52-.74,1.79-1.19,1.79.52-1.04-.42-8.95-1.59-8.95,0-2.84-1.19-5.08-1.19-7.56-.34,0-1.79-6.12-1.79-6.76-.37,0-.11-3.98-1-3.98,0-1.32-.32-2.94-.2-4.78ZM107.22,120.16c0-1.56,1.38-3.53,1.99-5.37.63,0,.68-2.03,1.39-2.39.13-.77,1.57-4.97,1.99-4.97,0-1.22,1.59-2.3,1.59-3.58.8,0,2.02-5.77,2.98-5.77,0-1.1,1.11-1.45,1.39-2.59,1.32-.88,1.41-2.7,2.58-3.68,1.64-1.37,1.45-3.17,3.18-4.47,0-2.44,3.98-4.96,3.98-7.76,1.2,0-.8-2.55-.8-1.19-.74.55-1.11,1.64-1.8,1.99,0,1.2-2.19,2.56-2.19,3.78-1.11.74-2.74,3.27-3.18,4.58-.63.32-.76,1.79-1.39,1.79-.39-2.74-1.94-4.26-2.28-6.66-.42-2.9-1.3-5.44-1.3-8.26-.46,0-1.39-5.43-1.39-6.16-1.54-.77-.07-4.41-1.59-5.18-.14-1.23-.2-1.49-.79-2.38-.15,0-.23.02-.29.04-.06.12-.15.05,0,0,.03-.05.05-.14.04-.28.82.22,2.83,1.18,4.37,1.89,1.05.23,7.41,1.27,7.41,1.34,2.87.91,5.86-1.62,8.16-2.39.63-.94,2.39-1.39,3.58-1.59,1.01-1.35,2.07-1,3.78-1-2.62,4.37-3.71,7.39-6.57,11.54-.73.48-2.94,4.96-1.19,4.37,0-.41,1.46-.74,1.9-1.33.86-1.15,1.61-1.69,1.88-3.04.96-.48,1.37-2.48,2.39-2.98,0-.48.54-1.76.99-1.99.6-2.38,3.18-5.04,3.18-7.36,1.18-.39,1.39-1.23,1.39-2.39.2,0,.86-1.37.99-1.79.13,0,1.98-3.47,1.99-4.18.4-.07.8-.13,1.19-.2-.12.89-.99,1.32-.99,1.99-1.12,1.93-3.38,5.21-3.38,7.36-1.38.92-2.53,7.76-3.58,7.76,0,.86-1.38,3.77-2.19,4.18-.31,1.23-1.97,4.07-2.98,4.58-.94,2.81-3.4,5.44-5.26,7.54-.58.65-.91,1.41-1.7,1.81,0,.6-1.24,2.31-1.79,2.59-.62,1.88-2.46,3.59-3.7,5.45-.92,1.36-1.71,2.41-2.66,3.9-.28.84-.88,2.23-1.59,2.58,0,1.61-2.19,2.71-2.19,4.38-.62,0-1.59,2.86-1.59,3.38-1.05.52-1.86,4.05-2.19,5.37-.68,0-1.16,4.18-1.79,4.18,0,1.81-1.85,3.44-2.09,5.37-.09.71-1.33,5.77-2.28,5.77.11-.89.66-4.77,1.39-4.77,0-.57.4-3.48.99-3.78ZM96.48,79.98c.74,0,1.1-3.76,1.19-4.58.85,0,.52-3.58,1.39-3.58.09,0,1.28-3.57,1.44-3.96.73-1.72,1.34-3.49,2.09-5.2.7-1.6,1.02-3,1.07-4.69.93.63,1.61,1.43,2.75,1.72-.63-.16-3.41,8.21-3.64,8.57-1.42,2.27-2.59,4.15-3.14,6.72-.26,1.18-.51,2.37-.86,3.53-.11.38-.91,1.65-.91,1.87,0,1.61-.6,3.03-.99,4.58-.75,0-.57,2.39-1.2,2.39.33-2.49.8-5.27.8-7.36ZM43.58,114.49c.27.43-1.5,2.21-2.08,2.37-.18-1.04.9-4.26,2.08-2.37ZM38.73,112.88c.14-2.76.56-4.21.43-6.62-.04-.8.59-6.46.67-6.49-.18-.64.21-7.29-.14-7.18-.19-.67,2.12.18,2.02-.15.17-.04.53.39.38-.11.95.05.87,1.82.34,1.97.19.68-.42,5.69-.86,5.81-.05,1.01-.4,7.13-.87,7.27.18.66-.14,6.23-.7,6.39-.1,2.04-.49,3.37-.44,5.08-.76.21-.53,3.04-1.36,3.27-.3-1.26-.51-3.9.31-4.83-.04-.86-.58-4.18.22-4.4ZM37.27,110.6c-.02.4.18,1.39-.4,1.56-.08-.53-.15-1.06-.23-1.59.21.01.42.02.63.03ZM35.19,91.97c.08,1.21.51,9.15.1,9.26.14.92.53,5.22.04,5.36.12.45.13,5.13-.2,5.22.02.89.63,5.19-.34,5.46-.22-.55-1.89-3.6-1.06-3.83.03-.55-.04-3.29.11-3.33-.18-.62-.55-4.81-.13-4.92-1.17-4.22.42-7.94-1.16-13.1.88-.04,1.77-.08,2.65-.12ZM30.61,136.4c1.47-.41,1.97,1.37,2.14,2.5-1.35.38-2.01-1.46-2.14-2.5ZM31.5,135.12c-.87-1.48-2.27-2.02-1.94-4-.14-.49.37-.91.2-1.5,1.36-.38,1.04,4.05,3.04,3.5.17.83-.08,1.63.06,2.46-.42-.24-.88-.39-1.36-.45ZM33.02,128.71c.13.46.18,2.02-.23,2.13-.24-.62-.49-1.24-.73-1.86-1.21-.03-.59-1.39-1.68-1.6-.45-1.62-.33-2.12,1.17-3.22.21.42,2.33,4.31,1.47,4.55ZM33.43,124.26c-.81.22-1.01-2.74-1.29-3.16-.95.27-3.19-5.3-.26-6.12.19,1.08.13,2.65,1.46,2.28.91,1.49,2.14,2.96,2.44,4.69.21,1.21.8,1.93.05,2.88-1.04,1.32-.3,1.73.3,3.22-.55-.17-.8-.64-.53.35-.21,0-.42-.02-.63-.03-.56-1.55-1.21-2.87-1.55-4.11ZM34.52,152.66c-.03-.33-.05-.67-.08-1.01.57-.16.56.87.08,1.01ZM35.13,139.27c-1.41.39.85,9.47-.56,9.86-.65-2.34-.11-5.47-.41-8.15.67-.18-.34-2.18-.01-2.26-.07-2.72,1.29-5.86.39-8.99,1.77-.04.28,8.42.59,9.54ZM35.68,162.04c-.05-.2-.11-.38-.16-.57.15-.04.3-.07.46-.06-.22-.05-.04.56-.3.63ZM38.51,132.14c-.54.15.24.97-.31,1.12.46,1.65-.35,2.46.05,3.91-.5.14-.91,7.8-.88,8.71-.41.12-.62,2.96-.49,3.44-.87.24.65,3.74-.33,4.01.12.45.13,3.06-.16,3.14-.03.6-.05,3.94-.71,4.12.28-2.75.29-4.47.42-7.04.06-1.25.26-3.14-.04-4.22.22-.06.14-1.74.04-2.08.9-.81-.22-5.72.81-6.01-.27-.95-.23-2.02.45-2.81-.03-1.28-.18-2.6-.11-4.1,1.47-.93-.07-4.73,1.46-5.15.26,1.18-.59,1.57-.21,2.95ZM39.84,135.84c-.21-.97-.13-2.81.55-3.61-.38-.57-.5-3.2.2-3.37,1.32-.32,2.45.05,2.76-1.58,1.32-.37,1.78-2.05,3.32-2.16,1.35,2.36,4.29.52.65-1.11-1.51-.67-.06-1.96-.32-2.9-.84-.05-2.43,2.11-2.58,2.58-1.3.87-2.28,2.74-3.65,3.18-.59.19-1.85.51-2.45.17-.43-.12-.84-.8-1.03-.75-.14-1.07.42-2.55,1.32-2.45,1.15.13,2.35-1.45,2.41-2.72.92-.52,1.82-2.26,2.12-3.13,1.08-3.06,7.76-5.27,10.15-1.72.34-.23,1.67-.69,1.89.1.71-.2,1.73-.35,2.7-.68.97-.33,3.25-1.67,2.9-2.94,1.15-1.5,2.34-3.04,3.3-4.84.52-.98,2.41-4.29,3.36-5.24.7-.23,6.56-4.71,6.56-4.57,1.07,0,2.22-1.19,3.18-1.19,0-.76,2.39-.36,2.39-1.99-3.87.58-6.23,1.72-9.55,2.39.03-.9.19-2.79,1.6-2.79,0-1.87,3.8-3.41,4.97-4.58,0-1.78,4.27-1.88,5.57-1.99,0,.35,1.93.46,2.39.5,1.92.16,4.33,1.89,3.98,3.84-.44,2.38-1.23,4.99-2.46,7.08-.92,1.57-1.24,3.48-1.91,5.15-.36.88-.6,1.24-.61,2.14-.01,1.07.58,1.95.63,2.98.02-.06.04-.1.08-.14-.34.37.64,2.98.72,3.5.17,1.07.14,2.15-.26,3.18-.82,2.07-2.8,3.57-4.67,4.63-3.22,1.84-6.23,3.95-9.78,5.15-1.87.63-3.86,1.41-5.74,2.03-.69.23-2.33.74-2.81,1.25-.56.59-.59,1.75-1.17,2.43-2.42,2.83-7,4.66-10.74,3.86-.84-.18-1.76-.43-2.62-.61-.89-.18-1.77-.73-2.64-.83-1.38-.15-1.27,1.15-1.95,1.88-1.03,1.13-2.41,1.42-2.74-.12ZM81.69,135.5c-2.24-.33-4.85,0-6.28,0,0-.98-7.37-.49-7.37-1.2-.62.37-2.96.39-4.18.39-.89,0-1.85-.03-2.75-.07-.98-.04-1.17-.05-1.89-.08.95-.43,2.91-2.54,2.9-3.44,0-.91,1.15-1.4,2.03-1.4,1.45,0,3.32-1.33,4.59-1.88,2.14-.92,3.53-1.01,5.7-1.85,2-.78,3.17-1.46,4.73-2.68.76-.59,1.61-1.01,2.42-1.52.84-.54,1.66-1.36,2.47-2.53.14,2.22-.88,4.96-1.32,7.16-.43,2.14-1.18,3.09-1.18,5.3-1.38,0,.49,3.16.13,3.81ZM74.4,201.12c.88,0,.46.39,1.19.39.47,1.43,3.18,1.81,3.18,2.99-.56-.04-4.18.13-4.18.2-1.04-.26-3.78-1.57-3.78-2.78-.38-.13-.8-.27-.8-.6,1.38-.02,3.03-.7,4.38-.19ZM64.45,201.52c1-.2,3.05-.18,3.78.8,1.15,0,1.14,1.4,1.59,1.4.32.42,1.79,1.2,1.79,1.59-.49-.05-3.78.02-3.78-.2-.99-.25-1-1.11-1.99-1.39-.34-1.02-1.12-1.23-1.39-2.19ZM47.94,201.32c1.51,0,1.92,1.23,2.78,2.39,0,.89,1.19.61,1.19,1.59-1.4-.28-3.38.45-4.44-.84-.98-1.2-1.73-2.19-1.73-3.33.43.35,2.19-.23,2.19.19ZM43.37,201.32c.26.65,1.39,2.47,1.39,2.99-1.8-.03-6.76-1.25-6.76-3.78,1.92.17,3.69.46,5.37.79ZM18.11,198.34c0-1.66-2.19-3.13-2.19-4.58,3.08.78,5.38,2.41,6.17,5.97-1.09-.36-3.08-1.69-3.98-1.4ZM25.07,200.92c-.42-1.69-2.19-2.46-2.19-4.18,1.6.32,3.38.43,3.78,2.19.58,0,1.21.41,1.59.8.41.41,1.59,1.82,1.59,2.39-1.88-.32-3.12-.65-4.77-1.19ZM29.44,198.54c2.07.54,5.2.59,6.38,2.48.55.89,1.58.91,1.58,1.9-1.12-.42-2.48-.25-3.65-.21-1.27.04-.23-.22-1.33-.58-.77-.97-2.98-2.35-2.98-3.58ZM77.85,250.77c-.12-.02-2.03,3.43-2.35,4.04-.44.84-1.3,2.58-2.14,2.07-1.05,2.91-5.41,4.34-8.15,5.43-1.28.52-2.71.95-3.74,1.04-2.23-.28-4.24-.64-6.08-.5-3.64.31-11.25-2.93-14-6.61-1.25-.15-4.02-3.85-4.71-5.29-1.47-3.06-2.43-4.18-2.69-7.68-2.81-1.17-.16-10.94.27-12.54.79.1,1.36-3.44,2.38-3.81,0-2.06,4.23-2.75,4.23-4.61.91.12,2.54-1.02,2.91-1.69,1.76-.35,2.13-1.02,3.96-1.05.63-1.14,4.71-.83,6.08-.78,2.71.1,3.94.45,6.69,1.17,1,.26,3.94,1.3,4.4,2.25,2.09.71,3.46,1.73,5.18,3.24,1.21,1.06,1.22,1.61,2.21,2.56,1.5.68,3.96,4.41,3.96,5.88,1.37.17,1.74,6.88,2.38,6.96,0,1.47.25,2.75.42,4.54.17,1.68-1.22,3.54-1.22,5.37ZM85.34,204.7v-.6c-1.04-.03-2.11-.26-3.15-.13-1.74.2-1.33-.69-2.81-1.06,0-.34-1.96-1.41-2.39-1.99,1.64-.56,5.6-.69,6.17,1,1.51,0,2.27,1.99,4.37,1.99,0,.78-1.54.8-2.19.8ZM89.04,202.79c-1.41.42-1.06-.13-2.3-.67-.63,0-2.39-1.17-2.39-1.79,1.42-.05,2.75-.61,4.18-.59.27.34.67.83.99.99.41,1.23,1.85.71,2.19,1.79-.91-.01-1.8.02-2.67.28ZM93.91,201.35c-1.03-.7-3.6-.56-3.6-2.01,1.95-.01,3.66-.8,5.57-.8.41.83,2.39,1.37,2.39,2.19-1.75.1-3.08,1.49-4.36.62ZM100.66,200.13c-.2-.76-2.08-1.99-2.79-1.99,1.15-3.43,8.97,1.01,2.79,1.99ZM102.45,195.95c.36-1.35,3.78-1.59,3.78-2.98,1.23,0-.74,2.42-.8,2.58-.3,0-.4,1.97-.4,2.39-1.16-.33-1.3-1.99-2.59-1.99ZM105.8,226.7c0,1.19-.19,3.37-.52,5.89-.39-.95-.41-2.27-.43-3.34-.04-1.54.57-17.64.18-17.63.31,0-.53-5.62.35-5.91.03-.16,0-2.37.14-2.37-.03,2.64.06,6.9.23,9.42.05,2.12.38,4.39.26,6.69-.13,2.41-.2,4.83-.21,7.25ZM109.04,244.06c-.32,1.17-.76,2.05-1.15,3.14-.37,1.05-.75,2.39-1.24,3.61-.05-.99-.15-1.98-.32-2.99-.23-1.42-.67-3.91.02-5.24-.24.46,1.71.4,2.77.33-.01.46-.01.9-.08,1.15ZM132.69,185.41c-.81,0-1.76,5.97-2.98,5.97,0,1.2-1.99,4.08-3.18,4.98,0,1.34-2.39,2.27-2.39,3.58-1.02.68-2.43,2.98-3.58,2.98-.48.94-5.77,2.78-5.77,2.59-.64,0-4.18.72-4.18.6-.77.1-2.08-.51-2.89-.64-1.67-.27.1-7.12-.69-7.12-.1-.6.08-1.62,0-2.39.32-.03.79-.01.79-.4.05,0,.88-1.6.86-1.96-.06-.99.54-5.79,1.14-5.79.45-2.29,2.92-10.53,3.17-12.3.57-2.44,1.44-5.35,1.44-7.32.11,0,1.16-5.15,1.16-6.04,1.43-.48-.35-1.19,0-2.19.54,0,.69-1.01.6-1.39-.13,0-.6-2.19-.6-2.58,0-1.46-.11-2.91-1.79-2.98-.11.61-.56,2.58.2,2.58,0,2.02.23,2.84-.2,4.77-.41,0-.8,2.18-.8,2.59-.9.45-.99,2.65-2.19,3.38,0,.26-1.4-.4-1.59-.4.22.21,2.26-3.4,2.39-3.78.81-.41,1.21-5.57.2-5.57,0-1.82-.44-3.49-1.89-4.77-1.28-1.14-3.35-3.18-4.87-3.18,0-.83-7.02-4.13-8.14-4.13,0-.37-3.49-1.87-4.31-2.01,0-.25-5.49-1.91-6.25-2.03-6.22-1.04-12.38-1.69-18.72-1.69,0-.13-10.84-.48-12.05-.48-3.8,0-7.45-.73-11.29-.37-2.12.2-1.88.4-3.02.39,1.14-.35,2.4-1.15,2.4-1.15.52,0,1.31-.53,1.31-.46,1.53,0,.8-.02,2.07.1.94.08,4.42.34,4.97-.22.37-.39,4.41.12,5.48.12s4.5-.48,4.5-.1c.66,0,5.63-.72,5.63-.21.94,0,6.19.16,6.19.49,2.33,0,4.55.05,6.8.37,2.02.29,3.18.72,4.98,1.08,0,.02,2.73.26,3.34.34,1.21.32,2.51.95,4.67,1.81.54.22,3.45,1.9,3.45,2.01.73,0,7.18,3.18,7.18,3.45,1.61,0,2.44,1.87,4.59,3.29.23.77,3.28,3.38,4.18,3.38,0-2.42-2.84-4.99-5.17-5.57-.37-.21-3.31-2.63-3.31-2.54-.66,0-2.59-1.29-3.85-1.84.55-.11,4.77-.6,4.77,0,.72,0,1.77-.46,2.99-.4.69-.1,3.38.02,3.38.6,1.09.28,2.56,1.2,3.58,1.2.23.45,5.83,2.77,5.67,2.85,1.38-.65,2.45,2.74,3.68,2.32,0,1.33-.4,2.4-.4,3.38-1.19.4-1.36,1.61-1.59,2.79-1.36,0-.91,6.56-1.79,6.56,0,2.79-.71,5.08-.53,8.35.13,2.32.73,4.81.73,6.97.46,0,.71,1.78.8,2.38.98,0,1,5.97,1.99,5.97,0,1.25,1.34,6.96,3.19,6.96,0,1.03,1.06.05,1.19-.6-1.24,0,.32-1.19.45-1.27,1.5-.84,1.52-2.65,2.93-3.71,0-.57,1.54-4.18,1.99-4.18-.3,1.06-.79,1.56-1,2.59ZM133.68,182.42v-.6c.15,0,.31.02.46.07-.2-.1-.19.53-.46.53ZM133.68,176.85c.06-.39.13-.79.2-1.19.65,0,.38,1.19-.2,1.19ZM133.88,174.47c.33-.06.4.13.2.6-.17.27-.2-.6-.2-.6ZM133.88,181.43c.18-.98-.03-2.05,1-2.39-.13-.33-.07-.47.2-.39-.04.4-.96,2.78-1.19,2.78ZM140.72,170.68c-.45.68-.47.11-1.07,0-.8,1.6-1.59-.44-1.59,1.39-.89.42-.72-.26-1.19,1.19-.68,0,.08,1.39-.6,1.39,0,.57-.63,3.58-1.19,3.58.06-.56.54-4.17.2-4.17-.24-1.19-1.31-1.19-2.59-1.19-.31.61-1.71,1.99-2.39,1.99-.21.76-1.64,1.74-2.19,2.18-.3.91-1.73,1.4-2.41,2.34-1.04,1.44.42,1.59.42,1.44,1.47-1.02,4.03-4.37,5.97-4.37-.79,1.32-1.53,4.54-2.79,5.17-.22,1.12-1.59,2.06-1.59,2.98-.76.52-1.5,3.23-.09,2.67.68-.27,1.48-1.26,1.48-1.88.95-.64,2.03-4.18,2.59-4.18,0-.47,1.62-3.78,1.79-3.78-.16,2.84-2.13,4.86-2.59,7.16-.99.5-1.32,2.96-2.58,3.58-.05.14-.94,1.39-1,1.39-.2-.36-1.32-4.38-1.39-4.38,0-1.44-.75-2.47-1-4.18-1.21-.61-1.59-4.46-1.59-5.77,0,0-.85-3.93-.79-4.37.26,0,.5-11.14,1.39-11.14,0-2.9,1.73-4.56.8-7.36.52.04.87.08,1.39,0,.07-3.59,3.16,2.37,3.78,2.98.61.6,1.56,4.18,2.19,4.18.76,2.28,1.63,3.09,2.39,5.37-.65,0,2.99,5.67,2.99,3.38.7.35.45-.44.8.6.17,0,1.81.46,2.11.28-.05-.16-.09-.32-.12-.48.23,0,.71,1.62.48,1.98ZM140.04,137.67c-2.04,0-3.44,2.19-5.37,2.19,0,1.04-6.38,1.19-7.46,1.19-2.11,0-3.46-.19-5.51-.12-.87.03-3.13.54-3.54-.28-1.68,0,.16-.2-1.79-.2-.68,0-6.17-.48-6.17-.4-.7,0-1.61-.65-2.65-.73-1.8-.13-.04-.27-1.93-.27,0,.1-5.33-.28-5.96-2.19-1.01,0-6.17-3.67-6.51-4.8-.24-.79-1.85-.97-2.25-1.76-1.24,0-1.64-1.31-1.79-2.39-1.15-.35-.19-1.76.6-1.99.92,1.13,2.81,1.25,3.38,2.39.9.3,1.84,1.25,2.39,1.99.46,0,1.56.53,1.79.99.8,0,1.95,1.13,2.39,1.79.35,0,2.39,2.01,2.39,2.19.44,0,1,.4,1.19.8.79,0,1.57.2,2.59.2,0,.32,7.56,0,7.56,0,1.44.19,3.49-.66,5.18-.2,0,.59,4.57-.27,4.57.2,1.32,0,2.58.18,4.08.3.98.07,2.82-.23,3.28.7,1.66,0,2.73.66,4.83-.02.8-.26,4.12-.22,4.12-.97,1.5,0,2.48-.55,3.98-.8,0-.42,2.07-1.19,2.39-1.19-.84,1.42-5.77,3.13-5.77,3.38ZM164.71,285.32c0-.53-5.4-2.02-6.17-2.58,0,.75-4.58-.6-5.17-.4-.32-.95-1.38-.95-2.19-.79,0-.23-1.85-1.51-2.19-1.59-.25-1.29-.33-3.44.99-4.18.25.64.38,1.3.4,1.99.27.07.33-.07.2-.4.93.24,2.44,1.47,2.98,2.19.28-.09,2.19.64,2.19.99.76.09,4.38.62,4.38,1,1.8.2,8.75,1.4,8.75,3.58.51-.25,1.39,1.06,1.39,1.59-2.2-.37-3.34-1.08-5.57-1.39ZM167.1,281.14c0-1.34,1.39-1.08,1.39-2.19,1.05-.53,3.45-.2,4.38-1,.32.01.46.15.39.4-1.49,0-2.19.79-3.38.79-.28.58-2.04,2.39-2.78,2.39,0-.2-.47-.4,0-.4ZM176.45,286.31c-.4.8-2.76.62-3.76-.15-.74-.57-1.83-.99-1.43-1.98.46-1.13-.14-.35-.38-1.26,1.1,0-.69-.8-.99-.8-.58,0-.42.4-.99.4-.35-1.04.36-.6.6-1.6,1.52-.33,2.67-1.81,4.38-1.39,0,.46,3.83-.52,3.27.91-.42,1.05,1.54,1.63,1.52,3.19-.02,1.45-.82,2.66-2.2,2.66ZM182.41,281.14c.86.31,1.76-.19,2.67.11,2.04.69,1.2,3.2-.38,3.78-.98.36-1.5-.27-2.69-.51,0-1.02-1.39.28-1.39-.8.43,0,.45-2.3-.4-2.58-.11-.47-.59-.77-.59-1.19.58.19,2.78.71,2.78,1.19ZM181.22,278.55c.4-.13.53,0,.4.4-.4.13-.53,0-.4-.4ZM183.61,278.35c.15.39.21.78.2,1.19-.52-.16-1.23-1.19-.2-1.19ZM173.86,278.16c.49-.49,2.59-.05,2.59-.6.69-.02,4.18-.07,4.18.99-1.99-.36-4.28-.3-6.76-.4ZM194.75,281.34c.49,0-.06.32-.2.4.07-.13.13-.26.2-.4ZM188.38,286.11c0,1.01-5.17.41-5.17,1.59-.42,0-2.39.31-2.39.6-.86.22-1.55-.4-2.39-.4.15-.52,1.67-1.99,1.99-1.99,0-.34-.03-1.39.4-1.39,0,1.29,2.45,1.77,3.58,1.89,1.8.18,2.55-1.49,4.37-1.49,0,.28,2.65-2.14,2.94-2.13,1.03.04,1.75-.6,2.83-.86-.63,2.46-3.89,4.18-6.17,4.18ZM193.16,275.77c0,.72-.75.32-.99,0h.99ZM191.57,275.97c-.26.09-.46.02-.6-.2.46-.2.67-.13.6.2ZM186.89,275.87c2.17-.73.1.34,1.49.1,0-.81,1.91-.36,2.39-.2-.14.18-.2.15-.2.4-.9-.3-.92.34-.99,1.19.92-.02,2.98-.61,2.98.6.02,0-.63.96.79.6.55,1.25-.33,4.08-1.79,2.79-.63-2.15.79-3.22-2.17-3.26-.97-.01-1.75-.3-2.2-.32-.69.9,1.59,2.58,1.59,1.39,1.2.4.08,0,1,0,.35.17.29.43.4.8.54,1.47-.8,2.09-.8,3.18-1.14-.38,0,.2-1.39.2-.16-.85-.21-1.73-.2-2.58-1.23-.29-1.82-.8-2.79-.8,0-.14-.1-.84.01-1.16.05-.14.25.17.39.17.25-1.38.05-2.6,1.49-3.08ZM185.8,274.18c-.07.1-2.09,1.79-1.59,1.79,0,.45-.23,1.99-.8,1.99,0-.89.89-4.9,2.39-3.78ZM172.87,262.84c-.13,0-.44,2.02-.34,2.32.36,1.18,1.31,1.5,1.93,2.45.96,0,1.27.79,2.07,1.09.89.34.72,1.08,1.71,1.3,0-2.17,3.17.67,3.78,1.59.77,0,1.29.76,1.99,1,0,1.3-2.95,2.39-2.19,4.37-1.81-.6-2.7-1.21-5.18-1.09-2.43.11-4.02.5-6.57.5,0-.07-2.67.64-3.05.99-.46.42-2.58,2.1-2.43,2.8.17.86-3.08-.03-3.27-.42-.81.69-4.74-.84-5.97-.99,0-.12-1.95-1.5-2.22-1.66-.83-.51-1.6-2.72.03-2.72.07-.33-.13-.4-.6-.19-.13-.8-.26-1.59-.4-2.39-.36-2.2.2-.52.2-1.79.44,0,.36-1.64.4-1.99.51-.07.87-.34,1.39-.39-.3-2.16-2.93-2.75-1.46-5.32.98-1.73,2.81-5.42-.13-5.42-.17-1.43-.81-2.71-.8-4.18.93-.07,7.16.89,7.16,1.59,2.09,0,4.3,1.39,5.87,1.39s3.74,1.55,5.3.93c.27-.11,1.76-.54,2.16-.54.26-.51,1.67-1.79,2.39-1.79-.76,2.06-1.79,8.17-1.79,8.56ZM162.92,169.59c-1.19.15-.77.3-1.59.3-.31-.93-1.36-1.28-1.53-2.18-.22-1.09.34-.79.34-1.6,1.55,0,2.3-.6,3.78-.6-.52,1.34.43,3.9-.99,4.08ZM165.71,165.71c.94.63.4,2.42.4,3.18-1.71-.17-.58-2.07-.4-3.18ZM166.3,168.5c.05-.29.21-1.59.6-1.59.03.67.24,1.37-.6,1.59ZM189.74,113.8c-.7,2.2.19,4.61-.66,6.83-.8,2.09-2.41,3.6-3.39,5.53-.3.59-.76,4.74-1.28,4.74,0,1.69-1.99,3.2-1.99,4.78.37,0-1.22,3.6-1.79,3.98-.3,1.18-1.79,2.14-1.79,3.18-.12,0-2.57,3.57-3.18,3.98,0,.75-.45.78-.99.6-.26.76-.27.5-.84,1.09-.9.95-2.07,1.28-2.75,2.29-.42.64-.7.82-1.24,1.17-.75.48-.13-.37-.95-.37.55,3.28-.85.14-.99-.34.02.26.08.5.19.74-.61-.39-.26-.99-.99-.99.15.64.64,1.09.75,1.75.13.83-.52,1.71-.75,2.83.24-.08.35-.2.59-.2-.45,2.02-.4,2.15-.4,4.38-.44,0-.31,2.16-.33,2.52-.09,1.75-.33,1.35-1.88,1.35-2.28,0-4.73.68-6.69,1.55-2.58,1.15.45,3.11.48,4.27.03.87,1.67,1.88.89,3.08-.99,1.53-2.41.5-2.41-.85-.39,0-1.19.26-1.19-1.19-1.68-1.12-.03-1.8-2.39-2.19.27,2.4,2.79,4.45,2.79,6.36-1.03-.1-3.38-.21-3.38-1.39-1.52-1.01-1.31-3.87-3.58-3.98.24,2.02,1.45,3.09,1.79,4.78-2.48.5-4.58-3.41-4.78-5.77-1.86.67-1.71-.33-1.06,2.45.25,1.05,1.16,1.83.86,2.72.84-.56.92-.13.99.8-.3-.09-.38-.27-.69-.11-.13.07-1.73,1-1.99-.3-.12-.59-.78-1.43-1.29-1.77-.1-.52-1.09-4.38-1-4.38-.15-.68.4-1.63.4-2.19.17,0,1.65-3.47,1.99-3.98,1.24,0,2.86-3.81,3.98-4.37,0-.33,2.81-3.64,3.01-4.27-.01-.03-.02-.06-.02-.11.04,0,.04.05.02.11.22.62,2.52-1.9,2.17-1.9,0-1.33,1.1-1.73,1.59-3.08,1.3-7.31,2.04-20.13,4.52-24.52.42,0,2.28-5.63,2.45-6.12-.42,0,4.16-2.72,4.37-3.08.75,0,.39-.69.2-1.19-.73.06-1.46.13-2.19.19-2.26,1.25-2.77,3.12-4.21-.09-.83-1.86-.92-3.96-1.51-5.89-.45-1.49.28-9.15-.78-9.55-1.75-.65-3.65,4.4-3.65,5.58-.57,0,0-3.8.2-4.38-.26,0,1.37-2.84,1.59-3.18.17,0,2.98-2.47,2.98-2.79,1.09-.3,3.19-2.4,3.78-3.18.34,0,1.59-.36,1.59-.6.31,0,1.99-.83,1.99-.99.93,0,2.02-.45,3.32-.53,1.56-.1,2.36.33,4.05.33,0,1.08,3.76.45,3.98,2.19.08,0,1.99-.84,1.99.4.67.22.79.6,1.39.6.69,1.39,3.13,1.49,3.78,2.79,1.37,0,2.15,2.52,3.18,3.18,0,.71,1.2.98,1.2,1.99.39,0,.2,2.34.2,2.78-.98-.54-3.26-3.11-4.11-1.62,2.7.28,5.07,6.25,5.23,8.56.16,2.16-.78,3.16-1.36,5ZM187.59,101.66c0,.99.2-.35.2,1.19.2.07.4.13.6.2,0-.42-.37-1.07-.8-1.39ZM92.59,154.42c-.12.71-.89,4.65.93,3.09.44-.38.48-1.66.57-2.33.86,0,.93-2.24,1-2.98,4.38-.07-2.32-3.84-2.19-3.58-1.34,0-3.04-1.04-4.63-1.59-1.89-.66-2.93,0-4.72,0,.55,1.66,4.38.24,4.38,1.19,1.79.36,3.12,1.79,4.58,1.79,0,1.1.73-.68.54,1.5-.09.98-.28,1.95-.45,2.92ZM80.09,165.62c.69-.27,5.13-.46,6.05.1.45.89,3.18,1.97,3.18,3.18.97.26,3.78,3.22,3.78.79-.38-.25-.8-.67-.8-.99-.68,0-1.3-.21-1.59-.8-1.17,0-2.12-2.98-3.58-2.98,0-1.24-6.05-1.12-7.16-1.2-.95.31-4.18,2.83-3.49,3.69,1.03,1.31,2.45-1.33,3.61-1.79ZM80.15,157.56c-.89.32-1.87.53-1.33,1.56.34.65.56.77,1.43.42,2.17-.88,4.57.86,6.88,1.39.14-.33.27-.66.4-1-.58-.2-3.58-1.46-3.58-1.6-1.56-.22-2.33-1.32-3.79-.79ZM169.09,151.39c0-.18-.06-.31-.2-.4-.13.33-.07.46.2.4ZM77.28,158.04c-.44-.74-3.88-2.02-3.88-2.07-2.08-1.03-2.96-.98-5.17,0,0,.96.43,1.58,1.39,1.79.73-2.19,3.6-.95,4.18.2,1.01,0,1.11-.11,1.79.8.53.32,2.33.38,1.69-.72ZM135.27,169.89c-.08,0-.2-1.14-.2-1.39-.67-.16-1.21-.64-1.59-1.19,1.37,0-.32-3.98-1.39-3.98-.08-1.09-1.21-3.19-1.99-3.58,0-.65-2.44-3.73-3.18-4.18-.51,1.07-.94,1,.2,1.99,0,0,.75,1,.99,1,.59,1.79,2.78,2.81,2.78,4.97-2.37-1.42-2.24-5.53-5.17-6.36,0,1.38,1.06,1.71,1.4,3.38.59,0,1.59,1.72,1.59,2.39-.79-.46-2.58-2.19-3.38-2.19.16,1.74,2.99,2.57,2.99,3.38.61.21,2.98,2.03,2.98,2.78-1.56-.18-2.19-2.19-3.38-2.19-.73-1.09-2.29-1.99-3.58-1.99.16,1.44,2.69,2.19,3.78,3.18.87.79,1.37,1.95,2.54,2.4.54.2,1.84.6,1.84,1.19-3.38-.66-5.82-1-9.15-1,.53.92,1.79,1.15,1.79,1,.64,0,3.38.23,3.38.99-1.54.31-2.88.54-3.98,1-3.01,0,.31,1.04,1.49,1.07,1.22.04,2.47-.86,3.49-.48-.72,1.1-2.57,2.3-3.54,2.92-3.09,1.94-.77,3.22.95,1.06,1.32,0,2.41-2.19,3.78-2.19.39-1.29,2.98-.73,2.98-2.39,1.2.12,2.06.56,2.52-.73.3-.82-.93-.43-.93-.86ZM131.09,164.12c-.13-.33-.06-.47.2-.4-.06.2,0,.27.2.2.06.26-.07.33-.4.2ZM68.83,144.63c-.35.31-1.91.44-2.39.6.35,3.03,9.15-.06,9.15,1.59.39,0,.31,5.18-.4,5.18,0,1.54-.16,2.39,1.39,2.39.22-.44.64-2.79.8-2.79.38-1.14.63-1.4.8-2.58.39-.2.5-1.82.59-2.39-.03,0-1.34-.83-1.79-.99,0-1.29-6.93-.54-8.16-.99ZM121.94,150.2c-1.67-.5-2.74-2.87-4.77-3.38-.38-.76-1.93-1.19-2.78-1.19,0-.38-8.15-2.94-8.15,0,1.14-.1,9.55.51,9.55,1.99,2.67.67,3.76,3.9,6.18,5.02,2.69,1.25.18-1.73-.02-2.44ZM166.7,155.57h-.6c0,.73.6.24.6,0ZM106.83,137.07c.11.27.31.4.59.4.06-.32-.13-.45-.59-.4ZM107.82,137.47c-.26-.07-.33.07-.2.4.18.01.31-.06.4-.2-.2.07-.26,0-.2-.2ZM108.02,137.86c.09.15.22.21.4.2.06-.27-.07-.33-.4-.2ZM60.82,189.78c.36.8,1.04,1.03,1.84,1.2,0-.82.57-.72.4-1.79-.41,0-2.74-.55-2.24.59ZM35.57,166.02c-.63.38-2.95.97-2.95,1.68-.64.48-1.33,1.99-2.19,1.99-.6,1.2-2.03.41-1.19,1.99,1.51-.21,2.55-1.38,3.58-2.39.77-1.15,3.45-2.39,4.58-2.39,0-.62,3.98.23,3.98,1.19,1.02,0,1.06.98,1.59,1.59,0,0,1.18.38,1.59.6,0,.5.8.1.8.6,1.67-.4.38-1.02,0-1.79-1.36,0-2.51-2.6-4.38-2.78-.54-1.62-4.13-1.06-5.41-.29ZM42.97,153.98c-1.01,0-1.79.16-2.49.99-.93,1.11-2.59.63-1.64,2.15.98,1.57,2.54-.37,3.14-1.55,1.04,0,2.05.6,2.79.6,0,.18,2.78,1.1,2.78,1.39,1.33-.13,1.17-1.46,2.78-1.59,0,.54,1.42,1.59,1.79,1.59,0-1.67-1.07-1.52-1.99-2.98-1.79.2-2.31,1.21-3.78,1.59-.35-1.3-3.38-1.58-3.38-2.19ZM63.06,181.82c-3.82,0-8.18-.2-12.14-.2,0-.84-10.14-.57-10.14-1.59-.6,0-2.98-.23-2.98-.6-1.26,0-2.51-1.07-3.78-.6.74,1.25,1.7,1.73,2.98,1.99.27.05,1.59.35,1.59.59.63,0,4.18.49,4.18.8,4.89,0,10.49,1.59,15.52,1.59,0,.42,9.69,0,11.09,0,1.96,0,3.44-.08,4.92-.3.83-.12,3.48-1.23,3.48-2.09-1.48-.07-14.72,1-14.72.4ZM54.31,156.56c.82,0,.84-.25,1.89-.1,1.1.16,1.64,1.22,2.88,1.49,0-1.22-.02-1.24-1.39-2.19-.26-.4-2.58-1.38-2.58-1.19-1.2,0-2.39.53-2.39,1.99.58,0,1.19,1.69,1.59,0ZM57.09,190.58c.07.2.13.4.2.59.88.19,1.71.56,1.19-.79-.67-.2-.84.2-1.39.2ZM75.59,188.39c.3,3.03,4.48-.8,0,0h0ZM64.05,155.57c0,.33-2.98.16-2.98.99-1.08,0,1.99,3.34,1.99,1,.97,0,2.06.4,2.98.4.85-1.76-.58-1.91-1.99-2.39ZM49.73,143.04c.53,4.12,9.35-1.14,9.35,3.78.34,0,.05,6.37,0,7.16,2.53-.3,1.35-8.56,2.19-8.56,0-4.08-9.32-2.49-11.54-2.38ZM110.61,147.01c0,.21-.47.8.2.8.26-.6.2-.86-.2-.8ZM69.03,167.7c1.83.12,4.24-.27,5.07,1.52.61,1.3,2.93,3.17,4.28,2.67-.22-1.31-1.5-2.59-2.78-2.59-.52-2.46-3.08-2.66-4.38-2.39-1.33.28-2.25-1.2-3.18.2-.64.61-1.52,1.21-2.39,1.39.26,2.1,2.8.25,3.38-.8ZM53.91,170.89c.12,0-2.19-.97-2.19-.6-1.67-.28-2.54.08-2.19,1.59,1.63-.16,4.38,1.19,4.38-1ZM52.52,162.33c-.89-.04-2.41-.74-3.18,0-1.08,0-.58.4-1.19.4,0,1.64-2.32.82-1,2.59.69-.05.97-.43,1.59-.6.66-2.5,4.35-.12,3.78-2.39ZM42.77,175.86c.38-.01,1.79-.08,1.79-.6.66-.15,1.52,1.17,1.87.66.3-.44.8.14,1.31.14,0,.71,2.27.44,1.69-.52-.21-.35-.7-.44-.7-.67-1.15,0-2.89-.55-4.37-.8-.63.97-2.05.43-1.59,1.79Z"/>
</svg>