<?xml version="1.0" encoding="UTF-8"?>
<svg id="_レイヤー_1" data-name="レイヤー_1" xmlns="http://www.w3.org/2000/svg" version="1.1" viewBox="0 0 257.81 289.25">
  <!-- Generator: Adobe Illustrator 30.3.0, SVG Export Plug-In . SVG Version: 2.1.3 Build 182)  -->
  <defs>
    <style>
      .st0 {
        fill: #231815;
      }
    </style>
  </defs>
  <path class="st0" d="M213.66,112.18c-.77.2.23,2.65.68,3.38.54.55,2.21-.73,3.26-1.5,1.05,5.43.91,5,5.53,2.43.65,2.17.06,4.19,1.48,3.46,1.27-.65,1.57-1.9,1.44-5.15-.04-1.04,2.23-1.64,3.05-1.85.34.82-.28,6.29,1.81,4.62,1.83-3.1.6-5.63-.09-9.13,2.4.33.76-2.62-.65-3.08-1.03-.58-2.92-.29-4.74.22-.96-7.51-1.67-2.69-3.79-4.66.81-.52,3.37-1.52,4.25-1.81.7.31.65,1.62.81,2.56.12.18-1.25,2.23-.92,2.59,3.64.47,2.99-3.34,2.36-5.89-.79-5.45-5.97-.4-8.5-.34-.79-1.46-1.63-3.79-3.39-2.29-.82.7.33,1.51.83,4.88-.95.58-2.6.68-3.52,1.28-.27-1.67-2.06-2.32-2.58-1.32-.23.43,1.69,5.01,1.39,7.17-.78,4.42,3.74.63,2.43-3.22.96-.63,1.57-.48,2.15-.66.4,1.62.42,4.37.43,5.08-.9,1.49-2.7,3.15-3.74,3.23ZM228.08,107.48c.03.05.81,1.89.93,2.66-1.06.22-1.58.56-2.52,1.16-.35-.98-.43-2.11-.69-3.13,1.06-.3,1.2-.51,2.28-.7ZM223.07,113.42c-1.32.58-1.41.6-2.14,1.08-.53-1.21-.85-2.87-.61-4.08.56-.2.93-.24,2.01-.47.51,1.19.85,2.4.73,3.46ZM221.05,102.24c.38,1.21,1.03,2.36,1.14,3.73-.39.14-1.8.68-2.18.84-.44-.89-.15-2.72-.67-3.7.61,0,1.16-1.06,1.71-.87Z"/>
  <polygon class="st0" points="229.28 115.39 229.28 115.38 229.28 115.38 229.28 115.39"/>
  <path class="st0" d="M236.67,101.22c-6.53-14.92-23.72-15.66-29.66-.15-3.66,11.26,4.47,26.47,17.65,23.87,10.67-1.8,16.95-13.91,12.02-23.71ZM217.35,91.89c11.06-3.11,21.21,9.64,18.84,20.02-4.99,13.24-17.06,16.2-25.23,3.98-5.55-8.3-2.43-19.22,6.39-24Z"/>
  <path class="st0" d="M53.32,139.61c-.16-.42,13.53-5.92,10.77-6.54.12.41-13.49,5.83-10.77,6.54Z"/>
  <path class="st0" d="M60.6,137.24c.35.67,6.11-2.18,3.69-2.24-1.02.8-3.49.92-3.69,2.24Z"/>
  <path class="st0" d="M66.97,140.47c1.89-1.68,5.52-2.21,6.74-4.09.15-.9-9.53,3.92-6.74,4.09Z"/>
  <path class="st0" d="M82.23,141.71c-.14-.69,13.2-4.52,10.66-5.29.04.16-13.39,4.31-10.66,5.29Z"/>
  <path class="st0" d="M85.99,137.87c.58-.81,6.34-1.53,4.25-2.43-.72.07-6.68,1.84-4.25,2.43Z"/>
  <path class="st0" d="M113.14,153.8c.65-.5,19.17-3.34,16.95-4.93-.45.85-19.52,3.59-16.95,4.93Z"/>
  <path class="st0" d="M123.53,149.41c-.07-.51,10.61-2.04,8.22-3.14-.11.29-10.39,1.83-8.22,3.14Z"/>
  <path class="st0" d="M110.3,144.24c1.88-1.12,5.16-.7,6.47-2.11-.18-.93-9.07,1.43-6.47,2.11Z"/>
  <path class="st0" d="M78.42,69.01c-.07,0-.12,0-.12.01h.12Z"/>
  <path class="st0" d="M100.61,150.75s.16,0,0,0h0Z"/>
  <polygon class="st0" points="38.7 254.58 38.7 254.59 38.72 254.58 38.7 254.58"/>
  <g>
    <path class="st0" d="M257.81,124.83c-.42-1.88-.83-3.9-1.24-5.78-.29-1.31-5.31-20.33-6.84-27.8-2.01-7.29-3.33-15.93-5.72-23.1-.41-1.84-1.13-7.58-1.54-9.42-4-.5-7.77-.8-11.85-1.28-2.02-.08-3.99-.25-6-.34-2.04-.1-4.13-.46-6.1-.66.47-1.12-1.91-2.12-5.12-2.15-1.88-.02-3.98.98-5.92,1.13-2.79.22-5.24-.16-5.94.03-5.89.13-13.3-.13-16.84-.33-3.33-.2-11.44-1.22-17.28-1.65.28-.99-.18-2.22-.92-3.06,2.41-3.13,4.61-6.49,5.44-10.43.69-.1,1.65-.39,1.65-.75.7-2.38,1.46-5.04.45-7.44,1.04,1.38,2.08,2.79,3.09,4.19.2.29.64.12.94.07.48-.08,1.06-.02,1.43-.34,1.16-1.27,2.27-2.62,3.39-3.94.09-.11.32-.23.18-.35-1.52-1.12-3.16-2.12-4.83-3-1.75-.7-3.53-1.41-5.3-2.04,0-.14-.06-.16-.06-.29,1.07-1.22,2.86-2.08,4.37-2.68.25-.12.67-.56,1.02-.69.2-.11.63.09.72-.14.11.2.26-.25.4-.26.15-.04.36.16.51.13.03,0,.27-.24.33-.25-.31.04.27-.07.35-.07.91-.06,2.22-.24,2.39-1.32.07-.58.1-1.16-.17-1.64-.34-.6-.91-1.06-1.25-1.66-.28-.5-.35-1.23-.93-1.42-.95-.23-1.62-.16-2.57-.31-3.34-.4-4.52,3.48-5.9,5.79-.35-.83-1.06-1.37-1.58-2.13-1-1.51-2.26-2.88-3.61-4.11.26-.53-.33-1.23-1.47-2.18-.62-.52-1.21-1.35-2.09-1.97-1.57-.92-3.27-1.97-4.77-3.15-.77-.55-1.68-.95-2.43-1.53-1.44-1.45-2.45-2.58-3.76-4.31-.66-.85-1.41-1.73-2.13-2.02-3.75-1.21-7.57,4.22-8.28,7.38-1.03.16-1.94.57-2.94.84-1.86.37-3.77.87-5.49,1.74-1.85.63-3.55,1.53-4.74,3.11-.05.06,0,.3-.02.36-1.02.34-2.09.61-2.89,1.35-.99.92-1.66,2.17-1.81,3.45-1.14,1.26-2.13,3.25-2.91,4.93-.88,1.7-1.54,3.74-1.5,5.57-.04,1.26.06,2.31.66,2.74-.24.62.05.08-.18.72-.52-1.63-1.61-1.3-2.33-.95-1.89.86-3.1,3.2-3.58,5.04-.88,2.74-1.25,6.07.95,7.91-.18.93.06,1.82.04,2.77-.28,2.98.17,6.57,1.84,9.13.43.67,1.08,1.59,1.71,2.53-7.84,2.17-16.74,4.68-24.26,7.64-1.79.22-1.27,1.89-1.56,3.21-1.98,1.83-3.14,4.55-5.01,6.49-2.84.32-4.89,2.71-7.27,4.08-.05-1.57.43-3.32.38-4.9-.04-1.57-.69-3.26-.72-4.83,2.41-.39,4.93-1.68,5.73-4.14,2.8-1.34,5.01-4.78,4.9-7.96,1.77-5.13,2.32-7.42-2.6-10.79,0-.02-.02-.01-.06,0,2.01-7.57,11.84-27.57,13.1-31.06-.34-1.81-1.66-2.41-3.19-2.45-1.53-.04-3.52.3-4.26,1.66-1.71,3.65-3.11,7.41-4.38,11.22-.77,1.85-1.04,3.91-1.82,5.76-.78,1.85-2.1,3.46-2.88,5.3-.79,1.84-1.36,3.9-2.16,5.74-2.64-1.14-6.41-1.79-9.02-.25-9.1.81-8.86,12.77-7.43,19.62.37,2.14.08,4.13.83,5.64-2.3,3.59-4.45,7.16-6.44,10.91-2.45,3.58-4.56,7.32-6.22,11.36-3.59,1.8-5.22,4.96-5.45,8.88-1.52,5.41.02,11.55,3.52,15.81-2.46,7.37-6.33,14.27-8.36,21.76-1.39,1.7-3.03,3.14-4.53,4.79-1.5,1.66-2.28,4.01-3.57,5.77-.64.15-2.36-.28-2.6.53,0,2.85-.43,5.71-.19,8.55-.21,1.87,1.68,1.97,3.07,2.17-1.47,3.84-3.32,7.48-5.27,11.07-1.72,7.9-5.91,14.85-8.61,22.42-.72,1.87-.91,3.94-1.63,5.81-.71,1.87-5.37,15.08-6.08,16.96-.7,1.87-5.03,13.01-6.61,16.75-1.52,3.7-5.32,15.32-5.93,16.97-.42,2.26-2.79,4.63-2.16,6.76,1.82.8,4.82,3.22,6.48,1.34,1.16-3.67,2.22-7.39,3.42-11.04,1.62-3.47,4.91-14.5,5.57-16.29,1.4-3.56,2.95-7.07,4.43-10.59,2.41-5.21,8.96-25.24,9.64-27.02.68-1.79,6.58-15.9,8.55-21.29,1.56-3.41,3.18-6.73,4.63-10.19,5.38.17,10.47,1.81,15.76,2.67,5.49.95,11.09,1.27,16.57,2.28-2.18,3.59-5.71,7.99-7.77,10.12-1.54,2.26-.15,1.85,3.73,3.1,1.48.48,3.55.9,5.85,2.11,1.56.82,3.36,2.28,5.31,3.62-1.43,1.61-3.26,3.19-4.55,4.92-1.3,1.72-2.21,3.73-3.37,5.55-1.16,1.82-2.72,3.37-3.76,5.28-2.22,2.79-3.84,5.59-3.77,9.33-.03,2.14-1.84,3.72-2.68,5.56-1.52,3.13-1.28,11.06,3.03,11.81-.11,2.17-1.11,4.54-1.16,6.35-.06,2.24-.06,4.24-.06,5.98,0,2.4.43,4.37.47,5.97.09,3.15-.24,4.76-.55,5.78-.47,1.56-1.25,1.7-4.75,1.86-3.42.15-7.92.94-11.94,2.02-.7-5.88-7-5.8-9.32-1.32-1.95.6-3.48,2.59-3.96,4.66-5.5,3.5-5.85,5.63-.7,9.29,1.45,1.15,2.85,2.91,4.8,3.9,1.85.94,3.8,1.86,5.58,2.65,2.28,1.01,4.66,1.12,5.9,1.87,1.71.66,3.42,1.53,5.26,2.24,1.77.68,3.34,2.08,5.17,2.65,1.84.58,3.9.3,5.76.62,1.92.32,3.81,1.34,5.7,1.22,1.9-.12,3.64-1.25,5.45-1.99,4.38-2.47,2.13-6.38-1.3-7.93,1.43-.66,2.14-1.7,2.33-3.46.4-2.91-3.1-4.69-1.52-7.6,3.16-5.09,7.12-9.71,10.35-14.76,1.23-1.6,3.04-2.81,4.06-4.53,1.01-1.72,1.55-3.61,2.2-5.55,4.21-.03,7.85-1.52,11.2-3.86,1.67-1.1,3.73-1.79,5.22-3.24,1.44-1.4,2.18-3.53,3.53-5.1,3.78-4.83,8.04-9.46,12.6-13.49.76,2.01,1.61,3.94,2.36,5.72.83,1.99,1.06,4.13,1.9,5.86,2.16,3.6,4.57,6.85,7.25,9.81,1.36,1.56,2.4,3.37,4.02,4.59,1.57,1.19,3.5,1.89,5.4,2.81,1.72.83,3.41,2.07,5.46,2.72,3.79.97,7.87,1.49,12,2.02,1.57.92,3.41,1.61,5.14,2.54,1.66.9,2.97,2.46,4.57,3.49,1.62,1.04,3.47,1.76,4.82,3.05,1.39,1.32,2.49,2.96,3.37,4.67-.05,5.44-2.89,10.11-6.61,13.83-1.96-.53-5.32,4.15-2.44,4.68-.31,1.53-.41,3.18-.03,4.72-2.58,7.17,8.88,7.89,16.57,6.89-4.94-.3-11.17.16-14.59-4.26,1.66.78,4.13.1,5.33-1.29,1.06,2.19,2.99,2.83,5.2,2.9,3.83-.03,8.18-.14,10.8-2.95,1.07-1.25,1.61-3.01,2.32-4.61.7-1.59,1.69-2.86,2.36-4.35.59.17.27.09.92-.22-.95,1.56-1.78,3.04-2.73,4.61-2.1,3.18-4.43,8.89-8.46,10,2.04-.33,3.71-.77,4.62-1.22,1.31-1.35,2.77-2.62,3.89-4.15,1.11-1.52,1.5-3.54,2.49-5.17.98-1.61,2.01-3.19,2.94-4.85.93-1.65,2.58-2.88,3.54-4.5.97-1.64,1.67-3.4,2.74-4.95,2.58-3.37,3.53-11.3-2.85-10.62-1.71-2.12-2.93-4.02-4.44-4.56-4.5-1.27-7.65.51-10.25-4.82-.75-1.4-1.4-3.21-2.11-5.7-.48-1.7-1.7-3.66-2.17-5.99,3.94-4.44,1.87-5.81-1.11-9.54-.93-1.5-.01-2.99,0-4.63.02-1.56-1.11-2.81-1.81-4.12-3.16-7.2-3.09-15.28-5.84-22.6,1.7-.75,3.42-1.44,4.89-2.59,1.46-1.13,2.38-2.91,3.61-4.33,2.55-2.71,4.72-5.87,6.25-9.27,3.73-7.98-1.22-5.53-4.97-10.4,2.25.43,10.04,2.46,11.61,2.83,2.55.59,4.28.37,5.94.13,1.63-.23,13.24-8.04,15.1-9.38,3.16-1.76,6.33-3.53,9.3-5.62,1.49-1.02,13.45-9.3,17.97-12.4.45-1.39-.58-3.34-1.01-5.1-.4-1.65-1.05-3.63-1.13-5.12,2.38-1.8,6.26-2.85,8.18-5.21ZM180.75,32.21c-.56.72-1.3,1.29-1.94,1.94-1.49-1.97-3.1-3.84-4.77-5.66,2.48.76,4.55,2.35,6.71,3.73ZM172.89,24.34c1.3-2.47,2.52-5.01,4.08-7.34.33.14.66.35,1.04.37.31.02.69-.23.85-.09.18.16.22.73.33.93.52.71.91,1.51,1.28,2.31.09.19.37.52.38.73-1.09-.18-2.22.26-3.26.59-.84.32-1.52,1.02-2.32,1.42-.8.41-1.63.8-2.4,1.31,0-.05.03-.18.02-.23ZM226.97,58.36c1.81.18,9.08.99,10.88.97.86.05,1.6.1,2.46.15.06.25.49.5.55.75-8.41,4.03-16.23,9.2-24.38,13.74-3.32,1.7-6.72,3.24-10.05,4.92-1.62.92-3.07,2.14-4.69,3.06-1.62.92-3.25,1.29-4.87,2.21-.44-.9-.56-.97-1.09-1.82,3.38-2.19,13.67-8.44,15.44-9.42,3.57-1.99,14.18-7.93,15.95-8.92,1.78-.99,3.89-1.38,5.66-2.36,2.64-2.13-8.47-2.12-10.37-2.14-3.1.13-9.84.27-11.62-.58,5.27-1.38,10.74-.68,16.12-.56ZM196.14,133.03c-3.95,9.06-12.96,13.7-21.61,17.16-3.49,1.26-7.15,2.34-10.44,3.88-.82.3-.77,1.84.25,1.88-.96,1.98-2.38,3.44-3.37,4.95-2.31,3.49-4.89,6.32-8.83,7.08-1.76.26-3.55-.22-5.74-.8-1.7-.45-3.97-.52-5.99-1.49,1.4-.42,3.17-1.03,4.65-1.46,1.49-.43,3.24-.35,4.53-1.04.12-.11-.14-1.02-.09-1.08,1.09-.18,1.76-1.54.12-1.41-2.73-.15-5.83,1.29-8.41.27-2.6-2.56.64-2.83,2.36-3.61,2.05-.8,3.43-2.98,5.19-4.62,7.03-5.93,8.32,5.11,15.58-10.35,1.85-4.78,2.16-7.09,4.05-11.26.8-1.57,2.19-2.86,3.16-4.33,1.02-1.54,1.62-3.43,2.91-4.54,1.37-1.19,3.19-2.17,4.96-2.49.84.4,2.75-.4,1.37-1.05-1.35-.26-2.17-.31-3.37.17.18-2.86-2.09-5.42-4.05-7.37,1.61-.49,3.44-1.46,4.63-2.59,1.17-1.11,1.81-2.8,2.93-3.98,1.14-1.2,2.75-1.82,4.22-2.53,4.41-.75,7.67.86,9.85,4.53,2.2,3.18,2.89,7.26,2.94,11.2.21,1.97.97,3.92,1.01,5.8.04,2.13-.87,4.1-.93,5.8-.31,2.16-2.97.68-4.23,1.64-1.27,1.23,1.37,1.99,2.35,1.63ZM170.9,220.49c2.62.71,6.86,1.64,10.07,2.03-1.26.24-2.87.58-4.43.44-2.65-.25-5.15-.95-5.54-1.26-2.99-.67-.84-3.36,1.09-2.57.54.29-2.06.61-1.19,1.36ZM168.79,194.74c.01-.1.06-.15.08-.24,1.86-.02,3.75-.18,5.56-.49,1.83-.31,3.52-1.61,5.26-2.25.16.46.43,1.5.59,1.96-3.27,1.01-8.05.93-11.49,1.02ZM171.87,155.36l.56.12c-1.76,3.94-2.56,7.89-2.74,12.23-.25,2.07-.96,4.13-1.06,6.23-.31,5.78.35,11.61.37,17.36-.3-1.59-.85-3.17-.9-4.79-.07-2.1.2-4.21.21-6.3-.07-8.43.61-16.9,3.56-24.86ZM169,192.78s0,.01,0,.02c-.06,0-.04,0,0-.02ZM176.87,152.58c.18-.22.23-.43.22-.65.03.24,0,.46-.22.65ZM163.45,164.33c-.88,3.96-3.69,8.73-6.89,8.3,3.98-1.08,5.55-7.92,8.14-10.04.22-.16-1.11,1.24-1.25,1.74ZM44.98,149.69c4.51.91,13.44,1.5,17.19,2.47,8.05.9,15.74,3.67,23.83,4.16,3.91,1.07,7.84,1.93,11.88,2.35,4.05.31,8.06.94,12.02,1.83,1.93-.12,3.84-1.23,5.81-1.6,3.84-.73,21.39-5.17,23.32-5.38-.21.3-.64,1.25-.85,1.55-3.53.79-6.89,2.28-10.45,2.86-6.64,1.08-11.73,2.25-17.01,3.43-3.9-.53-9.2-.98-9.21-.98-1.95-.32-34.69-6.08-36.64-6.41-1.95-.33-9.77-1.62-11.72-1.95-1.85-.31-12.4-2.41-16.82-3.27,1.47-.21,2.93-.41,4.41-.62.02.08.17.19.19.27-1.7.54.43.64,4.04,1.29ZM61.68,133.77c2.09-.94,4.31-1.49,6.42-2.32,2.34-.54,4.91-.03,6.37,2.03-1.3.58-2.28,1.43-3.53,2.06,1.58-.54,3.19-.99,4.69-1.65,3.43-1.19,9.01-3.7,11.77.41-7.26,3.39-15.08,5.86-21.77,10.33-2.14-1.46-4.45-2.38-7-2.35,1.71-1.31,3.42-1.85,5.36-2.83,1.77-.89,3.32-2.32,5.12-3.18-1.29.42-2.62.74-3.87,1.28-3.21,1.38-6.28,3.06-8.8,5.5-.77.19-1.91.5-2.55,1-1.53-2.51-4.81-3.16-7.49-2.94,2.87-1.79,6.02-3.1,9.18-4.16,2.07-.95,4.01-2.23,6.09-3.17ZM57.67,133.75c1.55-1.92,2.97-3.25,4.52-5.18.76.89,1.71,1.71,2.44,2.63-2.3,1.01-4.67,1.5-6.96,2.55ZM74.24,113.53c.7-.74.69-1.56,1.16-2.33-.5.89-.43,1.64-1.16,2.33ZM115.08,64.65l.47.47.17-.06c-5.89,7.11-9.82,15.64-13.79,23.96-1.71,3.28-3.51,6.55-5.11,9.89-1.15,3.38-2.27,6.65-3.7,9.93.09-1.94.57-3.25.88-5.11.34-3.87,1.41-7.43,3.12-10.88.7-1.77.72-3.85,1.57-5.55,1.71-3.44,2.92-6.43,5.38-9.35,1.05-1.59,2.5-3.73,3.61-5.27,1.11-1.55,2.79-2.65,3.93-4.15,1.07-1.1,1.86-2.45,3.1-3.38.06-.06.28-.33.37-.49ZM122.27,65.15c-.38,1.94-1.42,5.5-1.75,7.55-.32,1.97.22,4.11,0,6.16-1.42,7.95-.77,16.7,3.74,23.54-1.26,1.55-2.52,3.31-3.67,4.95l-.42-.18c-1.07-3.78-1.92-8.12-2.52-12,.15-4.05.59-8.15.91-12.22.22-4.12,1.04-8.11,2.3-12.02.45-1.91.45-4.59.88-6.53.16.26.33.52.52.76ZM164.47,57.04c1.98.16,4.23.48,6.14.59,2.12.12,4.23.56,6.35.68,4.33.19,8.73.49,13.06.84-6.09,2.38-12.09,5.11-18.3,7.17-3.16-2.33-7.6-3.59-11.38-4.47.21-.33.42-.67.65-.98.66-.87,1.49-1.63,2.25-2.44.43-.45.83-.92,1.23-1.39ZM138.19,133.93c-1.38-1.54-2.33-3.45-3.66-5.03-.15-.18-.3-.36-.45-.54,4.19,4.84,8.85,9.31,13.16,13.96-.11.15-.53.56-.64.72-1.41-1.5-2.57-3.25-3.98-4.77-1.41-1.51-3.05-2.8-4.44-4.34ZM141.6,149.67c-.44.63-.37.84-.81,1.46.07-.8-.73-1.52-.98-2.23.59.15,1.2.6,1.79.77ZM103.87,149.52c1.85-.57,3.46-.66,5.32-1.24,1.85-.58,3.46-1.97,5.32-2.52,5.71-1.24,11.4-2.81,17.2-3.52,3.84,1.1,7.18,6.68,6.7,10.64-5.54.77-11.14,1.27-16.44,3.19-1.79.43-3.7.33-5.48.78-1.79.44-3.13,1.07-4.91,1.51-.39-4.16-3.57-8.12-7.71-8.83ZM108.96,158.73c-3.84-.47-7.75-.97-11.58-1.54.14-1.31,1.11-2.92,1.44-3.97.34-1.09.85-1.34,2.19-1.65,5.52-.97,7.73,1.38,7.95,7.16ZM128.39,141.31s0-.07-.03-.11c.02.03.03.07.03.11ZM126.8,119.25c-.36-.65-.71-1.3-1.06-1.95.5.53.99,1.08,1.4,1.67,1.32,2.2,2.8,4.29,4.38,6.3-1.62-1.97-3.21-3.96-4.72-6.02ZM137.09,87.48c-4.14,4.25-8.58,8.22-11.77,13.28-.77-1.21-.84-2.38-1.23-3.83,3.18-2.51,6.01-5.34,8.75-8.35,1.45-1.44,3.12-2.7,4.53-4.2,1.4-1.5,2.17-3.59,3.53-5.13,2.73-3.09,5.14-5.93,8.08-8.78,1.29-1.54,4.7-6.01,6.08-7.69.14.2.32.39.53.55-5.55,8.01-12,16.95-18.49,24.16ZM150.33,66.65c-1.63,1.83-3.57,3.87-4.07,4.47-7.18,8.43-14.31,16.97-23.05,23.76-.21-5.37-.66-10.76-.62-16.14.13-1.84.65-3.61.92-5.44.25-1.71.3-4.52.63-6.35.6.41,1.26.75,1.97.98,3.94,1.76,8.45,1.86,12.45.26.08.25,2.2-.12,2.5-.2,1.05-.26,2.07-.33,2.98-.56,3.03-.94,6.04-1.68,8.57-3.41-.68.79-1.46,1.69-2.29,2.62ZM126.37,142.7c-5.96,1.55-12.26,2.01-18.01,4.38-1.96.59-4.09.73-5.96,1.48-1.89.76-3.4,1.69-5.16,2.71-1.76-2.12-4.09-2.96-6.59-3.32,1.82-.72,3.47-.87,5.31-1.56,1.84-.69,3.4-2.16,5.25-2.81,3.78-1.06,7.57-2.14,11.33-3.29,5.12-1.6,10.74-3.69,13.82,2.41ZM72.69,152.6c-2.79-.45-5.15-.87-7.94-1.32.3-1.81-.08-3.99,1.2-5.29,1.96-1.29,5.96-.27,6.93.18.97.45,1.34,1.1,1.83,1.6-1.42,1.29-2.26,2.92-2.02,4.83ZM75.76,149.15c.34-.65,1.25-2.07,3.07-2.18,1.82-.12,5.29,1.11,6.2,3.47-1.12,1.19-1.91,2.63-1.93,4.28-2.78-.45-5.67-.87-8.45-1.32.06-.55.21-2.52,1.11-4.25ZM80.88,145.39c1.46-.49,3.07-.65,4.98-1.54,1.58-.73,2.93-2.3,4.68-3.09,6.55-2.04,15.48-7.34,21.27-1.5-5.36,2.01-10.96,3.26-16.43,4.88-1.96,1.11-6.59,1.74-7.15,4.06-.61.12-.8-.02-1.33.28-1.06-2.06-3.98-2.92-6.02-3.09ZM87.03,150.72c1.39-1.15,3.19-.89,5.09.15,1.71.93,3.8,2.14,4.18,4.04-.07.56-.53,1.32-.56,1.88-3.68-.57-7.43-1.15-11.11-1.74.23-2.65,1.54-3.61,2.4-4.32ZM99.03,136.62c-5.07,2.04-10.36,3.63-15.48,5.5-2.33,1.22-5.39,2.18-7.08,4.29-.28.13-.16-.08-.42.08-1.38-2.04-4.12-2.69-6.47-2.5,1.28-.55,2.98-.73,4.83-1.73,1.46-.79,2.67-2.41,4.33-3.27,5.8-2.1,15.38-8.31,20.29-2.37ZM89.2,133.46c-1.08-2.04-3.32-2.4-5.3-2.5,1.03-.93,2.09-1.31,3.04-2.32.69-.73,1.43-2,2.05-2.8.12,2.41.3,4.97,1.24,7.19-.25.1-.78.33-1.03.43ZM64.03,146.28c-1.46,1.14-1.78,2.84-2,4.65-1.46-.24-2.74.26-4.2.02-1.46-.24-2.97-.85-4.44-1.09-.08-7.69,6.03-6.9,10.64-3.58ZM139.56,157.1c1.13-1.62,1.6-3.72,2.76-5.32,2.32-3.23,4.99-6.17,7.62-9.13,1.14-1.61,1.55-3.75,2.66-5.39,1.11-1.64,2.76-2.91,3.82-4.58,1.06-1.67,1.95-3.18,2.94-4.9,1.05.97,1.64,1.49,2.76,2.28-1.24,1.64-1.62,3.62-2.71,5.39-2.38,3.36-4.5,6.95-6.66,10.45-2.19,3.56-4.68,6.88-7.95,9.49-1.59,1.74-3.97,1.47-5.72,2.82-3.38,6.13,6.56,4.36,9.3,4.39-3.31,1.19-6.94,1.88-10.47,2.34-1.85.46-3.14,1.19-4.86,1.55,1.89-3.38,4.12-6.4,6.52-9.41ZM156.57,125.13c.15.18.35.26.56.32-.21-.06-.41-.14-.56-.32ZM157.97,125.72c.06.04.12.09.18.14-.06-.06-.12-.1-.18-.14ZM183.16,67.99c1.95-.76,3.67-1.09,5.64-1.8,1.97-.7,3.68-2.17,5.67-2.83,4.05-1.08,8.09-2.21,12.07-3.57,7.64.6,15.38.5,22.97,1.62-3.59,1.6-6.74,3.35-9.99,5.56-3.53,1.46-6.95,3.09-10.2,5.12-3.19,2.12-6.51,3.94-9.99,5.5-1.66.92-3.12,2.62-4.79,3.54-1.33-1.34-2.49-3.31-3.57-5.04-1.94-3.87-3.1-7.22-7.82-8.09ZM189.64,91.41c-.22-.03-.55-.26-1.03-.56.41.2.76.39,1.03.56ZM185.17,89.48c-1.6-.19-3.42.14-5.12.37-2.15.29-4.14.82-5.55,2.59-.26.32.87.52.66.95-.59.31-1.12.67-1.46.73-.9.14-1.32-.96-.78-1.8.77-1.22,3.07-3.1,6.1-3.66,1.32-.45,3.84.07,6.15.83ZM172.95,111.19c.34-.14.59-.29.9-.47-.32.18-.55.4-.88.55-1.15.19-1.83.02-1.9.29.07-.28.73-.18,1.88-.37ZM173.76,120.86c.35-.32.9.03,1.29-.27l.04.05c-.38.3-.97-.1-1.33.22ZM202,56.85c1.94-.33,3.89.06,5.64-.09,2.03-.17,3.54-.41,5.21-.31-1.8.62-3.37.91-5.21,1.47-1.82.56-23.76,7.64-32,12.48-3.37,1.71-6.42,3.87-8.95,6.77-1.17,1.4-2.02,3.1-3.06,4.65-2.48,2.9-4.38,5.94-5.67,9.58-1.13,3.54-2.21,7.18-3.09,10.77-.28,1.84.38,3.77.37,5.62-.04,3.7.09,7.49.86,11.11.58,1.73,1.99,3.59,2.9,5.24-1.33-1.43-2.34-3.44-3.23-5.02-.94-1.67-1.99-3.24-2.5-5.03-1.06-3.64-1.48-7.49-1.31-11.3.18-1.86,1.27-3.61,1.71-5.47.43-1.83,1.05-3.58,1.67-5.37,1.37-3.48,2.9-6.98,4.5-10.3.95-1.69,1.7-3.45,2.59-5.04,2.62-4.69,8.1-7.84,10.5-9.3,3.99-2.43,8.63-3.95,13.13-5.11,1.76-.64,8.78-3.21,10.57-3.64,1.87-.45,3.6-1.41,5.38-1.71ZM197.95,56.69c-5.34,2.08-10.97,1.41-16.48.59-1.8-.15-3.64,0-5.45-.18-3.28-.72-8.14-.96-10.64-1.16,0,0,0,0,0,0,.44-.53,1.09-1,1.55-1.55,2.39.16,7.9.59,9.45.67,7.14,1.08,14.42.64,21.57,1.63ZM138.63,10.28c3.83-1.39,8.13-1.78,12.08-.65,2.04.25,3.64.5,5.53,1.36,1.97.58,3.73,1.74,5.4,2.94.91.63,1.93,1.14,2.77,1.85,1.39,1.36,2.61,2.89,3.72,4.5.48.69,1.22,1.26,1.56,2.02.35.77.59,1.63.75,2.45,0,.04.02.07.04.1.11.62.02,1.1-.02,1.74-.74-.84-1.7-1.34-2.61-2.04-1.69-1.45-3.29-2.69-5.15-3.83-2.71-1.28-5.37-2.73-7.97-4.22-1.76-.77-3.47-1.63-5.19-2.44-.89-.33-1.92-.28-2.83-.55-.91-.26-1.82-.51-2.76-.69-1.94-.39-3.92-.58-5.9-.57-.99,0-2-.29-2.99-.21-.99.08-1.98.38-2.96.56,1.83-1.62,4.29-1.74,6.53-2.33ZM137.97,13.84c2.15-.03,4.26.32,6.3.97,1.07.26,2.23.22,3.26.6,2.07.76,4.07,1.72,6.03,2.71,1.75.76,3.05,1.61,4.54,2.76,2.7,1.29,4.77,2.63,7.27,4.53.81.73,1.39,1.79,2.13,2.49,1.27,1.22,2.28,2.2,2.38,2.22,1.31,1.32,2.1,3.15,2.14,5.01-1.8-2.32-3.94-4.39-6.29-6.17,0-.09-1.29-1.16-2.8-2.17-1.09-.73-2.38-1.28-3.12-1.72-1.65-1.16-3.38-2.18-5.24-2.99-1.77-.99-3.63-1.73-5.59-2.25-1.83-.85-3.71-1.59-5.69-2.03-2.89-.18-5.74-.64-8.69-.62-.89,0-1.8-.37-2.7-.3-.9.06-1.77.44-2.64.61.07-.11-2.5.59-2.52.53.75-4.16,7.87-4.4,11.23-4.19ZM122.83,26.66c-.41,1.02-.95,1.9-1.24,2.6,0-.09,0-.19,0-.3.32-.63.73-1.39,1.24-2.31ZM116.52,34.91c.29-.95.73-1.9,1.35-2.15,2.27-.9,1.25,2.01,1.43,2.06-.42,1.28-.59,2.62-.92,3.93,0,.02-.17-.01-.17,0-.26.08-1.68,1.97-2.04,2.9-1.54-2.1-.38-4.05.36-6.74ZM117.39,50.73c-.15-.84-.28-1.75-.31-2.67-.03-.88.32-1.76.44-2.65.09-1.8.55-3.54,1.7-4.95.32-.43-.03-1.07.2-1.62,1.3-1.64,3.02-6.38,4-8.65.06.13.06.09.27.14.49.1,3.34-.44,4.44-.5s2.72.24,3.76.69c.97.42,1.53-.63,1.15-.96-1.79-1.28-3.19-1.53-5.32-1.73-.78-.04-1.47.34-2.19.65-.7.31-1.43.62-2.04,1.08.57-1.22.83-2.41,1.35-3.73,1.37-2.37,2.59-5.11,3.72-7.56,1.59-.33,3.21-.23,4.81-.13,3.01-.15,5.95.55,8.9,1,3.85,1.08,7.49,2.78,11.21,4.19,1.73.89,3.43,1.86,5.09,2.9.83.51,1.53,1.21,2.33,1.77.8.56,1.84.94,2.61,1.54-.29,2.06-.81,4.1-1.38,6.11-.37,2.03-.87,4.03-1.57,5.97-.9,1.85-1.77,3.72-2.48,5.66-.9,1.87-1.64,3.79-2.27,5.75-.16.36.54.03.66.01.51-.07,1.11-.06,1.51-.39.6-.5,1.1-1.11,1.7-1.6.43-.36-.29-.19-.47-.18-.12,0-.4-.08-.53-.06.17-.37.5-.72.67-1.1,1.93-.08,4.35.15,5.21,2.29,1.02,2.05-1.1,3.72-2.22,5.08-.69.83-1.26,1.78-1.97,2.59-.54.61-.96,2.92-3.04,2.5-.81-.16-1.76-1.42-1.95-2.36s.48-2.13.15-2.12c-1.36.05-2.41,1.75-1.93,2.96-1.75,2.29-4.23,3.41-6.73,4.64-1.73.45-3.52.78-5.31,1.33.45-.24.07-.13.51-.39.42-.25.64-.48.19-.8-.5-.34-.27.02-.73.28-.84.49-1.94.56-2.94.89-.95.31-1.88.81-2.9.97-4.65.23-10.85-.51-12.71-5.5-.18-.45-.15-1.11-.89-1.64-.35-.95-.83-1.76-1.47-2.44-.63-.67-1.58-1.12-2-2.03-.71-1.58-.92-3.55-1.23-5.28ZM95.9,66.71c1.93-.56,3.79-1.07,5.71-1.63,1.93-.56,3.63-1.92,5.56-2.48,3.74-.84,8.39-1.91,12.16-3.06.6.91,1.14,1.79,1.37,2.4.05.18.11.35.17.52l-.74.59c-1.23-.47-2.61-.3-3.82.18-2.3-1.49-5.38-.07-7.38,1.33-2.2.58-4.58.44-6.85.82-2.27.38-4.43,1.26-6.43,2.53.02-.51.22-.7.24-1.2ZM89.25,32.06c2.62-8.28,4.65-13.54,7.32-17.12.1-.14.62-.32.8-.39,1.76.74,2.67,3.24,1.35,4.8-2.96,5.42-5.46,10.99-7.82,16.73-2.08,5.08-3.49,8.73-4.9,10.86-.24-1.25-.88-2.4-1.88-3.07.38-.1,4.51-9.84,5.13-11.81ZM86.07,47.47s0,0,0,0c.01,0,.02,0,0,0ZM89.15,52.42c1.38,1.8-.37,3.79-.43,5.76.39,2.79.05,4.81-1.26,5.92-2.39,2.03-5.96,1.69-3.71,2.93-.58,1.06-1.77,1.93-2.89,2.15l.02.15h-.12c-.59.1-1.58-.17-2.17-.25,1.51-3.41,3.17-6.75,4.68-10.17,1.83-.14,1.34-2.13,1.04-3.52.4.32.61,1.09,1.07,1.33.89.46,2.79-1.78,1.61-2.39-1.82-.96-3.29-2.55-3.1-4.68,2.38-1.5,3.96.94,5.27,2.77ZM78.17,97.65c-1.41,1.64-2.77,3.18-4.17,4.83-1.41,1.65-2.19,3.84-3.59,5.49-3,3.13-5.92,6.35-8.67,9.73-.55-.16-1.47-.66-1.95-.97,1.53-3.81,3.02-7.65,4.49-11.48,2.52-5.59,11.37-28.36,13.16-34.18.05,1.77.28,3.71.33,5.48.05,1.77.92,3.52.96,5.29.08,3.57-.29,7.11-.71,10.64,0,1.77.18,3.4.16,5.17ZM56.1,91.45c.76-1.83,1.1-3.94,2.11-5.7.99-1.75,2.2-3.4,3.28-5.07,1.12-1.72,2.86-3.01,3.91-4.64.3-.92,5.39-6.79,3.75-7.76-2.5-7.3-3.77-18.92,3.86-23.62.61-.22.83-.77.74-1.14,3.45-.41,8.87-.16,9.76,4.34-.18.06-.06.07-.23.15-.92-.92-2.77-2.5-4.76-3.02-2.14-.56-4.84-.12-5.61,1.39.14.53,1.27.84,1.67.75,2.46-.37,5.05.6,6.78,2.53-.15.47.16,1.04.23,1.58-2.4-1.86-6.56-3.34-9.49-2.34-.28.37.48.46.72.45,4.02-.2,9.8,3.55,9.73,8.11-.31-.03-.93-.05-1.26-.04.84-1.52-1.55-2.65-4.25-3.66-2.82-1.05-5.87-1.63-5.88-.02,2.13-.27,4.34.56,6.23,1.68.82.41,3.4,1.48,1.62,2.01-2.18-.3-4.77-.96-6.68.86-.3.26-.1.37.31.42,1.08.22,1.4-.78,2.47-.23-1.75,7.88-9.59,26.32-10.32,28.19-.74,1.87-3.67,9.36-4.41,11.23-.74,1.87-2.07,3.5-2.81,5.37s-1.36,3.92-2.1,5.79c-2.64-5.8-2.47-12.12.64-17.61ZM56.05,112.65c.67-1.7,3.26-8.54,3.93-10.24s1.31-3.42,1.98-5.12c.67-1.7,5.68-14.42,6.41-16.28,3.53-7.23,5.91-14.96,9.02-22.38.97.07,1.77-.2,2.81-.63.14.08.41.52.56.57-1.76,3.53-3,6.67-4.12,10.46-1.77,3.31-9.38,24.49-10.07,26.23-1.39,3.5-5.47,13.95-6.15,15.69-.68,1.74-4.04,10.74-5.38,14.27-.95,1.11-2.56,3.89-3.51,4.99-.95,1.11-3.04,2.95-4,4.05,2.17-4.98,7.84-19.92,8.52-21.62ZM54.21,129.58c1.32-1.54,2.65-3.07,3.97-4.62,1.32-1.54,11.46-14.25,15.27-19,2.66-3.07,5.28-6.17,7.89-9.28,4.15-4.41,8.62-8.5,12.15-13.45,2.93-2.68,5.7-5.49,8.26-8.55,2.48-3.13,5.23-5.92,8.37-8.37,1.05-.96,2.11-2.08,3.51-2.33-2.76,2.86-5.79,5.5-8.8,8.06-1.32,1.43-1.97,3.48-3.27,4.94-1.29,1.45-3.09,2.46-4.36,3.94-2.34,3.11-4.64,6.27-7.11,9.29-1.24,1.5-2.22,3.22-3.44,4.73-1.22,1.52-3.05,2.54-4.26,4.06-3.7,4.52-7.49,8.99-10.77,13.84-1.2,1.53-2.06,3.34-3.26,4.88-1.2,1.53-10.61,13.85-14.82,18.09-1.46.68-3.16.87-4.62,1.55-1.46.68-3.18,1.78-4.63,2.49,3.31-3.38,6.73-6.75,9.9-10.27ZM45.55,142.06c2.66-.12,7.13-.53,7.19,3.25-1.05,1.14-1.48,2.74-1.52,4.25-2.77-.46-5.79-.77-8.56-1.28-.14-1.32.7-2.88.94-3.56.43-1.23,1.01-2.1,1.94-2.66ZM41.4,144.1c-.27.97-.34,2.07-.36,3.06-.8.11-2.14-.01-2.94.1,1.01-1.12,2.18-2.12,3.3-3.16ZM36.45,171.44c-1.65,3.55-3.19,7.14-4.5,10.84-3.25,9.24-11.96,31.02-12.64,32.85-.68,1.83-9.19,26.01-9.78,27.66-1.31,3.64-2.65,8.12-4.31,11.6-.73-.45-1.83-1.44-2.68-1.5.66-1.84,3.62-9.24,4.29-11.07,1.31-3.68,2.45-7.43,3.61-11.15.68-1.83,8.9-21.69,10.54-27.31.69-1.82,3.38-9.15,4.08-10.97.7-1.82,1.37-3.66,2.07-5.48,1.55-3.59,5.59-14.58,6.29-16.4.71-1.82,3.61-9.25,4.31-11.07.77.13,2.83.96,3.59,1.1,0,0-4.25,9.29-4.88,10.9ZM79.44,165.79c-1.95-.33-9.7-2.09-11.65-2.42-3.9-.71-8.81-1.39-12.71-2.11-3.95-.4-6.83-1.12-10.7-2.03-2.72-.49-6.96-1.28-9.66-1.89-.58-2.34-.1-5-.19-7.45,13.22,2.58,44.35,7.88,46.23,8.18,3.68,1.05,27.02,4.07,28.9,4.36-.04,2.59.02,5.44,0,8.03-1.96-.32-4.83-.56-6.79-.88-1.96-.32-19.5-3.16-23.43-3.8ZM111.29,186.13c-.77.39-1.18.94-3.95-.22-1.47-.62-2.93-2.88-3.83-5.77-.8-2.56-1.29-5.26-2.54-6.63-2.66-2.92-2.8-2.57-3.82-3.34-.53-.4,2.62.31,3,.8,2.14,2.25,3.42,5.87,4.7,8.78.7,1.68,1.09,3.37,1.93,4.52.6.82,3.51,2.35,4.51,1.84ZM74.84,214.9c1.29-.2,3.2-.07,5.11.21,2.36.35,4.94.28,5.33.89.69.66-.34,1.18-1.18,1.26-.28.03-.38-.35-.97-.59-2.9-1.06-7.83-1.28-10.89-1.24-.95-.85,1.6-.37,2.6-.52ZM69.19,209.61c.63-1.97.78-3.74,1.73-5.61-.81,2.05-.77,4.01-1.43,6.09-.06.9-.95,1.69-1.37,2.49.31-.98,1.01-1.97,1.08-2.97ZM48.44,257.14c.29.37.85.33,1.29.19.6.22,1.22-.07,1.73-.46,6.65.88,9.26,8.06,12.14,13.17-3.34-1.34-6.53-3.14-9.55-5.07-1.54-.82-3.22-1.36-4.75-2.2-1.53-.84-2.64-2.01-4.18-2.81.73-.26.48-.29.61-.83.24-1.36.72-1.45,1.94-1.45l-.06-.24c.27-.09.62-.28.84-.29ZM38.13,258.21c.24-1.36.93-2.23,1.96-3.03.5.29.88-.74,1.32-.98l.17.47c0-.1.05-.27.01-.25,1.95-.69,4.51.39,5.77,2.07-1.58.46-3.62,1.55-3.98,3.36-1.72-.57-3.82-2.1-5.61-1.13l-.22-.36c.09-.06.56-.05.57-.13ZM77.97,279.76c-1.95.79-3.77,1.02-5.84,1-2.02-.03-4.18.46-6.22-.05-3.89-1.22-7.93-3.09-11.74-4.35.63-.95-.79-.63-1.3-.42-.37-.16-.91-.91-1.27-1.07,1.03-.24,3.31.2,3.42-1.08-.64-.46-1.13.11-1.78.21-1.47.5-2.9-.74-4.37-.54-.63-.3-1.27-.28-1.89-.59,1.5-.21,4.18.62,5.24-.67.09-.45-1.13-1.2-1.37-1.16-2.88.5-5.97,1.08-8.58-.62,1.73,0,3.38.65,4.78-.65.09-.75-2.27-.61-4.96-.92-2.2-.25-4.08-.34-4.9-1.17,1.5.18,2.91-.04,4.58.28,1.72.33,3.53,1.05,4.98.29.25-.42-.39-.73-.71-.74-4.01-.07-7.96-.94-11.87-1.7-.72-.97-.09-2.5.36-3.58,3.38.19,6.97,2.16,10.21,3.95,3.26,1.69,6.73,3.48,10.03,5.2,1.63,1,2.96,2.51,4.55,3.41,1.72.97,3.72,1.21,5.34,1.92,3.38,1.34,7.51,2.89,10.59,1.25-1.85-.14-3.46-.98-5.22-1.49-1.75-.51-3.79-.25-5.48-1.02-1.65-.76-3.04-2.12-4.66-3.04-1.59-.9-3.46-1.35-5.03-2.32-1.57-.96-2.8-2.48-4.38-3.41-1.59-.94-3.32-1.62-4.94-2.44-3.32-1.74-6.82-3.04-10.53-3.59.73-1.32,2.27-.19,3.18-1.15,1.81.58,3.77.7,5.53,1.54,1.72.82,3.38,1.86,5.07,2.81,1.67.93,2.97,2.58,4.64,3.53,1.68.95,3.7,1.27,5.4,2.13,1.74.87,3.22,2.32,5.01,2.97,3.7,1.2,7.51,1.87,11.43,1.6-.11.19-.08.12.18.29,1.74,1.15,5.27,3,2.52,5.41ZM91.86,241.39c-.79,1.44-2.54,2.31-3.38,3.53-.99,1.6-2.13,3.08-3.33,4.56-1.19,1.47-1.79,3.44-2.98,4.91-2.59,2.79-4.91,5.71-6.11,9.4-.17,1,.19,1.55.72,2.37,5.03,8.19-5.57,8.74-10.03,5.24-.14-2-.16-4.35-.78-6.56-.59-2.11-1.74-4.11-2.86-5.93-1.18-1.93-2.15-3.72-4-4.77,1.51-.21,2.92.45,4.67.22,1.79-.23,3.55-1.17,4.6-2.61.24-1.98.69-4.03.73-6.03.04-1.99-.81-4-.85-6-.01-3.91.16-7.7.77-11.55,2.09.54,3.98.38,6.01,1.09,2.03.71,3.8,2.13,5.8,2.93,4.11,1.35,8.21,2.83,12.29,4.31-.18,1.54-.49,3.47-1.28,4.9ZM105.47,199.72c-1.24-.62-3.46-1.92-5.69-3.23-2.23-1.32-4.87-1.92-6.08-2.61-3.58-2.34-6.44-5.56-10.38-7.57.07-.09.38-.61.45-.7,3.48,2.2,6.97,4.43,10.5,6.56,5.11,3.51,10.14,7.23,16.07,9.17,1.89.83,3.63,2.11,5.57,2.77,1.94.66,3.65.58,5.67,1.03-6.17.08-10.46-3.01-16.11-5.42ZM110.34,170.27c.05-2.39.15-5.45.19-7.84,8.82-1.51,17.73-4.34,26.58-5.66-2.18,3.12-4.62,6.13-6.74,9.27-2.15.4-20.04,4.23-20.04,4.23ZM162.95,202.89c-3.98.88-8.06,1.62-12.14,2-2.03.35-3.93,1.52-5.93,1.81-2.06.3-4.18-.15-6.18.02-2.25.19-4.57.03-6.85-.28,8.08.79,16.16-1.84,24.05-3.51,3.76-.65,7.56-1.04,11.37-1.15,1.56-.09,1.83-1.72,1.77-3.26.98,2.07,1.81,3.49.03,3.59-1.99.16-4.06.48-6.13.78ZM179.54,284.67c-2.75-.95-2.77-4.7-2.24-7.24,1.88.27,2.56,1.81,4.17,2.57-.48,1.58-.79,3.49-1.93,4.67ZM193.71,284.99c-3.96,1.15-9.44,1.87-9.77-4.11.16-.37.05-.37.17-.75,1.93-.34,3.46-1.76,5.25-2.52,3.69-1.33,7.3-3.18,11.1-4.09-1.86,3.73-2.45,9.54-6.75,11.48ZM210.55,254.42c1.19.45,1.4,1.55,1.69,2.87.14,1.72.47,3.45-.26,4.95-1.61,2.78-4.23,5.38-5.51,8.36-.86-.13-1.92.01-2.78.02.16-.18.04-.78.01-1.03,1.13-5.48,6.4-9.48,6.85-15.16ZM189.28,234.98c.35,1.69.25,3.15.74,4.8.72,2.44,2.28,3.95,3.16,5.38,4.25,8.34,11.72,1.88,15.04,9.14.08,6.07-5.45,10.4-6.5,16.09-4.18-.11-8.54.23-12.35,2.23-1.91.82-3.65,1.4-5.16,2.99-1.22-1.71-2.58-2.4-4.59-2.74,2.19-3.09,4.45-6.31,5.83-9.27.79-2.15.17-4.06-.19-5.63-.4-1.76-1.2-3.24-2.75-4.64-1.23-1.11-2.42-2.7-4.2-3.79-1.46-.9-3.54-1.04-5.29-2.04-1.53-.87-2.66-2.11-4.34-3.14,5.3-2.05,10.98-3.43,15.75-6.67,1.66-.98,3.43-1.29,4.84-2.71ZM179.49,153.76c-.3-.3-.38-.05-.66-.37,1.02-.86.73-2.76.25-4.03,7.6-3.52,16.26-8.05,18.8-16.82.17-.05,1.92-1.4,2.08-1.47.81,5.28,1.74,13.76,3.44,18.85.36,1.73,1.27,6.7,1.64,8.43-3.47-.44-8.05-1.42-11.43-2.28-1.76-.31-11.15-1.41-14.1-2.31ZM188.26,160.76c-1.94-1.59-3.75-2.68-5.72-4.23,3.87.29,7.4.93,11.16,1.91,3.84.69,7.7,1.27,11.55,1.85.74.15,1.35-.32,1.83-.68.39,1.6.56,3.75.94,5.36-3.35.24-16.56-3.18-19.76-4.21ZM234.37,147.15c-2.41,1.67-6.95,5.43-9.35,7.1-2.41,1.67-2.53,1.5-4.94,3.17-2.41,1.67-7.08,5.48-9.81,6.23-.48-1.89-.43-3.31-.94-5.18,1.62-1.11,2.64-2.73,4.26-3.83,3.38-2,6.69-4.1,9.89-6.42,7.87-5.77,16-11.11,24.32-16.16.34,1.84.8,3.38,1.14,5.22-1.92,2.22-11.08,7.2-14.56,9.87ZM238.14,136.08c-1.52,1.03-3.04,2.06-4.56,3.1-1.52,1.03-19.33,14.39-27.22,19.29-1.18-5.67-1.56-11.5-3.33-17.03-.34-3.78-.9-7.48-1.98-11.12.25-3.91.14-7.71-.18-11.62,1.56.48,2.4-.81,3.2-1.97,1.47,3.8,3.68,7.36,6.58,9.97,1.61,1.15,3.79,1.25,5.62,1.88,1.85.63,3.65,1.66,5.6,1.76,1.95.1,3.91-.46,5.81-.89,3.8-.91,7.13-2.96,9.67-6.01,1.29-1.39,3.02-2.54,3.88-4.39.79-1.69,1.49-3.61,1.83-5.68,1.13-5.67-.08-12.45-3.56-17.24-2.45-5.01-3.5-6.08-8.45-8.32-5.32-2.81-11.81-3.9-17.5-1.86-1.8.82-2.94,2.77-4.44,4.24-3.91,3.27-4.79,5.46-5.72,10.65-2.9-4.65-3.82-10.14-6.08-15.05,3.25-2.18,6.28-3.78,9.84-5.32,1.61-.92,13-7.1,14.61-8.01,1.61-.91,2.88-2.44,4.49-3.35s3.56-1.21,5.17-2.12c3.11-1.9,6.17-3.8,9.33-5.62,2.59,9.52,4.36,19.21,6.64,28.8.43,1.94,1.17,3.8,1.59,5.74.5,3.95,3.53,15.48,3.95,17.41.48,3.97,1.13,7.91,2.15,11.78-5.84,3.35-11.31,7.31-16.94,11.01ZM206.42,106.69c.06-1.42.26-2.77.6-4.32.48-2.11.38-4.24,1.21-5.81,4.09-7.31,13.28-10.01,20.51-6,7.44,3.34,10.56,11.68,10.71,19.57-1.53,5.26-3.93,10.57-8.37,13.57-1.61.95-3.34,1.21-5.12,1.52-4.41,1.29-6.53,1.08-10.59-1.19-1.6-.85-2.66-2.42-3.95-3.76-4.05-3.33-4.43-4.04-4.84-9.44.04-.13-.3-.23-.26-.34.14-1.33.44-2.6.11-3.79Z"/>
    <path class="st0" d="M41.61,254.74l-.03-.08c0,.05,0,.09.03.08Z"/>
    <path class="st0" d="M69.11,136.27c.36-.12.72-.24,1.08-.37.27-.1.52-.22.76-.35-.47.16-.94.33-1.4.52-.15.06-.3.14-.44.21Z"/>
    <path class="st0" d="M191.46,288.9c.33-.03.65-.09.96-.18-.37.06-.75.12-1.15.17.06,0,.12,0,.19.01Z"/>
    <path class="st0" d="M116.78,33.18s-.02-.09-.02-.09c-.04,0-.09.09.02.09Z"/>
    <path class="st0" d="M142.72,32.33c3.18,1.29,6.56,3.14,8.59,5.99.57.82,1.71,1.09,1.47-.54-.25-1.67-.88-3.5-2.21-4.56-.91-.66-3.68-1.35-5.11-1.66-1.36-.29-2.5-.46-2.66-.29-.39.42-.59.87-.08,1.06Z"/>
    <path class="st0" d="M124.07,34.84c.27.02,1.49.06,1.73-.05,1.15.59,1.47-.41,2.51-.25,1.21.18,2.86.72,2.76.3-.3-1.27-1.5-2.21-2.74-2.25-1.91-.17-2.95.95-4.59,1.05-1.1-.03-.95,1.09.33,1.2Z"/>
    <path class="st0" d="M127.95,34.6s.02,0,.03.01c0,0,.01-.02.01-.02,0,0-.03.01-.04,0Z"/>
    <path class="st0" d="M142.92,38.53c1.94.76,2.81,1.23,3.87,2.09,1.06.86.79,1.37,1.41,1.86.63.49,1.94.09,1.62-.3-.7-.84-1.2-1.82-1.62-2.55-.45-.79-.65-1.35-1.77-2.03-1.31-.79-2.88-1.33-4.43-1-.27.06-1.55.3-1.47.81.15.92,1.56.8,2.38,1.12Z"/>
    <path class="st0" d="M126.64,36.64c-.69,0-.94-.17-1.31-.45-1.19-.94-1.53.65.34,1.41.74.51,3.26.01,2.52-.79-.26-.28-.86-.17-1.55-.17Z"/>
    <path class="st0" d="M141.04,41.55c0,1.2,4.83,2.08,4.5.39-1.09-.08-2.03-.47-2.9-.88-1.12-.53-1.74-.79-1.6.49Z"/>
    <path class="st0" d="M142.69,58.6c-.39.33-.96.87-.48.96,2.47.28,3.66-2.7,3.21-4.78-.46-2.23-2.66-2.98-3.77-5-.98-1.69-1.94-.7-1.36.04,1.7,2.27,5.11,6.1,2.39,8.77Z"/>
    <path class="st0" d="M124.11,52.42c2.1,2,5.65,3.71,8.65,4.22,1.14.16,2.24.03,3.21-.25,1.39-.41,2.88.43,4.17-.27.24-.13.84-.64.28-.81-.2-.06-.41-.05-.61-.08-3.34-2.59-8.15-2.25-11.73-4.36-2.02-.53-6.25-1.07-3.97,1.56ZM135.87,55.29c-3.71.11-8.63-.53-10.8-4.04,3.66,1.63,8.18,2.69,12.05,3.81-.22-.07-1.02.22-1.26.23Z"/>
    <path class="st0" d="M127.04,57.9c-2.28.13-1.95,1.41.04,1.14.91.11.88.06,1.77.48.88.42,2.23,1.15,2.6,1.59,1.09,1.32,2.02,0,1.44-1.04-.42-.9-4.59-2.81-5.84-2.18Z"/>
    <path class="st0" d="M130.01,38.21c-.68.53-1.55.76-1.98,1.63-3.59-.54-5.38,4.97-.89,4.94,1.24,2.5,3.79,1.95,6.03,2.21,2.73,1.48,5.64-.57,4.95-3.41-.3-.94-.91-.84-1.08.09-.16.87-.09,1.91-.89,2.37-.95.45-3.78-.82-5.15-.73-1.8-.43-1.41-3.69-3.78-2.24-1.14-1.64.23-1.92,1.35-2.59.84.21,2.25-.67,3.28-1.8.67-.74.72-1.81.64-2.5-.2-1.73-1.32-.9-1.43-.3-.03,1.26-.49,1.89-1.04,2.32ZM130.49,39.65s.01-.08.01-.1c0,.02,0,.08-.01.1Z"/>
    <path class="st0" d="M123.12,47.55s0-.02,0-.03c-.06.04-.1.09,0,.03Z"/>
    <path class="st0" d="M121.26,50.07c.07-.81.73-3.1,2.38-3.53.43-.95-.8-.56-1.3-.26-.86.16-1.86,1.24-2.22,2.35-.58,1.8,1,3.03,1.15,1.44Z"/>
    <path class="st0" d="M151.8,42.82c.2.32,3.25.51,2.92-.7-.35-.25-1.38-.12-2.13.12-.52.17-1.22-.13-.78.58Z"/>
    <path class="st0" d="M152.47,44.37c-.63-.15-1.87-1.08-1.82-.36.05.83,2.46,1.74,2.75,1.01.27-.68-.15-.15-.92-.65Z"/>
  </g>
  <path class="st0" d="M160.04,53.39c.25.17.54,1.5.53,1.46.02.14.02,1.27-.85,1.74-.87.47-.38,1.24.6.66.67-.39,1.29-1.05,1.21-1.73.45-.79-.08-1.94-.6-2.45-.51-.51-1.34-.61-.89.32Z"/>
</svg>