<?xml version="1.0" encoding="UTF-8"?>
<svg id="_レイヤー_1" data-name="レイヤー_1" xmlns="http://www.w3.org/2000/svg" version="1.1" viewBox="0 0 291.03 346.55">
  <!-- Generator: Adobe Illustrator 30.3.0, SVG Export Plug-In . SVG Version: 2.1.3 Build 182)  -->
  <defs>
    <style>
      .st0 {
        fill: #231815;
        fill-rule: evenodd;
      }
    </style>
  </defs>
  <path class="st0" d="M182.86,15.58s-.12.02-.12-.04c0,.41.21.15.12.04ZM164,16.76c-.09.03-.22.05-.22,0,0,.75.49.12.22,0ZM182.74,15.53c.07,0,.1.02.12.04.04-.02.05-.05-.12-.04ZM150.86,11.1s0,0-.01,0c.1-.05.09-.04.01,0ZM141.13,23.72s-.13-.06-.17-.08c.03.19.12.17.17.08ZM164,16.76c.12-.04.17-.09-.22,0,.11-.02.17-.02.22,0ZM141.16,23.63c.01-.06,0-.12-.07-.14-.01,0-.02.01-.03.02.05.02.09.06.1.13ZM141.16,23.75c-.01.07-.03.14-.07.18.08-.09.09-.14.07-.18ZM141.16,23.75s.01-.08,0-.12c0,.03-.02.06-.03.09.01,0,.02.02.03.03ZM131.41,108.91c-.03.08-.04.13-.06.2.02,0,.12-.2.06-.2ZM154.61,21.26c.07-.08.3-.43.2-.43-.29.46-.28.51-.2.43ZM200.48,47.95c0,.14.13,0,0,0h0ZM131.44,110.99c-.01.09-.03.12-.03-.13,0,0,0,0,0,0,0,.07,0,.15-.01.25,0,.05,0,.11.02.18,0,0,.02-.17.03-.3ZM131.41,109.99c-.03.08-.04.13-.06.2.02,0,.12-.2.06-.2ZM147.94,27.58s0,0,0,0c0,0,.01,0,.02,0,0,0-.01,0-.02,0ZM200.96,49.28s0,0,0,0c-.03-.02-.08-.04-.13-.05.04.02.08.03.12.05ZM150.93,24.71c0-.91-.13,0,0,0h0ZM200.97,49.28s0,0-.01,0c-.12,0-.28-.02-.28-.11,0,.66.68.35.29.11ZM16.15,251.54c.02-.07-.17-.14-.79-.12.54-.02.75.04.79.12ZM58.33,167.51c.02.19.34-.39.05-.3.08,0,0,.2-.05.3ZM58.3,167.57s.01-.02.03-.06c0-.02,0-.05,0-.1-.01.05-.02.1-.03.15ZM55.03,162.49c-.01.1,0,.24.09.24,0-.09-.03-.16-.09-.24ZM3.33,251.42c.27-.02.39.08.43.21.08-.11.03-.25-.43-.21ZM131.42,110.84s0-.04-.02-.04c0,.03,0,.04,0,.06,0-.01,0-.02.02-.02ZM32.32,251.83c-.21.15-.67.16-.66-.41-.01.74.51.64.66.41ZM80.55,144.46s.07.04.05.12c.02-.16,0-.2-.05-.12ZM32.32,251.83c.2-.14.18-.4-.66-.41.68,0,.77.24.66.41ZM16.15,251.54c-.03.13-.76.28-.79-.12.05.52.88.28.79.12ZM141.06,23.5s-.06-.03-.12-.02c0,.04,0,.06,0,.09.02-.02.05-.04.11-.08ZM142.5,52.9c-.82,0-.09.27,0,0h0ZM48.07,280.55s0-.03-.01-.05c0,.02,0,.04.01.05h0ZM124.23,187.4c0,.14.14,0,0,0h0ZM141.56,48.97c-.03.08-.05.14-.07.2.03-.03.11-.2.07-.2ZM100.2,94.26s0-.04-.03-.04c-.01.05-.02.09-.03.12.01-.03.04-.05.06-.08ZM120.35,174.15c0,.14.2,0,0,0h0ZM80.55,144.46s0,0,0,0c0,.02-.03.04-.04.06.02-.03.03-.05.04-.06ZM100.17,94.4s-.05.04-.03-.05c-.02.05-.03.11-.03.17,0,0,.03-.05.06-.11ZM100.21,94.27s0-.01,0-.02c0,0,0,0,0,0,0,0,0,0,0,0ZM144.1,195.43s-.06-.07-.1-.08c0,.04.03.07.1.08ZM225.76,148.66c.14,0,0-.2,0,0h0ZM131.44,110.99c0-.05,0-.11,0-.15,0,0,0,0-.01,0,.01.03.02.08.02.15ZM131.57,210.64c0-.11-.03-.18-.05-.23.02.08.05.16.05.23ZM144.19,195.6c-.02.12-.15.16-.19-.25.01.14.02.28.03.42.03.08.07.16.14.22.07-.08.07-.25.02-.39ZM131.36,210.34s0,0,0,0c0,0,0,0,0,0,0,0,0,0,0,0ZM131.52,210.42s0-.03,0-.04c0,0-.01,0-.01,0,0,.01.02.03.02.04ZM131.36,210.34c.06-.01.1,0,.13.03-.05-.07-.1-.07-.13-.03ZM131.37,210.52s-.03-.1-.01-.17c-.03.04-.03.11.01.17ZM220.66,70.37c-.12-.07-.23-.1-.32-.1.14.06.26.09.32.1ZM226.37,67.72c-.04.11-.06.21-.07.3.04.04.21-.26.07-.3ZM225.76,68.13c.14,0,0-.14,0,0h0ZM2.1,285.47s.02-.24.04-.61c-.18.03-.2.23-.04.61ZM134.69,203.65s0,0,0,0c0,.13-.09.31-.17.4.09-.1.18-.27.18-.41ZM205.98,122.14c-.11-.03-.18-.09-.21-.19-.02.03-.04.08-.06.11.02.07.07.12.15.16.05,0,.09-.04.12-.08ZM205.98,122.14c.65.18,2.37-.75-.21-.39-.02.08-.02.14,0,.2.32-.49.37-.02.21.19ZM206.6,118.1c.07-.02.13-.05.13-.05-.04,0-.08,0-.12.02.03,0,.02.02,0,.03ZM206.49,118.12s0,0-.01,0c.04,0,.09-.01.11-.03-.04.01-.07.02-.1.02ZM144.19,195.6s0-.11-.06-.16c-.01,0-.03,0-.03,0,.04.04.07.1.09.16ZM173.01,62.68c-.04.08-.1.13-.21.13.01,0,.08-.06.18-.16,0,0-.01-.02-.02-.02-.07,0-.14,0-.2,0-.19.73.34.24.25.05ZM180.42,57.69s-.04-.03-.33.04c.27-.06.35-.06.33-.04ZM143.17,140.86c-.03-.07-.08-.13-.18-.15,0,.08.03.14.04.21.02,0,.05,0,.07.01.04-.03.06-.05.07-.08ZM134.39,204.12s0,0,0,0c-.04-.01-.06-.08-.04-.24-.1.1-.1.18.04.24ZM173.01,62.68s.02-.03.03-.05c-.01,0-.02,0-.03,0-.01,0-.02.01-.02.02,0,0,.02.02.03.03ZM143.18,140.95s-.06,0-.09-.01c0,0,0,0,0,0-.04,0-.05,0-.07-.01,0,.02.01.04.01.07.06.16.14.08.14-.04ZM131.97,148.46s.02-.07.03-.11c-.02.01-.03.04-.03.11ZM132.06,148.42s-.02-.1-.05-.08c0,0,0,0,0,0,.03-.02.07.03.05.07ZM180.42,57.69s-.33.13-.33.04c0,.09.31,0,.33-.04ZM140.03,186.43c.06,0,.1-.02.1-.05-.12,0-.13.03-.1.05ZM149.1,60.59s0,0,0,0c.06.36.13.7.19,1.05,0,.01,0,0,0-.01,0-.09-.17-.91-.2-1.03ZM149.3,61.62s0,.01,0,.01c0-.12-.08-1.03-.2-1.05,0,0,0,0,0,0,.08.02.2.89.2,1.03ZM166.54,140.65s-.06.03-.08.03c0,0,0,0,0,0,.02-.01.04-.02.08-.04ZM129.7,201.57s-.14-.04-.17-.31c.01.09.02.25.04.44.04.04.09.07.16.09.01-.08,0-.15-.02-.22ZM166.46,140.69c-.11.05-.05.06.18.02-.11.02-.15,0-.18-.02ZM154.67,149.78s-.1-.04-.06.1c-.03-.13.02-.13.06-.1ZM154.67,149.78s.05.1-.06.1c.12,0,.1-.07.06-.1ZM3.09,235.93c-.08-.03-.15-.14-.17-.41.03.41.11.47.17.41ZM118.52,285.67c.11,0,.21-.02.32-.03-.08,0-.18,0-.32.03ZM258.6,342.02c-.02-.07-.03-.13-.03-.13,0,.15,0,.31,0,.46,0-.15,0-.25.02-.33ZM245.94,343.6c.01-.07.04-.11.1-.11-.04-.03-.09,0-.1.11ZM246.18,343.51c-.06-.03-.11-.03-.15-.03.08.05.15.28-.09.29.27.01.36-.08.24-.26ZM258.6,342.02c.03.14.06.33-.02.33.1,0,.2-.05.29-.12.13-.2-.19-.56-.27-.2ZM111.45,290.64c.09-.01.21.17-.06.13.39.06.18-.17.06-.13ZM210.3,320.98s0,0,0,0c.02,0,.04,0,.06,0-.02,0-.05,0-.07,0ZM194.25,268.32c.1.13.18,0-.09-.18.24.16.18.28.09.18ZM111.45,290.64s-.06.04-.06.13c0-.08.03-.11.06-.13ZM257.17,250.94s.01.01.02.02c0-.02.01-.03.02-.05,0-.02-.01,0-.03.03ZM118.98,285.63s-.09,0-.14.01c.04,0,.06,0,.08,0,.03,0,.06-.02.06-.02ZM118.92,285.65c-.12.04-.4.11-.4.02,0,.23.67,0,.4-.02ZM195.79,272.62c0,.14.23.23,0,0h0ZM223.52,316.25s-.09.02-.13.02c0,.02.03.02.13-.02ZM132.26,288.6s0,0,0,0c0,0,0,0,0,0,0,0,0,0,0,0ZM122.01,254.45c.11-.02.46.13.15.07.49.11-.02-.1-.15-.07ZM225.14,311.4s-.02.02,0-.25c-.05.41-.02.37,0,.25ZM219.49,311.63s.01.04.02.06c-.01-.03-.02-.04-.03-.06-.03.02-.06.05-.04.13.79.26.24-.21.05-.14ZM225.14,311.4c.02-.06.04-.25,0-.25.02,0,0,.15,0,.25ZM3.09,235.93c.21.07.48-.52-.17-.41.28-.05.25.32.17.41ZM209.99,310.64c.07,0,.1,0,.12,0,0-.02-.07-.04-.25-.09,0,.05.07.08.14.09ZM114.46,278.09s.05-.16-.02-.16c.05,0,.04.1.02.16ZM276.86,213.47c-.1.24.37-.87,0,0h0ZM114.46,278.09s-.05.03-.02-.16c-.04.26,0,.24.02.16ZM210.36,320.98c.06.02.11.06.12.1.03.02.07.04.07.04.03-.03-.09-.12-.19-.14ZM257.17,250.94s-.02-.07-.02-.13c0,.09,0,.14,0,.17,0-.01.01-.02.02-.03ZM290.8,277.63c.27-.44.35-2.38-.03-2.87-.74-.95-.17-3.88-.17-5.26,0-1.41,0-2.82-.11-4.22-.1-1.39-.26-2.51-.21-3.96.02-.48.34-3.24.02-3.4-.18-.09-.26-.35-.32-.52-.46-1.47-.19-13.53-.6-13.53.2-1.36-.25-1.69-.28-2.81-.04-1.37.12-2.81.15-4.19.03-1.54.51-4.48-.1-5.75-.27-.55-.25-1.84-.21-2.54.05-.9-.06-1.64-.17-2.53-.1-.8.26-1.13.14-1.89-.14-.88-.32-1.76-.36-2.65-.08-1.64.2-3.77.39-5.51.18-1.61-.21-3.44-.33-5.12-.06-.88-.59-7.99-.44-7.99.49-1.47-.2-3.26-.07-4.76.07-.8-.25-1.69-.34-2.58.27,0,.36-1.69.35-1.89-.04-.82.16-1.09.92-1.64.86-.63.59-1.16.38-2.05-.18-.81-.22-1.98-.71-2.68-.25-.36.05-.88-.16-1.3-.64-1.28-.2-3.23-.33-4.62-.12-1.23-.27-2.22-.54-3.51-.38-1.87-.49-3.68-.63-5.57-.1-1.32.3-3.32-.97-4.15-.84-.56-3.04.1-4.25,0-1.48-.14-2.75-.74-4.47-.49,0-.97-6.5-.1-7.21-.49-.91-.51-3.43-.45-4.42-.12,0-.35-2.96-.29-3.21-.29-3.18-.06-5.8-.33-8.82-.12,0,.08-6.4-.21-7.28-.26-1.84-.1-3.68.11-5.52.12-1.18,0-2.14-.55-3.39-.4-.72.09-1.63.48-2.33-.02-.58-.41-1.93-1.8-2.26-2.44-.33-.62-1.69-3.52-2.46-3.52,0-1.29-1.79-1.69-1.8-2.97,0-.69-.04-1.32.54-1.59.33-.16.47-.53.55-.86.33-1.47.59-2.17.11-3.67-.52-1.61-1.44-2.9-2.09-4.38-.49-1.12,2.29-1.39,2.29-2.44.95,0,2.91-7.29,2.35-7.91-.85-.93.35-5.33,1.55-5.97.75-.39,1.6.1,2.42.21,0-.4,1.21-.55,1.47-.7,1.38-.79,4.15-2.41,4.71-4.18.47-1.46.68-2.62.94-4.17.27-1.66.45-2.82.21-4.64-.17-1.29-.61-2.48-.88-3.66-.85-3.86-2.84-7.3-3.74-11.09-.08-.33-.2-1.11-.68-1.11-.07-.75-.14-1.49-.2-2.24-.42-1.27-.4-1.23.15-2.28.76-1.48,1.06-2.86,2.14-4.14.77-.91.27-4.55-1.06-5-1.44-.48-1.94-3.66-2.41-4.88-1.08-2.85-3.8-4.72-5.2-7.37-1.46-2.76-.95-5.51-1.09-8.48-.32-6.71-8.45-8.29-11.58-13.16-1.28-1.98-2.6-3.6-4.91-4.36-2.79-.92-5.86-.8-8.58-1.98-3.02-1.31-5.48-3.61-8.48-4.96-1.46-.65-4.24-.53-5.25-1.9.87-.37,2.53-1.07,3.05-1.62.59-.63.8-.33.89-1.3.05-.48.05-1.11.29-1.56.81-1.51-.41-2.89-.81-4.47-.36-1.42-.85-2.54-1.26-3.95-.39-1.36-1.4-2.32-1.94-3.61-.57-1.35-1.31-3.29-2.23-4.41-.47-.58-.62-1.43-1.08-2.24-.4-.72-.32-1.74-.92-2.35-.34-.35-.78-.34-1.19-.92-.34-.49-.84-.94-1.09-1.49-.19-.42-.35-.81-.81-.99-.3-.12-.61-.22-.91-.36-.19-.09-.41-.21-.62-.23-.21-.02-.34.08-.55.14-.02,0-.11-.49-.11-.53-.14-1.04-.08-2.1-.27-3.14-.08-.44-.2-.91-.49-1.26-.33-.39-.87-.59-1.35-.73-.61-.18-1.31-.34-1.95-.22-.52.1-.98.01-1.49-.1-1.42-.31-3.1.34-4.34-.54-.42-.3-1.63-1.13-2.16-1.33-.7-.27-1.62-.31-2.22-.82-.85-.74-2.19-1.2-3.25-1.43-1.66-.36-3.41-.16-5.06-.52-.73-.16-3.24-.4-3.7,0-1.1.96-2.84.26-3.87,1.61-.93,1.21-1.48,2.88-1.55,4.31-.12,2.37-3.4,3.2-4.77,4.78-.73.84-1.83,1.46-2.4,2.41-.35.59-.33.87-.82,1.36-.37.37-.77.9-.77,1.46-.43.81-.56,1.78-.9,2.63-.41,1.05-1,.9-1.81,1.54-.99.78-1.85,2.6-1.16,3.84.53.95.93,3.22,1.03,4.31.05.61-.18,1.2-.27,1.81-.26,1.68-.47,3.39-.56,5.08-.02.37-.5,1.06-.6,1.54-.2.96-.32,1.94-.39,2.92-.07.87-.54,1.8-.27,2.66.17.54,1.93,1.95,1.46,2.42,0,.97-6.32,1.61-7.18,2.11-.9.52-1.56,1.02-2.13,1.84-.7,1.01-1.86,1.57-2.42,2.62-.45.84-2.74,1.63-3.62,2.03-2.17.99-4.06,1.92-5.95,3.43-.75.6-1.25,1.58-2.19,1.94-.84.32-1.72,1-2.41,1.67-1.2,1.16-2.69,1.67-3.47,3.43-.58,1.32-1.54,2.46-2.24,3.81-1.36,2.63-2.94,5.44-3.68,8.32-.87,3.41-4.92,4.29-7.12,6.57-.8.83-1.52,1.74-2.19,2.67-.53.73-.69,1.75-1.27,2.41-1.32,1.48-2.3,3.23-1.37,5.13,1.03,2.1.39,7.01,3.2,7.48-.6,2.71-1.27,4.66-1.47,7.38-.18,2.48-1.08,5.84-.36,8.27.64,2.15,1.44,5.22,3.31,7.08,1.16,1.16,1.91,2.72,3.09,3.91,1,1.01,1.99,2.92,2.59,4.15,1.4,2.85,3.21,5.38,4.79,7.99,1.44,2.38,3.2,5.1,3.13,8.01-.06,2.5-1.2,4.6-1.4,7.01-.11,1.34-.12,2.7-.19,4.05-.04.8-.37,2.15-.11,2.85.29.78.96,3.44.09,3.73-1.48-.22-3.56.09-4.85-.17-.39-.08-1.77-.23-2.54,0-1.4.41-3.22.16-4.67.17-3.24.02-6.51.16-9.75-.2v.2c-.69.09-1.41-.41-2.09-.46-.85-.06-1.69.08-2.53.04-1.06-.06-1.88-.19-2.92.01.34-1.01,1.29-1.62,1.63-2.65.22-.67.5-1.32.81-1.95.47-.97,1.1-1.91,1.67-2.85.74-1.21,1.17-2.28,1.65-3.67.45-1.29,1.17-2.32,1.61-3.56.37-1.04,1.76-1.85,1.9-2.94.12-.98-1.31-3.03-2.34-3.37,0-1.19-2.62-2.03-3.52-2.07-1.03-.04-2.17.54-3.14.82-2.43.7-3.09,4.39-4.34,6.38-1.48,2.35-2.62,5.07-3.77,7.72-.49,1.14-1.05,2.15-1.42,3.42-.31,1.06-1.42,2.32-1.46,3.33-.13,2.74-4.57-.72-4.57,2.02-.38,0-.52-.2-.41-.61-.82.41-2.49.2-3.47.2.45-1.25.9-2.52,1.47-3.72.26-.55.43-1.02.66-1.58.3-.75.84-.97,1.22-1.71,1.18-2.29,2.46-4.47,3.25-7.12.16-.55.36-2.3.72-2.7.42-.47,1.16-1.41,1.24-2.14.57-.07,1.01-.38,1.03-.98.14-2.75-2.22-5.01-4.67-5.5-2.09-.42-4.94-.36-5.91,1.85-1.14,2.58-2.57,4.97-3.86,7.5-1.38,2.72-2.45,5.27-4.24,7.65-.96,1.27-1.81,3.19-2.4,4.63-.31.75-.81,1.41-1.05,2.2-.15.48-.13.38-.55.59-.27.13-.53.36-.72.6-.28.35-.31,1.13-.78,1.33-.37.16-.91-.01-.91-.49-1.2.17-1.89-.12-3.1-.08-1.44.05-4.68-1.36-4.24,1.3-1.51-.38-2.14,2.44-2.56,3.63-.8,2.27-2.26,3.89-3.25,6.01-.27.58-.45,1.9-.87,2.26-.58.5-.86,1.53-1.12,2.22-.45,1.21-1.04,2.15-1.55,3.41-.88,2.18-2.14,4.29-3.21,6.47-.67,1.37-2.33,3.13-2.33,4.74-.68,0-1.98,3.96-2.5,4.48-.54.54-1.38,1.65-1.38,2.45-.7.35-1.09,1.54-1.31,2.22-.45,1.39-1.89,2.78-2.29,4.31-.5,1.88-2.03,3.59-2.79,5.29-1.25,2.81-2.54,5.46-3.96,8.15-1.11,2.11-2.17,4.17-3.51,6.16-.62.92-.93,1.87-1.48,2.78-.41.68-.08.76-.87.9-.43.08-.75.31-.93.7-1.22,2.59.31,5.95-.59,8.64h.41c-.26,1.59-.28,3.18-.52,4.61-.08.47.07,1.51-.09,1.51,0,.88-.18,1.97.06,2.82.09.33.89,3.09.96,3.09.17.71-.61,2.18-.61,3.26.21-.16.2-.25.41-.41.19.38-.85,1.63-.2,1.63-.03-.2-.02-.39.06-.56.53.11-.01,5.44,0,6.04.03.99.52,1.61.46,2.76-.01.27-.24,1.55.29,1.55.09.48-.49,1.01-.26,1.49.28.59.35,2.09.3,3.03-.04.73.17,2.94.05,3.14-.1.15.54,2.36.55,2.85.04,1.05-.02,2.1-.02,3.15-.14-.07-.27-.13-.41-.2v.82c.26-.17.3-.41.61-.41.01.48-.1,2.61-.16,3.67.05,0,.09-.01.16,0-.1.24.17,2.04.16,2.65-.01.51-.05,1.07.07,1.57.11.45-.15.77-.02,1.28h.2c-.26,1.81.24,2.82.35,4.57.13,2.08-.21,4.18-.02,6.26.02.21.02.6.2.76.19.17-.29.76-.17,1.1.23.64-.3,2.3.14,2.85.97,1.2-.42,3.84.29,5.27.5,1.01-.03,3.13.02,4.3.06,1.17.2,2.33.25,3.5.04.82-.26,1.23-.32,1.93-.16,1.79.28,3.68.25,5.5-.02,1.24-.04,2.48.04,3.72.03.59-.11,1.55,0,2.04h.2c-.56,1.69-.3,4.77.34,6.37.27.68.8,1.7,1.08,1.98.51.52,2.08.01,2.86.2v-.2c.46.07,1.63.51,1.63-.2-.23-.09-.82-.02-.82-.41.4,0,1.84-.05,1.84.61.37,0,1.11-.33,1.43-.2v.2c.38-.02,1.22-.09,1.22-.61-.6-.39-1.96.2-2.65.2,0-.67,2.86-.78,3.59-.86.58-.07.81-.65,1.22-.1.25.33.5-.09.99.5.29.3.6.59.92.87.87-.1.99-.63.93-1.39-.07-.86.37-1.35.67-2.1.58-1.44,1.79-2.67,2.68-3.86,1.83-2.44,2.36-5.72,4.58-8.08.89-.94.05-2.37-.23-3.62-.23-1,.12-2.03-.04-3.01-.23-1.44-.12-2.97-.06-4.42.04-.87-.29-.94-.49-1.77-.6-2.51-.42-5.16-.78-7.71-.2-1.39-.23-2.54-.15-4.04.06-1.07-.4-2.22-.47-3.37-.13-2.26-.13-4.69-.29-6.68-.07-.84,0-10.3-.22-10.3.14-1.29.07-2.9-.01-4.06-.1-1.42-.22-2.83-.36-4.24-.12-1.18-.52-2.4-.24-3.52-.21,0-.46-2.94-.41-3.26h.21c-.21-1.9.31-4.09.19-5.93-.18-2.72-.12-5.22-.39-7.93,1.01,0,2.34-.26,3.26.2v-.2c.83.06,2.52.74,3.26.2,1.11,2.95-.2,6.03.45,9.11.57,2.67.34,5.8.37,8.58.02,2.46.61,4.67.71,7.1.03.67-.07,1.89.39,2.46.05.07-.37,1.27-.37,1.55,0,.43.07,1.35.19,1.87.09.39-.05,1.59.22,2.04.48.79.16,2.45.28,3.49.1.86.25,1.76.18,2.63-.07.86-1.25,1.24-1.25,2.17,1.94-.26.84-.04,1.91,1.1.33.35,1.76,1.87,1.76.53.37.45,1.33.06,1.68-.21.55-.42,1.21.12,1.86-.05.71-.18,1.79.08,2.48.3.8.25,2.14-.2,2.83.35.49.39.79-.11,1.23.36.23.25,1.63-.14,1.94-.14-.14-.55-.52-.81-1.02-1.02.07-.41.14-.82.2-1.22.34,0,.59-1.12.65-1.35.33-1.22.86-2.72,1.59-3.66.99-1.29,1.48-3.47,2.05-4.98,1.42-.38,1.1-2.43.9-3.48-.36-1.85-.75-3.39-.8-5.31-.07-2.47-.07-4.94-.04-7.41.05-4.66.12-9.32-.2-13.97,2.36,0,4.76.4,7.11.2,1.44-.13,3.02-.45,4.46-.25,1.19.17,2.29.31,3.54.26.83-.03,1.65-.21,2.49-.21.58,0,1.22.33,1.77.2,0-.94,7.15.12,7.95,0v-.2c1.74.44,3.06.03,4.66.14,1.58.11,3.38.5,4.91.48.52,0,5.11-.42,5.11.19.98-.33,3.71-.49,4.69,0v-.2c1.84.26,3.68.47,5.52.7.12.02,1.82.17,1.82.32.57.14.56-.18,1.01.03.27.12.61.14.91.15,3.7.18,7.04-.44,10.3.01.12-.29,2.12-.19,2.39.04,1.11.94.93,1.62,1.36,2.85.56,1.62.49,3.07.68,4.73.19,1.61.89,3.28.89,4.89,0,1.47.38,2.27.01,3.67-.29,1.11-.81,2.3-1.85,2.99,0,1.4-2.74,1.89-3.06,2.85-.14-.07-.27-.13-.41-.2,0,1.69-2.86,2.33-4,2.57-1.54.33-3.56,1.44-4.59,2.64-.47.54-.94,1.22-1.35,1.8-.4.56-1.07.61-1.36,1.32-.28.71-.83,2.5-.32,2.88.2-.42.86-2.45,1.02-2.45,0,1.07-.41,2.2-.41,3.06-.36.19-.64-.14-.82-.2,0,2.46-1.81,5.35-.11,7.6,1.71,2.27,5.67,3.4,8.27,4.26,2.88.95,6.01,1.44,8.89.24.58-.24,4.37-2.51,4.98-2.31.31.1,1.07-.46,1.52-.51,1.18-.13.9-.33,1.75-.92.57-.4,1.4-.7,2.05-.98.62-.27,1.88-.6,2.21-1.26,1.01,0,2.27-.52,3.06-1.13.43-.33.67-.78,1.2-1,.58-.24,1.06-.05,1.48-.62.62-.83,1.76-.73,2.58-1.45,1.52-1.33,3.6-2.55,4.29-4.48.66-1.83,2.06-3.4.83-5.42-.46-.75-1.08-1.38-1.59-2.14-.56-.84-1.5-.7-2.36-1.25-1.03-.66-1.54-.88-2.07-1.98-.34-.7-1.02-1.97-.43-2.71.71-.9,1.18-1.96,1.06-3.19-.07-.71-.73-1.43-.94-2.19-.17-.63-1.28-2.93-2.01-2.95.18,0,.42-4.07.37-4.39-.24-1.4-.4-2.67-.4-4.1s1.46-.87,2.37-.72c1.54.26,3.06-.48,4.36-.05v-.2c2.51.23,4.62.39,7.16.47,1.78.06,3.57.38,5.34.4.27,0,1.36-.82,1.36-.05.44.07,1.01-.06,1.43-.2v.2c1.41-.19,2.96.11,4.49.2v-.2c.34.07.68.14,1.02.2v-.2c2.03-.24,3.93.29,5.73.59,2.15.35,4.23.5,6.36.56,3.87.11,8.19.92,12.26,1.09.12,0,.71,3.86,1.15,4.39.24.28.56,1.67.57,1.98.08,2.28.5,4.59.84,6.84.17,1.13.33,2.27.61,3.38.38,1.54,1.65,2.73,1.69,4.41.03,1.49-.94,2.91-.99,4.47-.02.72-.16,2.2.23,3.05-.07-.1-.15-.18-.31-.18.07.33.03.81.36,1.03.72.46.32.98.18,1.83-.14.87-.66,1.3-.9,2.17-.36,1.31-.86,2.66-1.07,4.15.92,0-.41,3.14-.58,3.52-.74,1.62-2.76,2.16-4.01,3.29-3.98,3.62,1.34,8.74,4.07,11.21,1.25,1.13,1.95,2.19,3.62,2.74,1.3.43,2.75,2.69,4.03,2.69.41.61,1.45,1.63,2.24,1.63.59.88,1.08.93,1.85,1.32,1.68.85,3.44,2.27,5.03,3.39.71.5,1.57,1.11,2.36,1.47.96.45,1.53.19,2.27.12.61-.05,2.34-.15,3.04-.77.69-.6,2.28-1.23,3.22-1.51,1.4-.42,2.53-1.32,3.88-1.81,1.1-.41,1.77-1.28,2.73-1.91.68-.45,1.02-.22,1.15-1.07.05-.38.16-.74.34-1.07.74-.37.57-1.64.85-2.17.34-.64.32-.96.17-1.71.32,0,.27-2,.2-2.45-.36,0-.48-.8-.53-1.02-.12-.56-.35-.44-.75-.83-.36-.35-.85-.35-.98-.91-.07-.3,0-.8-.26-1.02-.37-.31-1.15-.79-1.46-1.26-.24-.35-.35-.95-.53-1.34-.21-.44-.67-.66-.78-1.08-.29-1.11-2.1-.28-2.22-1.81-.06-.78.2-1.01-.57-1.38-.48-.24-1.01-.53-1.27-1.03-.29-.56-.95-1.4-1.37-1.81-.76-.76-.99-1.77-1.48-2.69-.26-.49-.62-1.75-.97-2.09-.44-.43-1.71-1.49-1.74-2.12-.04-.88-.11-1.76-.11-2.64,0-.92.48-1.61.17-2.47-.17-.47.39-1.34.4-1.93.02-2.11-.12-4.56-.13-6.86,0-1.95.33-3.46,1.03-5.34.58-1.56,2.11-3.61,2.11-5.23.06,0,1.15-3.29,1.02-3.67.22,0,1.03-3.46,1.14-3.92.36-1.51,1.45-.27,2.38-.74,1.07-.54,1.47.24,2.46.22,1.31-.04,2.47.19,3.85-.11.8-.17,1.78.14,2.29-.19.08-.05,1.79.01,1.7-.06.65.56,3.01-.03,4.01-.04,2.28-.02,2.2,1.58,2.27,3.56.05,1.33.05,3.81.62,4.87.6,1.13.21,3.23.17,4.45-.04,1.51-.21,3.08-.02,4.58.65,5.21.8,10.93,1.31,16.44.17,1.79-.34,4.55.32,5.92.39.8.04,2.87-.06,3.97-.24,2.8,1,5.33.98,8.1-.01,1.48-.04,2.97-.05,4.45-.02,2.7.15,5.4.13,8.04-.01,1.93.1,3.87.33,5.79.06.53.09,1.14.3,1.63.24.57-.15,1.25-.08,1.88.37,3.18.58,6.41.78,9.61.07,1.28-.53,4.42.96,5.26,1.12.62,1.06-.29,2.12-.22.25.02,1.77-.3,1.74-.11,0-.05,2.34-.77,2.34-.18.76.03,1.46-.23,2.24-.2v.2c.25-.05,1.02.03,1.02-.41.57-.17.89.25,1.43.2v-.2c.23-.03.81,0,.92-.01.57-.05-.04-.29.95-.19.72.07.94.53,1.39,1.22.96-.16,1.36-.29,1.95-1.16.49-.72.51-2,.98-2.57,2.33-2.84,2.57-6.85,4.1-10.04.35-.73,1.45-4.37,2.15-4.37.19-.68-.4-1.75-.59-2.39-.23-.85.43-1.84.08-2.61-.09-.19-.46-1.93-.11-1.93-.09-1.88-.16-3.77-.19-5.65-.03-1.58-.67-3.6-.42-5.15h.2c.04-1.96-1.06-4.21-.61-6.12h.2c-.34-2.38-.34-4.84-.63-7.25-.14-1.13-.58-2.19-.61-3.26-.03-1.45-.14-2.89-.18-4.34-.02-.8-.37-1.91-.22-2.68h.2c.13-.57-.23-1.7-.2-1.84h.2c-.23-2.46-.37-4.43-.36-7.02,0-1.93-.96-4.18-.66-6.23h.2c-.07-.61-.14-1.22-.2-1.84h.2c-.53-3.15.09-6.39-.41-9.38h.2c-.27-2.19-.39-4.77-.08-7.1.17-1.32-.25-2.99-.35-4.31-.07-.96-.03-2.05-.25-2.99-.12-.51-.45-1.17-.33-1.71.8,0,2.54-5.11,2.71-5.69.18-.63.18-2.67,1.16-2.67.36-1.09.37-2.61,1.22-3.47.46,1.22.35,2.82.45,4.1.08.96-.11,3,.51,3.81.09.12-.06,2.53-.06,2.82.02,1.57.01,3.13,0,4.69,0,1.75-.05,14.54.78,14.54.15.51-.41,1.78-.14,2.08.22.24.21.81.23,1.1.13,1.68.08,3.38.02,5.06-.02.8-.02,6.24.49,6.24-.34,1.03-1.38,1.77-.96,3.26.02,0,.32,2.8.34,2.97.46,3.65,1.08,7.2,1.08,10.89.67,2.01,1.39,2.3,3.46,2.22,1.95-.07,3.05-.89,4.84-.59v-.2c.2.06,1.43.14,1.43-.41.62.21,1.27.38,1.91.47.98.14,2.51-.15,2.76-1.3.19-.84-.48-1.67-.21-2.44.18-.53.45-1.24.71-1.72.69-1.26,1.82-2.3,2.3-3.66.37-1.07,1.42-2.17,1.87-3.37.35-.94,1.16-1.92.71-3.05-.52-1.3-.77-1.15.08-2.56ZM226.37,67.72c.67,0,.84.44.61,1.02-.55,0-.74-.3-.68-.72-.02-.02,0-.09.07-.3ZM225.76,68.08v-.36c.2,0,.41.2.41.41h-.41v-.05ZM219.38,68.43c.9,0,2.75.36,3.66,1.26.6.59,1.98,3.03,2.76,3.16.97.16,1.06.26,2.01.67.63.27,1.08,2.01,1.4,2.76-.87-.52-3.79-3.77-4.45-3.31-.03.02-2.21-1.67-2.7-1.81-.75-.2-1.55.4-1.41-.8-.29-.03-.45-.01-.54.02.11.04.45.12.53.03-.12.52-.86.1-.53-.03-.01,0-.03,0-.03-.01.07-.07.16-.11.25-.11-1.1-.42-4.16-2.06-4.16-2.55,1.05.17,2.36.71,3.21.71ZM206.48,118.13s-.02,0-.03,0c.01,0,.03,0,.04,0,.04-.02.07-.04.11-.05-.03,0-.09,0-.21.01,1.8-.26,3.22-1.85,5.03-2.17,1.13-.2,1.84-.61,2.9-.6.74,0,1.78.22,2.47.13v-.2c.11.03,1.71.2,1.95.04.67-.47,1.55,0,2.39-.19,2.19-.49,3.2,1.89,4.98,2.85,1.11.59,1.9,1.67,2.67,2.63.34.43.86,1.02.86,1.61.53.14.91.62,1.25,1.02.64.77,3.24,2.28,3.24,3.27-.53.4-1.27-.14-1.52-.61-.31-.59-.7-.63-1.2-1.16-.85-.92-1.63-2.25-2.72-2.92-1.25-.77-2.14-2.05-3.45-2.68-1.51-.72-2.37-.89-4.04-.95-3.02-.12-5.76-.72-8.81-.53-.48.03-1.26.04-1.61.44-.37.42-.89.16-1.51.27-1.13.19-2.24.23-3.28.6,0-.23.25-.61.5-.77ZM205.71,122.06c-.02-.08,0-.18.07-.31,3.49-.5,6.95-1.42,10.5-1.12,1.52.13,4.29-.29,5.65.42,3.02,1.57,5.4,4.1,7.88,6.61,1.07,1.08-.43,3.45-1.05,4.47-.8,1.32-.33,3.57-.51,5.06-.1.83-.36,1.75-.67,2.55-.47,1.25-.76,1.82-1.5,2.83-.43.59-.83.7-1.32,1.27-.67.78-.62.23-1.35.74-.5.35-2.36,1.52-2.36.22-.39-.4-3.9,2.13-4.37,2.52-1.02.83-1.49,2.13-2.45,3.01-1.14,1.05-2.22,2.18-3.56,2.98-.89.53-1.68,1.57-2.66,1.9-.42,0-2.14,1.1-2.54,1.48-.7.64-1.92.63-2.55,1.58-.89.22-2.02,1.01-2.73,1.52-1.76,1.27-4.03,3.17-6.1,3.69-2.05.51-3.9,2.13-6.05,2.13-.58,1.15-3.72,1.49-4.94,1.79-.82.21-2.25.26-2.52,1.26-.31,1.14,1.22,1.97,2.14,2.07-.02.65-.62,1.09-.86,1.65-.29.68-.36,1.44-.64,2.13-.53,1.34-1.41,2.53-2.6,3.36-2.02,1.42-4.91.84-5.74,3.7-.91,3.1-1.33,6.11-3.18,8.89-.71,1.07-1.7,1.88-2.07,3.14-.17.56-.36,1.63-1.04,1.83-.85.24-.96-1.43-2.28-.62-.93.57-1.77,1.4-2.64,2.06-1.09.82-5.91,1.67-5.57,3.4.33,1.72,2.75,1.39,3.44.81,1.21-1.03,3.07-.93,4.45-1.62,0,.97-3.35,1.83-3.87,2.86-.4.17-.45-.25-.82-.2,0,.46-.73.62-1.04.66-1.11.13-2.21-.63-3.2-1.02-1.06-.42-2.3-.03-3.43-.32-.88-.23-1.22-.72-.31-1.25.46-.27.94-.35,1.14-.88.27-.7.77-.08.98-.8.18-.63.38-1.08.73-1.68.11-.19,1.73-.27,2.06-.35,2.17-.56,3.71-.61,5.31-2.36.8-.88,2.99-3.84.83-4.59-1.59-.55-2.74,1.31-3.56,2.3-.63.77-1.39,1.59-2.41,1.8-.47.1-1.83.61-2.22.27-.62-.54-.75-3-2.01-3,1-1.19,2.5-1.81,3.83-2.54.98-.55,2.63-1.13,3.35-1.97,1.53-1.78-1.63-2.78-2.16-2.02-.63.9-3.25,2.09-4.31,2.45-.84.28-1.52,1.23-2.55,1.23-.95.45-1.44,1.27-2.32,1.78-.7.4-.96,1-1.61,1.45-.69.48-1.37,1.01-1.97,1.6-.61.6-1.56-.22-2.42.37-.11.07-2.02-.8-2.23-.93-.21-.13-.67-.1-.92-.13-.44-.06-.89-.13-1.33-.2-.91-.14-1.82-.28-2.71.02-.82.27-1.61.66-2.43.93-.87.29-.96,1.43-2.04,1.02-.43-2.26-.91-3.71,1.02-5.1,0-.86,3.06-1.1,3.53-1.01,1.14.22,2.26.68,3.4.8,0,.49.79.2.89.31.21.23,3,2.48,3.01,2.46-.58.59-.23.64-.23,1.1,1.96-.65.85-4.32,2.74-5.19,1.62-.75,3.02-1.82,4.39-2.96,1.09-.9,3.03-1.66,3.75-2.88.72-1.2,3.9-5.81.27-5.12-1.27.24-2.32,3.12-3.4,3.93-.88-1.81,1.32-3.77,2.42-4.86.86-.84.62-1.47,1.96-1.68,1.46-.23,2.93-.32,4.41-.34,1.17-.02,3.36.53,4.36-.26.32-.25.8-1.4,1.04-1.79.51-.82.37-1.71,1.07-2.27.78-.62,1.17-1.15,1.76-1.94.27-.36.63-.72,1.12-.72.35-.53.8-.98,1.25-1.42.78-.75,1.63-1.45,2.25-2.34,1.03-1.48,2.57-2.48,3.58-4.01.41-.62,1.01-1.24,1.7-1.69.73-.47,1.38-1.54,2.03-2.27.63-.7,1.44-.86,2.04-1.72.45-.66.82-1.4,1.4-1.96.48-.47,1.29-1.02,1.9-1.32.75-.37.91-1.11,1.5-1.54.91-.67,1.11-1.9,1.97-2.55.71-.54,1.04-1.56,1.15-2.41.16-1.24,1.78-2.47,2.04-3.78.11-.56.73-1.67,1.26-1.94.24-1.1.76-2.08,1.15-3.13.3-.83.69.15.69-1.16.61-.74,1.44-1.37,1.94-2.18.22-.35.6-.29.88-.64.25-.31.49-.77.85-.91.26-.11,1.43-.6,1.43-.96.98-.66,1.85-1.54,2.85-2.45.61-.91,1.58-.73,2.13-1.5.55-.77,1.33-1.35,1.74-2.22.05-.11.09-.18.14-.25ZM226.17,148.66h-.41v-.61c.33-.07.47.14.41.61ZM150.59,196.88c-.45.7-.84,1.45-1.58,1.95-.56.37-1.19.54-1.77.84-.4.21-.7.56-1.17.62-.74.09-1.71-.69-1.78-1.44-.11-1.01-.17-2.05-.25-3.07-.05-.12-.07-.26-.03-.42.06.02.1.05.13.08.45.06,1.99-.32,2.2-.45.61-.37,1.13-.88,1.72-1.28.65-.45,1.41-.67,1.92-1.31.45,1.51,1.6,2.96.62,4.48ZM131.44,197.77c.25-1.17,1.06-1.57,1.58-2.53.17-.3.79-.48,1.09-.62,0,0,.02,0,.03-.01.95-.42,1.87-.74,2.86-.4,1.06.36,2.16.51,3.18.99.66.31,1.24,1.26,1.18,2.03-.09,1.15-.3,2.18-.56,3.28-.55-.1-1.35-.67-1.9-.26,0-.2-1.56.15-1.67.18-.76.21-1.07.32-1.89.46-.76.13-1.39.78-2.12.85-.87.08-1.26-1.12-1.54-1.71-.45-.96-.51-1.08-.25-2.25ZM131.57,210.64c-.82-.21-1.02-1.11-1.02-1.84.39.25.81.94.96,1.57.05.04.08.12.06.27ZM132.67,206.36c.28-1.14,1.46-1.71,1.75-2.85-.04.16-.06.28-.07.38.07-.07.19-.15.33-.23,0-.05-.01-.09-.04-.12.03.03.05.07.05.12.72-.39,2.16-.87,2.27-.96.97-.87,3.6-.62,4.33.46.22.33.34.61.41.99.05.28-.14.56.27.6-.14.81.02,2.06-.98,2.35-.97.29-2.39-.08-3.4-.08-.54,0-1.15-.04-1.67.09-.73.19-1.64,1.73-2.26,1.56-.7-.19-1.13-1.71-.97-2.31ZM134.27,211.39s0-.02.02-.03c.37-.77.74-1.48,1.53-1.9.72-.38,1.59-.47,2.39-.55.47-.04.93-.08,1.4-.07.5.02,1,.28,1.47.29.42.01.43-.21.86.07.24.16.57.49.7.76.38.78.25,1.64.13,2.46-.18,1.3-.4,2.66-1.64,3.31-.74.39-5.28,2.1-5.28.21,0,.22-.99-.7-1.03-.75-.43-.56-.8-1.23-.98-1.92-.23-.85.09-1.18.44-1.89ZM129.65,201.4c.88.89.49,2,.49,3.13-.35,0-.49-1.88-.57-2.82-.08-.09-.1-.23-.04-.44.1.09.14.2.17.31.02-.02.02-.09-.05-.18ZM149.1,60.59c2.46,0,2.36,4.19,2.8,5.72.38,1.33.89,2.62,1.33,3.93.84,2.5,1.77,4.91,2.98,7.21.82,1.55,1.68,3.07,2.36,4.59.39.86,1.74,2.05,1.74,3.03.56,0,.83,2.49.95,2.89.12.39.34,1.19.88,1.19.17.91.08,1.96-.61,2.65-.71-2.14-2.85-3.43-2.85-5.71-1.5-.74-1.94-3.39-2.54-4.71-.46-1-.93-2.35-.93-3.44-.77.01-.79-.74-1.04-1.29-.38-.85-.79-1.71-1.03-2.61-.1-.4.14-.69-.04-1.06,0,0-.14.34-.33.27.06-.36.4-1.63-.2-1.63.04.19-.03.33-.2.41,0-1.18-.61-2.1-.61-3.26-.36.31-.25.61-.82.61-.11-.41.03-.61.41-.61-.14-.61-.27-1.22-.41-1.83-.21.16-.2.25-.41.41-.37-1.9-.86-3.72-1.23-5.68-.02-.05-.08-.33-.19-1.05,0,0,0,0,0,0,0,0,0,0,0,0ZM174.69,150.29c-2.15.04-4.14.12-6.25.58-1,.22-3.96,1.02-4.6-.26-.58-1.17,1.68-2.1,2.42-2.29,1.88-.48,3.83-.47,5.72-.84,1.6-.31,3.15-.85,4.77-1.1.96-.15,4.59-.81,5.17.24-1.67.53-2.92,2.87-4.28,3.88.22-.16-2.81-.22-2.95-.21ZM138.91,181.64c1.23-2.1,3.5-2.41,5.58-1.4,2.44,1.18,1.69,2.75-.15,4.11-1.24.92-2.51,1.59-2.79,3.26-.32,0-1.5-1-1.43-1.23,0,.08-.08.07-.1.05-.33.05-1.3-.05.1-.05-2.82,0-2.14-3.17-1.22-4.74ZM145.33,176.96c-2.66-.86-5.6.51-7.76,1.93-1.33-1.73-.08-8.48-2.33-9.22.07.2,0,.27-.2.2,0-.89-1.47-3.26.41-3.26-.21,0,0-.04,0,0,0-.71,25.13.06,27.59-.07-.63,1.16-1.15,2.37-2.02,3.38-.94,1.1-1.62.98-2.98,1-3.03.05-5.5-1.08-7.94,1.16-1.03.95-1.96,2.05-2.65,3.27-.62,1.09-.66,2.08-2.12,1.61ZM154.75,148.86c.3,0,1.9,1.12,1.9,1.64-.46-.16-1.22-.12-1.22-.82-.26.1-.54.16-.82.2-.04-.17-.45-1.03.14-1.03ZM162.31,146.89c-.33.46-.84.82-1.39.96-.6.59-1.15-.69-1.43-1.02,0-1.52,2.76-2.3,3.54-3.29.59-.74,2.56-2.58,3.41-2.86-.09-.14.39-.6.18.03.27-.8,1.1-1.05,1.83-1.22.04,0,.2.92.21,1.03-.05-.05-.14-.12-.19-.16-.11,1.54.13,1.92-1.32,2.9-1.17.79-2.07,1.93-3.31,2.64-.7.41-1.08.34-1.54.98ZM180.27,62.32c-.57,1.49-2.01,3.13-2.01,4.8-.14-.07-.27-.14-.41-.2-.23,1.65-1.43,2.66-1.73,4.18-.16.81-.68,3.57-1.73,3.57.21,1.64-1.11,3.46-1.81,4.9-.42.85-3.53,6.89-3.85,7.72-.21.56-3.82,8.78-4.06,9.29-.87,1.87-3.29,8.72-3.93,10.94-.57,1.99-1.89,6.34-3.69,18.07.08-.6.06-9.76.71-10.08,0-.41-.21-2.8.9-6.29.26-.82,2.32-8.69,2.65-9.55.57-1.48,2-5.76,2.65-7.38.15-.38,1.16-3.6,1.7-3.6.03-.42,2.31-5.2,2.64-5.5.55-.52.67-1.26,1.09-2.02.34-.61-.02-.61.55-1.08.44-.36.77-.85,1.03-1.36.47-.93.72-1.79,1.23-2.57.43-.66.39-2.18.93-2.57.51-.36.6-1.43.72-1.98.49-2.29,1.4-4.31,2.45-6.46.74-1.5,1.57-2.8,1.94-4.41.24-1.02,1.85-1.99,1.85-3,.6-.14,1.01-.54,1.63-.61-.08,1.69-.85,3.63-1.45,5.19ZM171.32,68.95c-.73,0-.6,1.69-.74,2.14-.36,1.18-1.3,2.41-1.7,3.68-.2.63-.11,1.06-.5,1.52-.32.38-.54.86-.76,1.3-.44.9-.84,1.84-1.12,2.8-.2.67-.85,2-1.29,2.62-.36.51-.87,2.65-1.65,2.65-.12-.94-.19-1.43-.64-2.24-.53-.95-1.39-1.72-1.74-2.74-.39-1.13-1.16-1.88-1.58-3-.31-.82-1.31-1.45-1.38-2.22-.18-1.83-1.89-3.71-2.34-5.59-.4-1.67-1.07-2.7-1.28-4.61.43.14.99.17,1.32.19.37.03,1.58-.22,2.17,0,1.77.65,3.58-.14,5.27.42.45-1.34,3.38-.57,4.51-.91.69-.21,2.26-.39,2.62-1.12.82,0,2.01-.3,2.24-1.22.1-.02.16-.01.2,0,.02,0,.03,0,.05,0,.35-.34,1.04-1.02,1.38-1.02-.89,2.66-2.5,4.52-3.06,7.34ZM153.38,147.65c-2.09-.06-3.89-1.32-5.56-2.16-2.08-1.04-4.35-1.98-4.78-4.49,0-.02-.02-.04-.02-.07,0,0,0,0,0,0,0,0,0,0,0,0,0,0,0,0,0,0-.01-.06-.03-.12-.04-.21.15.04.21.09.18.15.01.03.02.06.02.09.28.05.8.15.95.22.61.31.95.12,1.57.23,1,.19,1.75,1.16,2.51,1.74,1.49,1.13,4.67,2.4,5.16,4.5ZM146.65,148.76c.92.24,1.75.27,2.37.97.48.55,1.46.52,2.12,1.18-.56.17-1.02-.24-1.52-.1-.1.17-.24.29-.42.35-.47.06-1-.06-1.46-.12-1.67-.22-3.18-.33-4.89-.29-2.53.06-5.21-.26-7.71-.64-.73-.11-1.78-.13-2.46-.46-.31-.16-.48-.9-.71-.98.2.07.41.14.61.2.14-.47-.07-.61-.61-.41,0-.08.02-.11.03-.12.17-.55.05-.82-.39-.78.49-2.03,3.85-.42,5-.27,1.82.24,3.12.49,4.79.58,1.89.1,3.41.41,5.24.89ZM131.4,111.11c0-.13,0-.21.01-.25,0-.02,0-.05,0-.06.01,0,.02.02.03.04.11.01.41.89.44,1.11.08.7.08,1.4.08,2.1-.69,0-.6-2.03-.55-2.94ZM131.35,110.19s0-.04.06-.2c.12,0,.51-.06.27.54-.3.08-.4-.05-.33-.34ZM131.35,109.11s0-.04.06-.2c.12,0,.51-.06.27.54-.3.07-.4-.05-.33-.35ZM203.95,48.76c-.11.41.02.61.41.61-.59.58-2.85.34-2.85-.82,0,.52-.14,0,0,0h-.41c.92-1.44,1.75.67,2.86.2ZM200.48,47.95c.96,0,0,.96,0,0h0ZM198.44,52.23c.13.07.27.14.41.2,0-1.36,1.84-2.04,1.84-3.26.13.04.27.07.4.11,0,0-.06,0-.11,0,0,0,0,0,0,0,.8.36,2.6,1.43,1.51,1.57-.47.06-1.82,1.28-2.22,1.68-.7.67-1.4,1.58-1.62,2.55-.57-.24-.22-1.02-.2-1.43h-.41c.14-.47.27-.95.41-1.43ZM188.19,87.93c.16-1.03.48-1.81.62-2.89.09-.67,0-2.89.86-3.05,0-2.29.34-4.31.66-6.61.18-1.28.87-2.41,1.09-3.67.14-.81.1-1.28.41-2.11.27-.71.12-1.46.47-2.23.29-.64.31-1.63.76-2.01.66-.56.26-1.69.7-2.24.68-.86.52-1.71.39-2.73l2.24-4.28c.5-.17,1.26-1.31,1.17-1.62.02.07-.27.38-.15-.02.23-.07.39-.2.61-.2-.18.55-.14,1.25-.2,1.43-.13-.07-.27-.14-.41-.2.07.2.14.41.2.61-.88,0-.42,1.75-.61,2.36-.4,1.25-.78,2.5-1.23,3.73-.91,2.51-1.49,5.23-2,7.84-.6,3.05-.91,6.14-1.61,9.17-.66,2.85-1.46,5.68-1.94,8.57-.43,2.62-1.77,5.13-1.91,7.78-.16,2.91.7,5.71,1.15,8.54.21,1.36.19,2.81.8,4.07.43.89,1.18,1.55,1.58,2.46.25.58.43,1.21.63,1.81.21.63.91.92,1.06,1.76-.73-.21-.85-1.14-1.39-1.32-.2-.06-.81-.76-.9-1.01-.15-.4-.99-1.55-1.58-1.55,0-.44-.27-.61-.41-1.02.25-.21.39-.49.41-.82-.52-.13-.72.14-.61.82-.7-.18-1.01-1.63-1.63-1.63.22-.67.43-1.44-.02-1.99-.17-.21-.51-3.42-.38-3.92.51,0,.3-4.61.37-5.39.06-.6-.14-1.08.04-1.53.27-.64.17-1.5.18-2.17.01-1.69.33-3.12.58-4.74ZM186.41,33.88c.19.87,1.18,2.47,0,3.06,0,1.26-1.06,1.71-.63,3.12.5,1.65,1.88,2.73,1.93,4.56.05,1.54-.53,3.15-1.31,4.46-.92,1.52-2.02,2.35-3.59,3.07-1.44.66-1.25,1.65-2.19,2.66-.87.93-2.09,1.33-3.34,1.32-.14,0-1.94.06-1.88.18-.07-.28-.24-.42-.5-.43-.34.27-.68.49-1.24.84-.74.46-.6,1.09-1.04,1.89-.77,1.41-2.17,2.36-3.58,3.05-3.83,1.88-7.35,1.38-11.45,1.04-1.18-.1-2.12.05-2.94-.95-.37-.44-.97-1.27-1.14-1.79-.4-1.19-2.24-2.22-3.35-2.53-2.25-.63-4.02-4.12-4.83-6.13-.29-.72-.24-2.92-.7-3.15-.23-.56.36-1.05.09-1.52-.23-.4-.21-1.01-.28-1.45-.18-1.28-.65-1.63.04-2.94.42-.78-.36-2.19-.45-3.08-.19-1.88-.73-3.96-1.22-5.88-.12-.48-.48-1.49-.32-1.93.24-.67.96-.53,1.38-.99,1.07-1.16,2.54-2.11,4.09-2.78-.19.08-.31.14,0,0,.69-.3.3-.13.02,0,1.07-.46,2.3-.92,3.49-.77.87.11,1.31.75,2.3.78,1.08.02,1.19-.9,2-1.13.15-.04,1.41-.8.98-.85,1.25.13,2.63-.19,3.88-.28,1.92-.13,3.68.67,5.62.4,0-.4,3-.58,3.4-.75.57-.25.93.06,1.5-.07,0-.47,1.05-.45,1.32-.47.45-.03,1.34.04,1.66-.36.14-.17.61.01,1.01-.09,1.33-.33,2.66-.69,3.96-1.13.07,1.26.77,2.33,1.22,3.47.16.97.48,1.89.73,2.84.34,1.26,0,2.01-.29,3.29-.3,1.31-3.77,4.61-1.05,5.29,1.22,2.44,5.57-3.87,6.73-3.87ZM147.67,20.02c0,.91,2.5.74,3.06.82.24.73.9.59.75,1.31-.17.84-.55,1.69-.55,2.56-.57,0-1.87,0-2.64.34-.92.41-.88-.29-.95-1.16-.07-.89-.22-1.03.03-1.9.25-.91-1.1-1.2.31-1.97ZM155.63,21.03c-.24.73-1.19,3.83-2.22,3.73-1.92-.18,1.18-3.58,1.4-3.93.11,0-.1.32-.2.43,0,0-.02.03-.02.03.61-.54.5-.25,1.04-.25ZM157.87,22.46c0-2.13,1.42-2.24,2.63-3.44.27-.26,3.28-1.48,3.28-2.26.58-.13,1.05-.5,1.63-.61-.15,1.19-.01,2.56-.61,3.65-.27.49-1.18,2.11-1.77,1.99-.86-.18-1.44.24-2.31.5-.84.25-1.92.09-2.86.18ZM182.74,15.53c1.49-.08,3.6.27,1.45,1.95-1.29,1-3.17,1.75-4.71,2.25-4.27,1.38-8.27,2.58-12.64,3.54,0-1.07.58-2.68,1.71-2.37.93.25.85-.18,1.65-.27,1.42-.15,2.68-.37,4.05-.92.54-.22,1.08-.37,1.66-.37,1.4,0,.18-.2,1.11-.58.67-.28,1.48-.54,2.03-1,.52-.43,3.68-1.62,3.68-2.23ZM150.84,11.11c-1.28.61-.25.12.01,0,1.81-.87,3.37-1.93,5.12-2.89,1.72-.94,3.98-1.03,5.89-1.25,5.17-.59,9.77.83,14.66,2.32.79.24,4.61,2.07,3.41,3.38-.33.36-.83.53-1.19.87-.23.21-.39.47-.49.76-.32-.02-.6.07-.85.27-2.26,1.96-6.09,3.64-9.14,3.61.29-1.65,1-2.86-.14-4.33-.96-1.24-1.27-.74-2.48-.59-1.07.14-1.94.98-2.96,1.43-1.1.49-1.74,1.24-2.65,1.97-1.13.9-2.62,2.02-4.05,2.34-1.35.31-2.54-.85-3.89-.67-.7.09-4.22-.12-4.22-.55-1.5-.03-2.06,1.55-2.92,1.53-.76-.02-.31,1.32-1.36,1.32.78-4.44,3.19-7.59,7.25-9.52ZM141.09,23.48c.09-.05.23-.11.43-.2.3-.15.61-.26.94-.33.61-.08,1.02.32,1.53.32,0-1.14,1.03.7,1.07,1.06.15,1.42-.44.96-1.29,1.69-2.04,1.74-2.8-.75-2.83-2.41,0,0,0,0,.01,0,0-.02,0-.04,0-.06,0,0,0,0,0,0,0-.03,0-.07,0-.1.07-.02.11-.01.15,0ZM141.56,48.97c.13,0,.45.03.2.61-.28.06-.37-.09-.27-.41-.02.02-.01-.02.07-.2ZM141.56,47.34c.22.66.22.59-.2,1.02-.14-.27-.27-.54-.41-.82.21-.07.41-.14.61-.2ZM131.46,102.1c.1-1.53.34-3.04.49-4.56-.53,0-.02-4.17.1-4.99.13-1.02.24-2.07.54-3.06.22-.75-.21-1.5.1-2.16.74-1.6.62-4.02.62-5.75.49,0,.78-4.33.82-4.89.28-3.9,1.93-7.62,2.53-11.33.27-1.67.67-3.32.93-5,.12-.73.14-1.71.59-2.21.29-.32.54-.88.54-1.32,0-.97.61-2.26,1.09-3.09.5-.85.43-2.05,1.34-2.73.31.58.47,1.89,1.35,1.89-.5,1.49-1.38,2.8-1.96,4.26-.43,1.08-.38,2.22-.75,3.31-.24.72-1.04,1.56-1.09,2.23-.03.42-.14,2.11-.8,2.11.49,1.46.06,3.73-.35,5.17-.31,1.11-.44,1.75-.47,3.05-.09,3.63-1.03,6.89-1.36,10.47-.37,3.94-1.61,7.93-1.61,11.89-.18-.09-.36-.18-.54-.27.33,1.63-.31,2.26,0,3.79-.69,0-.92,3.04-.81,3.52h.27c-.05.51-.77.76-.54,1.35.6-.12.4.51.27.81-.26-.26-.15-.14-.27-.54-.98,1-.83,3.05-.81,4.33-.87,0-.35-2.92-.16-3.43.38-1.03-.13-1.68-.06-2.83ZM130.1,169.08c-.55.48-1.38-.07-1.86-.41-.41-.29-1.42-.97-1.55-1.47-.06-.23-.02-.62,0-.86.03-.5.08-1.07.19-1.56.04-.19.27-.79.47-.95.04-.03.08-.04.12-.03-.02.02-.06.05-.09.05,1.13,0,3.28,1.74,3.48,3.35.08.65-.27,1.45-.76,1.89ZM97.37,204.83c-.9-.95-2.8.31-3.52.31.15-1.98.39-3.91,2.65-3.91,1.39,0,1.43-1.15,1.43-2.61.39-1.17,1.08-2.25,2.13-2.91.47-.29.79-.93,1.23-1,.26-.04,1.32-.17,1.32-.58.49-.12,2.06.94,2.24.82.26-.79,1.34-.67,2.24-.82,0,.4-1.12.92-1.43,1.02,0,.48-.4,1.01-.82,1.22-1.08,1.67.61,1.4.61,2.45.28-.14.36-.4.66-.41,1.04-.02.51-.36.97-1.02.36,0,1.34-1.38,1.76-.74.7,1.07,1.71-.14,1.71-1.09-.16,0-.75-.92-.98-1.14-.57-.52-1.61-.3-2.28-.29,1.28-2.7,3.33-1.87,5.4-3.14.41-.25,1.49.36,2.01.45.17.03,1.5-.05,1.51-.06,1.39-1.89,2.24-3.12,4.73-3.35.8-.07,3.28.22,3.28-.63h.41c-.17,1.21.16,2.74.5,3.89.47,1.65.66,3.5.99,5.27.45,2.36.48,4.78.96,7.15.4,1.97.72,3.78.8,5.8.03.79.44,1.03.36,1.89-.04.44-.25,1.05-.15,1.49.23,0,.41,1.76.44,1.92.35,2.22.81,4.59.78,6.85-1.47-.49-2.93-.13-4.07.9-1.47,1.33-3.46-.66-4.9-.9,0,.79-3.99.94-4.26.81-1.33-.64-3.07-.13-4.3-1.08-.24-.18-.4-.44-.4-.75-.76.13-1.53.21-2.31.25-1.52.07-3.11.01-4.49-.69-1.36-.69-2.59-1.58-4.01-2.16-1.45-.58-2.76-.59-4.25-.86-1.75-.31-1.41-2.2-2.58-3.09-1.27-.96-2.03-1.47-2.9-2.91-.45-.76-.6-3.8.76-3.8,0-.95,1.14.14,1.38.37.55.53.9-.16,1.68.04v-.41c.57-.09,1.33-.51,1.87-.07.74.61,1.6.66,2.62.28.38-1.13-1.11-2.04-1.78-2.76ZM100.17,94.23s.03.01.04.03c.53-.69,3.42-.73,3.89-.88,1.41-.45,3.77-1.15,5.25-.78,0,.28,3.47.29,3.47,1.84.8-1.29,5.91,5.84,5.91,6.93-1.28-.64-1.67-2.09-2.74-2.93-.53-.42-1.47-.81-2.09-1.05-1.3-.49-3.21-1.99-4.54-1.33,0-.46-2.52-.13-2.85-.2,0-.93-7.24,2.04-8.36,2.04,0-1.7,1.67-2.26,2.04-3.67ZM107.94,135.01c-.5-.37-1.6-1.75-1.25-2.45-.43-.15-.67-.28-.74-.74-.11-.74-.49-.43-.78-1.04-.52-1.07-.99-1.8-1.68-2.77-1.09-1.52-1.49-3.13-2.92-4.55-.59-.58-.93-.65-1.28-1.5-.28-.7-.68-1.78-1.36-2.24,0-.63-.55-1.34-.67-1.98-.22-1.23-.59-2.26-.49-3.53.14-1.78.15-3.56.37-5.32.06-.47.07-1.42.47-1.76.17-.15.14-2.29.21-2.65.19-1.04.64-3.91,1.19-3.98,1.81-.23,5.08-2.09,6.7-1.73.57.13,2.16-.08,3.05.03.84.1,2.33.23,3,.68,1.01.68,2.56,1.38,3.17,2.49.79,1.44,2.22,1.69,3.15,2.95.9,1.22,1.99,2.59,2.77,3.86.82,1.32.22,2.39.5,3.82h-.2c.17.96.41,1.73.08,2.45-.15.34.41.96.32,1.54-.1.68-.11,1.31-.25,1.97-.5,2.52-1.36,5.04-1.73,7.57-.13.88-.68,1.63-.86,2.65-.14.81-.14,1.86-.57,2.58-.43.72-1.61,4.24-1.28,4.89-.73,0,1.09,7.08,1.19,8.05.13,1.34,1.71.65,2.02-.36.26-.83.04-1.78-.15-2.59,1.5.19,4.2,2.12,4.81,3.67.44,1.12,1.52,1.79,1.8,2.96.23.94.79,1.89,1.05,2.89.23.89.61,1.79.91,2.72.33,1.04-.06,1.77-.2,2.84-.12.88.32,1.64.52,2.47.29,1.16.36,0,.87.78.5.77,1.04,2.58,1.04,3.47-.51,0-.62-.89-1.38-.96-.55-.05-1.17-.13-1.71,0-1.02.26-2.01.57-2.01,1.97-.5-.51-.28-1.78-.3-2.41-.02-.89-.34-1.72-.51-2.61-.44-2.2-.8-4.09-2.66-5.58,0,.88-.94-.13-1.12-.47-.28-.77-1.53-1.11-1.53-1.98-.52,0-.84-.82-1.62-.94-.53-.08-1.64.13-1.64-.69-2.27,0,1.5,4.76,1.81,5.32,2.04,2.39,3.19,4.42,3.29,7.73.07,2.49.41,5.94,2.85,7.33-2.42,3.63-4.53-2.54-5.34-4.21-.64-1.33-1.84-2.45-2.3-3.73-.44-1.21-2.43-1.03-3.37-1.03v1.63c-.14-.07-.27-.14-.41-.2,0,.85.92,1.17,1.25,1.82.29.57.72,1.06.99,1.64-.47-.27-1.22-.55-1.22-1.22-.6,0-1.05-.29-1.43-.73-.75-.85-.68-1.3-.38-2.28.47-1.56-.12-3.43.49-4.95.71-1.75.58-3.94.79-5.83.18-1.59.52-2.8.32-4.37.34,0-.14-4.93-.37-5.65-.31-.94.02-1.6-.55-2.46-.73-1.09-1-.43-2.13-1.06-.21.39-.49.73-.82,1.02,0-.53-1.48-3.01-1.81-3.26ZM120.35,174.15c1.45,0,0,.96,0,0h0ZM73.05,157.23c.45-.76.65-.06,1.01-1.03.16-.41.35-.81.57-1.2.61-1.09,1.18-1.4,1.5-2.62.16-.6.82-1.38,1.13-1.81,1.2-1.62,1.24-5.46,3.34-5.98-.79.2-.25-.17-.06-.13.61-1.42,6.28-.88,4.06,2.75-1.05,1.73-1.61,3.95-2.68,5.65-1.37,2.18-2,4.8-3.44,6.94-.31.46-1.54,3.02-2.32,2.35-1.16-1.01-2.79-1.66-4.32-1.66.65-.98,1.22-2.05,1.22-3.26ZM54.41,155.65c.62-1.53,1.82-3.3,2.03-4.95.18-1.42,1.62-3.72,2.33-4.77.48-.7.74-2.98,1.85-2.98-1.18,0,0-.2,0,0,0-.84,1.3-.89,1.95-1.47.44-.4,1.19.51,1.72.65,0,.86.41.2.82.2-.27-.23-.47-.5-.61-.82,2.15.72.13,4.19-.24,5.49-.41,1.49-.96,3.7-1.85,4.96-.84,1.2-1.58,2.68-2.09,4.05-.62,1.65-3.16,3.4-3.16,5.28-.51-.14-1.02-.42-1.02-1.02-.28-.02-.56-.06-.83-.14-.81-.37-1.62-.68-2.64-.68-.27-.92,1.41-2.98,1.75-3.82ZM55.03,162.49c.02-.15.09-.24.09.24-.28,0-1.43-.02-2.02-.09-1-.11-1.25.18-1.25-.93.67,0,2.74.17,3.18.78ZM5.36,231.85c.14.07.27.14.41.2.38-.83.33-2.24,1.14-2.65.28-.14.75-1.3.9-1.57.71-1.22,1.38-2.47,2.09-3.74,1.33-2.39,2.96-5.07,3.95-7.57,1.07-2.69,2.68-5.18,3.99-7.63.74-1.39,1.53-2.95,2.11-4.33.82-1.93,2.67-3.57,3.65-5.44.26-.5,1.11-3.15,1.53-3.15,0-1.86,1.88-3.09,2.24-4.89.54,0,2.31-3.83,2.43-4.33.08-.34.09-.73.4-.96.69-.52.64-1.17.84-2.04.3,0,.64-1.09.72-1.28,1.43-3.44,2.55-6.69,4.48-9.84.78-1.27,1.06-4.09,2.61-4.72.47-.19,1.41.24,1.92.3.66.08.38-.33.87-.36,0,.63,1.53.25,1.83.2-.39,2.36-1.94,4.42-2.69,6.6-.55,1.6-1.7,2.76-2.46,4.3-.87,1.79-1.76,3.43-2.75,5.13-1.01,1.73-2.13,3.75-2.62,5.66-.24.95-1.19,2.8-1.79,3.68-.73,1.06-1.18,2.61-1.83,3.8-1.82,3.35-7.31,9.04-.77,9.77,2.03.23,10.23,1.39,10.23-1.63,0-.72.75-2.56,1.2-3.09.7-.84.91-2.07,1.66-2.83.83-.83,1.54-2.71,1.83-3.87.78-.52,1.35-1.91,1.58-2.78.19-.71.63-1.38.83-2.13.12-.46.74-.81.94-1.36.17-.48.28-.99.58-1.41,2.4-3.41,3.89-7.35,6.08-11.01.94-1.57,1.78-3.43,2.3-5.22.46-1.58,2.16-2.89,2.57-4.42.73-.25.27.54.84.35.72-.24.32-.44,1.2-.15,0-.49,1.73-.38,2.04-.41-.72,2.16-2.31,3.82-3.23,5.84-.73,1.62-1.58,3.1-2.33,4.79-1.42,3.22-3.19,6.15-4.67,9.3-.84,1.79-1.46,3.84-2.65,5.3-.71.87-1.06,2.31-1.62,3.31-.52.93-1.07,1.98-1.44,2.97-.55,1.47-1.34,2.78-2.02,4.12-.52,1.03-1.87,3.19-1.75,4.21.21,1.73,2.54,2.38,4.1,1.48.52-.3,3.54-.13,4.2.15.36.15,1.34.14,1.89.3.64.18,1.62.57,2.1,0,.21-.25,1.61-2.22,1.69-2.22,0-.97.94-2,1.5-2.7,1.2-1.49,2.34-3.56,3.04-5.35.63-1.62,1.97-3.09,2.6-4.69.38-.98,1.05-1.5,1.55-2.39.58-1.03.94-2.18,1.34-3.29.54-1.51,1.83-2.63,2-4.41l1.02-1.22c.36-1.81,1.81-3.35,2.24-5.1,1.08-.54,1.14-2.45,1.71-3.39.78-1.28,1.92-2.93,2.47-4.43.51-1.38,1.35-2.51,2.96-1.97v-.21c.41-.06,3.06.08,3.06,0,.98.33,2.04-.38,3.14-.04,1,.31,2.15-.11,3.19.12,1.78.4,3.48.03,5.17.19,3.51.34,6.96-.24,10.52.13,0-1.11,4.78-.22,5.51-.41v.21c.38.06.77-.33,1.22-.21,0,.45.47.28.71.21.72-.21.77.47,1.53,0,.14.72,1.94,1.59,2.66,1.83,1.4.47,1.96,1.3,2.53,2.76.28.72.87.97,1.23,1.66.26.49.22.9.58,1.31,1.31,1.54.78-.64,1.98-.64,0,1.96.84,4.07,1.24,5.99.4,1.93.8,4.06.8,6.04-.04,0-1.43-.93-1.43-.82-.61-.19-1.33-.14-1.96-.11-.61.03-3.75.11-3.75,1.13-.74-.37-2.12.99-2.81,1.44-.9.58-1.18.33-2.25.54-1.98.39-6.63,1.2-7.16,3.52-1.3-.61-4.65-.23-5.83.59-1.39.96-2.67,1.83-3.34,3.44-.43,1.03-.37,2.84-1.7,3.03-.69.1-.78.77-1.44.95-.81.21-1.14,1.82-1.14,1.82-.04.45-.1,1.36-.2,1.95-.21,1.34-1.21.39-1.65,1.28-.65.21-1.05.9-1.29,1.49-1.36,3.31.85,5.89,2.56,8.36.64.92,1.06,2.01,1.69,2.89.85,1.17,2.27,1.78,3.62,2.15,1.17.32,3.71-.48,4.51.62.22.3,2.85,1.47,2.77,1.61,0-.02,2.68,1.04,2.97,1.08.74.11.89.36,1.64.23.62-.11,1.3-.27,1.93-.17.83.13,2.76,1.26,3.49.96.08-.04,2.82.72,2.82.76.66,0,1.44-.24,2.04-.5.39-.17.92-.11,1.16-.37.28-.29,3.08.83,3.67.87.69.06,1.8-.39,2.47-.51,1.47-.27,2.63-.99,4.12-1.32-.31.07.76,2.14,1.03,2.32,1.29.82,3.89-.08,5.33-.17,2.18-.12,8.23.98,8.86-2.28.3-1.57-.02-3.41-.16-4.98-.19-2.06.34-3.96.25-5.98-.08-1.76-.69-3.43-.62-5.2.06-1.51.34-3.05-.21-4.5.32-.09,3.67.42,3.67-.41,1.09.54,1.07-.45,2.31-.15.65.16,1.34.26,1.95.56.74.36.9.69.99,1.43.15,1.28,1.79,1.91,2.91,2.1,1.27.21,2.04,2.29,2.04,3.4-.44-.26-1.02-.38-1.02-1.02-.26.09-.53.16-.81.2-.97-.39-1.38-.61-2.38,0-.88.54-5.16,1.46-4.24,3.32.61,1.23,4.17-1,5.35-.55.77.29,1.18,1.09,1.8,1.58.74.58,1.43-.6,1.67.93.16,1.03-.65,2.57-1.04,3.34-.6,1.18-2.52,1.63-3.71,1.99-.48.14-1.07.27-1.54-.01-.15.28-.38.45-.69.5-.82.16-1.66-.27-2.44-.45-.73-.17-.73-1.34-1.65-.85-.57.31-1.25.84-1.74.59,0,2.91,4.33,2.98,6.26,2.6,2.14-.42,4.45-1.26,6.23-1.5.33-.04,1.4-1.15,1.67-1.51.59-.77,1.06-1.68,1.34-2.61.52-1.71-.21-2.43-.21-4.12,0-.89.31-1.75.22-2.61-.1-.98-1.54-2.45-1.05-3.4.15-.29.73-.91,1.07-.98.77-.16,1.46-.66,2.14-1.01.66-.34,1.56-.89,1.9-1.59,1,0,1.35-1.12,2.15-1.26,1.46-.25,1.7-.95,1.99-2.29.33-1.53,1.37-2.64,1.37-4.2.15,0,.89-1.57.99-1.74.33-.61.82-.76,1.29-1.32.26-.31.82-1.71,1.15-1.82.67-.22.03-1.25.46-1.66.98-.92,1.27-2.37,1.55-3.76.24-1.18.48-2.06.26-3.16,1.68-.1,7.54-2.2,7.54-4.49,1.3-.86.5-3,1.83-3.67.35-1.41,2.04-2.38,2.04-3.87.14.07.27.13.41.2v-.2c1.16-.41,2.04.67,3.16.51,1.44-.2,2.77-.02,4.18.31v-.2c1.11.28,2.63-.17,3.7-.05,1.26.14,2.58-.3,3.63.05v-.2c.62-.1,1.4.17,2.04.2v-.2c1.58-.05,2.75.72,4.41.27,1.39-.38,2.85.16,4.35-.06,0,.13,3.28-.19,4.16-.21,2.45-.05,4.92-.31,7.37-.32,6.35,0,11.8-.12,18.24.53v-.2c.71-.12,1.26.16,1.9-.02.45-.12.96-.09,1.42-.07,1.6.05,3.19.26,4.78.39,1.18.09,2.19-.07,3.31.11,0-.48,1.96-.21,2.2-.18.67.08.96-.12,1.38-.11,2.79.03,5.2.52,7.83.45,1.28-.03,2.43.42,3.5.3.25-.03,1.39-.37,1.39.15.6-.15,1.71-.18,2.24,0v-.2c3.1.24,5.26.33,8.36.61-.21,1.1-1,3.34-1.58,4.18-.25.37-.85,1.7-.88,2.03-.04.36-.26,2.56-.79,2.56-.26,1.02-1.09,1.65-1.3,2.65-.23,1.09-1.03,2.5-1.43,3.62-.19.54-.59,1.4-1.14,1.68-.13.6-.2,1.24-.46,1.79-.32.66-.71.75-.92,1.5-.13.46-.31.89-.57,1.29-1.3,2-1.83,4.71-3.55,6.43-1.24,1.23-1.64,3.54-2.49,5.09-.8,1.46-1.26,3.58-2.34,4.78-1.06,1.17-1.61,3.74-2.07,5.2-.32,1.02-.93,1.84-1.35,2.8-.28.63-.89,2.48-1.32,2.81-.71.54-1.09,1.8-1.34,2.62-.19.64-.6.9-.82,1.59-.39,1.24-1.27,3.82-2.16,4.57-.72.61-.69,1.85-1.24,2.6-.46.63-1.07,2.21-1.32,3.03-.43,1.47-1.02,3.42-2.7,3.42-.43,0-.73-.62-.99-.49-.22.11-.63.36-.88.32,0-.44-1.79-.38-2.05-.39-.67-.02-1.13.27-1.84.24-.61-.03-1.36-.29-1.78-.29-.8.02-7.79-.4-7.79-.59-.68.02-7.34-.07-7.34.2-1.2.19-2.64-.13-3.84-.27-.46-.06-1.02-.22-1.48-.14-.88.16-.67-.14-1.12-.12-2.09.1-4.83-.46-7.01-.19-1.35.17-2.73-.15-4.09-.26-1.12-.09-2.03.3-3.18.19-2.38-.24-4.18-.57-6.89-.51-1.04.02-1.79-.29-2.7-.18-1.46.17-2.96.19-4.43.13-2.26-.09-4.09-.35-6.28-.24-.98.05-2.34-.94-3.32-.41-.57.31-2.7.09-3.37-.04v.2c-1.54-.15-2.56-.37-4.17-.29-1.72.08-3.51.23-5.22.01-2.28-.3-4.87-.49-7.21-.46-4.18.06-8.42-.24-12.55-.93-1.55-.26-10.37-1.37-10.66-.41-2.54-.44-5.04-.05-7.6-.11-1.98-.04-3.94-.04-5.91-.22-1.03-.1-1.99.21-3.21.02-.79-.13-1.79.2-2.72.14-1.43-.09-13.34.36-13.34.22-1,.22-1.42-.26-2.45,0,0-.4-.92.2-1.13.04-.34-.25-2.36-.13-3.06-.16-1.58-.05-3.17-.1-4.74-.02-1.07.05-1.72.41-2.68-.07-.09-.27-8.66.76-9.42.87-1.18.16-10.77-.24-10.77.15-1.15.24-8.77-.46-8.77,0-1.09-.14-2.18-.27-3.26-.41,0,.41-4.13.22-4.81.49-.3.16-.47.06-.49-.28-.36-.02-.7.05-1.02.2,0-.57-.79-.16-1.06-.12-.15.02-1.15-.77-.98.12-.61.13-1.2-.1-1.81-.1-2.17,0-4.68-.05-7.13.04-.33.01-2.48-.38-2.48.06-.8,0-1.79-.09-2.54-.34-.57-.19-4.8.21-4.8-.47-.48-.1-1.6.36-1.88.1-.22-.2-.72-.16-.99-.16-1.01,0-2.03.11-3.04.17-1.35.08-2.41.04-3.47-.31,0,.29-4.24.09-4.69,0v.2c-.98-.11-4.08-.53-5.3-.2v.2c-2.99-.26-6.14.2-9.38.2.2-.24.33-.51.41-.82ZM9.62,337.55c-1.1-.07-2.19-.09-3.24-.09,0-1.78-.09-3.57,0-5.5-.26,0-.52-33.46-.53-36.53,0-.62.26-2.5-.24-3-.39-.39-.39-3.44-.37-4.08.01-.39.57-1.15.44-1.44-.37-.1-.46-.34-.26-.7.37-.59-.38-3.03-.43-3.81-.08-1.24.38-2.64.16-3.67-.29-1.41-.21-2.56-.5-3.97-.29-1.47-.68-3.82-.16-5.1.27-.66-.38-1.44-.26-2.12.14-.83-.33-.67-.27-1.28.18-1.83-.23-3.48-.04-5.25h-.2c-.11-.46.18-.73.06-1.2-.1-.41-.18-.83-.23-1.26-.07-.57.17-1,.17-1.6,0-1.73-.36-3.44-.39-5.16.03.1.08.19.16.27.14.05.3-.22.25-.42-.1.15-.43.24-.43-.21,2.39-.21,4.44.26,6.72-.15.54-.1,1.1.18,1.7.22,1.62.1,1.37,1.06,1.37,2.58.2,0,.72,6.87.74,7.63.03,1.32.35,2.6.25,3.87-.08,1-.84,3.94-.08,4.76.35.38.14,2.83-.09,3.52.74,0,.29,3.89.26,4.34-.19,2.89.5,5.51.21,8.44-.24,2.38.38,4.84.46,7.35.05,1.44.24,16.78.28,16.78-.07.41-.14.81-.2,1.22h.2c-.49,2.95.41,6.55.57,9.59.26,5,.45,10.08.45,15.08-2.44,0-4.3,1.05-6.55.91ZM23.83,314.56c.15,1.4.58,3.54.12,4.91-.7,2.1.75,4.33-.63,6.51-.61.96-1.7,2.17-1.85,3.32-.83,0-.41,1.42-1.02,1.42,0,.87-1.42,3.88-2.45,3.88.06-.4-.25-2.04.2-2.04-.19-.59-.13-5.71-.2-5.71-.31-1.71.16-3.53-.05-5.28-.23-1.94-.41-3.93-.55-5.87-.14-1.92.14-4,.06-5.97-.07-1.93-.47-4.21-.08-6.12.18,0-.2-9.39-.25-10.56-.1-1.97-.04-3.58-.21-5.43-.23-2.52-.05-5.07-.1-7.6,0-.16.03-1.9-.25-1.9-.13-.61.5-.85.41-1.43-.55,0-.23-.72-.15-.99.14-.5-.3-1.77-.26-2.56.07-1.4.22-2.82.13-4.22-.12-1.98-.33-3.51-.2-5.67.03-.5-.37-1.18-.26-1.49.2-.57.05-.76-.06-1.22-.24-1,.07-2.08-.1-3.1-.1-.62-.44-.71-.36-1.48.05-.5.34-1.2.23-1.7-.62,0-.57-2.44-.61-2.85,1.77-.07,3.53-.14,5.3-.2,0,1.15.28,2.48.21,3.33-.15,1.73.03,3.23-.17,4.97-.12,1.12.36,2,.2,3.05-.15,1.01-.15,2.18-.25,3.33.34,0,.29,3.11.29,3.37.04,2.35.09,4.73.32,6.93.34,3.2.13,6.5.12,9.71,0,2.39-.63,6.14.36,8.4.88,2,.13,5.08.39,7.3.18,1.57.31,3.1.43,4.67.23,2.91.98,5.63,1.27,8.29ZM39.46,291.54c-.16-.11-1.52-.3-1.94-.32-1.57-.09-3.25.31-3.63-1.77-.3-1.64-.07-3.33-.46-4.96-.38-1.64-.54-3.33-.66-5.01-.22-3.08-.69-6.2-.69-9.29,0-1.73.25-3.45.12-5.18-.05-.68-.32-1.09-.24-1.83.1-.82.4-1.72.14-2.5-.91-2.67-.5-6.45-.45-9.25,2.03.01,4.09.61,6.12.2,0,.69,2.08.27,2.45.2.02.52-.09,4.89.41,4.89-.15.89-.61.88-.46,1.73.12.69.13,1.41.15,2.12.1,3.01.42,5.65.09,8.57-.43,3.89-.17,7.59.25,11.46.2,1.84.47,3.68.7,5.51.22,1.82.22,3.89.84,5.68-.53.4-2.24.1-2.75-.25ZM47.72,273.24c-.43,2.16.53,4.67.42,7.01,0,.05,0,.14-.01.33.01-.11,0-.22.01-.33-.02-.15-.1.12-.08.26,0-.1.06-.27.07-.24.02.04,0,.15-.06.29,0,0,0,0,0,0,0,0,0,0,0,0-.3.86-1.56,3.28-1.77,3.71-.35.73-.34,1.16-.83,1.74-.22.28-.37.6-.45.95-.21.71-.33,1.52-.97,1.99-.67-1.81-.29-3.71-.66-5.55-.46-2.32-.79-4.73-.97-7.09-.21,0-.22-6.47-.21-7.03.08-3.85.2-7.7.38-11.55.06-1.25.12-2.35-.1-3.6-.05-.3-.5-2.04.1-2.11,1.59-.19,3.19,0,4.78.03-.03.47-.25,3.87.41,3.87.09.35-.51,2.45-.28,2.45-.34,2.74.49,5.37.79,8.11.08.71-.71,6.77-.56,6.77ZM114.44,277.93c.91,0,.43,1.22-.2,1.22.07-.41.14-.81.2-1.22ZM111.38,290.77c-.05-.41-.12-.82-.2-1.22,1.28.14,1.82,1.05,2.88,1.42.97.33.97,1.23,1.96,1.65.93.39,1.79-.13,2.56.4.71.49,1.79-.38,2.19.81-.95,0-1.89.11-2.84.02-.28-.03-.73-.05-.96-.26-.29-.28-.44.1-.89-.09-.49-.2-1.61-.69-2.45-.69-.26-.35-.71-1.02-1.22-1.02-.17-.49.41-.39.41-.82-.58,0-.92-.13-1.43-.2ZM111.59,282.41c-2.45,0,0-.14,0,0,0-.58,1.79-1.76,2.45-2.24,1.33,3.75-4.32,4.57-3.67,8.16-1.18.2-1.44-1.02-2.45-1.02.74-1.73,1.21-4.89,3.67-4.89ZM120.96,295.05c-.6.16-1.1.52-1.63.81-.27-.16-.54-.16-.82,0-.36.47-1.05,1.13-1.69,1.06-.85-.09-1.45-.79-2.25-1.03-.59-.17-.53.59-1.06.21-.85-.61-1.2-.28-2.21-.38-.24-.1-.47-.21-.7-.33-.06.11-.15.2-.25.26,0-.57-1.55-.53-1.73-.51-1.22.13-.9-.65-1.94-.51.42-.06.15-.25.03-.19.03.05.05.09.06.12-.04-.07-.06-.09-.08-.1,0,0,.01-.02.02-.03-.18-.34-.69-1.07-.68-1.41.02-.85.37-1.64.44-2.48-.57.1-.32-.57-.2-.82.44.33.8,1.02,1.43,1.02-.15.25-.22.52-.2.82.76-.11,1.3-.02,1.88-.03.23,0,.51.32.99.09.75-.34.8.34,1.62.34-.74,1.66,5.49,2.52,6.44,2.78,1.77.49,1.95-.71,3.39-1.13.89-.26,2.35,0,2.82-.22-.38.57-3.67,1.35-3.67,1.63ZM125.14,288.59c-.81.45-.97.94-1.89,1.26-.69.24-1.35.45-2.13.48-1.91.09-4.77-.51-6.47-2.21.94-.31,1.76-.46,2.24-1.42.38,0,1.63-.56,1.63-1.02,1.35-.17,5.66-.89,6.55.5.26.41,4.46,1,4.46,1.75-1.97,0-2.65-.28-4.39.67ZM142.37,281.6c.16,0,0-2.67,0-2.86-.75-.03-.24-.58,0-.81.33,1.1.85,1.69,1.02,2.85-.29,0-.72,1.78-.78,2.03-.33,1.35-2.61,2.68-3.66,3.63-.66.59-1.65.54-2.4,1.04-.76.5-1.63.76-2.38,1.29-1.76,1.25-3.92,2.31-6.07,3.03,0-.5,1.69-1.7,2.05-2.01,1.07-.93,0-.6,0-1.66.61.34,1.22.68,1.84,1.02.07-.2.14-.41.2-.61.13-.02.18,0,.18,0-.01-.01-.07-.02-.18,0-.02.07.02.08.08.07.07-.03.11-.05.11-.06,0,0,0,.02-.02.03.4-.11,1.2-.68,1.63-1.04.74-.64,1.58-.73,2.3-1.28.91-.69,2.05-1.67,2.84-1.8.6-1.2,2.88-1.54,3.26-2.85ZM139.03,280.06c-.39.99-2.13,2.15-3.18,2.15-.7,1.05-2.04,1.48-3.09,2.06-.43.24-.66.68-1.1.45-.18-.1-1.32-.65-1.32-.87-.33-.07-.81.57-1.12.31-.38-.31-.12-.2-.7-.46-1.05-.47-2.06-1.12-3.21-1.36-.96-.2-2.14-.01-3.03-.44-.53-.25-1.61.05-2.13-.09-.51-.14-1.49.27-2.24.41.1-1.26.18-2.67.82-3.79.53-.92,1.94-1.19,2.7-2.05.48-.54,1.07-.96,1.48-1.5.45-.6.45-1.41.89-2,.86-1.13.18-3.02.39-4.46.43-2.82-1.18-4.99-1.18-7.82-.67,0-.58-2.85-.59-3.27-.03-.84,1.21-2.42-.43-2.85v-.41c.4-.13,1.49.2,2.13.27.15.02.92.06.92-.27.75.07,1.5.14,2.24.21v-.21c1.32.22,2.65.06,4.03.04,1.27-.01,2.9.19,4.13-.25.7,1.97-.36,4.54,0,6.52.14.82-.48,1.63-.21,2.45.39,0,.83.97.98,1.22.65,1.06,1.36,1.66,1.39,2.98.04,1.55-1.15,2.72-1.07,4.18.05.77.67,1.92.87,2.77.46,1.9,2.48,3.88,1.61,6.06ZM194.16,268.14c.35.23.28.13.41.61-.26-.11-.4-.31-.41-.61ZM210.26,321.15c-.02-.07-.01-.11,0-.14-.02.02-.03.06,0,.14.19.02.24-.02.22-.06-.04-.02-.1-.05-.18-.09,0,0-.01,0-.02,0,0,0,0,0,0,0-.59-.29-2.07-.99-2.07-1.26,1.07.13,1.75.46,2.85,1.02.51,1.03,2.43.9,3.26.82,0,1.68-3.85-.39-4.08-.41ZM213.32,318.09c-.71-.12-1.6-.5-1.94-.96-.41-.55-1.36-.27-1.68-.96-.36-.77-1.03-.95-1.57-1.42-.36-.32-2.17-3.21-2.3-3.13,1.26-.82,2.5-.96,4.02-.67v-.41c.2.05.28.08.25.09,0,0,0,.01-.03.01.34.04,1.57.23,1.81.71.95,0,1.24.8,2.01,1.13,1.25.55-.37,1.36.44,1.86.39.24.33,1.15.61,1.08-.14,1.11-1.11,1.74-1.63,2.65ZM225.15,311.16c.45,0,.42,1.83-.2,1.83.07-.61.14-1.22.2-1.83ZM223.52,316.25c.11-.32.78-3.06,1.43-3.06-.42,1.05-.53,2.2-.95,3.25-.49,1.2-1.16,1.12-1.98,1.76-.7.55-1.74.54-2.48,1.08-.6.44-1.65,1.25-2.54,1.25.16-.59.61-.92,1.02-1.33.43-.42.38-.91.7-1.37.59-.85.89-.89,1.65-.96,0,0,.6-.67.77-.33.11.24-.12.31.36.31.39-1.15,1.38-.55,1.91-.59,0-.04.18-.16.13-.02ZM220.18,308.26c.35-.83,2.05-2.92,2.87-1.16.49,1.06-.72,2.43-1.05,3.47-.24.76-.88,3.03-1.95,3.03,0-.93.36-1.51-.61-1.84-.02-.2,0-.24.04-.13,0,0,0,0,.01,0-.11-.45-.52-1.39-.26-2.1.53,0,.78-.9.94-1.27ZM215.55,258.32c-.07.2-.2-.24-.4-.17.06.43.05,3.06-.61,3.06-.16.99-.56,1.91-.75,2.89-.14.69-.39.43-.47.94-.3,1.8-.89,4.39-2.12,6.05-.16.22-.36,1.59-.39,2.12-.06,1.12-.01,2.24.03,3.35.12,3.25.04,6.36-.38,9.52h.2c.26,1.32-.41,2.38.16,3.73.43,1.03.83,2.67,1.88,3.07,1.23.48.73,2.43,1.83,2.99.27,1.08.92,2.27,1.63,3.12.66.77,2.65,1.59,2.65,2.79.67.81,1.9,1.04.43,1.94-1.49.91-3.69,3.15-3.69,5.2-.29.14-1.41-1.13-1.76-1.25-.12-.04-.75.39-.93.4-.5.02-.38-.66-.97-.57-.17.33-1.02.6-1.02,0-.4-.11-.49.25-.81.2,0-.64-1.86-.36-2.04-.41,0-.17-3.87,1.02-4.41,1.26-1.23.54-1.76,1.58-1.88,2.93-.07.77,1.22,2.21,1.75,3.01.43.65,1.13,1.04,1.56,1.7.48.73.18,1.21,1.15.88.07.27.14.54.2.81.14-.07.27-.14.41-.2.2,1.01,1.22,1.1,1.22,2.04-.42,0-1.07-.78-1.5-.97-.5-.23-.99-.56-1.41-.92-.57-.48-1.28-.52-1.69-1.12-.37-.54-1.16-.74-1.69-1.06-.78-.47-1.89-1.19-2.43-1.92-.53-.72-.98-.47-1.77-.9-.72-.4-.86-.38-1.15-1.13-.03-.08-.42-1.14-.66-.94-.13.25-.18.53-.14.82-.16-.09-1.43-1.13-1.36-1.25-.32.53-.4-.12-.62-.44-.58-.86-2.09-1.7-2.37-2.53-.4-1.16-2.04-1.98-1.37-3.19.43-.77,1.11-.84,1.64-1.4.32-.33.22-.98.82-.98.26,1.19.38,2.12.61,3.26,1.03-.17,1.42.18,1.82.95.31.61,1.27,1.39,1.84,1.27.45-.1.5.59.9.72,1.23.39,1.6,2.26,3.07,2.26,1.68,0,1.55-2.04.88-3.04-.62-.93-2.56-1.95-3.54-2.41-.54-.25-1.51-1.14-1.51-1.8-.4,0-.67-.26-.79-.62-.36-1.08.54-1.68.56-2.54.02-.7.38-.83.4-1.52.02-.63.16-1.26.13-1.89-.04-.85-.7-.44-.51-1.38.53,0,.59-.76.7-1.11.23-.75.61-.46.65-1.18.02-.36.33-.62.46-.94.16-.39-.27-1.56.44-1.45,0-.47.11-1.05.29-1.48.27-.65.08-1.81-.2-2.48-.26-.62.38-1.26.11-1.95-.43,0-.57-.93-.68-1.21-.3-.79-.24-1.17-.06-2.15.42-2.35,2.07-4.86,1.97-7.24.7.21.81-2.66.99-3.33.35-1.27.54-2.23.81-3.37.58-2.48-.62-6.25-3.43-6.76-.17,1.3.86,2.71.39,3.82-.3.7-.45,1.75-1,2.3-.16-.75-.49-1.48-1.02-2.04-.36-.06-.58-.26-.67-.6-.04-.28.53-1.35-.14-1.23.18.48.08.68-.27.63.15-.02-.03-.24-.11-.18,0,.02.01.04.01.06,0-.03-.01-.04-.02-.05-.02.02-.04.06-.03.16-.02-.2-.01-.25.03-.16,0,0,0,0,0,0-.26-1.72-2.07-3.83-2.07-5.95,2.03,0,4.17.39,6.12,0v.2c.72.18,1.63-.18,2.04-.2v.2c1.28-.26,2.91.09,4.08-.2,0,.32,2.61.58,3.13.53,1.17-.11,2.72-.07,3.92.22.43.11.85-.32,1.22-.16.26.11.98,1.03,1.12,1.03,0-.58-.02-1.02.61-1.02.02.19.02.39,0,.58ZM195.79,272.62c.23.23.08,0,.2.41-.3.03-.37-.11-.2-.41ZM239.54,253.94c-.45.28-1.01-.35-1.53-.14-.48.2-1.64.07-2.23.04-2.14-.11-4.23.63-6.41.75-3.47.2-6.96.42-10.43.25-6.27-.3-12.67-1.29-19-1.37-2.28-.03-4.58-.16-6.84-.16-1.08,0-2.62.07-3.76-.33-1.47-.52-3.27-.4-4.81-.53-1.43-.12-2.35-.52-3.77-.25-.83.16-2.34-.36-3.28-.39-1.78-.07-3.57-.05-5.35-.19-1.73-.14-4.33-1.11-5.59-.63-.67.25-1.93-.28-2.74-.18-1.18.15-2.47-.41-3.55-.15-1.46.34-3.87.05-5.39-.08-2.28-.2-4.44-.34-6.71-.22-1.11.06-2.61-.55-3.32-.36-.65.18-.05-.51-1.01-.19-.32.19-.67.32-1.03.39-.4-.15-.8-.21-1.23-.21,0,.38-.2.52-.61.41,0-.28-2.45-.42-2.45,0-1.38-.07-2.95,0-4.12-.03-.9-.02-2.19.37-3.37.25-1.93-.21-3.73-.21-5.48.17-.72.15-6.19-.42-6.19.02-1.22-.61-3.62,0-5.26-.19-2.3-.28-5.34,0-7.88.03-1.04,0-1.83-.27-2.74-.21-.48.03-3.09.22-3.09-.44-2.24.45-4.47-.5-6.7-.52-2.07-.02-4.18.34-6.23-.1-.99-.22-2.55.27-3.27-.24-.55-.39-1.93.13-2.56.03v-.2c-1.89.38-4.12-.2-6.12,0v-.21c-.98.11-2.25.37-3.06.21,0-.71-7.38-.04-8.18,0-2.05.11-4.15-.18-6.04-.24-2.77-.08-5.55.37-8.32.28-.77-.03-9.47-.52-9.47-.45-1.44.18-2.46-.16-3.94-.24-1.91-.11-3.84-.1-5.75-.12-1.35-.01-2.84.12-4.18-.16-.55-.11-1.08,0-1.67.04-.3.02-.82.09-1.08-.13-.4-.34-.49.13-1.12,0v-.21c-.48-.07-1.09.37-1.83.21v-.21c-1.29.14-2.58.27-3.87.41v-.2c-1.41-.3-4.11-.19-5.45.36-.62.26-.91-.47-1.48-.36-.13.26-.64.34-.87.39-.92.2-2.06.36-3,.22,0-.9-1.63.49-1.63-.41-1.3.26-1.79-.61-1.9-1.76-.22-2.24.59-3.78.27-5.99h.2c-.07-.61-.14-1.22-.2-1.83h.2c-.07-1.02-.14-2.04-.2-3.06,1.86-.33,3.86-.15,5.78-.05,1.65.09,3.86-.08,5.57.26.32.06,2.32.15,2.32-.41.25.08,1.52.23,1.93.15,1.24-.26,3.06,0,4.45,0,8.45-.04,16.06.65,24.4.88v-.2c.71-.13,6.93.77,6.93.2.49-.09,4.69.14,4.69.2,2.71-.42,5.08-.2,7.81-.1,2.23.08,3.94.24,5.65-.1v.2c.97.23,2.09-.13,3.12.02.87.12,1.88.28,2.75.12.78-.14,6.36.15,6.36-.34.32.11,1.26.22,1.53.15.29-.02.53-.14.71-.36.25.14.52.2.82.2v-.2c.81-.22,1.64.09,2.44.19.29.05.43-.09.42-.4h1.63c.64,0,4.28-.25,4.28-.41,1.55.05,3.11.1,4.66.15.87.03,1.81.46,2.68.26v-.21c.54.07,1.09.14,1.63.21v-.21c1.18-.24,2.47.23,3.63.38.58.07,1.24-.19,1.85-.24.78-.06,2.1-.15,2.46-.08,1.01.2,2.99.04,4.36.1.78.04,1.6.11,2.38,0,.47-.06.94.14,1.41.03v-.21c1.11.22,3.05.28,3.87,0v.21c.95-.07,1.9-.14,2.85-.21,0,0,2.78.16,3.26,0v.21c.85.19,1.78-.16,2.61-.07.88.1,1.8.02,2.69,0,1.45-.03,3.04.19,4.18.28,2.6.22,5.68.39,8.46.6v-.2c1.38.46,4.21.43,5.71.2v.41c.75-.13,1.5-.28,2.27-.31.66-.02,1.04.34,1.51.38.41.03,1.82.12,2,.05.74-.29,1.61.14,2.42.16,1.06.02,2.11-.04,3.17-.07,3.32-.11,6.79.61,10.21.5,2.92-.1,6.44-.38,9.34.18,1.18.23,2.43.45,3.91.28,1.24-.13,2.8.51,4.32.26,0,.33,5.13-.26,5.92-.21,2.99.19,5.77.95,8.76.61,0,.5,4.19-.11,4.89,0v.2c.75-.07,1.5-.14,2.24-.2,0,.45,3.77.09,4.28.2v.2c.13-.07.27-.14.41-.2,0,.38,11.95.84,13.35.84,1.16,0,13.56.39,13.56.18.75.25,3.11-1.17,3.88-.37.58.6,1.01.7,1.05,1.71.05,1.25.11,2.5.16,3.75,0,.74-.22,1.51-.01,2.23.13.48.4.36.49.9.23,1.34-.07,2.37.14,3.59h-.2c-.09.36.21,2.73.28,2.73-2.4,0-4.89-.88-7.22-.49,0-.48-2.65.2-2.95-.04,0-.05.01-.1.03-.15.03.06-3.74-.23-3.89-.14ZM256.55,342.15c.16.64.33.58,0,1.02-.41.04-.82.04-1.23,0,0,.26-.12.37-.37.34-1.04-.08-1.47-.05-2.52.17-.57.12-.75-.42-1.18-.23-.07.03-.81.2-.94.16.02.04.05.09.07.13.04-.16-3.89.01-4.43.03-.26-2.57-.43-4.62-.58-7.33-.04-.79-.5-1.4-.45-2.48.06-1.4.17-2.8.12-4.2-.02-.47,0-1.1-.27-1.52-.33-.52-.01-1.36,0-2.11,0-.92-.26-1.69-.31-2.62-.12-2.35-.46-4.99-.13-7.26-.56,0,.23-5.17.23-5.61,0-1.41-.13-3.57-.25-5.22-.09-1.23-1.28-2.38-.94-3.65h.21c-.07-1.36-.13-2.72-.21-4.08h.21c-.07-.41-.13-.81-.21-1.22.32,0-.53-9.07-.6-10.21-.09-1.43-.56-11.81-1.23-11.81-.11-.35.92-.86.96-1.22,0,0-.07-.83-.07-.86-.12-1.29-.26-2.57-.43-3.85-.47-3.56-1.33-7.14-1.33-10.78,2.61.87,5.28-.13,7.88.35.52.1,1.01.23,1.69.18.81-.06,1.09.35,1.79.36,1.9.03,1.54,2.08,1.29,3.59h.2c-.27,1.59.05,3.03.06,4.83,0,1.34.54,2.1.66,3.53.42,4.94.72,9.78.7,14.78,0,.97-.19,10.29.41,10.29-.27,1.63.12,3.57.2,5.3-.04,0-.77,7.75,0,7.75-.45,1.37.02,3.31.07,4.75.08,2.17.14,4.34.16,6.51.03,3.34.06,6.68.44,10.01.07.66.15,1.07.03,1.75-.23,1.3.06,1.99.18,3.2.18,1.84-.03,3.66.24,5.53.04.31.06.74.24,1.01.34.54-.26.34-.34.66ZM263.33,293.36c.18,2.32.66,4.74.78,6.98.15,2.72.03,6.05.91,8.65.05.13.08.14.11.11.06-.31.05-.06,0,0-.03.15-.07.43-.12.93-.16,1.39.25.6.17,1.23-.06.48.14.95.05,1.2-.37.94.3,2.74.34,3.81.05,1.43-.12,2.8.14,4.21.41,2.2.54,4.12-.19,6.18-.98,2.77-2.37,5.43-3.3,8.19-.5,1.47-1.16,2.57-1.8,3.94-.24.51-.84,2.86-1.54,3.42-.04.07-.13.12-.29.12-.18-2.91-.64-4.78-.41-7.54h-.2c.12-2.21-.03-3.97-.2-6.12.24,0,.24-3.07.21-3.88-.08-2.39-.48-4.87-.29-7.21.23-2.74-.04-5.63-.3-8.36-.09-.93.07-1.8.3-2.71-.03.13-.27-1.36-.33-1.49.52,0,.37-1.53.41-1.84h-.2c.46-1.81-.19-4.59-.19-6.59,0-1.97-.17-3.78-.32-5.66-.03-.32-.25-3.03.31-3.03.22-1.4,0-2.85.07-4.25.06-1-.23-1.48-.42-2.35-.11-.47.41-.65.15-1.19-.27-.57,0-1.73-.08-2.53-.41-4.53-1.04-8.95-1.37-13.5-.08-1.12-.18-2.21-.31-3.32-.14-1.12.85-1.38,1.29-2.26.18-.37.27-.77.27-1.18.37-.28.68-.61.95-.99.52-.73.62-1.54,1.05-2.25.35-.57.59-1.21.82-1.83.43-1.13,1.46-1.95,1.46-3.3.62,0,.57,14.47.77,15.11.37,1.17.4,3.06.02,4.23-.29.87.16,1.73.26,2.64.28,2.52.53,5.77.18,8.19h.2c.28,1.1-.21,1.7-.05,2.8.22,1.57.26,3.17.31,4.75.07,2.29.24,4.36.42,6.66ZM268.78,224.1c-1.05.53-1.51,3.19-1.86,4.22-.87,2.58-1.92,5.2-3.16,7.65-.37.74-2.06,6.89-2.93,6.89,0,.85-1.22,4.28-2.04,4.69,0,.65-.82,3.26-1.63,3.26.55,0,.15.31.03.15-.02.05-.03.06-.04.02-.12.22-.4.87-.4,1.06-.13-.07-.27-.14-.41-.2-.37.61.05,1.35-.61,1.83-.27-1.46.08-3.3-.37-4.41-.26-.65-.03-1.67-.48-2.23-.55-.69-.17-2.28-.16-3.17.02-1.14.03-2.47-.18-3.89-.24-1.56-.03-1.53.58-2.81.4-.84.74-1.71,1.04-2.59.44-1.32,1.82-2.89,1.82-4.35,1.29-.65,1.61-3.09,2.25-4.24.74-1.34,2.23-3.81,2.23-5.34.33,0,1.25-1.98,1.45-2.3.4-.66.48-2.27.95-2.66,1.08-.88,1.35-2.99,2.04-4.07.96-1.5.94-3.52,1.94-4.91.77-1.07,1.41-2.56,1.86-3.84.3-.84,1.02-1.62,1.19-2.39.19-.87.73-2.23,1.58-2.65.53-1.87,1.64-3.92,2.68-5.48.49-.73.55-1.58,1.03-2.35.38-.6.99-1.79.99-2.57,1.09-.72,1.91-3.23,2.35-4.49.28-.8,2.71-10.6,3.76-10.6,0,1.19.56,2.81.21,3.87.7,0,.02,1.43.61,1.43-.18.91.02.79.18,1.49.28,1.24-.3,2.59.04,3.8.43,1.55.63,3.6.8,5.32h-.2c-.07.36.39.76.46,1.1.12.62-.24.54-.48.98-.4.69-.91,1.39-1.17,2.12-.34.93-1.09,1.58-1.31,2.43-.24.91-.96,1.61-1.44,2.39-.53.86-.7,1.61-1.27,2.45-.35.53-.57,1.13-.91,1.67-.64,1.03-1.12,2.08-1.6,3.19-1.11,2.52-2.57,4.66-3.36,7.23-.38,1.22-1.01,2-1.41,3.11-.49,1.35-1.12,2.66-1.75,3.92-.85,1.72-2.87,3.25-2.87,5.3ZM281.07,292.81s-2.2-.21-1.93-.43c-.43.35-.32.53-1.13.22v.41c-.7-.04-4.21.3-4.27-.07-.17-.99-.33-1.97-.5-2.96-.5-2.97-.48-5.98-.8-8.97-.45-4.19.03-8.34-.3-12.54-.32-3.99-.5-7.98-.64-11.98-.15-4.25-.8-8.49-.85-12.74-.05-3.57.24-7.19.15-10.74-.04-1.76-.34-3.48-.47-5.22-.12-1.71,1.25-3.85,1.93-5.38,1.36-3.06,3.31-5.87,4.6-8.95.37-.87.7-1.79,1.11-2.63.73.44-.04,2.17-.03,2.88.02,1.33.12,2.66.22,3.99.2,2.64.48,5.26.84,7.89.38,2.77.58,5.49.58,8.28,0,2.07.57,4.71.2,6.73h-.2c-.67,2.93.32,6.7.49,9.57.13,2.15.07,4.31.12,6.47.02.91.02,1.84.17,2.74.09.54-.09,1.14.04,1.61h.2c.23.81-.26,2.24-.2,2.65.35,0,.68,13.76.84,15.16.09.75-.65,7.67-.17,7.67.07.67.02,1.21.13,1.94.12.8.17,1.6.21,2.4.02.38.04.77.05,1.15.02.41-.4.37-.4.82ZM287.99,278.39c-.61.39-.28.91-.19,1.68.22,1.84-.1,3.27-1.17,4.75-.69.96-1.09,2.16-1.97,3.04-.29.29-.92,1.89-1.35,1.89-.12-1.37-.09-2.78-.36-4.13-.17-.85-.15-1.43-.04-2.39-.15,0-.42-.44-.43-.57-.03-2.16.75-4.37.52-6.29-.17-1.47.08-2.86-.04-4.33-.2-2.38-.75-4.57-.68-6.99.09-2.63.15-5.26.25-7.9.1-2.74-.27-5.45-.18-8.18.16-5.11-.73-10.17-.77-15.29-.02-2.27-.89-4.29-1.12-6.53-.26-2.6-.04-5.2-.04-7.81,0-2.75.07-5.51-.27-8.25-.31-2.54-.77-4.23.35-6.69.84-1.84,2.38-3.32,3.13-5.15.25-.6,1.02-3.27,2.02-2.96-.98-.31.16.05,0,0,1.54.48.53,4.67.46,5.75-.18,2.68.45,5.37.5,8.05.11,5.76-.08,11.55.02,17.32.11,6.54-.11,12.8.49,19.1h-.21c.46,2.77.02,5.96.34,8.8.44,3.79.36,7.63.76,11.42.26,2.46.21,5.09.4,7.64.07,1.07.66,3.31-.43,4.01ZM210,310.64s0,0,0,0c0,0,0,0,0,0,0,0,0,0,0,0ZM161.54,34.08c.36,2.94,5.72-.9,6.88-1.22,1.53-.42,2.9-.54,4.45-.36.88.1,1.47-.02,2.13-.59.59-.51,1.42-1.4,1.33-2.25-.08-.69-1.1-.85-1.46-1.42-.01-.02.14.22,0,0-.01-.02-.02-.04-.03-.06.05.08.06.26.06.35-.99-.05-1.81-.64-2.84-.61-.9.02-1.74.35-2.55.7-1.33.58-2.64,1.18-3.97,1.76-.99.43-3.05.51-3.42,1.24-.66,1.32-.81,1.19-.38,2.46h-.2ZM153.27,32.04s0,0,0,0c.36.19,1.08.56,0,0ZM153.26,32.03s0,0,.01,0c-.26-.13-.18-.09-.01,0ZM150.4,35.92c.69.17,1.5.71,2.18.73,1.05.02,2.01-1.05,3.05-.73.79-1.74-.72-3.03-2.35-3.87,0,0-.01,0-.02,0-2.54-1.3-5.13-1.95-7.87-1.08-2.2.69-1.06,2.44.29,3.62.8.7.72.66,1.85.81.96.12,1.92.3,2.86.54ZM172.88,36.33c-.71-.15-1.56.06-2.25.18-2.09.37-4.61.92-6.3,2.28-.54.43-.96,1.08-.52,1.73.9,1.32,2.82,1.07,4.17.85,1.39-.23,2.82-.3,3.98-1.16l1.5-1.26s.08,0,.12,0c-.35-.17.53-1.37.2,0,.34-1.41.96-2.26-.89-2.65ZM148.1,42s0,0,0,0c-.15-.06-.23-.09,0,0ZM148.1,42s0,0,0,0c.91.36.31.12,0,0ZM148.1,42c2.18.86,5.42.76,7.41-.47,1.02-.63.27-2.04-.55-2.44-.89-.44-1.78.7-2.84.46-1.49-.34-3.13-.96-4.68-.74-2.12.3-.56,2.72.65,3.19,0,0,0,0,0,0ZM156.68,45.1c.52.76,1.33.82,2.03.5.51-.23.87-2.14,1-2.14-.2-1.59-1.22-2.15-2.54-2.23.27.04-.19.12-.29.04.08.06.39-.02.17-.04.04,0,.08,0,.12,0-.06,0-.15-.02-.31-.02.1.8-.63.68-.23,1.77.24.64-.27,1.64.06,2.11ZM169.06,46.5l-.02.25c-.06-.19-.07-.35-.09-.47.05.08.08.15.11.22l.02-.19c-.35-1.65-3.97-.23-4.7.41-.92.8-.35,2.69.59,3.24,1,.58,1.68-.64,2.63-.2-.75-1.16,2.21-1.64,1.47-3.26ZM173.39,45.41s0,0,0,0c.34,0,2.3.06,0,0ZM173.38,45.41s0,0,0,0c-.07,0-.06,0,0,0ZM173.39,45.41s0,0,0,0c-4.22-.11.66,7.77,3.87,5.63,1.99-1.33-2.36-5.59-3.87-5.63ZM160.79,48.19c.07,0,.13,0,.13-.04-.29-.04-.23.02-.13.04ZM155.39,51.43c1.15.75,2-.33,3.16-.22.8.08,1.6.25,2.41.2.96-.05,1.68-.52,1.59-1.56-.09-.99-1.62-.81-1.62-1.7,0,.05-.07.05-.13.04-.13-.02-.26-.1.13-.04-1.68-.24-3.26-.63-5.01-.67-2.46-.06-2.29,2.8-.53,3.95ZM152.25,49.26s.74.9,0,0h0ZM152.25,49.26c-.84-1.03-4.17.15-4.17,1.54-.99.66-.66,1.78-.37,2.72.27.83.92.66,1.66,1.05.59.31,2.59-.97,2.87-1.58.43-.95.74-2.85.01-3.74ZM171.44,51.84c-.89.1-1.57.73-2.45.85-1.22.17-2.33.19-3.55.49-1.29.32-2.8-.12-4.15.03-1.11.13-2.22.17-3.34.21,1.35-.05-.5.02,0,0-2.07.08-3.77-.69-5.23,1.13-.79.98,1.06,2.54,2.11,2.86,2.08.64,4.25-.08,6.37.58.9.28,1.96.61,2.87.18.39-.2.7-.48.94-.85.45.15.9.18,1.37.11,1.13-.18,2.06-.9,3.1-1.33,1-.41,1.18-.83,1.96-1.41.66-.49,1.85-3.06,0-2.85ZM194.77,64.26c-.12-.41.03-.18-.2-.41.23.23,0,.14,0,0-.16.3-.1.44.2.41ZM137.63,69.68c-.16-.54.04-.23-.27-.54.14.14.16.19.14.18-.01.02-.14-.07-.14-.18-.22.4-.13.58.27.54ZM137.5,69.32s-.02-.07-.14-.18c0,.08.1.17.14.18ZM193.32,66.76s-.22.07-.17-.06c-.18.54.77-2.31-.21.61.22,0,.55-.41.38-.56ZM193.14,66.7c.09,0,.14.02.17.06.02-.03,0-.06-.17-.06ZM221.68,144.18c.27-.11.25.09.12.06.04.04.02.08-.12-.06.2.19.11.12.41.2.03-.3-.11-.37-.41-.2ZM229.84,157.43c-.17.3-.1.44.2.41-.12-.41.03-.18-.2-.41.23.23,0,.14,0,0ZM119.14,190.77c.07.02.13.03.16.04,0,0,0,0,0,0-.06-.03-.13-.04-.19-.05.01,0,.02,0,.03.01ZM118.93,190.66s.06.06.13.08c.01,0,.03,0,.04.01-.09-.03-.17-.07-.17-.09ZM117.36,193.46c.62.09,1.26-.12,1.85-.29,1.24-.35,3.07.78,2.84-1.33-.13-1.21-1.99-.77-3.12-1.17.25.09.34.13.36.14,0,0,.02,0,.02,0,0,0-.02,0-.02,0,.02.02-.06,0-.16-.04-.03,0-.05-.01-.08-.02-.86-.15-1.91.82-2.6,1.23-.67.4.39,1.4.89,1.48ZM113.8,199.44c.8-.86,1.47-.75,2.18-1.35.17-.14,2.76.88,3.04,1.08.53.38,1.31.2,1.89.12.19-.03.3-.06.37-.09-.13-.06-.16-.24-.11-.39-.02-.23,0-.51.02-.74-.77-2.09-3.77-2.49-5.82-2.08-.75.15-6.22,1.92-4.98,3.61.77,1.04,2.72.6,3.42-.15ZM121.18,198.77s-.01.02-.01.03c.02.18.05.32.12.39.05-.03.08-.05.08-.08,0,.04,0,.08,0,.12.03-1.87-.12-1.7-.19-1.16.11.3.18.65.18,1.03-.02-.09-.2-.19-.19-.32ZM121.27,199.19s.05.04.1.03c-.04,0-.06-.01-.09-.04,0,0,0,0,0,0ZM106.86,202.88s0,0,0,0c.02.05.03.05,0,0ZM106.33,201.75c.09.18.44.94.52,1.12,0,0,0,0,0,0-.32-.7-.48-1.02-.52-1.12ZM100.12,206.58c1.52.39,1.15-1.21,2.19-1.9.84-.56,1.72-1.14,2.67-.44,1.2.89,2.65.29,1.88-1.36,0,0,0,0,0,0-1.24-2.65-7.22-1.04-7.88,1.42-.22.84.24,2.05,1.14,2.28ZM151.78,207.72c3.01,0-.3-3.53-1.57-3.83,0,0,0,0,0,0-1.09-.26-.8,2.09-.69,2.66.19.9,1.5,1.17,2.26,1.18ZM150.2,203.89s0,0,0,0c.06.01.4.09,0,0ZM120.47,204.44s0,.05.01.08c.02,0,.04.02.06.02-.05-.04-.06-.07-.07-.1ZM120.48,204.4s.03-.06.08-.08c-.05-.01-.07.03-.08.08ZM110.98,209.42c.66-.33,1,.25,1.49-.71.35-.69.53-.97.91-1.53.43-.62,2.2-1.74,2.98-1.33.44.23,2.77.04,2.77.72,1.41.33,1.6-.87,1.47-1.93.02.28-.09.08-.12-.11-.7-.21-1.65-1-2.71-.99-1.24.01-2.54.32-3.64.32-1.68.01-2.78,1.25-3.56,2.58-.31.53-.78,1.02-.5,1.66.18.43.91.85.91,1.33ZM120.6,204.63c0-.07-.02-.17-.04-.31.02.1.03.21.04.31ZM126.25,209.9s-.07-.06-.17-.14h0c.05.08.14.16.17.14ZM126.27,209.62c-.24-.06-.24.04-.18.14,0,0,0,0,0,0,0-.1.04-.18.18-.14ZM119.48,207.94c-1.31.11-2.46,1.45-3.42,2.23-.8.64-1.8,2.1-1.34,2.98.65,1.23,1.58.33,2.3-.29,1.41-1.22,4.62-4.18,5.67-1.58.12.29,2.14,1.07,2.76.88,1.43-.45,1.06-1.37.81-2.54.19.93-.18.43-.18.14,0,0,0,0,0,0-.48-.36-1.86-1.38-2.16-1.57-.81-.49-1.67-.39-2.55-.82,0,.59-1.55.53-1.9.56ZM106.29,210.24c-.8.4-1.17-.81-2.04-.61,0,.43-1.77.66-2.06.74-.95.27-1.55.85-2.09,1.68-.58.91-.26,2.11.91,1.64.88-.35,1.42-1.12,2.34-1.49.48-.2,1.6-.39,2.01.03.32.33.43.21.91.45.34.17.8-.09,1.02.01,0,.67.88-.37,1.05-.5.62-.44.14-.64-.03-1.34.01.05.01.07.02.1.04.05.05.1,0,.16,0,0,0,0,0,0-.03.04-.1-.05-.13-.13.04.08.11.16.13.13.01-.02.01-.08,0-.16-.02-.03-.07-.06-.11-.08-.01.01-.02.02-.02.04,0-.02,0-.03.02-.04-.47-.25-1.94-.35-1.94-.63ZM108.23,210.87s0,0,0,0c0,0,0,0,0,0,0,0,0,0,0,0ZM108.01,215.24c1.54,1.33,2.68-.98,4.24,0,.43.27,1.9.19,2.12-.41.3-.83-.33-1.22-.33-1.94,0,.83-.27-.07,0,0-.7-.17-2.43-.07-3.37.01-.78.07-4.18,1.03-2.66,2.34ZM153.33,216.34s0-.02,0-.04c-.03,0-.05,0-.08-.02.05.02.07.04.09.05ZM153.33,216.34s-.02.02-.04.02c.04,0,.06,0,.04-.02ZM149.71,216.76c0-.86,1.45-.62,1.96-.59.71.03,1.14-.93,1.51.18-.1-.3.11-.14.14-.04,3.3.92,1.03-4.05-.85-2.39-.16.14-2.45.62-2.51.6-.65-.25-1.38.45-2.08.82.04,1.15,1.1,1.18,1.84,1.43ZM121.48,218.06c-.07.02-.14.02-.22.05.14.11.17.03.22-.05ZM121.86,215.63c-.84.11-.6-.2-1.51.14-.38.15-2.14.53-2.14.52-.45.49-1.03.86-1.54,1.28,0,2.85,3.71.47,4.89.41-.04,0-.14,0-.24.01.06,0,.14,0,.24-.01-.04,0-.07.04-.09.07,1.49-.36,2.02.4,3.36.74.97.25,1.76-.51,2.06-1.33.61-1.65-2.56-1.53-3.43-1.73-.53-.12-.96-.19-1.62-.11ZM.47,254.07c.23.23,0,.14,0,0-.16.3-.1.44.2.41-.12-.41.03-.18-.2-.41Z"/>
</svg>